<svg width="265" height="57" viewBox="0 0 265 57" fill="none" xmlns="http://www.w3.org/2000/svg">
<path d="M209.476 16.6571V47.7V47.9524H210.99C212.404 45.5295 215.449 44.419 216.795 44.1666H257.428C259.659 44.1666 261.467 42.3587 261.467 40.1285V16.6571C261.467 14.4269 259.659 12.619 257.428 12.619H213.514C211.284 12.619 209.476 14.4269 209.476 16.6571Z" fill="#FBC108"/>
<rect x="233.2" y="26.7523" width="2.77619" height="2.01905" fill="white"/>
<path d="M177.99 44.5562C181.839 46.7665 185.403 47.6978 189.277 47.2259C193.201 46.7416 195.287 43.2896 193.921 39.8501C193.288 40.4088 192.754 41.0173 192.109 41.4271C187.924 44.0595 183.739 43.9478 179.455 41.3774C175.221 38.8318 172.638 32.0272 173.93 26.8616C175.047 22.3666 177.183 18.9518 181.455 17.0644C185.378 15.326 190.395 15.8102 193.648 19.7093C193.797 19.8955 194.008 20.0445 194.48 20.4667C194.48 19.1132 194.493 18.0702 194.48 17.0395C194.468 15.9344 194.915 15.5867 196.032 15.8723C197.324 16.2076 198.652 16.3938 199.981 16.6049C201.123 16.7788 201.732 17.3376 201.707 18.5544C201.57 26.6753 201.67 34.7962 201.235 42.9047C200.987 47.5736 197.883 51.5471 192.767 52.5653C187.874 53.5339 183.156 53.1117 178.574 51.1498C177.295 50.6034 176.537 49.8584 177.108 48.2814C177.518 47.1762 177.667 45.9718 177.99 44.5562ZM180.685 29.9783C180.858 31.0338 180.883 32.1514 181.243 33.1447C182.224 35.8641 184.137 37.6895 187.117 37.8881C189.563 38.0496 191.55 37.1058 192.928 34.8707C194.418 32.4618 194.667 29.9535 194.033 27.321C192.928 22.6397 188.085 20.4915 184.025 23.0371C181.616 24.552 180.598 27.0479 180.685 29.9783Z" fill="white"/>
<path d="M110.105 44.6803C107.609 44.6803 105.312 44.6803 102.903 44.6803C102.903 32.5859 102.903 20.566 102.903 8.42188C104.965 8.42188 106.927 8.42188 108.876 8.42188C110.08 8.42188 110.105 9.229 110.105 10.123C110.093 15.9095 110.105 21.6959 110.105 27.4948C110.105 28.0536 110.105 28.6124 110.105 29.1215C114.551 30.1148 117.742 27.6935 117.941 23.3474C117.965 22.9377 118.003 22.5155 117.99 22.1057C117.953 21.1247 118.4 20.715 119.393 20.7522C120.834 20.8019 122.287 20.8019 123.739 20.7522C124.745 20.7274 125.118 21.0999 125.043 22.1305C124.758 26.1661 123.777 29.8292 120.225 32.3251C119.952 32.5114 119.853 33.3806 120.039 33.7158C121.728 36.6587 123.516 39.5395 125.242 42.4576C125.614 43.0785 125.863 43.7614 126.31 44.73C123.727 44.73 121.529 44.792 119.331 44.6803C118.884 44.6555 118.35 43.9849 118.065 43.5007C116.649 41.0545 115.271 38.5834 113.942 36.1C113.16 34.6471 111.881 35.1687 110.801 35.3301C110.49 35.3798 110.155 36.4476 110.143 37.0561C110.056 39.5395 110.105 42.023 110.105 44.6803Z" fill="white"/>
<path d="M98.4456 30.8723C97.949 36.9816 95.093 41.427 89.6666 43.9477C85.1716 46.0462 80.7138 45.5992 76.5292 42.8674C72.1459 40.0115 69.9108 35.7896 69.6873 30.7482C69.3147 22.3665 75.5358 14.8292 84.6128 15.1024C91.79 15.3259 96.5706 20.4791 98.1725 26.6877C98.5326 28.0536 98.3711 29.5561 98.4456 30.8723ZM76.0573 30.0404C76.3305 31.2821 76.405 32.6108 76.8893 33.7656C79.0375 38.8567 84.6128 40.2101 88.4622 37.3914C91.3802 35.2556 92.2618 32.1886 91.8893 28.7242C91.343 23.6828 86.7362 19.8706 81.2353 21.9567C78.0689 23.1488 76.2684 26.0544 76.0573 30.0404Z" fill="white"/>
<path d="M39.0285 29.9163C38.5691 22.0686 45.4731 15.0776 53.296 15.028C61.2554 14.9907 68.0601 22.3914 67.6628 30.6613C67.2902 38.4842 61.1809 45.1895 53.2339 45.2143C45.2993 45.2392 38.6684 38.2483 39.0285 29.9163ZM53.3208 21.398C48.7264 21.1621 45.3241 25.4336 45.3117 29.9784C45.2868 34.5976 48.6271 38.807 53.3208 38.8195C57.6793 38.8319 61.4169 34.8583 61.2679 30.0529C61.1064 25.0611 58.0642 21.398 53.3208 21.398Z" fill="white"/>
<path d="M150.921 21.0751C152.349 20.0693 153.466 19.2622 154.596 18.4923C157.911 16.2572 161.45 15.5742 165.275 17.0395C168.069 18.1073 169.633 20.268 169.745 23.1488C170.031 30.1148 170.093 37.0809 170.254 44.047C170.279 44.9659 169.857 45.4005 168.963 45.3881C167.411 45.3757 165.858 45.3633 164.306 45.326C163.027 45.2887 163.052 44.3326 163.052 43.4386C163.077 38.8814 163.139 34.3367 163.102 29.7796C163.089 28.2523 162.729 26.7249 162.642 25.1852C162.543 23.484 160.941 22.6396 159.588 22.4037C156.421 21.8449 154.012 23.4716 151.864 25.4584C151.33 25.9551 151.119 27.0354 151.107 27.8549C151.045 33.1322 151.02 38.4096 151.107 43.6869C151.132 45.1025 150.647 45.5123 149.331 45.4005C148.102 45.3012 146.848 45.3012 145.606 45.326C144.401 45.3508 143.942 44.7921 143.979 43.6248C144.054 41.2531 144.066 38.869 144.128 36.4849C144.277 30.9592 144.352 25.4335 143.085 19.9948C142.8 18.7655 142.973 17.9087 144.6 17.8838C145.767 17.8714 146.935 17.5237 148.089 17.2754C150.039 16.8656 150.312 17.027 150.647 19.0138C150.772 19.5974 150.809 20.1562 150.921 21.0751Z" fill="white"/>
<path d="M137.982 34.4982C137.982 37.5032 137.945 40.4958 137.994 43.5008C138.019 44.817 137.56 45.413 136.194 45.3261C135.014 45.2516 133.81 45.2268 132.63 45.3261C131.202 45.4503 130.78 44.7177 130.817 43.4883C130.854 41.8865 130.991 40.2847 130.966 38.6829C130.842 32.6977 130.68 26.7002 130.519 20.7151C130.507 20.0942 130.445 19.4733 130.395 18.8525C130.308 17.7846 130.78 17.3748 131.86 17.4121C133.561 17.4742 135.275 17.5114 136.976 17.4121C138.106 17.35 138.416 17.7598 138.379 18.8276C138.181 24.0429 138.019 29.2706 137.858 34.4858C137.882 34.4982 137.932 34.4982 137.982 34.4982Z" fill="white"/>
<path d="M242.064 39.6238C244.384 39.9709 247.868 39.744 249.99 38.7436C252.112 37.7432 253.89 36.136 255.098 34.1252C256.307 32.1144 256.892 29.7904 256.78 27.447C256.668 25.1037 255.863 22.8462 254.468 20.96C253.073 19.0739 251.15 17.6439 248.942 16.8508C246.734 16.0576 244.34 15.937 242.064 16.5042C239.787 17.0714 237.73 18.3009 236.152 20.0373C234.575 21.7736 233.547 23.9388 233.2 26.2591H236.152C236.418 24.4843 237.01 23.2409 238.216 21.9128C239.423 20.5847 240.997 19.6442 242.738 19.2104C244.479 18.7765 246.31 18.8688 247.999 19.4754C249.688 20.0821 251.159 21.1759 252.226 22.6186C253.293 24.0612 253.908 25.788 253.994 27.5804C254.08 29.3728 253.632 31.1504 252.708 32.6885C251.783 34.2265 250.424 35.4558 248.8 36.221C247.177 36.9862 245.07 37.3655 243.295 37.1L242.064 39.6238Z" fill="white"/>
<path fill-rule="evenodd" clip-rule="evenodd" d="M7.06689 4.79523C7.06689 4.20634 7.36975 3.02856 8.58118 3.02856H11.8621C12.2828 3.11269 13.124 3.5838 13.124 4.79523V18.9286C15.9002 16.4048 24.4812 12.8714 32.0526 19.1809C38.3621 24.9857 39.4994 34.9449 32.0526 41.8952C28.2669 45.4286 19.1812 47.9524 11.8621 40.8857C10.7059 39.7693 8.3288 37.1 7.57166 32.3048L7.06689 4.79523ZM22.7143 39.6237C27.5928 39.6237 31.5476 35.6689 31.5476 30.7904C31.5476 25.9119 27.5928 21.9571 22.7143 21.9571C17.8358 21.9571 13.881 25.9119 13.881 30.7904C13.881 35.6689 17.8358 39.6237 22.7143 39.6237Z" fill="#FBC108"/>
<mask id="path-11-outside-1_372_366" maskUnits="userSpaceOnUse" x="211.495" y="21.6381" width="23" height="17" fill="black">
<rect fill="white" x="211.495" y="21.6381" width="23" height="17"/>
<path d="M212.555 37.6169V35.3909L219.085 29.5715C219.594 29.1192 219.947 28.6917 220.145 28.2889C220.343 27.8861 220.442 27.4974 220.442 27.1229C220.442 26.6141 220.332 26.1618 220.113 25.7661C219.894 25.3633 219.59 25.0453 219.201 24.8121C218.82 24.5789 218.378 24.4623 217.876 24.4623C217.346 24.4623 216.876 24.5859 216.467 24.8333C216.064 25.0735 215.749 25.3951 215.523 25.7979C215.297 26.2007 215.191 26.6353 215.205 27.1017H212.576C212.576 26.0841 212.802 25.1972 213.255 24.4411C213.714 23.6849 214.343 23.0984 215.142 22.6815C215.947 22.2645 216.876 22.0561 217.929 22.0561C218.905 22.0561 219.781 22.2751 220.558 22.7133C221.335 23.1443 221.947 23.745 222.392 24.5153C222.837 25.2785 223.06 26.1583 223.06 27.1547C223.06 27.8825 222.961 28.4938 222.763 28.9885C222.565 29.4831 222.268 29.9389 221.873 30.3559C221.484 30.7728 221 31.2357 220.42 31.7445L215.788 35.8467L215.555 35.2107H223.06V37.6169H212.555ZM229.837 37.6381V35.1153H223.074V32.7303L227.961 22.3741H230.876L225.989 32.7303H229.837V28.7553H232.423V32.7303H233.854V35.1153H232.423V37.6381H229.837Z"/>
</mask>
<path d="M212.555 37.6169V35.3909L219.085 29.5715C219.594 29.1192 219.947 28.6917 220.145 28.2889C220.343 27.8861 220.442 27.4974 220.442 27.1229C220.442 26.6141 220.332 26.1618 220.113 25.7661C219.894 25.3633 219.59 25.0453 219.201 24.8121C218.82 24.5789 218.378 24.4623 217.876 24.4623C217.346 24.4623 216.876 24.5859 216.467 24.8333C216.064 25.0735 215.749 25.3951 215.523 25.7979C215.297 26.2007 215.191 26.6353 215.205 27.1017H212.576C212.576 26.0841 212.802 25.1972 213.255 24.4411C213.714 23.6849 214.343 23.0984 215.142 22.6815C215.947 22.2645 216.876 22.0561 217.929 22.0561C218.905 22.0561 219.781 22.2751 220.558 22.7133C221.335 23.1443 221.947 23.745 222.392 24.5153C222.837 25.2785 223.06 26.1583 223.06 27.1547C223.06 27.8825 222.961 28.4938 222.763 28.9885C222.565 29.4831 222.268 29.9389 221.873 30.3559C221.484 30.7728 221 31.2357 220.42 31.7445L215.788 35.8467L215.555 35.2107H223.06V37.6169H212.555ZM229.837 37.6381V35.1153H223.074V32.7303L227.961 22.3741H230.876L225.989 32.7303H229.837V28.7553H232.423V32.7303H233.854V35.1153H232.423V37.6381H229.837Z" fill="white"/>
<path d="M212.555 37.6169H212.404V37.7683H212.555V37.6169ZM212.555 35.3909L212.454 35.2778L212.404 35.323V35.3909H212.555ZM219.085 29.5715L218.984 29.4583L218.984 29.4584L219.085 29.5715ZM220.145 28.2889L220.281 28.3556L220.145 28.2889ZM220.113 25.7661L219.98 25.8384L219.98 25.8394L220.113 25.7661ZM219.201 24.8121L219.122 24.9413L219.123 24.9419L219.201 24.8121ZM216.467 24.8333L216.544 24.9633L216.545 24.9629L216.467 24.8333ZM215.523 25.7979L215.391 25.7237L215.523 25.7979ZM215.205 27.1017V27.2531H215.361L215.356 27.0971L215.205 27.1017ZM212.576 27.1017H212.425V27.2531H212.576V27.1017ZM213.255 24.4411L213.125 24.3624L213.125 24.3633L213.255 24.4411ZM215.142 22.6815L215.072 22.547L215.071 22.5472L215.142 22.6815ZM220.558 22.7133L220.484 22.8452L220.485 22.8457L220.558 22.7133ZM222.392 24.5153L222.261 24.591L222.261 24.5916L222.392 24.5153ZM221.873 30.3559L221.763 30.2516L221.762 30.2526L221.873 30.3559ZM220.42 31.7445L220.32 31.6307L220.32 31.6311L220.42 31.7445ZM215.788 35.8467L215.646 35.8988L215.722 36.1072L215.889 35.96L215.788 35.8467ZM215.555 35.2107V35.0592H215.338L215.413 35.2628L215.555 35.2107ZM223.06 35.2107H223.211V35.0592H223.06V35.2107ZM223.06 37.6169V37.7683H223.211V37.6169H223.06ZM212.707 37.6169V35.3909H212.404V37.6169H212.707ZM212.656 35.5039L219.185 29.6845L218.984 29.4584L212.454 35.2778L212.656 35.5039ZM219.185 29.6846C219.702 29.2254 220.071 28.7827 220.281 28.3556L220.009 28.2221C219.823 28.6006 219.485 29.013 218.984 29.4583L219.185 29.6846ZM220.281 28.3556C220.487 27.9361 220.593 27.5247 220.593 27.1229H220.29C220.29 27.4701 220.198 27.836 220.009 28.2221L220.281 28.3556ZM220.593 27.1229C220.593 26.5917 220.478 26.1136 220.245 25.6927L219.98 25.8394C220.186 26.21 220.29 26.6365 220.29 27.1229H220.593ZM220.246 25.6937C220.014 25.2675 219.691 24.9295 219.279 24.6822L219.123 24.9419C219.489 25.161 219.774 25.4591 219.98 25.8384L220.246 25.6937ZM219.28 24.6828C218.872 24.4334 218.402 24.3108 217.876 24.3108V24.6137C218.354 24.6137 218.767 24.7243 219.122 24.9413L219.28 24.6828ZM217.876 24.3108C217.322 24.3108 216.824 24.4405 216.388 24.7036L216.545 24.9629C216.929 24.7313 217.371 24.6137 217.876 24.6137V24.3108ZM216.389 24.7032C215.964 24.9568 215.63 25.2975 215.391 25.7237L215.655 25.872C215.868 25.4926 216.164 25.1902 216.544 24.9633L216.389 24.7032ZM215.391 25.7237C215.151 26.1508 215.039 26.6126 215.054 27.1062L215.356 27.0971C215.343 26.6579 215.443 26.2505 215.655 25.872L215.391 25.7237ZM215.205 26.9502H212.576V27.2531H215.205V26.9502ZM212.728 27.1017C212.728 26.1071 212.949 25.248 213.385 24.5188L213.125 24.3633C212.656 25.1464 212.425 26.061 212.425 27.1017H212.728ZM213.384 24.5197C213.829 23.7876 214.437 23.2201 215.212 22.8157L215.071 22.5472C214.249 22.9767 213.599 23.5823 213.125 24.3624L213.384 24.5197ZM215.211 22.8159C215.992 22.4118 216.897 22.2075 217.929 22.2075V21.9046C216.856 21.9046 215.902 22.1172 215.072 22.547L215.211 22.8159ZM217.929 22.2075C218.881 22.2075 219.731 22.421 220.484 22.8452L220.632 22.5813C219.83 22.1293 218.928 21.9046 217.929 21.9046V22.2075ZM220.485 22.8457C221.238 23.2634 221.829 23.8445 222.261 24.591L222.523 24.4395C222.064 23.6455 221.433 23.0252 220.632 22.5808L220.485 22.8457ZM222.261 24.5916C222.691 25.3288 222.908 26.1816 222.908 27.1547H223.211C223.211 26.1349 222.983 25.2282 222.523 24.439L222.261 24.5916ZM222.908 27.1547C222.908 27.8699 222.811 28.4607 222.622 28.9322L222.904 29.0447C223.111 28.5269 223.211 27.8952 223.211 27.1547H222.908ZM222.622 28.9322C222.432 29.4077 222.146 29.8475 221.763 30.2516L221.982 30.4601C222.39 30.0304 222.698 29.5585 222.904 29.0447L222.622 28.9322ZM221.762 30.2526C221.377 30.6648 220.897 31.1241 220.32 31.6307L220.52 31.8582C221.102 31.3472 221.59 30.8808 221.983 30.4591L221.762 30.2526ZM220.32 31.6311L215.688 35.7333L215.889 35.96L220.521 31.8578L220.32 31.6311ZM215.93 35.7945L215.697 35.1585L215.413 35.2628L215.646 35.8988L215.93 35.7945ZM215.555 35.3621H223.06V35.0592H215.555V35.3621ZM222.908 35.2107V37.6169H223.211V35.2107H222.908ZM223.06 37.4654H212.555V37.7683H223.06V37.4654ZM229.837 37.6381H229.685V37.7895H229.837V37.6381ZM229.837 35.1153H229.988V34.9638H229.837V35.1153ZM223.074 35.1153H222.923V35.2667H223.074V35.1153ZM223.074 32.7303L222.937 32.6656L222.923 32.6963V32.7303H223.074ZM227.961 22.3741V22.2226H227.865L227.824 22.3094L227.961 22.3741ZM230.876 22.3741L231.013 22.4387L231.114 22.2226H230.876V22.3741ZM225.989 32.7303L225.852 32.6656L225.75 32.8817H225.989V32.7303ZM229.837 32.7303V32.8817H229.988V32.7303H229.837ZM229.837 28.7553V28.6038H229.685V28.7553H229.837ZM232.423 28.7553H232.575V28.6038H232.423V28.7553ZM232.423 32.7303H232.272V32.8817H232.423V32.7303ZM233.854 32.7303H234.006V32.5788H233.854V32.7303ZM233.854 35.1153V35.2667H234.006V35.1153H233.854ZM232.423 35.1153V34.9638H232.272V35.1153H232.423ZM232.423 37.6381V37.7895H232.575V37.6381H232.423ZM229.988 37.6381V35.1153H229.685V37.6381H229.988ZM229.837 34.9638H223.074V35.2667H229.837V34.9638ZM223.225 35.1153V32.7303H222.923V35.1153H223.225ZM223.211 32.7949L228.098 22.4387L227.824 22.3094L222.937 32.6656L223.211 32.7949ZM227.961 22.5255H230.876V22.2226H227.961V22.5255ZM230.739 22.3094L225.852 32.6656L226.126 32.7949L231.013 22.4387L230.739 22.3094ZM225.989 32.8817H229.837V32.5788H225.989V32.8817ZM229.988 32.7303V28.7553H229.685V32.7303H229.988ZM229.837 28.9067H232.423V28.6038H229.837V28.9067ZM232.272 28.7553V32.7303H232.575V28.7553H232.272ZM232.423 32.8817H233.854V32.5788H232.423V32.8817ZM233.703 32.7303V35.1153H234.006V32.7303H233.703ZM233.854 34.9638H232.423V35.2667H233.854V34.9638ZM232.272 35.1153V37.6381H232.575V35.1153H232.272ZM232.423 37.4866H229.837V37.7895H232.423V37.4866Z" fill="white" mask="url(#path-11-outside-1_372_366)"/>
<mask id="path-13-outside-2_372_366" maskUnits="userSpaceOnUse" x="236.229" y="25.938" width="10" height="15" fill="black">
<rect fill="white" x="236.229" y="25.938" width="10" height="15"/>
<path d="M238.271 39.938L243.028 28.3143H236.996V26.1277H245.503V28.3143L240.765 39.938H238.271Z"/>
</mask>
<path d="M238.271 39.938L243.028 28.3143H236.996V26.1277H245.503V28.3143L240.765 39.938H238.271Z" fill="white"/>
<path d="M238.271 39.938L238.131 39.8806L238.046 40.0894H238.271V39.938ZM243.028 28.3143L243.168 28.3717L243.254 28.1629H243.028V28.3143ZM236.996 28.3143H236.844V28.4658H236.996V28.3143ZM236.996 26.1277V25.9763H236.844V26.1277H236.996ZM245.503 26.1277H245.654V25.9763H245.503V26.1277ZM245.503 28.3143L245.643 28.3715L245.654 28.344V28.3143H245.503ZM240.765 39.938V40.0894H240.867L240.905 39.9951L240.765 39.938ZM238.411 39.9953L243.168 28.3717L242.888 28.257L238.131 39.8806L238.411 39.9953ZM243.028 28.1629H236.996V28.4658H243.028V28.1629ZM237.147 28.3143V26.1277H236.844V28.3143H237.147ZM236.996 26.2791H245.503V25.9763H236.996V26.2791ZM245.351 26.1277V28.3143H245.654V26.1277H245.351ZM245.362 28.2572L240.625 39.8808L240.905 39.9951L245.643 28.3715L245.362 28.2572ZM240.765 39.7866H238.271V40.0894H240.765V39.7866Z" fill="white" mask="url(#path-13-outside-2_372_366)"/>
<ellipse cx="134.519" cy="10.6" rx="5.3" ry="4.54286" fill="#FBC108"/>
</svg>
