<svg xmlns="http://www.w3.org/2000/svg" height="800" width="1200" version="1.0" viewBox="-589.0626 -228.4725 5105.2092 1370.835"><path fill="#d71920" d="M101.755 743.367H27.977l151.37-227.054h109.69v227.542h-71.516v-45.49h-88.01l-27.756 45.002"/><path fill="#fff" d="M222.443 571.913v72.27H164.98l43.096-71.827 14.366-.443"/><path fill="#d71920" d="M925.595 742.436h-73.778l151.37-227.054h109.735v227.542h-71.517v-45.49h-88.01l-27.8 45.002"/><path fill="#fff" d="M1046.283 570.982v72.27h-57.507l43.097-71.827 14.41-.443"/><path fill="#d71920" d="M332.445 742.88h67.57l58.88-226.079h-70.408l-56.042 226.078m1865.245-2.793h67.526l58.925-226.167h-70.408l-56.043 226.167M724.39 579.583s2.882-54.58-48.86-63.713l-165.734-.488-60.477 227.542h70.94l23.056-83.355h10.109l70.275 83.355h80.473l-68.368-92.489s82.38 8.602 88.586-70.852m-100.602 34.938l-70.142.488 12.237-49.924 56.398-1.109v.532c.532 0 .975-.266 1.507-.266 15.12 0 27.312 11.262 27.312 25.14 0 13.922-12.193 25.14-27.312 25.14zm1550.536-36.357s2.882-54.58-48.86-63.757l-165.69-.488-60.477 227.541h70.896l23.1-83.355h10.02l70.364 83.355h80.473l-68.369-92.4s82.38 8.558 88.543-70.896m-100.602 34.939l-70.098.487 12.237-49.924 56.353-1.108v.576c.577-.089 1.02-.355 1.508-.355 15.074 0 27.312 11.306 27.312 25.14 0 13.966-12.238 25.184-27.312 25.184zm-915.93 129.777l53.161-226.079h74.842l-40.702 166.222h102.509l-13.035 59.856h-176.775m480.089-217.787s-242.128-70.541-265.14 116.963c0 0-10.02 171.765 215.57 81.493l25.14-102.376-79.276-.177-16.272 67.437s-71.117 26.825-68.99-39.638c0 0-1.418-97.454 173.184-67.216l15.784-56.486m61.098-9.222h60.343l22.967-27.268h81.937l-16.583 27.977h63.935l-12.148 48.151-146.58.754-6.474 30.903 133.634 2.838-10.774 48.816-132.925-1.375-6.473 34.45h140.107l-15.075 59.68h-211.934l56.043-224.926m681.338-2.882h218.408l-13.434 53.87h-152.3l-8.602 32.278h131.24l-8.602 49.925-133.19 1.95-8.602 31.259h148.487l-9.577 58.791h-218.452l54.624-228.073m202.402-345.835h48.86l-38.84 193.269h-48.771l38.751-193.269m-74.266.932h47.442l-37.377 193.268h-397.31l-12.238 60.388h-175.267l3.547-38.796h130.796l3.592-21.592h-76.882l20.839-109.204h125.742l-9.356 64.644h55.334l12.946-64.644h57.507l9.31-84.064h54.58l-9.355 81.936h49.614l-6.473 66.772h124.278l4.346-25.804h-69.7l2.838-38.84h74.71l16.537-84.064"/><path fill="#fff" d="M2244.777 289.526h59.678l-2.217 25.849h-61.053l3.592-25.85m-189.677 1.464h32.322l-4.3 25.804h-33.742l5.72-25.804"/><path fill="#d71920" d="M2434.454 198.988h50.234l-7.094 38.795h-51.786l8.646-38.795M580.514 248.78h50.235l-7.138 38.795h-51.698l8.601-38.796m83.843 132.215h50.235l-7.139 38.796h-51.698l8.602-38.796M1854.87 167.153h55.29l-14.366 84.065h58.216l-20.884 109.204h-237.074l10.11-44.56h60.299l12.902-64.644h61.142l12.947-84.065"/><path fill="#fff" d="M1831.859 290.058h57.506l-4.345 25.849h-58.171l5.01-25.85"/><path fill="#d71920" d="M1592.612 362.328h-50.279l40.215-193.268h48.15l-38.086 193.268m-750.815-.398h-50.324l40.215-193.313h48.15l-38.041 193.312m-353.239-1.507h-50.28l40.17-193.269h48.196l-38.086 193.269m1071.954-193.269l-39.594 193.269h-163.074l-12.193 60.388h-164.537l7.182-38.84h120.023l4.3-21.548h-73.955l21.548-109.204h122.062l-11.483 64.644h105.656l7.139-25.804h-45.934l8.601-38.84h44.56l20.839-84.065h48.86"/><path fill="#fff" d="M1294.929 294.58h32.366l-4.345 25.85h-33.74l5.719-25.85"/><path fill="#d71920" d="M1411.537 419.834l7.227-38.795h48.816l-7.892 38.795h-48.151M962.75 251.44h114.88l-11.44 62.516h62.56l15.785-62.516h49.57l-23.677 109.203h-165.29l2.127-16.538h-66.772l22.257-92.665"/><path fill="#fff" d="M990.816 292.408h31.568l-2.882 22.967h-33.031l4.345-22.967"/><path fill="#d71920" d="M22.258 251.972h114.967l-11.483 62.516h62.516l15.784-62.516h49.57l-23.676 109.16H64.733l2.084-16.495H0l22.258-92.665"/><path fill="#fff" d="M60.3 287.575h31.612l-2.837 23.011h-33.12l4.344-23.011"/><path fill="#d71920" d="M1077.718 229.936l7.36-38.796H979.066l-9.62 38.796h108.272m-940.714-1.242l7.315-38.795H38.308l-9.577 38.795h108.273m84.773 190.386l7.139-39.194h-102.73l-9.312 39.195h104.903m936.193.709l7.182-38.796h-102.775l-9.31 38.796h104.902M803.223 167.153l-38.84 193.269H602.728l-12.193 60.388H479.868l5.763-38.84h62.517l14.32-66.108h158.065l5.853-25.804h-50.368l5.72-38.84h57.505l19.42-84.065h44.56m-417.485 96.745l46.023-.93-18.223 91.956-46.953.93-15.341 63.227-109.204 2.926 6.74-43.096h64.156l12.414-61.364h51.787l8.601-53.649m-6.162-26.336h55.333l10.02-46.023h6.474l1.419-16.493-40.924-1.42-10.11 46.688-18.665 2.129-3.547 15.119m3547.508 219.383C3927.084 204.575 3658.797 0 3327.86 0c-330.938 0-599.225 204.574-599.225 456.945 0 252.37 268.287 456.945 599.224 456.945 330.938 0 599.225-204.574 599.225-456.945"/><path d="M3044.586 96.435s106.322 49.259 182.982 135.54c0 0 155.226 165.912 184.977 181.076 0 0-62.295 43.628-322.957-203.821 0 0-160.015 128.003-167.685 234.148h973.569l1.02 33.209H2920.04s7.626 92.887 156.202 231.354c0 0 217.476-191.54 337.277-209.585l6.695-.93s-79.542 67.348-132.304 127.116c0 0-147.512 153.541-254.809 190.52 0 0-395.803-168.795-231.975-512.944 0 0 57.107-119.89 243.458-205.683" fill="#fff"/><path d="M3220.473 36.446c606.364-61.23 674.245 392.478 674.245 392.478s-184.844 37.465-365.964-171.81c0 0-111.377-118.78-143.433-143.255 0 0-56.62-58.392-141.703-71.738l-23.145-5.675m2.838 838.072c606.452 59.945 674.244-384.01 674.244-384.01s-184.844-36.622-365.92 168.04c0 0-111.42 116.21-143.476 140.241 0 0-56.575 57.107-141.66 70.187l-23.188 5.542m-808.942-583.529l21.503-95.592-10.064.709-22.258 95.592 9.311-.71" fill="#fff"/><path fill="#231f20" d="M1627.388 747.513h547.053"/></svg>