<?xml version="1.0" encoding="utf-8"?>
<!-- Generator: Adobe Illustrator 25.2.0, SVG Export Plug-In . SVG Version: 6.00 Build 0)  -->
<svg version="1.1" id="Layer_1" xmlns="http://www.w3.org/2000/svg" xmlns:xlink="http://www.w3.org/1999/xlink" x="0px" y="0px"
	 viewBox="0 0 175.8 120.8" style="enable-background:new 0 0 175.8 120.8;" xml:space="preserve">
<style type="text/css">
	.st0{fill-rule:evenodd;clip-rule:evenodd;fill:#DC2F34;}
</style>
<path class="st0" d="M98.6,7.1c-1.4,1.9-2.2,4.1-2.2,6.5c0,0.8,0,19.6,0,20.3c-0.1,1.5-0.7,3-1.6,4.2c-0.5,0.5-3.6,3.3-3.9,3.6h1.8
	c0.6-0.5,6.6-5.9,7.2-6.6c1.8-1.9,2.8-4.4,2.8-7c0-0.9,0-18.7,0-19.5c0-2,0.7-3.9,2.1-5.3c0.7-0.8,3.1-2.8,3.5-3.2l-1.8,0
	C105.9,0.4,99.3,6.4,98.6,7.1z"/>
<path class="st0" d="M83.8,80.8l7.4,6.4h4.9c4.7,0,9.2-1.9,12.6-5.2c2.8-2.9,4.3-6.9,4.1-10.9V60.7c0-2.4-1-4.6-2.8-6.2
	c-0.3-0.3-2.5-2.4-2.5-2.4v8.1c0,0,2.4,2.4,2.8,2.9c2.2,2.3,2.2,6.5-4.8,13.3c-1.2,1.2-4.7,4.4-9.4,4.4H83.8z"/>
<path class="st0" d="M104.2,37.6c-1.1,1.4-1.6,3.1-1.6,4.9v4h4.1c1.6-0.2,3.1-1,4.1-2.2c0-0.1,0-4,0-4c0.6,0.9,1.3,1.6,2.2,2.3
	c0.4-0.5,4.1-5,7.2-5c5.2,0,4,6.5,1.9,8.5c-0.7,0.7-3.7,3.5-4.7,4.3c-2.4,2.3-6.6,1.2-6.6-4.8c0,0-4.5,4.2-5.1,4.8s-3,3-3,3v10.5
	c0,5-1.7,6.7-3,8.3c-0.5,0.6-6.2,5.8-7,6.3h-1.9c0,0,3.3-3,4-3.7c1.2-1.4,1.7-3.2,1.6-5c0-0.7-0.1-16.5-0.1-16.5H70.5
	c-9,0-10.9-10-11-12.6c0-0.8,0-8.7,0-10c0-1.6-1-4.4-2.7-5.2h2.5c0.3,0.1,1.9,0.8,1.9,6.9c0,0-0.1,7.1-0.1,7.5c0,3.1,2.5,6.7,6,6.7
	h29.2c0.3-1.9,1-3.8,2.2-5.3c0.8-0.9,7.1-6.6,7.8-7.2h1.9C107.9,34.2,104.9,36.9,104.2,37.6L104.2,37.6z M113.8,43.6
	c0.8,1,1.6,2,2.5,2.9c3.2,2.5,4.6-0.2,2.5-3.1C118,42.2,114.8,42.5,113.8,43.6L113.8,43.6z"/>
<path class="st0" d="M82.5,62.4c0,1.4-4.5,5.2-4.8,5.4c-0.3-1.5-1.5-3.2-4.8-6.6l4.9-4.9C81.1,59.6,82.5,60.3,82.5,62.4z"/>
<path class="st0" d="M91,5.8c1,1,3.1,3.7,1.8,5c-1.1,1.1-2.8,2.9-2.8,2.9c-0.1-0.6-1.7-2.2-1.7-2.2s0,4.8,0,5.4
	c0,2.1-0.9,2.8-0.9,2.8s4,3.9,4,9c0,2.5,0,4.7,0,5.2c0,1-0.3,1.9-1,2.6c-0.4,0.4-4,4.1-4.6,4.6c-0.8,0.8-1.9,1.2-3,1.1H69.1
	c-2.2,0-4.4-1.7-4.4-3.4c0-0.4,0-5.1,0-5.1c0.7,1.1,1.9,1.7,3.1,1.7c1.2-0.1,2.3-0.6,3.2-1.4l10.4-10.8c-2.5-2.3-5-4.4-7.8-6.4
	c-1.5-1-3.5,0.3-3.8,1.6c-0.9,4.1,0,10.4,0,10.4L66,25c-1.5-1.5-1.5-5,0.3-6.8c0.3-0.3,3.1-3.4,6.6-3.4h5.5c3.7,0,7.7,3.7,7.7,3.7
	c0.3-0.4,0.5-0.8,0.6-1.3c0-1.9-0.1-7-0.1-7c-2.8-2.8-3.1-5.6-1.8-6.9c2.5-2.4,3.4-3.3,3.4-3.3C88.4,2.2,89.4,4.3,91,5.8z
	 M73.8,33.4c-0.8,1-1.7,1.9-2.8,2.6h15.4c4.2,0,3.3-2.6,2.6-3.9c-1.5-2.7-6.4-7.7-6.4-7.7S74.1,33.1,73.8,33.4L73.8,33.4z"/>
<path class="st0" d="M56.2,47.4h-2.5c1.8,1.2,2.8,3.2,2.7,5.4v12.3c0,8,6.6,15.4,14.7,15.4h6.7c4,0,5.4-1,7.9-3.1
	c0.9-0.8,2-2.1,2.5-2.6c1.4-1.6,2.9-2.8,2.9-7v-4c0-3.5-2-4.9-3-5.9c-0.6-0.6-2.3-2.3-2.3-2.3v8.3c0,0,1.7,1.8,2.4,2.4
	c3.5,2.8,0.7,7.5-2.5,7.5c-0.7,0-13.8,0-14.7,0C65.5,74,58.1,69.2,58.1,61v-6.7C58.1,47.4,56.2,47.4,56.2,47.4L56.2,47.4z"/>
<path class="st0" d="M72.4,62.4c0,1.4-4.5,5.2-4.8,5.4c-0.3-1.5-1.5-3.2-4.8-6.6l4.9-4.9C71,59.7,72.4,60.3,72.4,62.4z"/>
<path class="st0" d="M20.8,117.2h-7.9c-2.5,0-2.3-2.1-2.5-3.8v-11.3c0,0,1.7,0,3.7,0c2.2,0,4.9-0.3,7.6,1.2
	c-1.4-2.9-4.4-4.7-7.6-4.7h-3.6v-3.6c0,0,0-3.2-0.8-4.1h5.2c4.5,0,8-0.1,11.6,2.3c0,0-0.7-6-9.4-6H0c2,2.1,3.1,4.9,2.9,7.7L3,115.6
	c0,5.2,2,5.4,2,5.4h16.8c3.8,0,5.1-2.7,5.1-4.2l0-2C27,114.8,25.8,117.2,20.8,117.2L20.8,117.2z"/>
<path class="st0" d="M65.5,115.5V101c0-5.6-4.6-7.1-8-7.1c-4.5,0-5.9,3.8-6.5,5.1c-1-3.5-4.5-5.1-7.4-5.1c-5.5,0-6.8,5.2-6.8,5.2
	s-0.1-5-4.5-5H28c0,0,2.5,1,2.5,5.3v16c0,5.3,2.1,5.4,2.1,5.4h7.1c-1.7-1.3-2.7-3.3-2.7-5.4v-14.2c0.1-0.6,1.2-2.8,4.2-2.8
	c2,0.2,3.5,1.8,3.6,3.8v13.2c0,5.4,2.1,5.4,2.1,5.4H54c-1.7-1.3-2.7-3.3-2.7-5.4v-14.2c0.7-2.1,3-3.2,5.1-2.4
	c1.5,0.5,2.6,1.9,2.6,3.5c0,0,0,12.1,0,13.2c0,5.4,2.1,5.4,2.1,5.4c3.7,0,7.1,0,7.1,0C66.6,119.6,65.6,117.6,65.5,115.5L65.5,115.5z
	"/>
<path class="st0" d="M77.9,115.5c0,2.1,1,4.1,2.7,5.4c0,0-3.4,0-7.1,0c0,0-2.2,0-2.2-5.3V99.4c0-4.2-2.5-5.3-2.5-5.3h4.3
	c1.5,0,4.7,0,4.7,6L77.9,115.5L77.9,115.5L77.9,115.5z"/>
<path class="st0" d="M99.7,96.1c0,0-0.7-1.9-3.7-1.9c-4.4,0-5.5,5.3-5.5,5.3C90.2,95.3,89,94,85.9,94h-4.3c0,0,2.5,1,2.5,5.3v16
	c0,5.3,2.1,5.4,2.1,5.4h7.1c-1.7-1.3-2.7-3.3-2.7-5.4v-13.1c0.2-1.1,0.8-2.1,1.7-2.7c2.4-1.6,5.5-1.1,7.3,1.1L99.7,96.1L99.7,96.1z"
	/>
<path class="st0" d="M132.6,97.1c1.5,0,2.9,0.3,4.2,1v-4h-6v-6.1c-1.3,2-2.9,3.8-4.8,5.3c-1.9,1.4-4,2.6-6.1,3.7l4.5,0.1v18.6
	c0,5.2,2.2,5.2,2.2,5.2c3.9,0,7.1,0,7.1,0c-1.7-1.2-2.7-3.2-2.7-5.2V97.1C132.8,97.1,131.5,97.1,132.6,97.1L132.6,97.1z"/>
<path class="st0" d="M154.1,105.2c-4,4.2-7.1,3.5-9.6,6.5c0,0,0.4,4.1,3.6,5.6c1.1,0.5,5.4,2.1,8.3-2.8v4.3c0,0-1.8,2.2-7.6,2.2
	c-6.9,0-11.7-5.5-11.7-12.9s3.9-14.1,11.2-14.1S159.4,99.7,154.1,105.2L154.1,105.2z M149.8,103.5c1.2-2.2,2.1-7.7-1.9-7.4
	c-4.6,0.3-3.8,12.7-3.8,12.7C145.7,107.1,148,106.8,149.8,103.5L149.8,103.5z"/>
<path class="st0" d="M74.6,91.9c1.8,0,3.2-1.5,3.2-3.3c0-1.8-1.5-3.2-3.3-3.2c-1.8,0-3.2,1.5-3.2,3.2C71.3,90.5,72.8,92,74.6,91.9z"
	/>
<path class="st0" d="M107,117.8c-1.6,0-2.8-1.7-2.8-3.4c0-6.7,5.5-7.6,6.9-9.4v11.3C110.5,116.9,109.9,117.8,107,117.8L107,117.8z
	 M111.2,102.4c-1.7,2.9-14.4,3.5-12.5,13.4c0.8,3.9,3.4,5.1,6.7,5.1c2.4,0.1,4.7-1.1,5.9-3.2c0.5,3,2,3.2,2,3.2c3.7,0,7.1,0,7.1,0
	c-1.7-1.3-2.7-3.2-2.8-5.4v-15c0-3.6-4-6.4-8.2-6.4c-2.4,0-4.7,0.7-6.6,2v4.7c0,0,1.4-3.7,5.1-3.7s3.9,1.8,3.8,2.7
	C111.9,100.7,111.7,101.7,111.2,102.4L111.2,102.4z"/>
<path class="st0" d="M169.8,113.6c0,1.9-1.7,4.4-5.3,4.4s-5.2-3.8-5.2-3.8v4.8c2,1.3,4.4,1.9,6.7,1.9c4.8,0,9.7-3.7,9.6-8.8
	c0-1.7-0.6-3.3-1.7-4.7c-1.6-2.2-4.6-3.7-6.9-5.1c-1-0.6-1.7-1.6-2-2.8c0-0.9,0.4-2.7,4-2.7s5,3.7,5,3.7V96c-2-1.4-4.3-2.1-6.8-2.1
	c-4.2,0-8.1,2.8-8,6.4c0.1,3.2,1.4,5.2,4,7.1c1.2,0.8,2.4,1.6,3.7,2.3C169.1,110.8,169.9,112.2,169.8,113.6L169.8,113.6z"/>
</svg>
