<?xml version="1.0" encoding="utf-8"?>
<!-- Generator: Adobe Illustrator 25.2.0, SVG Export Plug-In . SVG Version: 6.00 Build 0)  -->
<svg version="1.1" id="layer" xmlns="http://www.w3.org/2000/svg" xmlns:xlink="http://www.w3.org/1999/xlink" x="0px" y="0px"
	 viewBox="0 0 600.1 126.1" style="enable-background:new 0 0 600.1 126.1;" xml:space="preserve">
<style type="text/css">
	.st0{fill:#235183;}
</style>
<g>
	<path class="st0" d="M59.8,4.5C26.8,4.5,0,31.2,0,64.3s26.8,59.8,59.8,59.8s59.8-26.7,59.8-59.8S92.8,4.5,59.8,4.5L59.8,4.5z
		 M94.6,41.8L53.8,64.7l8.7,5l31.8-18.3V72L73.5,83.7l20.7,3.8v21.3L3.7,58l12.6-7.3l17.8,3.2l60.3-34.1L94.6,41.8L94.6,41.8z"/>
	<polygon class="st0" points="160.5,29.9 182.1,29.9 182.1,54.3 205.6,54.3 205.6,29.9 227.3,29.9 227.3,99.6 205.6,99.6 
		205.6,71.4 182.1,71.4 182.1,99.6 160.5,99.6 	"/>
	<path class="st0" d="M255.7,65.5l-18.5-2c0.7-3.2,1.7-5.8,3-7.6c1.3-1.9,3.2-3.4,5.7-4.8c1.8-1,4.2-1.8,7.3-2.3
		c3.1-0.5,6.5-0.9,10.1-0.9c5.8,0,10.5,0.3,14,0.9c3.5,0.7,6.5,2,8.8,4.1c1.6,1.5,3,3.4,3.9,6.1s1.5,5.1,1.5,7.5v22.3
		c0,2.4,0.2,4.3,0.4,5.5c0.3,1.4,0.9,3.1,2,5.1h-18.2c-0.8-1.3-1.2-2.3-1.5-3s-0.4-1.8-0.7-3.2c-2.6,2.5-5,4.2-7.6,5.2
		c-3.4,1.4-7.4,2.1-12,2.1c-6.1,0-10.6-1.4-13.7-4.2c-3.2-2.8-4.7-6.2-4.7-10.3c0-3.8,1.1-7,3.4-9.5c2.2-2.5,6.4-4.4,12.5-5.5
		c7.3-1.5,12-2.5,14.2-3.1c2.1-0.6,4.4-1.4,6.8-2.3c0-2.4-0.5-4-1.5-5c-1-0.9-2.7-1.5-5.2-1.5c-3.2,0-5.5,0.5-7.1,1.5
		C257.5,61.8,256.5,63.3,255.7,65.5L255.7,65.5L255.7,65.5z M272.4,75.7c-2.6,0.9-5.5,1.8-8.3,2.6c-3.9,1-6.4,2-7.4,3.1
		c-1.1,1-1.6,2.2-1.6,3.6c0,1.5,0.5,2.7,1.6,3.8c1.1,0.9,2.6,1.5,4.7,1.5s4.2-0.5,6.1-1.5s3.2-2.3,3.9-3.8c0.8-1.5,1.1-3.5,1.1-5.9
		L272.4,75.7L272.4,75.7L272.4,75.7z"/>
	<path class="st0" d="M303,29.9h19.4v25.7c2.6-2.7,5.2-4.7,7.9-5.8c2.6-1.2,5.7-1.8,9.2-1.8c5.3,0,9.4,1.6,12.5,4.8
		c3,3.2,4.5,8.1,4.5,14.8v32.1H337V71.9c0-3.2-0.6-5.4-1.8-6.7c-1.2-1.4-2.8-2-5-2c-2.3,0-4.3,0.9-5.7,2.6s-2.2,5-2.2,9.6v24.2
		h-19.4L303,29.9L303,29.9z"/>
	<path class="st0" d="M368,49.1h18v8.2c2.7-3.3,5.5-5.7,8.2-7.2s6.1-2.1,10.1-2.1c5.4,0,9.6,1.6,12.5,4.8c3,3.2,4.5,8.1,4.5,14.8
		v32.1h-19.5V71.9c0-3.2-0.6-5.4-1.8-6.7c-1.2-1.4-2.8-2-5-2c-2.3,0-4.3,0.9-5.7,2.6s-2.2,5-2.2,9.6v24.2h-19.2V49.1H368z"/>
	<path class="st0" d="M497.1,88.1h-24.6l-3.4,11.5h-22l26.2-69.7h23.6l26.2,69.7h-22.5L497.1,88.1L497.1,88.1z M492.6,73l-7.7-25.1
		L477.2,73H492.6L492.6,73z"/>
	<path class="st0" d="M529.4,29.9h19.4V43h-19.4V29.9L529.4,29.9z M529.4,49.1h19.4v50.5h-19.4V49.1L529.4,49.1z"/>
	<path class="st0" d="M560.4,49.1h18.1v8.3c1.8-3.6,3.6-6.1,5.4-7.4c1.9-1.4,4.1-2,6.8-2c2.8,0,6,0.9,9.4,2.6l-6,13.8
		c-2.3-0.9-4.1-1.5-5.5-1.5c-2.6,0-4.5,1-5.9,3.2c-2,3-3,8.5-3,16.6v16.9h-19.5L560.4,49.1L560.4,49.1z"/>
</g>
</svg>
