<svg xmlns="http://www.w3.org/2000/svg" height="800" width="1200" viewBox="-45 -40.82375 390 244.9425"><linearGradient y2="104.26" y1="104.26" x2="517.52" x1="-387.697" gradientUnits="userSpaceOnUse" id="a"><stop stop-color="#df2133" offset="0"/><stop stop-color="#df2133" offset=".35"/><stop stop-color="#e13230" offset=".358"/><stop stop-color="#e55f29" offset=".376"/><stop stop-color="#eda61e" offset=".399"/><stop stop-color="#eda91e" offset=".4"/><stop stop-color="#eda91e" offset=".45"/><stop stop-color="#e77027" offset=".546"/><stop stop-color="#e13730" offset=".65"/><stop stop-color="#df2133" offset=".7"/><stop stop-color="#df2133" offset="1"/></linearGradient><linearGradient y2="77.614" y1="77.614" x2="517.625" x1="-387.154" gradientUnits="userSpaceOnUse" id="b"><stop stop-color="#df2133" offset="0"/><stop stop-color="#df2133" offset=".17"/><stop stop-color="#d12330" offset=".211"/><stop stop-color="#b6282a" offset=".27"/><stop stop-color="#b6282a" offset=".47"/><stop stop-color="#cd242f" offset=".51"/><stop stop-color="#df2133" offset=".55"/><stop stop-color="#dc011f" offset=".995"/></linearGradient><path fill="url(#a)" d="M300 45.182v28.613l-300 89.5V91.611z"/><path fill="#00913f" d="M85.428 0L14.264 67.627l-.422.396L107.655 0"/><path fill="url(#b)" d="M299.988 6.589v41.183L0 148.595l.033-29.99z"/><path fill="#dc011f" d="M13.84 68.023l.027-.018.397-.377M107.654 0L13.868 68.006.033 81.15v37.474L299.998 6.775V0z"/><path fill="#0face3" d="M96.542 134.745L300 74.558V57.933"/><path fill="#fff" d="M85.417 44.668l-13.9 13.9-13.903-13.9 13.903 33.56"/><path fill="#fff" d="M37.953 64.33l13.899 13.898-13.899 13.906 33.565-13.906M57.62 111.793l13.898-13.9 13.904 13.9-13.904-33.565"/><path fill="#fff" d="M105.079 92.128l-13.895-13.9 13.9-13.902-33.567 13.902m37.869-39.439c0-1.977-.468-3.425-1.398-4.343-.926-.917-2.307-1.372-4.135-1.372a20.258 20.258 0 00-5.943.855c-.149-.27-.274-.66-.383-1.168a7.28 7.28 0 01-.156-1.444c.782-.238 1.74-.44 2.881-.602a24.254 24.254 0 013.51-.252c2.91 0 5.066.638 6.478 1.914 1.406 1.277 2.113 3.278 2.113 6.006v15.164a73.99 73.99 0 01-3.822.634 31.559 31.559 0 01-4.274.314c-2.79 0-4.99-.56-6.594-1.668-1.605-1.11-2.406-2.911-2.406-5.397 0-1.2.23-2.276.699-3.22a6.79 6.79 0 011.932-2.384c.825-.646 1.815-1.133 2.97-1.466 1.155-.328 2.423-.496 3.804-.496 1.079 0 2.01.038 2.787.119.78.07 1.425.138 1.937.198m0 2.612c-.512-.058-1.146-.13-1.916-.202a21.64 21.64 0 00-2.179-.112c-2.252 0-3.993.418-5.219 1.26-1.232.84-1.848 2.039-1.848 3.599 0 .99.19 1.784.567 2.382.372.601.858 1.06 1.461 1.374a6.087 6.087 0 001.977.63c.72.104 1.444.159 2.163.159a23.7 23.7 0 002.607-.135c.81-.094 1.605-.21 2.387-.364zm8.454-9.267h-2.874a3.599 3.599 0 01-.07-.54 8.8 8.8 0 01-.021-.68c0-.233.005-.477.021-.72a3.91 3.91 0 01.07-.584h5.846V53.95c-.18.033-.427.053-.741.07a18.04 18.04 0 01-.742.022c-.153 0-.392-.006-.725-.023a6.13 6.13 0 01-.764-.069m-1.482-27.972c-.027-.27-.05-.603-.066-.99-.015-.39-.025-.719-.025-.989 0-.242.01-.538.025-.902.016-.361.04-.663.066-.9.27-.033.602-.05.993-.067.387-.014.718-.02.988-.02.24 0 .54.008.9.02.36.018.662.034.899.067.033.237.053.539.068.9a20.83 20.83 0 010 1.891c-.015.387-.035.72-.068.99-.237.026-.539.054-.9.066-.358.014-.66.024-.899.024-.27 0-.601-.01-.988-.024a14.94 14.94 0 01-.993-.066m9.672 5.026c.24-.027.471-.05.697-.065a8.51 8.51 0 011.326 0c.211.015.435.038.679.065.058.54.102 1.176.135 1.915.026.737.044 1.402.044 1.998.598-1.11 1.439-2.044 2.52-2.808 1.076-.764 2.501-1.152 4.272-1.152h.473c.166 0 .356.02.562.047.089.512.133.99.133 1.443 0 .479-.044.943-.133 1.393a4.213 4.213 0 00-.562-.044h-.427c-2.04 0-3.673.64-4.905 1.937-1.23 1.285-1.842 3.433-1.842 6.43V53.95c-.18.033-.428.053-.743.07a17.28 17.28 0 01-.746.022c-.147 0-.386-.006-.718-.023a5.826 5.826 0 01-.765-.069m14.712-23.263a13.128 13.128 0 012.657-.27 11.935 11.935 0 012.562.27c.092.152.171.368.249.656.075.283.143.586.2.9.06.316.113.62.159.922.044.3.084.553.11.764.244-.45.56-.9.946-1.349a6.75 6.75 0 011.398-1.217 7.507 7.507 0 011.82-.873 7.193 7.193 0 012.274-.343c3.629 0 5.951 1.385 6.973 4.14.598-1.11 1.446-2.076 2.545-2.898 1.092-.827 2.48-1.242 4.156-1.242 2.644 0 4.586.73 5.831 2.186 1.245 1.458 1.867 3.726 1.867 6.815v14.804a19.885 19.885 0 01-3.198.267 19.78 19.78 0 01-3.19-.267V40.81c0-1.618-.203-2.86-.608-3.73-.404-.873-1.223-1.304-2.453-1.304a5.09 5.09 0 00-1.508.225 3.204 3.204 0 00-1.352.827c-.404.409-.733.98-.988 1.712-.252.733-.383 1.687-.383 2.855v12.557a19.814 19.814 0 01-3.197.267c-1.046 0-2.112-.09-3.19-.267V40.81c0-1.618-.203-2.86-.609-3.73-.403-.873-1.222-1.304-2.452-1.304-.51 0-1.022.072-1.529.225-.512.147-.967.44-1.37.872-.406.441-.73 1.043-.97 1.825-.241.782-.362 1.797-.362 3.056V53.95a19.764 19.764 0 01-3.19.267c-1.055 0-2.119-.09-3.198-.267m50.71-15.296c0-.72-.12-1.303-.364-1.753a2.692 2.692 0 00-.988-1.061c-.419-.25-.936-.422-1.552-.512-.616-.09-1.3-.134-2.05-.134-1.617 0-3.345.313-5.173.942a12.476 12.476 0 01-.944-2.207c-.211-.687-.315-1.514-.315-2.476a23.961 23.961 0 013.96-.988c1.321-.208 2.55-.316 3.69-.316 3.12 0 5.556.75 7.31 2.253 1.757 1.496 2.633 3.898 2.633 7.195v13.5c-1.05.33-2.322.642-3.825.944-1.5.301-3.196.451-5.083.451-1.527 0-2.93-.135-4.207-.405-1.275-.274-2.37-.722-3.285-1.35a6.409 6.409 0 01-2.114-2.434c-.494-.99-.74-2.204-.74-3.642 0-1.438.306-2.647.92-3.622a7.121 7.121 0 012.384-2.338 10.57 10.57 0 013.263-1.263c1.2-.259 2.4-.383 3.6-.383.867 0 1.83.045 2.882.136m-.002 4.098c-.364-.06-.75-.112-1.173-.158a10.807 10.807 0 00-1.125-.068c-1.47 0-2.627.266-3.487.786-.853.527-1.282 1.377-1.282 2.545 0 .78.167 1.376.496 1.799a2.97 2.97 0 001.19.922c.469.195.963.32 1.489.364.52.047.978.063 1.37.063.45 0 .901-.035 1.35-.105.45-.084.84-.145 1.172-.21zm10.797-20.912c1.08-.18 2.143-.27 3.19-.27 1.022 0 2.074.09 3.153.27v22.306c0 .927.053 1.678.157 2.246.103.569.27 1.012.496 1.328.224.313.517.534.876.652.359.12.814.178 1.354.178a7.71 7.71 0 001.62-.178 13.98 13.98 0 01.493 3.603v.65c0 .2-.03.414-.09.653a8.281 8.281 0 01-1.728.313c-.676.06-1.298.089-1.87.089-2.311 0-4.163-.633-5.556-1.908-1.394-1.276-2.09-3.355-2.09-6.231m14.888-10.526h-2.928V34.36l8.19-10.466h1.034v6.792h5.442c.092.45.148.855.181 1.214a15.232 15.232 0 010 2.342c-.033.391-.087.823-.18 1.309h-5.443v9.134c0 .927.075 1.678.224 2.247.15.568.369 1.016.652 1.346a2.1 2.1 0 001.056.675c.423.122.919.181 1.49.181.449 0 .887-.036 1.325-.113.435-.075.817-.139 1.145-.203a8.75 8.75 0 01.45 1.782 11.539 11.539 0 01.113 2.473 7.21 7.21 0 01-.067.652 18.43 18.43 0 01-4.275.494c-2.728 0-4.812-.634-6.251-1.909-1.439-1.277-2.158-3.355-2.158-6.232m28.481-7.424c0-.72-.12-1.303-.364-1.753a2.685 2.685 0 00-.99-1.061c-.418-.25-.936-.422-1.552-.512a14.366 14.366 0 00-2.046-.134c-1.62 0-3.348.313-5.177.942a12.476 12.476 0 01-.944-2.207c-.207-.687-.315-1.514-.315-2.476a23.961 23.961 0 013.96-.988c1.322-.208 2.55-.316 3.69-.316 3.12 0 5.558.75 7.31 2.253 1.755 1.496 2.633 3.898 2.633 7.195v13.5c-1.05.33-2.322.642-3.825.944-1.5.301-3.195.451-5.083.451-1.529 0-2.93-.135-4.207-.405-1.277-.274-2.37-.722-3.287-1.35a6.409 6.409 0 01-2.113-2.434c-.494-.99-.74-2.204-.74-3.642 0-1.438.305-2.647.92-3.622a7.091 7.091 0 012.388-2.338 10.493 10.493 0 013.258-1.263 17.02 17.02 0 013.601-.383c.867 0 1.829.045 2.882.136m.001 4.098a22.46 22.46 0 00-1.173-.158 10.807 10.807 0 00-1.125-.068c-1.47 0-2.627.266-3.487.786-.853.527-1.282 1.377-1.282 2.545 0 .78.167 1.376.496 1.799.33.422.728.728 1.188.922.468.195.962.32 1.489.364.52.047.978.063 1.37.063.45 0 .898-.035 1.35-.105.45-.084.84-.145 1.173-.21V43.29z"/></svg>