<svg xmlns="http://www.w3.org/2000/svg" height="800" width="1200" viewBox="-12.65535 -5.41545 109.6797 32.4927"><path fill="#0f2c64" d="M76.5062 6.529l-.4276.0743-.4648 1.8965.4276-.1115.1116-.4277.688-.1115.223.3718.4649-.0372zm2.2684 0l-.4463 1.692.3905.0557.1487-.5578c.0689-.2737.099-.3663.1488-.595l.0372-.2045c-.0006.0964-.0018.1596 0 .2045.0035.0581.0123.1337.0185.2417.0048.0841.01.144.0186.186l.093.8366.316.093.502-.688c.031-.0453.0542-.1042.093-.1673.094-.141.1395-.1946.2417-.3718l-.0372.1115a10.0545 10.0545 0 01-.0743.2231c-.0174.0631-.0448.1524-.0744.2603-.0305.1072-.0426.1836-.0558.2417l-.1487.5206.3718.1302.4463-1.692-.5578-.1859-.4462.6508c-.04.061-.0964.1245-.1488.2045-.0746.1162-.0832.1693-.1487.2975.0074-.223.0018-.3877-.0186-.5764l-.093-.7995-.5763-.1116zm-2.4357.409c.0548.1228.0903.1954.186.3533l.1859.2975-.5206.0743.0743-.3346c.0437-.1785.0596-.2664.0744-.3905zm4.9457.2417c-.1109-.0006-.213.0772-.2603.186-.0618.1454.0012.3088.1487.3718.1447.0639.31-.003.3719-.1487.0618-.1455-.0006-.3092-.1487-.3719-.0365-.0156-.0746-.0369-.1116-.0372zm-7.2884.0558l-1.2271.725.8738 1.5061 1.2458-.7437-.1488-.2789-.8924.5392-.2231-.3719.7994-.4834-.1487-.2417-.7995.4648-.186-.316.874-.5206zm7.2326 0c.0596-.0166.1099-.0128.1674.0185.1145.0619.1766.2185.1115.3347-.0635.1183-.221.1556-.3347.093-.1145-.0635-.158-.2177-.093-.3347.0316-.0587.0893-.095.1488-.1116zm.0372.0372l-.1487.2789.0372.0185.0743-.1115.0372.0185.0186.1674.0557.0185-.0185-.1673c.0494.0252.1004.0354.1301-.0186.0326-.0585-.0063-.1033-.0557-.1301l-.1302-.0744zm.0186.0743l.0743.0372c.0285.0157.0703.0464.0558.0744-.0235.0432-.0786-.0005-.1116-.0186l-.0557-.0372.0372-.0557zM71.579 8.9646l-1.004 1.2085.2417.2046.3719-.4463 1.097.8925.2602-.316-1.097-.8925.372-.4463zm10.412.8553c1.1 1.1094 1.8352 2.596 1.9523 4.2763.2588 3.7113-2.5393 6.935-6.2472 7.1955-1.7446.122-3.3772-.4265-4.6483-1.4317 1.3167 1.2213 3.1242 1.9214 5.0573 1.785 3.7092-.2589 6.506-3.4694 6.2472-7.177-.1315-1.8784-1.0185-3.518-2.3427-4.6481h-.0186zm-3.0306 1.3573c-.5869-.0042-1.286.3118-1.9709.911-.2098.1855-.6195.598-1.0226.9854l-.4648.4277c-.3713-.0676-.736-.093-1.1156-.093-.8457 0-1.6172.2331-1.9708.595-.1331.1397-.2087.2892-.2045.4462.0082.4097.4895.6154.6321.6693.753.279 1.383.1869 2.0452-.2789.3656-.255.7909-.6532 1.1342-.9854.2683.0623.5846.1457.911.2417l.2975.0744c-.3894.3841-.8004.7904-1.1713 1.1156l-.0186.0372c-.5152.455-.893.77-1.4316.8924-.3792.0829-.6555.0152-.7437-.0372.3074.2514.595.415 1.097.3719.4838-.0425 1.0463-.3567 1.6175-.8925l.7623-.7437.5578-.5392c0 .0018 1.0784.3161 1.0784.3161-.028.0177-.6508.6693-.6508.6693l-.5763.5764c-.5943.577-.9157.8691-1.2643 1.1156-.573.408-1.0725.621-1.506.6507-.223.0149-.5482.0075-.8182-.1487.2903.2502.6352.5547 1.2458.5392.7002-.0218 1.3204-.36 2.2869-1.2457.4418-.4047.8773-.8637 1.2643-1.2643l.7251-.7252c.4732.1055.89.1587 1.3573.1488.68-.0148 1.2573-.3518 1.2643-.7251.007-.2753-.218-.4155-.3533-.502-.1116-.0738-.417-.2418-.8366-.2418-.5102 0-1.0405.2243-1.5804.6694l-.3533.316c.0048-.0017-.1487-.0371-.1487-.0371l-.9855-.279c.2947-.2744.5373-.5045.7624-.7064.5481-.4872 1.1515-.6847 1.506-.7066.2576-.0181.7074 0 .8924.1302.0079-.0006.0186-.0186.0186-.0186-.4921-.4204-.9136-.4834-1.2643-.4834-.3454 0-.9012.1055-1.5804.6322-.2766.2155-.6451.5864-1.0226.9668 0-.003-.502-.1673-.502-.1673l-.1116-.0372-.5392-.1488c.0124 0 .3161-.2975.3161-.2975.3577-.352.684-.6852.9482-.911.959-.8057 1.5703-.9078 1.9895-.911.4595-.0007.8175.09 1.0784.2788-.5314-.4796-.918-.645-1.5804-.6507zm-9.0362.1487l-.093.2789.4649.6321c.0618.0858.0708.0986.1302.1674-.0664.0148-.0927.007-.1302.0185l-.093.0372-.7437.2046-.093.2788 1.19-.3532.6693.2231.093-.2231-.6693-.2417-.7252-1.0226zm4.611 2.3799c.1983-.0107.4046-.0194.7438.0185-.014 0-.186.1674-.186.1674l-.1115.1115c-.4187.3817-1.1196 1.011-1.7477.9669-.31-.0227-.4648-.1506-.4648-.3905 0-.031.025-.7869 1.7663-.8738zm6.9166.1301c.153.0048.3347.053.3347.2417 0 .1958-.1765.3718-.5392.502-.317.1142-.807.1338-1.3387.0744.1459-.1323.2676-.2303.3719-.2975.4999-.34.912-.53 1.1713-.5206zm-10.5607.3533l-1.004.8553-.7252-.7995.0186.3346.7623.8367.0558.0558.0557.0557h-.186l-.6693.0186v.2603l1.7292-.0372v-.2603l-.6136.0186-.2789-.3161.8739-.7065-.0186-.3161zm-.0186 2.6774c-.0726-.0075-.1653.0073-.2417.0372-.1261.0523-.2058.1528-.2417.2974-.0363.1294-.0176.2586.0372.5578l.0185.1116c.0553.3045.044.431-.093.4834-.1693.0696-.3266-.0469-.4276-.2975-.1096-.2778-.0668-.4569.1488-.5764l-.093-.223c-.3198.1433-.4082.455-.2417.8738.1542.3857.4205.543.7065.4276.1266-.0498.2113-.137.2418-.2603.0214-.0985.0213-.179-.0186-.409l-.0186-.1116-.0185-.1301c-.0544-.3112-.0373-.463.1115-.5206.1834-.0763.3738.0602.4834.3346.1356.3367.0659.563-.1859.6694l.093.223c.363-.15.4639-.4861.2789-.9481-.1283-.32-.3215-.5167-.5392-.5392zM26.008 6.6963c-.773 0-1.408.1346-1.8964.4276-.0952.0578-.1746.135-.2603.2046-.087.0709-.1696.144-.2417.223-.2613.2882-.4647.6544-.595 1.097-.1273.4349-.1859.941-.1859 1.5247 0 .4323.0415.8239.1301 1.1713a3.451 3.451 0 00.0558.2045c.0194.0635.0488.1213.0744.186.0865.2217.1854.4326.316.6135.1315.1822.2906.3442.4649.4834.192.1554.4025.2808.6135.372.0417.0172.07.0219.1116.037.0437.0157.0885.0253.1301.0373v.0185c.1266.038.2806.0526.4463.0744.0333.0048.0612.0153.093.0186.2043.0218.434.0372.6879.0372h2.4542v-.9855h-2.3799c-.2765 0-.4979-.0261-.6879-.093a.9527.9527 0 01-.4276-.2974c-.1051-.129-.1865-.3084-.2417-.5392-.056-.2395-.093-.5306-.093-.8739 0-.572.064-1.8213.186-2.1567.0218-.061.0463-.13.0743-.186.0272-.0548.0629-.1054.093-.1487.1092-.1587.2487-.2741.4276-.3533.1855-.0812.406-.1301.6693-.1301h2.38v-.9668H26.008zm2.975 0v.9668h3.8858l-3.8859 4.7226v1.0412h5.7266v-.9854H30.991l3.7185-4.704V6.6963zm9.3893 0c-.7723 0-1.3903.1346-1.8779.4276-.0947.0578-.1936.135-.2789.2046-.0873.0709-.1691.144-.2417.223-.2604.2882-.447.6544-.5763 1.097-.1282.4349-.2046.941-.2046 1.5247 0 .4323.0424.8239.1302 1.1713a3.451 3.451 0 00.0557.2045c.0194.0635.0497.1213.0744.186a2.805 2.805 0 00.3347.6135c.1319.1822.2707.3442.4462.4834a2.662 2.662 0 00.6136.372c.042.0172.089.0219.1301.037.0437.0157.089.0253.1302.0373v.0185c.1257.038.2628.0526.4276.0744.033.0048.0807.0153.1116.0186.2044.0218.4336.0372.6879.0372h2.4357v-.9855h-2.3613c-.2753 0-.5158-.0261-.7066-.093a.9596.9596 0 01-.4276-.2974c-.1038-.129-.1873-.3084-.2417-.5392-.056-.2395-.0744-.5306-.0744-.8739 0-.032-.0006-.0575 0-.093h3.8116v-.9854h-3.7744c.0297-.462.0832-.8986.1488-1.0783.0226-.061.0467-.13.0743-.186.0272-.0548.0447-.1054.0744-.1487.1084-.1587.2674-.2741.4462-.3533.1863-.0812.4077-.1301.6694-.1301h2.3613v-.9668h-2.3985zm6.0985 0c-.7724 0-1.409.1346-1.8965.4276-.0956.0578-.1932.135-.2789.2046-.087.0709-.151.144-.2231.223-.2609.2882-.4647.6544-.595 1.097-.1277.4349-.186.941-.186 1.5247 0 .4323.042.8239.1302 1.1713a2.912 2.912 0 00.0558.2045c.0202.0635.0306.1213.0557.186h.0186c.0865.2217.185.4326.316.6135.1315.1822.2906.3442.4649.4834.1929.1554.3831.2808.595.372.042.0172.0893.0219.1301.037.0437.0157.089.0253.1302.0373v.0185c.1257.038.2813.0526.4462.0744.0338.0048.0612.0153.093.0186.2048.0218.4336.0372.6879.0372h2.4543v-.9855h-2.38c-.2769 0-.4983-.0261-.6879-.093a.955.955 0 01-.4276-.2974h-.0186c-.105-.129-.1687-.3084-.223-.5392-.057-.2395-.093-.5306-.093-.8739 0-.572.0643-1.8213.1859-2.1567.023-.061.0468-.13.0744-.186.0276-.0548.0624-.1054.093-.1487.1091-.1587.2483-.2741.4276-.3533.1846-.0812.4068-.1301.6693-.1301h2.3799v-.9668h-2.3985zm3.1236 0v6.7306h1.6175V10.545h2.2312v2.882h1.6362V6.6962H51.443v2.8633h-2.2312V6.6963zm-23.613 8.1065l-.0371.0744-2.7332 6.4703-.0744.1859h1.7292l.0372-.093.6879-1.8035h2.3427l.688 1.8035.0371.093h1.8035l-.0743-.186-2.7518-6.4702-.0372-.0744h-1.5246zm4.7784 0v6.7306h1.692v-6.7306zm2.603 0v6.7306h1.6362v-2.5472h1.3759l1.3944 2.4728.0372.0744h1.8407l-.1302-.2045-1.506-2.5472c.2473-.0767.455-.1955.6322-.3533.0437-.0392.093-.0708.1301-.1116.035-.0387.0559-.0972.093-.1487h.0186c.122-.1694.1997-.3588.2603-.5764.059-.2139.093-.4469.093-.7065 0-.5053-.096-.9263-.2976-1.2457-.04-.0627-.0827-.13-.1301-.186-.0483-.0552-.1117-.1-.1673-.1487-.197-.169-.4388-.2886-.7438-.3719-.2967-.0807-.6575-.1301-1.0598-.1301h-3.4768zm6.6005 0v3.9789c0 .2575.0145.4839.0372.6879.0226.2065.065.3904.1115.5392.0672.2155.1607.4116.2975.595.199.2666.471.5185.7623.6693.042.0218.0881.0384.1302.0557.1932.0833.3868.1195.595.1488.0362.0048.076.0145.1115.0186.2287.0267.4974.0371.7995.0371h1.8593v-.9854H40.938c-.2419 0-.5133.0048-.7437-.0744-.4315-.1487-.5678-.4555-.595-.8924-.0078-.1335 0-.3 0-.4834v-4.295h-1.6361zm5.1688 0v6.7306h1.6919v-6.7306zm2.5844 0v6.7306h1.6733l-.0185-.1301-.0558-4.3694 2.5287 4.4251.0371.0744h1.8036v-6.7306h-1.6734v.1301l.0557 4.1277-2.3798-4.1834-.0372-.0744h-1.9337zm9.7798 0c-.7731 0-1.4085.1524-1.8964.4462-.0948.0577-.1932.1155-.279.186-.0869.0708-.1505.1448-.223.223-.2618.2873-.4648.656-.595 1.097-.1274.4365-.186.941-.186 1.5247 0 .4323.042.823.1302 1.1713.0181.0713.0356.1419.0558.2045.019.0635.0318.122.0557.186h.0186v.0185c.0873.221.1842.412.316.595.1307.1813.2905.3441.4649.4834.192.1545.4021.2812.6135.3719.0417.0173.07.0409.1116.0557.044.0157.0893.0248.1301.0372a2.858 2.858 0 00.4463.093c.0338.0047.0624-.0036.093 0a6.332 6.332 0 00.6879.0371h2.4542v-.9854h-2.3799c-.2761 0-.4975-.0257-.6879-.093-.1818-.0642-.3242-.1535-.4276-.2788-.1051-.129-.1873-.3097-.2417-.5392-.0557-.239-.093-.5302-.093-.8739 0-.0321-.0004-.077 0-.1115h3.8301v-.9855h-3.793c.0306-.4628.0837-.8987.1488-1.0784a1.4605 1.4605 0 01.0744-.1673c.026-.0536.0625-.1063.093-.1487v-.0186c.11-.1578.2487-.2733.4276-.3533.1846-.0816.4076-.1115.6693-.1115h2.38v-.9854h-2.3986zm5.3548 0c-.6186 0-1.3375.0783-1.8221.502-.4587.4018-.5764 1.0336-.5764 1.6176 0 .4566.2104.9428.5578 1.2457.4612.3977 1.1443.4834 1.7291.4834h1.506c.7703 0 .9717.5482.9483 1.004-.0165.3437-.2862.8367-1.0412.8367h-3.4397v1.0412h3.7557c.8124 0 1.415-.1682 1.8036-.502.4541-.3899.5755-.9848.5763-1.5618 0-.6112-.0564-.9397-.502-1.3387-.145-.129-.3336-.2233-.5578-.2975-.3585-.1178-.7397-.1673-1.1155-.1673h-1.6176c-.7629-.0103-.9433-.5359-.9482-.8553-.01-.6763.559-.9668 1.227-.9668h3.2166v-1.0412zm-27.8521.9854h1.5246c.2226 0 .409.0088.5578.0558.1385.0436.2456.1216.316.2045.134.1562.2046.4415.2046.8553 0 .3045-.0399.5226-.1116.6879-.0144.0321-.0413.0686-.0557.093a.5634.5634 0 01-.0558.0743c-.1525.176-.4324.2603-.8552.2603H32.999v-2.2311zm-8.2552.7995l.7995 2.0638h-1.5804z"/><path fill-rule="evenodd" fill="#ef001e" d="M12.3474 13.3894h-3.992l.3207-1.358h2.568c.8778.0042 1.3044-.7653.6775-1.1947-.6153-.4295-1.0146-.772-1.625-1.2067-1.236-.8762-.654-2.9192 1.4202-2.9307h3.7644l-.328 1.3378h-2.5256c-.6944-.012-.846.7521-.3964 1.032l1.6163 1.2009c1.3337 1.0064.5519 3.1165-1.5001 3.1194zm4.5878 7.298c-.4043.7493-1.3588 1.0605-2.1262.6957-4.0883-1.9465-7.6916-4.6752-10.6861-7.9937h3.7343l.333-1.3472H5.8295c-.0667-.0006-.1343.0018-.2011-.0066-.3548-.0462-.5621-.1958-.6784-.3767-.1174-.181-.152-.3862-.126-.5502.0029-.042.126-.5572.1335-.6l.0023-.0133.3524-1.4087h.0006c.1562-.652.7006-1.0422 1.4285-1.0616h2.42l.3223-1.3357H7.8198l-2.0949.785.2012-.785h-.2964c-.6717-.0083-1.1412.0515-1.4709.2052-.2975.1385-.5234.3668-.6165.7068l-.9648 3.9557A36.014 36.014 0 01.241 8.2188c-.445-.7175-.2621-1.707.4513-2.193C6.1981 2.271 12.7081.1554 19.3744.0005c.8633-.021 1.5949.6573 1.6657 1.512a33.1406 33.1406 0 01.0133 5.2l-3.556-.0018-3.3712 6.6641h2.463l.3977-.8869c.0387-.0898.0799-.1183.1961-.1162h1.7664c.0342-.0018.108.012.1113.0985l.0218.9046h.7987a35.5115 35.5115 0 01-2.9463 7.3125zm2.0838-9.5223l-.0804-2.727c-.0036-.0956-.0849-.1026-.1278-.007L17.57 11.1853c-.0511.1076-.0198.211.0738.2032h1.245c.1072-.0066.1414-.0919.1303-.2234z"/></svg>