<svg xmlns="http://www.w3.org/2000/svg" height="800" width="1200" viewBox="-21.5997 -8.52825 187.1974 51.1695"><g transform="translate(-2.555 -2.14)"><path d="M100.523 36.253h26.336L146.553 2.14h-26.335zm26.157-13.875v7.486h-6.343v-7.486h-7.485v-6.343h7.485V8.549h6.343v7.486h7.485v6.343z" fill="red"/><path d="M97.846 17.26v-1.444h-5.188V29.83h5.18v-6.735c-.009-2.235 2.088-3.682 5.122-2.787l-.01-4.603c-1.306-.329-3.271-.256-5.104 1.555zM79.763 28.411v1.42h5.071V15.816h-5.072v1.328c-1.364-1.34-2.359-1.777-4.366-1.809-3.3-.053-6.817 2.52-6.813 7.253.005 5.068 3.378 7.545 6.764 7.538 2.079-.005 3.805-.872 4.416-1.715zm-2.791-2.585c-1.69 0-3.061-1.371-3.061-3.061 0-1.691 1.37-3.062 3.061-3.062 1.691 0 3.062 1.371 3.062 3.062-.001 1.69-1.372 3.061-3.062 3.061zm-19.307-.641l-1.835 3.599c1.673 1.017 4.115 1.573 5.975 1.57 1.524-.002 3.072-.369 4.308-1.245 1.399-.992 2.208-2.528 2.076-4.446-.12-1.733-.935-2.742-2.149-3.285-1.218-.544-2.493-.539-3.529-.815-.392-.104-.667-.3-.591-.879.088-.664.978-.831 1.662-.798 1.013.049 1.725.399 2.373.66l1.688-3.31c-1.011-.591-3.256-.977-4.746-.932-1.379.041-2.716.282-3.808.883-1.473.811-2.346 2.209-2.405 3.928-.058 1.663.724 3.331 2.55 3.922.882.286 1.823.213 2.87.453.485.111.94.524.807 1.078-.168.694-.837.889-1.522.901-1.223.02-2.811-.615-3.724-1.284zm28.499-9.369h5.18v14.016h-5.18zm-64.459 7.46l-1.958-7.461h-5.334l4.7 14.015h4.92l2.254-7.685 2.017 7.685h5.001l5.002-14.014h-5.038l-2.237 7.622-2-7.622h-5.138z"/><circle r="2.92" cy="10.766" cx="88.775"/><path d="M38.447 15.816h5.181v14.016h-5.181z"/><circle r="2.92" cy="10.766" cx="41.06"/><path d="M4.39 25.188l-1.835 3.6c1.673 1.017 4.115 1.572 5.975 1.57 1.524-.002 3.072-.369 4.308-1.245 1.4-.993 2.208-2.528 2.076-4.446-.119-1.733-.935-2.742-2.149-3.285-1.218-.544-2.493-.539-3.529-.814-.392-.104-.667-.3-.591-.879.088-.665.979-.831 1.663-.798 1.012.049 1.724.399 2.372.66l1.688-3.31c-1.011-.591-3.256-.977-4.745-.933-1.379.041-2.717.282-3.809.883-1.473.811-2.346 2.209-2.405 3.929-.058 1.663.724 3.331 2.551 3.922.881.285 1.822.213 2.869.452.485.111.941.524.807 1.078-.168.694-.836.89-1.522.901-1.223.019-2.811-.616-3.724-1.285zm41.3-.003l-1.835 3.599c1.673 1.017 4.115 1.573 5.975 1.57 1.524-.002 3.072-.369 4.308-1.245 1.399-.992 2.208-2.528 2.076-4.446-.12-1.733-.935-2.742-2.149-3.285-1.218-.544-2.493-.539-3.529-.815-.392-.104-.667-.3-.591-.879.088-.664.978-.831 1.662-.798 1.013.049 1.725.399 2.373.66l1.688-3.31c-1.011-.591-3.256-.977-4.746-.932-1.379.041-2.716.282-3.808.883-1.473.811-2.346 2.209-2.405 3.928-.058 1.663.724 3.331 2.55 3.922.882.286 1.823.213 2.869.453.486.111.941.524.808 1.078-.168.694-.837.889-1.522.901-1.223.02-2.811-.615-3.724-1.284z"/></g></svg>