<svg id="Layer_1" data-name="Layer 1" xmlns="http://www.w3.org/2000/svg" viewBox="0 0 350 286.13"><defs><style>.cls-1{fill:#47143d;}.cls-2{fill:#fff;}.cls-3{fill:#b99750;}</style></defs><path id="path2466" class="cls-1" d="M75-.06H425V286.06H75Z" transform="translate(-75 0.06)"/><path id="path2464" class="cls-2" d="M233.28,202.4c-.12,0-1.4.38-2.85.85a12.11,12.11,0,0,0-3,1.2l-.39.35v29.09l.29,1.13a10.45,10.45,0,0,0,7.08,7.8,21.59,21.59,0,0,0,9.11,1,32.46,32.46,0,0,0,5.3-.9c1.8-.45,2.24-.63,2.36-1a9,9,0,0,0-.93-3c-.27-.32-.49-.28-2.18.28a16.29,16.29,0,0,1-6,1.07,10.3,10.3,0,0,1-2.87-.28,6.25,6.25,0,0,1-4.3-3.11c-.74-1.48-.75-1.54-.75-12.27v-9.8h15l.37-.37c.35-.35.37-.44.37-1.47s0-1.13-.31-1.44l-.3-.36-7.55,0-7.56,0V203l-.3-.32a1.05,1.05,0,0,0-.52-.31Zm-32.06,7a34.28,34.28,0,0,0-8,.94c-4.56,1.15-7.79,3.66-8.86,6.89a6.26,6.26,0,0,0-.34,2.36,7.16,7.16,0,0,0,.71,3.54c1.22,2.6,4,4.34,8.47,5.25a53,53,0,0,0,7.79.8c5.19.33,7,.62,8.68,1.39a3.49,3.49,0,0,1,2.34,3.46,3.92,3.92,0,0,1-1.49,3.58,6.85,6.85,0,0,1-2.18,1.57c-5.4,2.66-14.18,1.68-22-2.45-1.32-.7-1.38-.71-1.72-.53a7.31,7.31,0,0,0-1.53,2.57c-.11.54.16.85,1.23,1.39a36.61,36.61,0,0,0,10.92,3.32,29.51,29.51,0,0,0,6.52.32,34.21,34.21,0,0,0,5.38-.3c5.73-.89,9.49-2.73,11.4-5.57a6.64,6.64,0,0,0,1.26-4.16,8.05,8.05,0,0,0-.15-2.42c-.82-3.15-3.25-5.4-7.15-6.64-2.19-.7-5-1.06-11.19-1.47a32.54,32.54,0,0,1-6.26-.72,4.94,4.94,0,0,1-3.36-2.22,5.33,5.33,0,0,1,0-3.55,5.68,5.68,0,0,1,2.67-2.76c1.86-1,3.86-1.33,7.18-1.33a30.18,30.18,0,0,1,13.14,2.92,14.67,14.67,0,0,0,1.92.82c.3,0,.67-.42,1.28-1.46s.64-1.38.2-1.79a24.12,24.12,0,0,0-4.73-2,40.11,40.11,0,0,0-12.13-1.72Zm73.78.44a38.06,38.06,0,0,0-4,.16,36.77,36.77,0,0,0-8.53,2.14,35.3,35.3,0,0,0-4.58,2.18c-.43.38-.3,1,.62,2.94.34.72.54.68,3.38-.72,6.26-3.09,11.77-4,16.89-2.8,3.7.87,6.12,2.82,7.06,5.69A24.94,24.94,0,0,1,286,225a3.37,3.37,0,0,1-1.45-.19,46.38,46.38,0,0,0-18.17-1c-7.3,1.23-11.21,4.72-11.2,10a8.12,8.12,0,0,0,2.48,6.28c2,1.95,4.61,3,8.75,3.57a50.53,50.53,0,0,0,8.95-.12,24.88,24.88,0,0,0,9.73-3.54,4.72,4.72,0,0,1,.86-.49c.09,0,.14.47.14,1.28,0,2.26.06,2.29,3.64,2.29,3,0,3.28-.06,3.51-.86.11-.33.13-3.41.1-10.5-.05-9.64-.06-10.07-.32-11.11a12.92,12.92,0,0,0-2.58-5.41c-2.21-2.75-6.11-4.51-11.5-5.21a35.93,35.93,0,0,0-3.95-.16Zm88.45,0a39.19,39.19,0,0,0-4.28.22,37.35,37.35,0,0,0-11.76,3.73c-1.32.65-1.38.88-.69,2.5.5,1.18.74,1.52,1.08,1.52a14.07,14.07,0,0,0,2.06-1c6-3.13,11.45-4.21,16.65-3.31,3.95.68,6.74,2.65,7.83,5.5.3.81.33,1.06.38,3.48l.06,2.6-.37-.07-1.79-.4c-1.76-.41-4.61-.89-6.5-1.11a57.38,57.38,0,0,0-9.54.06c-7.31.93-11.56,3.75-12.56,8.31a10.55,10.55,0,0,0,.26,4.89,9.09,9.09,0,0,0,2.17,3.47c1.9,1.76,5,3,8.63,3.4a44.51,44.51,0,0,0,7.83,0,24.61,24.61,0,0,0,10.74-3.57,6.09,6.09,0,0,1,1-.58,3.32,3.32,0,0,1,.11,1.19,7.18,7.18,0,0,0,.14,1.61c.25.7.56.77,3.48.77a21.16,21.16,0,0,0,2.94-.12c.74-.28.72,0,.72-10.52,0-6.14,0-10-.14-10.62a12.25,12.25,0,0,0-7.19-10,25.61,25.61,0,0,0-7-1.87,37,37,0,0,0-4.21-.16Zm-61.14.68-.37.37-.39.38v15.43c0,16.58,0,15.85.65,16.21a26,26,0,0,0,5.92,0c.69-.32.7-.44.7-5.85v-5h7.77l4.9,4c7.69,6.26,7.8,6.35,8.41,6.65s.74.28,4.5.32,3.94,0,4.18-.22a.83.83,0,0,0,.08-1.11c-.11-.16-3-2.41-6.45-5s-6.29-4.79-6.32-4.85.35-.15.85-.2c4.8-.46,8.77-2.83,10.45-6.27a8.62,8.62,0,0,0,1-4,9.25,9.25,0,0,0-2.51-7.19,13.27,13.27,0,0,0-5.85-3.25l-1.25-.35-26.26-.07Zm-184,0-.2.3a1,1,0,0,0,0,.74c.1.23,17.77,31,18.11,31.24s.46.3,3.91.26l3.48,0,.31-.31c.46-.46,18-31.12,18-31.45a.83.83,0,0,0-.21-.51c-.19-.21-.44-.23-2.23-.23h-2l-.37.35c-.2.19-15.54,27.22-15.67,27.08s-15.25-27.2-15.45-27.28l-7.6-.15Zm50.44,0-.31.31-.32.31v31.2l.38.38.37.36h5.92l.37-.36.37-.38V211.25l-.33-.34-.34-.33ZM308.91,214h7.91c7.18,0,8,0,8.74.23a6.53,6.53,0,0,1,4.69,5.2,9.68,9.68,0,0,1-.27,4.55,6.41,6.41,0,0,1-4.89,4.53c-.89.23-1.47.25-8.6.25h-7.65l.07-14.76Zm-35,12.64a44,44,0,0,1,6.55.47,38.59,38.59,0,0,1,5.52,1.11,35.6,35.6,0,0,1,.07,4l0,3.89-.83.55a25.84,25.84,0,0,1-6.22,2.9,21.69,21.69,0,0,1-6.62.89c-1.48,0-2.83,0-3,0-4.11-.75-6.09-2.54-6.52-5.89a5.66,5.66,0,0,1,1.73-5.14c1.91-1.78,5.06-2.7,9.35-2.76Zm89,0a47.71,47.71,0,0,1,9.24,1c1.08.22,2.1.45,2.27.51l.32.12,0,3.92,0,3.94-.9.6a28.7,28.7,0,0,1-4.6,2.33,27,27,0,0,1-5.24,1.28,34.86,34.86,0,0,1-6.27.06A8.44,8.44,0,0,1,353,238a6.94,6.94,0,0,1-.57-7.7c1.66-2.4,5.37-3.67,10.53-3.7Z" transform="translate(-75 0.06)"/><path id="path2444" class="cls-3" d="M250,43.2l-.52.36a85.81,85.81,0,0,0-10.14,9.51,101.76,101.76,0,0,0-8.11,10.35,16.75,16.75,0,0,1-1.32,1.8,13.35,13.35,0,0,1-2.39-.34,95.09,95.09,0,0,0-22.93-1.58c-3.59.23-5,.44-5.17.75a41.11,41.11,0,0,0-.64,6.8A94.51,94.51,0,0,0,200.22,91c.26,1.4.5,2.75.53,3,.07.44.07.45-1.44,1.47a96.26,96.26,0,0,0-16.72,14.33,45.2,45.2,0,0,0-3.67,4.46c-.12.24,0,.42.64,1.29,4.34,5.68,12.36,13,19.6,17.79a17.72,17.72,0,0,1,1.68,1.22c0,.06-.15,1.13-.38,2.36a92,92,0,0,0-1.68,19.71,54.88,54.88,0,0,0,.55,8.15c0,.16.36.24,1.17.35,7.37,1,18.13.47,26.92-1.26,1.06-.21,2.07-.37,2.24-.37s.5.26,1.41,1.62a108.07,108.07,0,0,0,8.1,10.44c3.41,3.86,10.06,10,10.8,10a5.83,5.83,0,0,0,1.28-.86,66.11,66.11,0,0,0,6.33-5.81A94.19,94.19,0,0,0,269,164.93a8.81,8.81,0,0,1,1.11-1.45,15.82,15.82,0,0,1,2.22.32,95.64,95.64,0,0,0,21.52,1.7c3.89-.17,6.32-.43,6.53-.72.35-.46.7-5.18.7-9.64a93.59,93.59,0,0,0-1.73-18.24,16.3,16.3,0,0,1-.37-2.37,10.1,10.1,0,0,1,1.42-1.05,92.91,92.91,0,0,0,13.94-11.36c3.42-3.37,6.79-7.2,6.79-7.71s-2.92-3.85-5.67-6.64a100,100,0,0,0-14.73-12.22c-1.27-.85-1.7-1.2-1.7-1.4s.18-1.13.38-2.18a95.28,95.28,0,0,0,1.67-21.17c-.17-3.82-.44-6.46-.7-6.8-.36-.5-6.26-.9-11.76-.79A90.64,90.64,0,0,0,273,64.76c-1.33.25-2.55.45-2.71.45s-.5-.34-1.24-1.43A96,96,0,0,0,255.69,48a62.26,62.26,0,0,0-5.22-4.44l-.5-.34Zm0,4c.48,0,5.94,5.22,8.62,8.24,3.45,3.88,8,10,7.95,10.5,0,.16-.56.36-1.95.76-1.06.3-2,.55-2.12.55s-.37-.23-.56-.52c-.66-1-3.16-4.25-4.45-5.79-2.4-2.86-7-7.36-7.51-7.36a26.82,26.82,0,0,0-4.3,3.87,79.27,79.27,0,0,0-7.55,9.2c-.51.74-.54.74-2.7.11-2-.59-2-.61-2-.85a26.13,26.13,0,0,1,2.89-4.21,90.74,90.74,0,0,1,12.12-13.26A9.34,9.34,0,0,1,250,47.2Zm0,10.47a32.32,32.32,0,0,1,4.19,4.17A49.46,49.46,0,0,1,259,68.19c0,.11-.26.28-.61.41-1.69.62-5.51,2.16-6.9,2.79-.87.39-1.62.71-1.67.71s-.51-.21-1-.46c-1.45-.68-4.65-2-6.32-2.61a7.28,7.28,0,0,1-1.57-.72c-.17-.46,4.07-5.73,7.23-9A12,12,0,0,1,250,57.67Zm40,8.59c.67,0,1.33,0,2,0,4.08.09,5.47.19,5.68.39s.41,3.59.41,7.41a89.74,89.74,0,0,1-16.21,51.85l-1.09,1.51.28,2.19a59.56,59.56,0,0,1,.48,9.53c-.07,3.56-.28,6-.53,6.24s-3.47.53-7.35.54a55.36,55.36,0,0,1-8.81-.52,6.4,6.4,0,0,0-1.94-.12c-.13.07-.75.51-1.39,1a14.77,14.77,0,0,1-3.59,2.22,8.37,8.37,0,0,1-1.64-.62c-1.9-.87-2.69-1.28-2.69-1.41s0-.17,2.88-2c1.26-.83,3-2.06,3.93-2.74a7.78,7.78,0,0,1,1.93-1.23,18.6,18.6,0,0,1,1.88.32,49.2,49.2,0,0,0,11.38.9c1.08-.08,1.38-.14,1.44-.3a18.47,18.47,0,0,0,.16-2.25,46.48,46.48,0,0,0-.94-10.43c-.18-.88-.33-1.7-.33-1.85a12.19,12.19,0,0,1,1.4-2.11,83.12,83.12,0,0,0,16.14-43,88,88,0,0,0,.07-9.29c-.09-1.09-.14-1.27-.38-1.4A76.11,76.11,0,0,0,283,71a85.17,85.17,0,0,0-24,5.39l-.8.3-.54-.31-2-1.11c-1.7-1-2.08-1.25-1.91-1.44a67.73,67.73,0,0,1,6.35-2.51,91.72,91.72,0,0,1,29.72-5Zm-80.52,0c2.75,0,5.67.08,7.47.24a90.51,90.51,0,0,1,33.25,9.17,88.79,88.79,0,0,1,12.35,7.49l.57.4,1.21-.18a70.76,70.76,0,0,1,14.12-.47c2.17.21,2.48.27,2.61.52.39.72.65,8.09.41,11.44-.08,1.13-.27,3-.42,4.24l-.27,2.19.76,1.07a23.42,23.42,0,0,1,2.62,4.12,15.82,15.82,0,0,1-.92,2.28c-.68,1.47-1,2-1.15,2s-.42-.33-.75-.88c-.8-1.35-2.84-4.35-4.09-6-.62-.82-1.15-1.56-1.2-1.64a9.27,9.27,0,0,1,.29-2.11,47.08,47.08,0,0,0,.89-7.28,29.3,29.3,0,0,0-.18-5.57c-.05,0-1.73-.08-3.74-.08a37.21,37.21,0,0,0-9,.83c-1,.21-1.93.38-2,.38s-.87-.59-1.81-1.3c-14.28-10.74-32.62-16.8-49.68-16.42-1.8,0-3.46.13-3.71.18s-.45.17-.56.68a95.24,95.24,0,0,0,.09,11.24,84.77,84.77,0,0,0,4.56,20.37l.85,2.32.18.53-.9,1.56c-.5.87-1.05,1.85-1.23,2.19-.46.91-.7.84-1.2-.38A93.72,93.72,0,0,1,201.94,80c-.17-2.42-.18-9.48,0-11.57.09-1.18.18-1.63.33-1.74.31-.23,3.6-.36,7.15-.37Zm1.24,7.48c.52,0,1.28,0,2.45,0a76.9,76.9,0,0,1,22.69,3.94c1.94.64,2.39.86,2.25,1.1a9.68,9.68,0,0,1-1.05.79l-1,.67-1.11-.14a54,54,0,0,0-8.26-.46c-2.64,0-4.81.06-5.81.16a28.44,28.44,0,0,0-4.65.79,14.65,14.65,0,0,0-.68,3.52,101.77,101.77,0,0,0,0,14c.31,2.43.32,2.39-.43,3.45a4.16,4.16,0,0,1-.76.91c-.06,0-.17-.1-.23-.23a77.28,77.28,0,0,1-2.38-7.84,76.36,76.36,0,0,1-2.33-17.16c-.08-2.89-.07-3.08.16-3.31S209.82,73.77,210.66,73.77Zm77,.12a12.42,12.42,0,0,1,2.7.15,62.88,62.88,0,0,1-.07,7.16,80.71,80.71,0,0,1-3.79,19,12.62,12.62,0,0,1-.86,2.27c-.13.11-.23.07-.42-.14s-.5-.64-.8-1.07l-.53-.78.28-2.35a84.3,84.3,0,0,0,.07-13.84,14.21,14.21,0,0,0-.68-3.66,19.75,19.75,0,0,0-4.26-.71,81.47,81.47,0,0,0-12,0c-4,.42-3.52.45-4.55-.3-.48-.36-.88-.75-.88-.86s.41-.36,1.6-.76a82,82,0,0,1,19.73-4c1.23-.09,3-.14,4.46-.14ZM242,80.15a22.42,22.42,0,0,1,4.51,2.14,4.08,4.08,0,0,1-1.2.95c-2.12,1.35-4,2.63-5.76,4a8.21,8.21,0,0,1-2,1.26c-.16,0-1.15-.17-2.21-.38a39.51,39.51,0,0,0-8.75-.82,20.8,20.8,0,0,0-3.46.14c-.33.14-.34.2-.44,1.53a49.24,49.24,0,0,0,.9,11.39c.18.87.32,1.7.32,1.83a9,9,0,0,1-1.17,1.8A84.57,84.57,0,0,0,211,125.86a86,86,0,0,0-4.61,21.79c-.13,1.79-.15,8.22,0,9.47l.07.76.77.09a73.39,73.39,0,0,0,8,.1,84.44,84.44,0,0,0,24.56-5.19l1.89-.7,2.07,1.17a21.11,21.11,0,0,1,2.17,1.33c.15.24-.16.41-2.33,1.27a94.28,94.28,0,0,1-38.67,6.45,17.64,17.64,0,0,1-2.51-.24c-.41-.15-.43-.41-.54-5.55a91.3,91.3,0,0,1,16.45-54.2l.76-1-.19-1.38a53.11,53.11,0,0,1-.58-6.35c-.18-3.86.17-9.95.58-10.3s3.26-.53,7.71-.53a49.74,49.74,0,0,1,9.09.56l1.22.16.88-.64a36.3,36.3,0,0,1,4.2-2.73Zm8,4a43.44,43.44,0,0,1,5.2,3.14c1.91,1.29,3.09,2.15,5,3.68,1.29,1,1,1,3.47.41a52.06,52.06,0,0,1,7.9-1.07c2.25-.11,2.48-.09,2.54.2,0,.11,0,1.12-.05,2.26a46.36,46.36,0,0,1-1.33,9.22l-.23,1,.9,1.13c1.25,1.58,2.52,3.32,3.62,5a56.24,56.24,0,0,1,3.2,5.28,36.26,36.26,0,0,1-2.79,4.7c-1.31,2-2.47,3.6-3.9,5.41l-1.14,1.46.39,1.67a48.93,48.93,0,0,1,1.25,8.91c.07,1.34.06,1.8-.07,2-.44.53-6.48-.06-10.71-1l-1.95-.45-1.11.88c-1.76,1.39-3.54,2.69-5.33,3.88a46.06,46.06,0,0,1-4.84,2.92,1.19,1.19,0,0,1-.4-.15,84.41,84.41,0,0,1-9.94-6.69,4.52,4.52,0,0,0-1.26-.82,8.57,8.57,0,0,0-1.23.25,56.74,56.74,0,0,1-5.69,1,32.06,32.06,0,0,1-5.48.24c-.19-.1-.22-.32-.22-1.61a44.93,44.93,0,0,1,1.16-9.15c.21-.9.37-1.74.37-1.86a6.44,6.44,0,0,0-1-1.42c-2.34-2.92-6.7-9.5-6.7-10.08a44.45,44.45,0,0,1,3.12-5.18c1.17-1.74,2.65-3.76,4-5.5l.51-.66-.25-1a50.13,50.13,0,0,1-1.37-9.41c-.07-1.53-.05-2,.07-2.19.44-.52,6.51.07,10.72,1l2,.46.67-.53c1.57-1.26,3.82-2.91,5.56-4.08A45.58,45.58,0,0,1,250,84.11ZM201.49,97.78c.11,0,.24.22.33.55s.34,1.22.58,2,.44,1.56.44,1.61a12.64,12.64,0,0,1-1.57,1.23c-1.76,1.26-4.13,3.13-5.65,4.46a78,78,0,0,0-5.83,5.79l-.75.94.61.78a63.35,63.35,0,0,0,5.65,5.67c1.92,1.68,4.6,3.79,6.16,4.87a5.93,5.93,0,0,1,1.32,1.11,18.86,18.86,0,0,1-1.15,4.12c-.13.14-.36,0-1.23-.55a96.12,96.12,0,0,1-12.24-10.08c-2.65-2.59-5.38-5.6-5.38-5.94,0-.58,6.06-6.77,9.5-9.71s8.73-6.9,9.21-6.9Zm96.87,0a56.39,56.39,0,0,1,5.73,4,95,95,0,0,1,10.63,9.66c2.18,2.38,2.44,2.69,2.44,2.93s-1.79,2.3-4.65,5.14a91.85,91.85,0,0,1-11.7,9.88c-2.07,1.47-2.44,1.7-2.65,1.57a29.35,29.35,0,0,1-1.15-3.87c-.05-.3,0-.41.62-.83a76.47,76.47,0,0,0,11.8-10.13c.7-.78,1.32-1.5,1.38-1.61s-.4-.93-2.58-3.16a71.47,71.47,0,0,0-9.57-8.14,13,13,0,0,1-1.61-1.25,7.17,7.17,0,0,1,.36-1.66c.24-.82.5-1.73.58-2s.22-.55.37-.55Zm-94.65,7.62c.25,0,.38.29.65,1.07.51,1.43,1.75,4.51,2.5,6.15a10.86,10.86,0,0,1,.7,1.82,18.24,18.24,0,0,1-.87,2.24c-.76,1.69-1.19,2.78-2.51,6.27-.1.25-.26.46-.41.48a8.07,8.07,0,0,1-1.76-1.12c-3.51-2.64-8.75-7.39-8.75-7.92s6.65-6.47,9.81-8.65A1.41,1.41,0,0,1,203.71,105.4Zm92.35,0c.22,0,.52.16,1.06.57,4,2.93,9.56,7.83,9.56,8.42s-5,5-8.49,7.66c-2,1.48-2.15,1.59-2.33,1.37a16.34,16.34,0,0,1-.74-1.81c-.33-.92-1.08-2.79-1.68-4.16a28.27,28.27,0,0,1-1.14-2.87,5.05,5.05,0,0,1,.69-2c.68-1.5,1.9-4.5,2.55-6.31.19-.52.31-.79.52-.82ZM217.91,118c.13,0,.42.33.71.8,1,1.58,2.72,4.15,4.07,5.95l1.38,1.85-.4,2a36.76,36.76,0,0,0-.83,9c0,2.85,0,3.7.15,3.83s1,.17,3.9.17a35.86,35.86,0,0,0,9-.85l2-.38,1.79,1.34a83.49,83.49,0,0,0,21.22,11.42,85.82,85.82,0,0,0,20.93,4.71,91.81,91.81,0,0,0,10.76.13c.78-.09.85-.12.93-.44a80.67,80.67,0,0,0,.08-9,85.49,85.49,0,0,0-2.71-16.35c-.58-2.17-1.95-6.38-2.6-8.07a9.1,9.1,0,0,1-.45-1.29,40,40,0,0,1,2.45-4.32c.22-.14.35.12,1.15,2.07a95.46,95.46,0,0,1,6.49,29.37c.25,4,.09,11.91-.25,12.25s-7.77.52-11.37.32a96,96,0,0,1-18.84-2.87,86.63,86.63,0,0,1-28.67-13l-1.84-1.29-2.31.29a62.53,62.53,0,0,1-11.76.4,15.47,15.47,0,0,1-4-.52c-.39-.33-.74-6.52-.56-10.33a63.18,63.18,0,0,1,.64-6.83l.14-.76-.55-.77a34.35,34.35,0,0,1-2.8-4.3,20.61,20.61,0,0,1,1-2.34c.7-1.54,1-2.13,1.19-2.13Zm67.65,8.33h0c.24,0,.5.74,1.38,3.56a79.51,79.51,0,0,1,3.58,21.58c.08,2.86.06,3.15-.14,3.36s-.48.21-2.23.2l-2.7-.07a82.52,82.52,0,0,1-20.69-3.77c-2.37-.77-2.94-1-2.94-1.18s.42-.48.93-.84l.92-.66.83.07,2.88.26c1.12.11,3,.23,4.27.27,4.59.16,11.69-.48,12-1.08a39.2,39.2,0,0,0,.76-5.56,70.5,70.5,0,0,0-.32-12.49l-.21-1.62.74-1q.68-1,.9-1Zm-71.24.11c.34,0,1.41,1.62,1.41,2.12,0,.22-.09,1.17-.21,2.11a116.22,116.22,0,0,0-.07,13.45,25.77,25.77,0,0,0,.69,3.92c.23.46,4.51,1,9,1.1a64.29,64.29,0,0,0,9.24-.43l1.71-.21.89.62c1.15.79,1.25.92.94,1.15a13.15,13.15,0,0,1-2,.74,80.73,80.73,0,0,1-21.78,4,21.66,21.66,0,0,1-4.28,0l-.44-.09v-3.45a74.91,74.91,0,0,1,3.84-22.58C213.93,126.88,214.14,126.4,214.32,126.4Zm35.58,30.27c.07,0,1.24.48,2.62,1.07s3.3,1.37,4.28,1.73c2.07.76,2.16.8,2.21,1.06a52.84,52.84,0,0,1-9,10.57,8.24,8.24,0,0,1-1.55-1.37c-1.47-1.49-2.9-3.08-4.21-4.69a37.25,37.25,0,0,1-3.32-4.56c0-.14.2-.29.61-.43,1.81-.67,4.91-1.91,6.48-2.6a20.08,20.08,0,0,1,1.91-.78Zm12.56,4.81a10.49,10.49,0,0,1,1.43.33l2,.55c.51.15.68.25.68.43,0,.5-4.07,6-7.06,9.45s-9,9.34-9.54,9.34a7.62,7.62,0,0,1-1.55-1.18,90.79,90.79,0,0,1-11.93-13.06c-2.05-2.74-3.16-4.38-3.11-4.62s4-1.42,4.27-1.19a11.85,11.85,0,0,1,.91,1.2c1,1.46,2.68,3.59,4.11,5.31,2.06,2.46,6.88,7.28,7.3,7.28a25.16,25.16,0,0,0,3.56-3.19,76.21,76.21,0,0,0,7.63-9.09,12.48,12.48,0,0,1,1.23-1.55Z" transform="translate(-75 0.06)"/></svg>