<svg width="22" height="17" viewBox="0 0 22 17" fill="none" xmlns="http://www.w3.org/2000/svg">
<path d="M21.2391 10.7832V10.7739C21.2375 10.7668 21.2353 10.7599 21.2325 10.7532C21.1703 10.5834 21.098 10.4175 21.016 10.2564L17.1188 1.39885C17.0813 1.31354 17.0282 1.23596 16.9622 1.1701C16.6836 0.891455 16.3529 0.670416 15.9889 0.519609C15.6248 0.368802 15.2347 0.291182 14.8406 0.291182C14.4466 0.291182 14.0565 0.368802 13.6924 0.519609C13.3284 0.670416 12.9977 0.891455 12.7191 1.1701C12.5789 1.31042 12.5001 1.50053 12.4997 1.69885V4.0426H9.49971V1.69885C9.49979 1.60033 9.48046 1.50276 9.44281 1.41172C9.40517 1.32067 9.34996 1.23793 9.28034 1.16823C9.00175 0.88958 8.671 0.668541 8.30698 0.517734C7.94296 0.366927 7.5528 0.289307 7.15877 0.289307C6.76475 0.289307 6.37459 0.366927 6.01057 0.517734C5.64654 0.668541 5.3158 0.88958 5.03721 1.16823C4.97126 1.23409 4.91817 1.31166 4.88065 1.39698L0.987212 10.2564C0.9052 10.4175 0.832884 10.5834 0.770649 10.7532C0.768041 10.7596 0.765849 10.7662 0.764087 10.7729C0.764087 10.7729 0.764087 10.7804 0.764087 10.7832C0.376889 11.902 0.446163 13.1283 0.956894 14.1963C1.46763 15.2644 2.37867 16.0881 3.49258 16.4891C4.6065 16.89 5.83354 16.8358 6.90779 16.3383C7.98204 15.8408 8.81696 14.9399 9.23159 13.831C9.41415 13.3329 9.50622 12.8062 9.50346 12.2757V5.5426H12.5035V12.2767C12.5007 12.8072 12.5928 13.3339 12.7753 13.832C13.19 14.9409 14.0249 15.8417 15.0991 16.3392C16.1734 16.8368 17.4004 16.8909 18.5143 16.49C19.6283 16.0891 20.5393 15.2653 21.05 14.1973C21.5608 13.1292 21.63 11.9029 21.2428 10.7842L21.2391 10.7832ZM7.81877 13.3145C7.54182 14.0535 6.98484 14.6536 6.26851 14.9847C5.55219 15.3159 4.73422 15.3515 3.99185 15.0838C3.24947 14.816 2.64249 14.2666 2.30241 13.5544C1.96234 12.8423 1.91657 12.0248 2.17502 11.2792L2.34471 10.892C2.65659 10.2991 3.15791 9.82774 3.7688 9.55289C4.37968 9.27804 5.06498 9.21555 5.7155 9.37538C6.36602 9.5352 6.94434 9.90815 7.3583 10.4348C7.77227 10.9614 7.99806 11.6115 7.99971 12.2814V12.2926C7.99966 12.6424 7.93842 12.9895 7.81877 13.3182V13.3145ZM18.031 15.1117C17.5775 15.2777 17.0906 15.3317 16.6118 15.2693C16.1329 15.2068 15.6762 15.0297 15.2805 14.753C14.8847 14.4762 14.5616 14.1081 14.3387 13.6797C14.1157 13.2514 13.9994 12.7755 13.9997 12.2926V12.2823C14.0022 11.6127 14.2286 10.9633 14.6428 10.4373C15.0571 9.91125 15.6354 9.53894 16.2857 9.37959C16.936 9.22025 17.621 9.28303 18.2315 9.55795C18.842 9.83286 19.343 10.3041 19.6547 10.8967L19.8244 11.2839C20.0912 12.0294 20.0523 12.8502 19.7164 13.5673C19.3804 14.2843 18.7746 14.8395 18.031 15.1117Z" fill="#FAFAFA"/>
</svg>
