<svg xmlns="http://www.w3.org/2000/svg" xmlns:xlink="http://www.w3.org/1999/xlink" width="34.715" height="34.715" viewBox="0 0 34.715 34.715">
  <defs>
    <clipPath id="clip-path">
      <path id="path2280" d="M0-682.665H34.715v34.715H0Z" transform="translate(0 682.665)"/>
    </clipPath>
  </defs>
  <g id="Group_38228" data-name="Group 38228" transform="translate(-1252.441 -988.44)">
    <g id="g2274" transform="translate(1252.441 988.44)">
      <g id="g2276" transform="translate(0 0)">
        <g id="g2278" clip-path="url(#clip-path)">
          <g id="g2284" transform="translate(2.533 2.146)">
            <path id="path2286" d="M-354.2,0h-17.187a1.79,1.79,0,0,0-1.79,1.79V26.454a1.79,1.79,0,0,0,1.79,1.79h17.728a1.79,1.79,0,0,0,1.79-1.79V11.274" transform="translate(373.174)" fill="none" stroke="#000" stroke-linecap="round" stroke-linejoin="round" stroke-miterlimit="10" stroke-width="1"/>
          </g>
          <path id="path2288" d="M151.387-532.308H139.169v-2.864h12.218Z" transform="translate(-132.092 542.672)" fill="none" stroke="#000" stroke-linecap="round" stroke-linejoin="round" stroke-miterlimit="10" stroke-width="1"/>
          <g id="g2290" transform="translate(7.077 14.078)">
            <path id="path2292" d="M0,0H12.218" fill="none" stroke="#000" stroke-linecap="round" stroke-linejoin="round" stroke-miterlimit="10" stroke-width="1"/>
          </g>
          <g id="g2294" transform="translate(7.077 17.294)">
            <path id="path2296" d="M0,0H12.218" fill="none" stroke="#000" stroke-linecap="round" stroke-linejoin="round" stroke-miterlimit="10" stroke-width="1"/>
          </g>
          <g id="g2298" transform="translate(7.077 20.51)">
            <path id="path2300" d="M0,0H12.218" fill="none" stroke="#000" stroke-linecap="round" stroke-linejoin="round" stroke-miterlimit="10" stroke-width="1"/>
          </g>
          <g id="g2302" transform="translate(7.077 23.726)">
            <path id="path2304" d="M0,0H12.218" fill="none" stroke="#000" stroke-linecap="round" stroke-linejoin="round" stroke-miterlimit="10" stroke-width="1"/>
          </g>
          <g id="g2306" transform="translate(19.295 0.678)">
            <path id="path2308" d="M-240.542-120.3a6.445,6.445,0,0,1-6.444,6.445,6.444,6.444,0,0,1-6.444-6.445,6.444,6.444,0,0,1,6.444-6.445A6.445,6.445,0,0,1-240.542-120.3Z" transform="translate(253.43 126.742)" fill="none" stroke="#000" stroke-linecap="round" stroke-linejoin="round" stroke-miterlimit="10" stroke-width="1"/>
          </g>
          <g id="g2310" transform="translate(25.742 6.235)">
            <path id="path2312" d="M0,0V4.636" fill="none" stroke="#000" stroke-linecap="round" stroke-linejoin="round" stroke-miterlimit="10" stroke-width="1"/>
          </g>
          <g id="g2314" transform="translate(25.061 3.375)">
            <path id="path2316" d="M-25.311-12.655a.678.678,0,0,1-.678.678.678.678,0,0,1-.678-.678.678.678,0,0,1,.678-.678.678.678,0,0,1,.678.678" transform="translate(26.667 13.333)"/>
          </g>
          <g id="g2318" transform="translate(28.458 13.269)">
            <path id="path2320" d="M0,0V3.444" fill="none" stroke="#000" stroke-linecap="round" stroke-linejoin="round" stroke-miterlimit="10" stroke-width="1"/>
          </g>
          <g id="g2322" transform="translate(7.152 22.843)">
            <path id="path2324" d="M-397.689,0V9.4a1.79,1.79,0,0,1-1.79,1.79h-17.728A1.79,1.79,0,0,1-419,9.4V7.75" transform="translate(418.996)" fill="none" stroke="#000" stroke-linecap="round" stroke-linejoin="round" stroke-miterlimit="10" stroke-width="1"/>
          </g>
          <g id="g2326" transform="translate(28.458 19.766)">
            <path id="path2328" d="M0,0H0" fill="none" stroke="#000" stroke-linecap="round" stroke-linejoin="round" stroke-miterlimit="10" stroke-width="1"/>
          </g>
        </g>
      </g>
    </g>
  </g>
</svg>
