<svg height="512" viewBox="0 0 60 60" width="512" xmlns="http://www.w3.org/2000/svg"><g id="020---Travel-Location" fill="none"><g id="Icons" transform="translate(1 1)"><path id="Shape" d="m58 51c0 3.87-12.98 7-29 7s-29-3.13-29-7c0-3.16 8.64-5.82 20.51-6.7 2.4378417 2.9557506 5.0455809 5.7671673 7.81 8.42.3778581.3699484.9821419.3699484 1.36 0 2.7644191-2.6528327 5.3721583-5.4642494 7.81-8.42 11.87.88 20.51 3.54 20.51 6.7z" fill="#a4c2f7"/><path id="Shape" d="m37.49 44.3c-.071.086-.14.165-.211.25 10.406 1.065 17.721 3.544 17.721 6.45 0 3.748-12.177 6.8-27.5 6.991.4973333.006.9973333.009 1.5.009 16.02 0 29-3.13 29-7 0-3.16-8.64-5.82-20.51-6.7z" fill="#7facfa"/><path id="Shape" d="m29 0c-5.322905.01853281-10.4204319 2.15083904-14.1711665 5.92782875-3.7507345 3.7769897-5.84743106 8.88926645-5.8288335 14.21217125 0 8.31 6.07 17.55 11.51 24.16 2.4378417 2.9557506 5.0455809 5.7671673 7.81 8.42.3778581.3699484.9821419.3699484 1.36 0 2.7644191-2.6528327 5.3721583-5.4642494 7.81-8.42 5.44-6.61 11.51-15.85 11.51-24.16.0185976-5.3229048-2.078099-10.43518155-5.8288335-14.21217125-3.7507346-3.77698971-8.8482615-5.90929594-14.1711665-5.92782875zm0 36c-8.836556 0-16-7.163444-16-16s7.163444-16 16-16 16 7.163444 16 16c0 4.2434638-1.6857094 8.3131264-4.6862915 11.3137085s-7.0702447 4.6862915-11.3137085 4.6862915z" fill="#e8edfc"/><path id="Shape" d="m29 0c-.506 0-1 .039-1.5.076 10.4646701.82108733 18.5290249 9.56720701 18.5 20.064 0 8.31-6.07 17.55-11.51 24.16-2.197646 2.6605372-4.5307303 5.2062359-6.99 7.627.312.3.6.583.82.793.3778581.3699484.9821419.3699484 1.36 0 2.7644191-2.6528327 5.3721583-5.4642494 7.81-8.42 5.44-6.61 11.51-15.85 11.51-24.16.0185976-5.3229048-2.078099-10.43518155-5.8288335-14.21217125-3.7507346-3.77698971-8.8482615-5.90929594-14.1711665-5.92782875z" fill="#cad9fc"/><circle id="Oval" cx="29" cy="20" fill="#cad9fc" r="16"/><path id="Shape" d="m37.42 14.385-2.987 2.987c-.2808389.2794106-.3702573.6982654-.228 1.068l2.682 7.025c.1491669.3908646.04086.8332509-.272 1.111l-.909.81c-.3951794.3511877-.995439.3341-1.37-.039l-4.255-4.247c-.3857799-.3800711-1.0052201-.3800711-1.391 0l-2.69 2.685c-.2638768.2690924-.3563592.6625279-.24 1.021l.32.93c.1151101.3553745.0225513.7452781-.24 1.011l-.971.96c-.1835644.1872713-.4347664.2927965-.697.2927965s-.5134356-.1055252-.697-.2927965l-4.18-4.194c-.1876045-.182772-.2934155-.433582-.2934155-.6955s.105811-.512728.2934155-.6955l.96-.961c.2632371-.2669986.6558464-.3601996 1.011-.24l.931.32c.3582409.1103053.7481247.0180953 1.019-.241l2.684-2.688c.3800711-.3857799.3800711-1.0052201 0-1.391l-4.243-4.253c-.3740146-.3744185-.391549-.9754126-.04-1.371l.809-.909c.2782277-.3127729.7208131-.4210312 1.112-.272l7.022 2.684c.3715424.1417875.7917135.0521144 1.073-.229l2.979-2.986c.7807665-.7288692 1.9984288-.7088141 2.7547692.0453715.7563404.7541855.7798694 1.9717857.0532308 2.7546285z" fill="#f5f5f5"/></g><g id="Layer_2" fill="#fff" transform="translate(1)"><path id="Shape" d="m21.6 3.505-.785-1.84c2.5890223-1.09843131 5.3726011-1.6646694 8.185-1.665v2c-2.5426908-.00022368-5.0593871.51161794-7.4 1.505z"/><path id="Shape" d="m16.629 45.663c-9.829 1.123-16.629 3.537-16.629 6.337 0 3.75 12.17 6.8 27.49 6.99h3c-15.32-.19-27.49-3.24-27.49-6.99 0-2.546 5.61-4.768 14-5.995"/><path id="Shape" d="m29.734 53.333h.007c-12.111-13.777-17.741-23.883-17.741-32.193-.0320919-10.4638687 7.9783437-19.1976197 18.406-20.068-5.5535413-.38456466-11.0164941 1.56022128-15.077723 5.3675997-4.061229 3.8073784-6.35408701 9.1336198-6.328277 14.7004003 0 8.31 12.291 25.575 17.741 32.193h-.007"/></g><g id="Layer_3" fill="#428dff"><path id="Shape" d="m26.044 2.406c-.3572656.00178633-.6883456-.18716196-.8685254-.49566987-.1801798-.30850792-.1820858-.68970576-.005-1s.5062598-.5025438.8635254-.50433013h.01c.5522847 0 1 .44771525 1 1s-.4477153 1-1 1z"/><path id="Shape" d="m19.478 27.094c.0291803.0507548.0626348.0989292.1.144l4.19 4.18c.013.013.03.017.044.029.3660681.3531307.8543704.551246 1.363.553h.014c.5198667-.0004018 1.0176581-.2101879 1.381-.582l.988-.977c.5262314-.534386.7061494-1.3198347.465-2.03l-.319-.918 2.671-2.682 4.255 4.244c.7492487.7468232 1.9504938.7810068 2.741.078l.908-.809c.6211701-.5557322.8365432-1.4362982.542-2.216l-2.681-7.029 2.987-2.987c.8510898-.8540858 1.1047705-2.136335.6430119-3.2501553-.4617585-1.1138203-1.5482695-1.8404636-2.7540119-1.8418447-.7923124-.0021022-1.5525074.3129952-2.111.875l-2.987 2.988-7.025-2.681c-.7792131-.2943217-1.6591997-.0793905-2.215.541l-.808.907c-.6983119.7935554-.6646989 1.9918383.077 2.745l4.244 4.23-2.67 2.695-.932-.319c-.7158759-.2480855-1.5106141-.0620498-2.042.478l-.961.961c-.3778026.3735825-.589056.8836909-.586 1.415.0039776.4632633.1735226.9098263.478 1.259zm2.461-2.225.963.33c.7128866.2189115 1.4884132.0309748 2.022-.49l2.691-2.7c.7597916-.780135.755791-2.0247655-.009-2.8l-4.245-4.252.819-.912 7.02 2.686c.7404415.2824654 1.5777415.1034916 2.138-.457l2.979-2.986c.3850624-.3774397 1.0021645-.3746878 1.3838454.0061711s.3857632.9979536.0091546 1.3838289l-2.987 2.987c-.5585748.5601933-.7359676 1.3962499-.453 2.135l2.68 7.032-.908.81-4.254-4.242c-.777687-.7622858-2.022313-.7622858-2.8 0l-2.708 2.7c-.5230419.5398283-.701945 1.3259996-.464 2.039l.323.905-.955.956-4.184-4.169z"/><path id="Shape" d="m30 60c14.908 0 30-2.748 30-8 0-5.114-13.817-6.982-19.577-7.537 5.203-6.609 10.577-15.363 10.577-23.326.0243738-11.63028352-9.3698039-21.08574698-21-21.137-.5522847 0-1 .44771525-1 1s.4477153 1 1 1c10.5263158.04959478 19.0260331 8.6105996 19 19.137 0 13.081-15.833 28.838-18.993 31.863-3.174-3.025-19.007-18.782-19.007-31.863.0262853-1.8649002.2982952-3.7181984.809-5.512.5492265-1.7812825 1.3402707-3.4787806 2.351-5.045 1.04175-1.54618699 2.2861775-2.94566338 3.7-4.161 1.4446855-1.17596657 3.0384924-2.15578793 4.74-2.914.497173-.20265659.7401272-.76643505.546-1.267-.0988334-.253831-.2953618-.45740511-.5455556-.56511439s-.5331385-.11054995-.7854444-.00788561c-1.8825483.83566281-3.6451155 1.9188967-5.241 3.221-1.5625821 1.34013464-2.9367068 2.88547826-4.085 4.594-1.1186847 1.7296978-1.9935865 3.6053526-2.6 5.574-.56485991 1.9792537-.86381726 4.0248752-.889 6.083 0 7.963 5.374 16.717 10.577 23.326-5.76.555-19.577 2.423-19.577 7.537 0 5.252 15.092 8 30 8zm-8.906-13.661c2.3577079 2.8411467 4.8722921 5.5483644 7.532 8.109.7687669.7344808 1.9792331.7344808 2.748 0 2.6597079-2.5606356 5.1742921-5.2678533 7.532-8.109 13.155 1.037 19.094 3.918 19.094 5.661 0 2.505-10.652 6-28 6s-28-3.495-28-6c0-1.743 5.939-4.624 19.094-5.661z"/><path id="Shape" d="m13 21c0 9.3888407 7.6111593 17 17 17s17-7.6111593 17-17-7.6111593-17-17-17c-9.3845001.01047101-16.989529 7.6154999-17 17zm17-15c8.2842712 0 15 6.7157288 15 15s-6.7157288 15-15 15-15-6.7157288-15-15c.0093685-8.2803876 6.7196124-14.99063148 15-15z"/></g></g></svg>