<svg width="18" height="18" viewBox="0 0 18 18" fill="none" xmlns="http://www.w3.org/2000/svg">
<path d="M16.6115 7.24219H12.1115C12.0342 7.24219 11.9709 7.30547 11.9709 7.38281V8.22656C11.9709 8.30391 12.0342 8.36719 12.1115 8.36719H16.6115C16.6889 8.36719 16.7522 8.30391 16.7522 8.22656V7.38281C16.7522 7.30547 16.6889 7.24219 16.6115 7.24219ZM14.2561 9.63281H12.1115C12.0342 9.63281 11.9709 9.69609 11.9709 9.77344V10.6172C11.9709 10.6945 12.0342 10.7578 12.1115 10.7578H14.2561C14.3334 10.7578 14.3967 10.6945 14.3967 10.6172V9.77344C14.3967 9.69609 14.3334 9.63281 14.2561 9.63281ZM8.39026 5.66895H7.62913C7.52014 5.66895 7.43225 5.75684 7.43225 5.86582V10.2252C7.43225 10.2885 7.46213 10.3465 7.51311 10.3834L10.1305 12.2924C10.2184 12.3557 10.3414 12.3381 10.4047 12.2502L10.8565 11.6332V11.6314C10.9198 11.5436 10.9004 11.4205 10.8125 11.3572L8.58538 9.74707V5.86582C8.58713 5.75684 8.49749 5.66895 8.39026 5.66895Z" fill="#082E53"/>
<path d="M14.1471 11.8457H13.1311C13.0327 11.8457 12.9395 11.8966 12.8868 11.981C12.6635 12.3343 12.4034 12.6613 12.1046 12.9601C11.5895 13.4751 10.9901 13.8794 10.3239 14.1607C9.63307 14.4525 8.90006 14.6001 8.1442 14.6001C7.38658 14.6001 6.65358 14.4525 5.96451 14.1607C5.2983 13.8794 4.69889 13.4751 4.18385 12.9601C3.66881 12.4451 3.26451 11.8457 2.98326 11.1794C2.69147 10.4904 2.54381 9.75737 2.54381 8.99975C2.54381 8.24214 2.69147 7.51089 2.98326 6.82007C3.26451 6.15386 3.66881 5.55444 4.18385 5.0394C4.69889 4.52436 5.2983 4.12007 5.96451 3.83882C6.65358 3.54702 7.38834 3.39936 8.1442 3.39936C8.90182 3.39936 9.63483 3.54702 10.3239 3.83882C10.9901 4.12007 11.5895 4.52436 12.1046 5.0394C12.4034 5.33823 12.6635 5.66518 12.8868 6.01851C12.9395 6.10288 13.0327 6.15386 13.1311 6.15386H14.1471C14.2684 6.15386 14.3458 6.02729 14.2913 5.92007C13.1452 3.64018 10.8214 2.15835 8.22682 2.12847C4.42819 2.081 1.27291 5.19058 1.26588 8.98569C1.25885 12.7878 4.3403 15.8728 8.14244 15.8728C10.7704 15.8728 13.1329 14.3857 14.2913 12.0794C14.3458 11.9722 14.2667 11.8457 14.1471 11.8457Z" fill="#082E53"/>
</svg>
