<svg xmlns="http://www.w3.org/2000/svg" width="384.132" height="294.126" viewBox="0 0 384.132 294.126">
  <g id="cars" transform="translate(2888.827 644.74)">
    <path id="Path_20" data-name="Path 20" d="M-2526.6-550.8a5.09,5.09,0,0,1,5.155-2.957c1.367.085,2.746.024,4.119.008,7.133-.081,10.465-2.51,12.627-9.2v-6c-2.972-6.446-8.043-8.926-15.015-8.3a82.158,82.158,0,0,1-10.492.028c-5.438-.213-9.29,2.089-11.957,6.783-2.541,4.472-5.28,8.831-8.256,13.78-.426-1.258-.639-1.812-.8-2.381-4.737-16.526-9.414-33.07-14.215-49.578-6.22-21.39-24.564-35.939-46.211-36q-85.1-.246-170.208,0c-20.635.059-39.044,13.913-45.329,33.612-2.726,8.541-5.027,17.218-7.506,25.837-2.674,9.3-5.33,18.6-8.2,28.632-3.274-5.426-6.131-10.184-9.012-14.926a10.926,10.926,0,0,0-9.515-5.692c-5.5-.106-11-.17-16.494.014a11.188,11.188,0,0,0-10.773,11.236,11.288,11.288,0,0,0,10.861,11.177,52.5,52.5,0,0,0,7.118-.016c2.057-.18,3.1.634,4.073,2.366,2.438,4.348,5,8.638,7.721,12.812,1.465,2.244,1.483,3.1-1.3,4.455-17.929,8.766-27.974,23.245-28.341,43.241-.514,28.109-.164,56.234-.128,84.352.009,7.02,4.742,11.721,11.74,11.808,5.373.067,10.75.123,16.119-.037,2.219-.067,3.03.385,2.939,2.817-.205,5.491-.143,11-.034,16.493a26.128,26.128,0,0,0,25.577,25.689q15.742.268,31.491-.008a25.887,25.887,0,0,0,24.733-20.7c1.4-6.8.628-13.71.558-20.558-.034-3.259.961-3.756,3.94-3.749q65.984.153,131.967.07c6.249,0,12.5.137,18.744-.066,2.549-.083,3.088.758,3.012,3.12-.17,5.243-.11,10.5-.036,15.744a26.2,26.2,0,0,0,26.256,26.176q14.994.159,29.992,0a26.182,26.182,0,0,0,26.215-26.214c.078-5.5.087-11-.021-16.495-.035-1.791.468-2.356,2.287-2.3,4.5.126,9.019-.244,13.49.107,6.971.546,12.036-1.881,15.013-8.316v-93c-.679-4.772-1.133-9.533-3.274-14.034-5.176-10.882-12.847-19.25-23.747-24.487-2.268-1.089-3.051-2.066-1.45-4.428C-2530.787-543.4-2528.67-547.095-2526.6-550.8Zm-282.2-43.088c.89-3.114,1.717-6.247,2.666-9.342a26.218,26.218,0,0,1,25.444-18.949q83.969-.063,167.937,0c11.535.008,21.552,6.7,24.857,17.54,6.532,21.431,12.517,43.028,18.839,64.942-6.1,0-11.594-.106-17.082.051-2.249.065-3.062-.6-3.719-2.861-6.352-21.874-20.566-35.751-42.842-40.886-28.347-6.533-57.945,11.475-65.516,39.8-.821,3.071-1.988,3.981-5.165,3.971-38.985-.123-77.971-.08-116.956-.08h-3.944C-2819.051-557.983-2813.922-575.934-2808.795-593.885Zm195.941,53.877c-3.432.434-59.3.429-62.683-.005,3.261-12.38,17.109-22.178,31.344-22.178S-2616.132-552.4-2612.854-540.008Zm-185.106,162.6c-.018,2.7-1.447,4.19-4.157,4.2q-14.583.051-29.165,0c-2.505-.007-4.074-1.31-4.121-3.837-.1-5.606.037-11.218-.082-16.824-.041-1.954,1.027-1.841,2.341-1.835,5.609.026,11.218.011,16.826.011,5.36,0,10.72.064,16.078-.037,1.732-.033,2.382.373,2.338,2.241C-2798.027-388.134-2797.924-382.773-2797.96-377.413Zm135.065-43.41c.029,2.124-.569,2.683-2.682,2.675q-31.119-.117-62.237,0c-2.115.008-2.71-.554-2.681-2.676q.179-13.121,0-26.243c-.029-2.124.567-2.7,2.683-2.677,10.371.108,20.745.049,31.118.049,10.248,0,20.5.082,30.743-.06,2.446-.034,3.111.612,3.067,3.064C-2663.041-438.07-2663.015-429.444-2662.9-420.823Zm104.934,43.413c-.018,2.7-1.449,4.187-4.159,4.2q-14.583.05-29.165,0c-2.505-.006-4.071-1.312-4.118-3.838-.1-5.607.037-11.219-.082-16.825-.041-1.957,1.033-1.838,2.344-1.832,5.484.026,10.968.011,16.452.011s10.97.064,16.452-.037c1.736-.032,2.379.38,2.335,2.244C-2558.027-388.131-2557.924-382.77-2557.961-377.41Zm30.765-111.11c.006,22.369-.046,44.737.064,67.1.013,2.584-.554,3.294-3.227,3.287q-53.423-.15-106.844-.007c-2.546.006-3.347-.492-3.313-3.2.16-12.744.088-25.492.065-38.238-.015-8.043-4.505-12.607-12.451-12.612q-43.861-.028-87.725,0c-7.737.006-12.292,4.6-12.31,12.371-.029,12.871-.075,25.743.051,38.613.024,2.442-.612,3.07-3.061,3.064q-53.609-.125-107.218,0c-2.4.005-3.1-.54-3.091-3.033.1-23.118,0-46.237.083-69.355.052-15.3,11.493-26.634,26.9-26.649q71.229-.069,142.458-.017,70.48,0,140.96,0C-2537.991-517.192-2527.2-506.4-2527.2-488.52Z" fill="#393939"/>
    <path id="Path_21" data-name="Path 21" d="M-2809.254-501.435a33.839,33.839,0,0,0-33.681,33.516,33.85,33.85,0,0,0,33.611,33.964,33.824,33.824,0,0,0,33.867-33.707A33.813,33.813,0,0,0-2809.254-501.435Zm.283,44.979a11.368,11.368,0,0,1-11.464-11.3,11.366,11.366,0,0,1,11.2-11.183,11.367,11.367,0,0,1,11.279,11.105A11.369,11.369,0,0,1-2808.971-456.456Z" fill="#393939"/>
    <path id="Path_22" data-name="Path 22" d="M-2584.153-501.435a33.831,33.831,0,0,0-33.782,33.789,33.852,33.852,0,0,0,33.884,33.691,33.822,33.822,0,0,0,33.594-33.98A33.819,33.819,0,0,0-2584.153-501.435Zm-.322,44.979a11.4,11.4,0,0,1-10.96-11.427,11.362,11.362,0,0,1,11.329-11.053,11.36,11.36,0,0,1,11.149,11.235A11.375,11.375,0,0,1-2584.475-456.456Z" fill="#393939"/>
  </g>
</svg>
