<svg id="Layer_5" enable-background="new 0 0 64 64" height="512" viewBox="0 0 64 64" width="512" xmlns="http://www.w3.org/2000/svg"><g><g><path d="m28.313 27.899-5.937-5.937c-.122.023-.247.038-.376.038h-10c-.129 0-.254-.015-.376-.038l-5.937 5.937c-3.023 3.022-4.687 7.04-4.687 11.314v.787c0 8.822 7.178 16 16 16s16-7.178 16-16v-.787c0-4.274-1.664-8.292-4.687-11.314z" fill="#f0bc5e"/></g><g><path d="m62.22 28c.48-.532.78-1.229.78-2 0-1.654-1.346-3-3-3h-1v-16h-22v12.341c-.818.259-1.593.652-2.269 1.193l-3.082 2.466h-8.235l2 2h6.937l3.631-2.904c.882-.707 1.992-1.096 3.122-1.096h7.896c0 1.103-.897 2-2 2h-5.535l-.633.949c-.856 1.284-2.289 2.051-3.832 2.051v2c.69 0 1.361-.119 2-.322v11.2c-.703-.154-1.371-.455-1.937-.908l-2.37-1.896c.18.911.269 1.847.289 2.793l.83.664c.921.737 2.027 1.207 3.187 1.383v16.086h22v-16h1c1.654 0 3-1.346 3-3 0-.771-.301-1.468-.78-2 .48-.532.78-1.229.78-2s-.301-1.468-.78-2c.48-.532.78-1.229.78-2s-.3-1.468-.779-2zm-1.22 6c0 .551-.448 1-1 1h-2c-.552 0-1-.449-1-1s.448-1 1-1h2c.552 0 1 .449 1 1zm-3-3c-.552 0-1-.449-1-1s.448-1 1-1h2c.552 0 1 .449 1 1s-.448 1-1 1zm3-5c0 .551-.448 1-1 1h-2c-.552 0-1-.449-1-1s.448-1 1-1h2c.552 0 1 .449 1 1zm-4-13.101c-1.956-.399-3.5-1.943-3.899-3.899h3.899zm-14.101-3.899c-.399 1.956-1.943 3.5-3.899 3.899v-3.899zm-3.795 10c-.035 0-.069.008-.104.009v-4.089c3.059-.441 5.479-2.861 5.92-5.92h6.16c.441 3.059 2.861 5.479 5.92 5.92v8.264c-.529.189-.985.519-1.33.949-1.806-1.77-4.138-2.851-6.676-3.076.001-.019.006-.037.006-.057 0-1.103-.897-2-2-2zm-.104 7.639c.573-.437 1.084-.963 1.496-1.581l.039-.058h4.465c1.464 0 2.733-.799 3.43-1.975 2.606.122 4.983 1.334 6.611 3.388.085.607.347 1.153.739 1.588-.48.532-.78 1.229-.78 2s.301 1.468.78 2c-.48.532-.78 1.229-.78 2s.301 1.468.78 2c-.392.435-.654.981-.739 1.588-1.718 2.166-4.266 3.411-7.041 3.411-4.963 0-9-4.038-9-9zm9 16.361c2.919 0 5.63-1.133 7.67-3.133.345.43.801.76 1.33.949v8.264c-3.059.441-5.479 2.861-5.92 5.92h-6.16c-.441-3.059-2.861-5.479-5.92-5.92v-10.775c1.992 2.834 5.28 4.695 9 4.695zm-9 8.101c1.956.399 3.5 1.943 3.899 3.899h-3.899zm14.101 3.899c.399-1.956 1.943-3.5 3.899-3.899v3.899zm6.899-16h-2c-.552 0-1-.449-1-1s.448-1 1-1h2c.552 0 1 .449 1 1s-.448 1-1 1z"/><path d="m48 35c-.552 0-1-.449-1-1h-2c0 1.302.839 2.402 2 2.816v2.184h2v-2.184c1.161-.414 2-1.514 2-2.816 0-1.654-1.346-3-3-3-.552 0-1-.449-1-1s.448-1 1-1 1 .449 1 1h2c0-1.302-.839-2.402-2-2.816v-2.184h-2v2.184c-1.161.414-2 1.514-2 2.816 0 1.654 1.346 3 3 3 .552 0 1 .449 1 1s-.448 1-1 1z"/><path d="m25 20c0-1.018-.512-1.917-1.29-2.459l3.29-1.975v-.566c0-2.809-2.011-5.183-4.781-5.644l-.263-.044.14-.631-.389-.388c-.234-.235-2.36-2.293-4.707-2.293s-4.473 2.058-4.707 2.293l-.389.388.14.631-.263.044c-2.77.461-4.781 2.835-4.781 5.644v.566l3.29 1.974c-.778.543-1.29 1.442-1.29 2.46 0 1.654 1.346 3 3 3h10c1.654 0 3-1.346 3-3zm-3.109-8.671c1.62.27 2.841 1.546 3.07 3.128l-4.238 2.543h-.476l1.274-5.733zm-4.891-3.329c1.035 0 2.221.793 2.897 1.353l-1.699 7.647h-2.395l-1.7-7.647c.676-.56 1.862-1.353 2.897-1.353zm-4.891 3.329.37-.062 1.274 5.733h-.476l-4.238-2.543c.23-1.582 1.45-2.858 3.07-3.128zm-1.109 8.671c0-.551.448-1 1-1h10c.552 0 1 .449 1 1s-.448 1-1 1h-10c-.552 0-1-.449-1-1z"/><path d="m20.636 49.316.729 1.862c4.567-1.789 7.635-6.281 7.635-11.178h-2c0 4.081-2.558 7.825-6.364 9.316z"/><path d="m17 50v2c.732 0 1.467-.067 2.182-.199l-.363-1.967c-.595.11-1.208.166-1.819.166z"/></g></g></svg>