<svg width="16" height="16" viewBox="0 0 16 16" fill="none" xmlns="http://www.w3.org/2000/svg">
<path d="M3.68902 1C3.52606 1.00003 3.36754 1.05314 3.23745 1.1513C3.10736 1.24945 3.01278 1.3873 2.96802 1.544L1.11002 8.044C1.07812 8.15569 1.07259 8.27326 1.09388 8.38744C1.11516 8.50163 1.16268 8.60931 1.23268 8.702C1.30268 8.79469 1.39326 8.86985 1.49727 8.92157C1.60127 8.97328 1.71587 9.00013 1.83202 9H3.36002L2.01502 14.379C1.98824 14.4863 1.99779 14.5995 2.04218 14.7008C2.08657 14.8021 2.1633 14.8858 2.26035 14.9388C2.3574 14.9919 2.4693 15.0112 2.57854 14.9939C2.68777 14.9766 2.78817 14.9235 2.86402 14.843L5.29202 12.273C5.01214 11.4514 4.93068 10.5753 5.05428 9.71619C5.17788 8.8571 5.50304 8.03946 6.00319 7.33011C6.50333 6.62077 7.16424 6.03986 7.93191 5.63488C8.69957 5.22989 9.55217 5.01234 10.42 5H8.22202L9.34202 2.012C9.38432 1.89854 9.39852 1.77653 9.38341 1.65639C9.3683 1.53625 9.32432 1.42156 9.25524 1.32211C9.18616 1.22267 9.09402 1.14142 8.98671 1.08533C8.8794 1.02924 8.76011 0.999959 8.63902 1H3.69002H3.68902ZM10.5 15C11.091 15 11.6761 14.8836 12.2221 14.6575C12.7681 14.4313 13.2641 14.0998 13.682 13.682C14.0999 13.2641 14.4313 12.768 14.6575 12.2221C14.8836 11.6761 15 11.0909 15 10.5C15 9.90905 14.8836 9.32389 14.6575 8.77792C14.4313 8.23196 14.0999 7.73588 13.682 7.31802C13.2641 6.90016 12.7681 6.56869 12.2221 6.34254C11.6761 6.1164 11.091 6 10.5 6C9.30655 6 8.16196 6.47411 7.31804 7.31802C6.47413 8.16193 6.00002 9.30653 6.00002 10.5C6.00002 11.6935 6.47413 12.8381 7.31804 13.682C8.16196 14.5259 9.30655 15 10.5 15ZM12.854 9.354L9.85402 12.354C9.76026 12.4477 9.6331 12.5004 9.50052 12.5004C9.36794 12.5004 9.24079 12.4477 9.14702 12.354L8.14702 11.354C8.10053 11.3076 8.06365 11.2525 8.03846 11.1918C8.01328 11.1311 8.00029 11.0661 8.00024 11.0004C8.00015 10.8677 8.05277 10.7404 8.14652 10.6465C8.24028 10.5526 8.36749 10.4998 8.50017 10.4997C8.63285 10.4996 8.76014 10.5522 8.85402 10.646L9.50002 11.293L12.146 8.646C12.2399 8.55211 12.3672 8.49937 12.5 8.49937C12.6328 8.49937 12.7601 8.55211 12.854 8.646C12.9479 8.73989 13.0007 8.86722 13.0007 9C13.0007 9.13278 12.9479 9.26011 12.854 9.354Z" fill="#082E53"/>
</svg>
