<svg width="37" height="34" viewBox="0 0 37 34" fill="none" xmlns="http://www.w3.org/2000/svg">
<mask id="path-1-inside-1_57_2606" fill="white">
<path d="M32.2084 13.3822C32.9386 13.2033 33.6796 13.6553 33.7916 14.3986C34.3242 17.9334 33.7596 21.5641 32.1593 24.7665C30.3557 28.3758 27.3556 31.2031 23.7009 32.7375C20.0462 34.2719 15.9781 34.4123 12.2316 33.1332C8.48502 31.8541 5.30715 29.24 3.27214 25.7631C1.23713 22.2862 0.479197 18.1758 1.13529 14.1748C1.79139 10.1737 3.81824 6.54572 6.84962 3.94641C9.88101 1.34709 13.717 -0.0521576 17.6645 0.00148577C21.1716 0.0491444 24.5612 1.2408 27.352 3.38601C27.9396 3.83767 27.9901 4.68728 27.5081 5.25019C27.0071 5.83515 26.1256 5.88536 25.5053 5.42894C23.2147 3.74354 20.4677 2.80948 17.6289 2.7709C14.3245 2.726 11.1135 3.89728 8.57597 6.07311C6.03846 8.24895 4.34183 11.2858 3.79262 14.635C3.24342 17.9843 3.87787 21.4249 5.58133 24.3354C7.28479 27.2458 9.94492 29.4341 13.0811 30.5048C16.2172 31.5755 19.6226 31.458 22.6818 30.1736C25.7411 28.8891 28.2524 26.5225 29.7622 23.5012C31.0735 20.877 31.554 17.9093 31.1555 15.0097C31.0549 14.2779 31.491 13.558 32.2084 13.3822Z"/>
</mask>
<path d="M32.2084 13.3822C32.9386 13.2033 33.6796 13.6553 33.7916 14.3986C34.3242 17.9334 33.7596 21.5641 32.1593 24.7665C30.3557 28.3758 27.3556 31.2031 23.7009 32.7375C20.0462 34.2719 15.9781 34.4123 12.2316 33.1332C8.48502 31.8541 5.30715 29.24 3.27214 25.7631C1.23713 22.2862 0.479197 18.1758 1.13529 14.1748C1.79139 10.1737 3.81824 6.54572 6.84962 3.94641C9.88101 1.34709 13.717 -0.0521576 17.6645 0.00148577C21.1716 0.0491444 24.5612 1.2408 27.352 3.38601C27.9396 3.83767 27.9901 4.68728 27.5081 5.25019C27.0071 5.83515 26.1256 5.88536 25.5053 5.42894C23.2147 3.74354 20.4677 2.80948 17.6289 2.7709C14.3245 2.726 11.1135 3.89728 8.57597 6.07311C6.03846 8.24895 4.34183 11.2858 3.79262 14.635C3.24342 17.9843 3.87787 21.4249 5.58133 24.3354C7.28479 27.2458 9.94492 29.4341 13.0811 30.5048C16.2172 31.5755 19.6226 31.458 22.6818 30.1736C25.7411 28.8891 28.2524 26.5225 29.7622 23.5012C31.0735 20.877 31.554 17.9093 31.1555 15.0097C31.0549 14.2779 31.491 13.558 32.2084 13.3822Z" fill="#D9D9D9" stroke="#F78F20" stroke-width="4" mask="url(#path-1-inside-1_57_2606)"/>
<path d="M10.0947 13.7778L19.354 21.7778L35.0947 3.77783" stroke="#F78F20" stroke-width="3"/>
</svg>
