<svg width="15" height="16" viewBox="0 0 15 16" fill="none" xmlns="http://www.w3.org/2000/svg">
<g clip-path="url(#clip0)">
<path d="M11.3331 6.6149C11.2287 6.6149 11.1251 6.62169 11.0226 6.63395V5.33808C11.0226 5.08961 10.8209 4.88818 10.5721 4.88818H1.51553C1.26674 4.88818 1.065 5.08961 1.065 5.33808V11.8269C1.065 12.5309 1.48134 13.1385 2.07938 13.4155C1.98319 13.6018 1.92856 13.8129 1.92856 14.0366C1.92856 14.787 2.53992 15.3975 3.29141 15.3975H8.79617C9.54766 15.3975 10.159 14.787 10.159 14.0366C10.159 13.8129 10.1043 13.6018 10.0082 13.4155C10.6055 13.1389 11.0214 12.5324 11.0225 11.8296C11.1251 11.8419 11.2287 11.8487 11.3331 11.8487C12.768 11.8487 13.9354 10.6748 13.9354 9.2318C13.9354 7.78883 12.7681 6.6149 11.3331 6.6149ZM8.79617 14.4978H3.29141C3.03674 14.4978 2.82958 14.2909 2.82958 14.0366C2.82958 13.7823 3.03677 13.5754 3.29141 13.5754H8.79617C9.05085 13.5754 9.25797 13.7823 9.25797 14.0366C9.25797 14.2909 9.05085 14.4978 8.79617 14.4978ZM10.1215 11.8269C10.1215 12.2949 9.74518 12.6756 9.28253 12.6756H8.79617H3.29141H2.80506C2.34243 12.6756 1.96606 12.2949 1.96606 11.8269V5.78798H10.1216V11.8269H10.1215ZM11.3331 10.9489C11.228 10.9489 11.1243 10.9393 11.0226 10.9204V7.5432C11.1243 7.5243 11.228 7.5147 11.3331 7.5147C12.2712 7.5147 13.0345 8.28502 13.0345 9.2318C13.0345 10.1786 12.2712 10.9489 11.3331 10.9489Z" fill="black"/>
<path d="M11.3331 6.6149C11.2287 6.6149 11.1251 6.62169 11.0226 6.63395V5.33808C11.0226 5.08961 10.8209 4.88818 10.5721 4.88818H1.51553C1.26674 4.88818 1.065 5.08961 1.065 5.33808V11.8269C1.065 12.5309 1.48134 13.1385 2.07938 13.4155C1.98319 13.6018 1.92856 13.8129 1.92856 14.0366C1.92856 14.787 2.53992 15.3975 3.29141 15.3975H8.79617C9.54766 15.3975 10.159 14.787 10.159 14.0366C10.159 13.8129 10.1043 13.6018 10.0082 13.4155C10.6055 13.1389 11.0214 12.5324 11.0225 11.8296C11.1251 11.8419 11.2287 11.8487 11.3331 11.8487C12.768 11.8487 13.9354 10.6748 13.9354 9.2318C13.9354 7.78883 12.7681 6.6149 11.3331 6.6149ZM8.79617 14.4978H3.29141C3.03674 14.4978 2.82958 14.2909 2.82958 14.0366C2.82958 13.7823 3.03677 13.5754 3.29141 13.5754H8.79617C9.05085 13.5754 9.25797 13.7823 9.25797 14.0366C9.25797 14.2909 9.05085 14.4978 8.79617 14.4978ZM10.1215 11.8269C10.1215 12.2949 9.74518 12.6756 9.28253 12.6756H8.79617H3.29141H2.80506C2.34243 12.6756 1.96606 12.2949 1.96606 11.8269V5.78798H10.1216V11.8269H10.1215ZM11.3331 10.9489C11.228 10.9489 11.1243 10.9393 11.0226 10.9204V7.5432C11.1243 7.5243 11.228 7.5147 11.3331 7.5147C12.2712 7.5147 13.0345 8.28502 13.0345 9.2318C13.0345 10.1786 12.2712 10.9489 11.3331 10.9489Z" fill="#1B9AD4"/>
<path d="M5.17555 1.89161C4.99382 1.65604 4.94841 1.42807 5.03267 1.17419C5.04536 1.13598 5.06018 1.09985 5.07603 1.06621C5.15862 0.891108 5.12434 0.683507 4.98603 0.547906L4.98588 0.547759C4.76405 0.330329 4.39318 0.396213 4.26105 0.677159C4.0425 1.14192 3.96211 1.79307 4.4617 2.44071C4.64255 2.67514 4.69186 2.91165 4.61244 3.1638C4.60081 3.20073 4.58718 3.23569 4.57256 3.26834C4.49352 3.44463 4.53014 3.65098 4.67003 3.78441C4.89483 3.99892 5.26596 3.92841 5.39314 3.64507C5.60141 3.18121 5.67119 2.53416 5.17555 1.89161Z" fill="black"/>
<path d="M5.17555 1.89161C4.99382 1.65604 4.94841 1.42807 5.03267 1.17419C5.04536 1.13598 5.06018 1.09985 5.07603 1.06621C5.15862 0.891108 5.12434 0.683507 4.98603 0.547906L4.98588 0.547759C4.76405 0.330329 4.39318 0.396213 4.26105 0.677159C4.0425 1.14192 3.96211 1.79307 4.4617 2.44071C4.64255 2.67514 4.69186 2.91165 4.61244 3.1638C4.60081 3.20073 4.58718 3.23569 4.57256 3.26834C4.49352 3.44463 4.53014 3.65098 4.67003 3.78441C4.89483 3.99892 5.26596 3.92841 5.39314 3.64507C5.60141 3.18121 5.67119 2.53416 5.17555 1.89161Z" fill="#1B9AD4"/>
<path d="M6.95196 1.89134C6.77024 1.65577 6.72483 1.42781 6.80908 1.17392C6.82153 1.13636 6.83606 1.10084 6.85156 1.06775C6.93327 0.89327 6.89981 0.686839 6.76279 0.551267L6.76268 0.551179C6.54122 0.332168 6.16854 0.397263 6.03644 0.679145C5.8187 1.14376 5.73937 1.79383 6.23818 2.44045C6.41902 2.67487 6.4683 2.91138 6.38891 3.16354C6.37728 3.20046 6.36365 3.23542 6.34903 3.26807C6.26999 3.44437 6.30661 3.65071 6.44651 3.78415C6.6713 3.99865 7.04243 3.92814 7.16961 3.6448C7.37785 3.181 7.44764 2.53392 6.95196 1.89134Z" fill="black"/>
<path d="M6.95196 1.89134C6.77024 1.65577 6.72483 1.42781 6.80908 1.17392C6.82153 1.13636 6.83606 1.10084 6.85156 1.06775C6.93327 0.89327 6.89981 0.686839 6.76279 0.551267L6.76268 0.551179C6.54122 0.332168 6.16854 0.397263 6.03644 0.679145C5.8187 1.14376 5.73937 1.79383 6.23818 2.44045C6.41902 2.67487 6.4683 2.91138 6.38891 3.16354C6.37728 3.20046 6.36365 3.23542 6.34903 3.26807C6.26999 3.44437 6.30661 3.65071 6.44651 3.78415C6.6713 3.99865 7.04243 3.92814 7.16961 3.6448C7.37785 3.181 7.44764 2.53392 6.95196 1.89134Z" fill="#1B9AD4"/>
</g>
<defs>
<clipPath id="clip0">
<rect width="15" height="14.9791" fill="white" transform="translate(0 0.418457)"/>
</clipPath>
</defs>
</svg>
