<?xml version="1.0" encoding="utf-8"?>
<!-- Generator: Adobe Illustrator 27.0.0, SVG Export Plug-In . SVG Version: 6.00 Build 0)  -->
<svg version="1.1" id="Capa_1" xmlns="http://www.w3.org/2000/svg" xmlns:xlink="http://www.w3.org/1999/xlink" x="0px" y="0px"
	 viewBox="0 0 512 512" style="enable-background:new 0 0 512 512;" xml:space="preserve">
<style type="text/css">
	.st0{fill:#012756;}
</style>
<path class="st0" d="M256,386c-5.5,0-10,4.5-10,10s4.5,10,10,10c5.5,0,10-4.5,10-10S261.5,386,256,386z"/>
<path class="st0" d="M469.1,61.4C444.5,51.5,412.5,46,379,46s-65.5,5.5-90.1,15.4c-14.5,5.9-25.6,13-32.9,21
	c-7.3-8-18.4-15.2-32.9-21C198.5,51.5,166.5,46,133,46s-65.5,5.5-90.1,15.4C15.2,72.5,0,88.4,0,106v240c0,17.6,15.2,33.5,42.9,44.6
	c22.9,9.2,52.2,14.6,83.1,15.3v0.1c0,34.2,55.9,60,130,60s130-25.8,130-60v-0.1c30.9-0.7,60.2-6.1,83.1-15.3
	c27.7-11.1,42.9-27,42.9-44.6V106C512,88.4,496.8,72.5,469.1,61.4z M492,286c0,8.5-11.6,18.5-30.4,26.1
	c-20.3,8.2-47.5,13.1-75.6,13.8V286c0,0,0-0.1,0-0.1c30.9-0.7,60.2-6.1,83.1-15.3c9-3.6,16.6-7.7,22.9-12.2L492,286L492,286z
	 M246,166c0,8.5-11.6,18.5-30.4,26.1c-22,8.8-52.1,13.9-82.6,13.9s-60.6-5.1-82.6-13.9C31.6,184.5,20,174.5,20,166v-27.6
	c6.3,4.5,13.9,8.6,22.9,12.2C67.5,160.5,99.5,166,133,166s65.5-5.5,90.1-15.4c9-3.6,16.6-7.7,22.9-12.2V166z M42.9,210.6
	C67.5,220.5,99.5,226,133,226s65.5-5.5,90.1-15.4c9-3.6,16.6-7.7,22.9-12.2v27.8c-25.9,0.9-50.7,5.1-70.7,12.2
	c-20.1,7.1-34.6,16.5-42.5,27.6c-30.5,0-60.5-5.1-82.4-13.9C31.6,244.5,20,234.5,20,226v-27.6C26.3,202.9,33.9,207,42.9,210.6z
	 M20,258.4c6.3,4.5,13.9,8.6,22.9,12.2c22.9,9.2,52.2,14.6,83.1,15.3c0,0,0,0.1,0,0.1v39.9c-28.1-0.7-55.3-5.7-75.6-13.8
	C31.6,304.5,20,294.5,20,286V258.4z M147.1,281.1c7.4-17.2,50.2-35.1,108.9-35.1s101.5,17.8,108.9,35.1c0.7,1.7,1.1,3.3,1.1,4.9
	c0,8.8-10.8,18.6-29,26.1c-21.5,8.9-50.2,13.9-81,13.9s-59.5-4.9-81-13.9c-18.2-7.6-29-17.3-29-26.1
	C146,284.4,146.3,282.7,147.1,281.1z M492,226c0,8.5-11.6,18.5-30.4,26.1c-21.9,8.8-51.9,13.9-82.4,13.9
	c-7.9-11.1-22.4-20.5-42.5-27.6c-20.1-7.1-44.9-11.3-70.7-12.2v-27.8c6.3,4.5,13.9,8.6,22.9,12.2c24.6,9.9,56.6,15.4,90.1,15.4
	s65.5-5.5,90.1-15.4c9-3.6,16.6-7.7,22.9-12.2V226z M492,166c0,8.5-11.6,18.5-30.4,26.1c-22,8.8-52.1,13.9-82.6,13.9
	s-60.6-5.1-82.6-13.9c-18.7-7.5-30.4-17.5-30.4-26.1v-27.6c6.3,4.5,13.9,8.6,22.9,12.2c24.6,9.9,56.6,15.4,90.1,15.4
	s65.5-5.5,90.1-15.4c9-3.6,16.6-7.7,22.9-12.2V166z M296.4,79.9c22-8.8,52.1-13.9,82.6-13.9s60.6,5.1,82.6,13.9
	C480.4,87.5,492,97.5,492,106s-11.6,18.5-30.4,26.1c-22,8.8-52.1,13.9-82.6,13.9s-60.6-5.1-82.6-13.9c-18.7-7.5-30.4-17.5-30.4-26.1
	S277.6,87.5,296.4,79.9z M50.4,79.9C72.4,71.1,102.5,66,133,66s60.6,5.1,82.6,13.9C234.4,87.5,246,97.5,246,106
	s-11.6,18.5-30.4,26.1c-22,8.8-52.1,13.9-82.6,13.9s-60.6-5.1-82.6-13.9C31.6,124.5,20,114.5,20,106S31.6,87.5,50.4,79.9z
	 M50.4,372.1C31.6,364.5,20,354.5,20,346v-27.6c6.3,4.5,13.9,8.6,22.9,12.2c22.9,9.2,52.2,14.6,83.1,15.3v40
	C97.9,385.2,70.7,380.2,50.4,372.1z M337,432.1c-21.5,8.9-50.2,13.9-81,13.9s-59.5-4.9-81-13.9c-18.2-7.6-29-17.3-29-26.1v-27
	c2.3,1.6,4.8,3.3,7.5,4.9c15.5,9,36.7,15.6,61.1,19.2c0.5,0.1,1,0.1,1.5,0.1c4.9,0,9.2-3.6,9.9-8.5c0.8-5.5-3-10.5-8.4-11.3
	C171.1,376.5,146,359,146,346v-27.1c22.6,16.6,62.6,27.1,110,27.1s87.4-10.6,110-27.1V346c0,13-25.1,30.5-71.6,37.3
	c-5.5,0.8-9.2,5.9-8.4,11.3c0.7,5,5,8.5,9.9,8.5c0.5,0,1,0,1.5-0.1c24.4-3.6,45.6-10.2,61.1-19.2c2.8-1.6,5.3-3.2,7.5-4.9v27
	C366,414.8,355.2,424.6,337,432.1z M461.6,372.1c-20.3,8.2-47.5,13.1-75.6,13.8v-40c30.9-0.7,60.2-6.1,83.1-15.3
	c9-3.6,16.6-7.7,22.9-12.2V346C492,354.5,480.4,364.5,461.6,372.1z"/>
</svg>
