<?xml version="1.0"?>
<svg xmlns="http://www.w3.org/2000/svg" viewBox="0 0 512 512" width="512" height="512"><g id="_07-Credit_card_discount" data-name="07-Credit card discount"><g id="filled"><path fill="#4169e1" d="M507.672,292.486,478.783,54.223a44.046,44.046,0,0,0-48.978-38.376L64.484,60.147a44.067,44.067,0,0,0-38.639,45.862A44.014,44.014,0,0,0,4,144V384a44.049,44.049,0,0,0,44,44H199.035a12,12,0,0,0,5.308,8.511L228.9,452.663l10.368,27.5a12.031,12.031,0,0,0,11.786,7.753l29.357-1.364L304.959,502.7a12,12,0,0,0,14.091-.654L342,483.69l29.356-1.363a12,12,0,0,0,11.016-8.812l7.775-28.343L411.613,428H416a44.049,44.049,0,0,0,44-44V342.591l9.3-1.129a44,44,0,0,0,38.376-48.976ZM28,188H436v40H28Zm408-24H28V144a20.023,20.023,0,0,1,20-20H416a20.023,20.023,0,0,1,20,20ZM372.11,428.868a12,12,0,0,0-4.076,6.195l-6.5,23.694-24.543,1.14a12,12,0,0,0-6.939,2.617l-19.186,15.348-20.526-13.5a12,12,0,0,0-6.595-1.975c-.185,0-.371,0-.557.013l-24.543,1.14-8.668-22.99a12.009,12.009,0,0,0-4.634-5.791l-20.526-13.5,6.5-23.694a12,12,0,0,0-.344-7.408L222.3,367.161l19.186-15.348a12,12,0,0,0,4.076-6.2l6.5-23.694,24.543-1.14a12,12,0,0,0,6.94-2.616l19.185-15.349,20.526,13.5a11.991,11.991,0,0,0,7.152,1.962l24.543-1.14,8.669,22.99a12,12,0,0,0,4.633,5.791l20.526,13.5-6.5,23.694a12,12,0,0,0,.343,7.408l8.669,22.99ZM416,404h-2.644l-6.9-18.29,7.775-28.342a12,12,0,0,0-4.977-13.2l-24.552-16.152-10.369-27.5a12.023,12.023,0,0,0-11.786-7.754l-29.357,1.364-24.552-16.152a12,12,0,0,0-14.092.654L271.6,296.989l-29.358,1.364a12,12,0,0,0-11.015,8.813l-7.775,28.341L200.5,353.866a12,12,0,0,0-3.733,13.6l10.37,27.5L204.663,404H48a20.023,20.023,0,0,1-20-20V252H436V384A20.023,20.023,0,0,1,416,404Zm63.736-93.883c-4.474,6.306-12.512,7.8-19.736,8.3V144a44.049,44.049,0,0,0-44-44H50.16A20.037,20.037,0,0,1,67.375,83.973L432.7,39.672a20.023,20.023,0,0,1,22.262,17.442l28.889,238.263A19.859,19.859,0,0,1,479.736,310.117Z"/><path d="M80,292H48a12,12,0,0,0,0,24H80a12,12,0,0,0,0-24Z"/><path d="M192,292H128a12,12,0,0,0,0,24h64a12,12,0,0,0,0-24Z"/><path d="M330.314,349.854l-64,64c-11.171,10.854,6.125,28.14,16.971,16.971l64-64a12,12,0,0,0-16.971-16.971Z"/><circle cx="334.8" cy="418.34" r="12"/><circle cx="278.8" cy="362.34" r="12"/></g></g></svg>
