<svg width="28" height="24" viewBox="0 0 28 24" fill="none" xmlns="http://www.w3.org/2000/svg">
<path d="M26.8664 2.78076C26.1334 1.99563 25.2467 1.36961 24.2615 0.941603C23.2763 0.513591 22.2136 0.292725 21.1395 0.292725C20.0653 0.292725 19.0027 0.513591 18.0175 0.941603C17.0323 1.36961 16.1456 1.99563 15.4125 2.78076C14.848 3.37306 14.3723 4.04411 14.0004 4.77295C13.6303 4.04448 13.1566 3.37345 12.5942 2.78076C11.8611 1.99563 10.9745 1.36961 9.98925 0.941603C9.00406 0.513591 7.94138 0.292725 6.86722 0.292725C5.79307 0.292725 4.73039 0.513591 3.74519 0.941603C2.76 1.36961 1.87333 1.99563 1.14027 2.78076C1.03631 2.88998 0.960235 3.02266 0.918487 3.16755C0.876739 3.31243 0.870554 3.46525 0.900456 3.61304C0.930359 3.76083 0.995467 3.89922 1.09026 4.01648C1.18505 4.13374 1.30672 4.22641 1.44496 4.28662L8.02386 7.1542C5.88139 7.72702 4.05385 9.12676 2.94261 11.046C2.38509 11.9974 2.02327 13.0505 1.87837 14.1437C1.73348 15.2368 1.80845 16.3479 2.09886 17.4116C2.139 17.5598 2.21494 17.6959 2.32 17.8079C2.42506 17.9199 2.55602 18.0044 2.70138 18.054C2.84673 18.1035 3.00203 18.1166 3.15362 18.092C3.3052 18.0675 3.44844 18.0061 3.57074 17.9132L13.0629 10.6851V22.7929C13.0629 23.0415 13.1617 23.28 13.3375 23.4558C13.5133 23.6316 13.7518 23.7304 14.0004 23.7304C14.2491 23.7304 14.4875 23.6316 14.6633 23.4558C14.8392 23.28 14.9379 23.0415 14.9379 22.7929V10.6851L24.4301 17.9132C24.5524 18.0063 24.6958 18.0679 24.8475 18.0926C24.9992 18.1173 25.1547 18.1043 25.3002 18.0548C25.4458 18.0052 25.5769 17.9206 25.682 17.8085C25.7871 17.6963 25.8631 17.56 25.9032 17.4116C26.1936 16.3479 26.2685 15.2368 26.1236 14.1437C25.9788 13.0505 25.6169 11.9974 25.0594 11.046C23.9479 9.12652 22.1199 7.72675 19.977 7.1542L26.5653 4.28662C26.7035 4.22641 26.8252 4.13374 26.92 4.01648C27.0148 3.89922 27.0799 3.76083 27.1098 3.61304C27.1397 3.46525 27.1335 3.31243 27.0917 3.16755C27.05 3.02266 26.9739 2.88998 26.87 2.78076H26.8664ZM6.86136 2.16787C7.68118 2.16971 8.4919 2.33977 9.24335 2.66752C9.99481 2.99528 10.671 3.47375 11.2301 4.07334C12.0655 4.9525 12.6435 6.04411 12.9012 7.2292L3.57074 3.16748C4.54448 2.51588 5.68972 2.16799 6.86136 2.16787ZM3.68793 15.4687C3.64316 14.2489 3.94681 13.0416 4.56332 11.9882C4.99425 11.2445 5.56821 10.5934 6.25207 10.0727C6.93593 9.55197 7.71615 9.17182 8.54769 8.9542C9.10694 8.805 9.68334 8.72975 10.2621 8.73037C10.9066 8.73031 11.5475 8.82548 12.1641 9.01279L3.68793 15.4687ZM23.434 11.9882C24.0518 13.0413 24.3566 14.2486 24.3129 15.4687L15.8403 9.01162C17.257 8.58384 18.7763 8.64477 20.1542 9.18462C21.5321 9.72447 22.6885 10.7119 23.4375 11.9882H23.434ZM15.0996 7.2292C15.3573 6.04411 15.9353 4.9525 16.7707 4.07334C17.3298 3.47375 18.006 2.99528 18.7575 2.66752C19.5089 2.33977 20.3197 2.16971 21.1395 2.16787C22.3111 2.16799 23.4564 2.51588 24.4301 3.16748L15.0996 7.2292Z" fill="#FAFAFA"/>
</svg>
