<svg width="22" height="17" viewBox="0 0 22 17" fill="none" xmlns="http://www.w3.org/2000/svg">
<path d="M19.25 7.35685C18.7772 7.14929 18.2664 7.04234 17.75 7.04279H4.25C3.73368 7.04229 3.22288 7.14908 2.75 7.35638C2.08166 7.64865 1.51294 8.1293 1.11336 8.73958C0.713775 9.34986 0.500639 10.0633 0.5 10.7928V16.0428C0.5 16.2417 0.579018 16.4325 0.71967 16.5731C0.860322 16.7138 1.05109 16.7928 1.25 16.7928C1.44891 16.7928 1.63968 16.7138 1.78033 16.5731C1.92098 16.4325 2 16.2417 2 16.0428V15.6678C2.00122 15.5687 2.04112 15.474 2.11118 15.404C2.18124 15.3339 2.27592 15.294 2.375 15.2928H19.625C19.7241 15.294 19.8188 15.3339 19.8888 15.404C19.9589 15.474 19.9988 15.5687 20 15.6678V16.0428C20 16.2417 20.079 16.4325 20.2197 16.5731C20.3603 16.7138 20.5511 16.7928 20.75 16.7928C20.9489 16.7928 21.1397 16.7138 21.2803 16.5731C21.421 16.4325 21.5 16.2417 21.5 16.0428V10.7928C21.4993 10.0634 21.2861 9.35004 20.8865 8.73985C20.4869 8.12967 19.9183 7.64909 19.25 7.35685ZM16.625 0.292786H5.375C4.67881 0.292786 4.01113 0.569348 3.51884 1.06163C3.02656 1.55391 2.75 2.22159 2.75 2.91779V6.29279C2.75002 6.32184 2.75679 6.35049 2.76979 6.37648C2.78278 6.40247 2.80163 6.42509 2.82486 6.44254C2.84809 6.46 2.87505 6.47182 2.90363 6.47707C2.93221 6.48231 2.96162 6.48085 2.98953 6.47279C3.39896 6.35303 3.82341 6.29242 4.25 6.29279H4.44828C4.49456 6.29308 4.53932 6.27625 4.57393 6.24553C4.60855 6.2148 4.63058 6.17237 4.63578 6.12638C4.67669 5.75991 4.85115 5.42134 5.12586 5.17535C5.40056 4.92935 5.75625 4.79316 6.125 4.79279H8.75C9.11899 4.79281 9.47503 4.92885 9.75002 5.17488C10.025 5.42091 10.1997 5.75967 10.2406 6.12638C10.2458 6.17237 10.2679 6.2148 10.3025 6.24553C10.3371 6.27625 10.3818 6.29308 10.4281 6.29279H11.5747C11.621 6.29308 11.6657 6.27625 11.7003 6.24553C11.735 6.2148 11.757 6.17237 11.7622 6.12638C11.8031 5.76015 11.9773 5.42178 12.2517 5.17581C12.5261 4.92985 12.8815 4.79351 13.25 4.79279H15.875C16.244 4.79281 16.6 4.92885 16.875 5.17488C17.15 5.42091 17.3247 5.75967 17.3656 6.12638C17.3708 6.17237 17.3929 6.2148 17.4275 6.24553C17.4621 6.27625 17.5068 6.29308 17.5531 6.29279H17.75C18.1766 6.29258 18.6011 6.35335 19.0105 6.47325C19.0384 6.48133 19.0679 6.48279 19.0965 6.47751C19.1251 6.47224 19.1521 6.46038 19.1753 6.44287C19.1986 6.42536 19.2174 6.40269 19.2304 6.37664C19.2433 6.35059 19.2501 6.32188 19.25 6.29279V2.91779C19.25 2.22159 18.9734 1.55391 18.4812 1.06163C17.9889 0.569348 17.3212 0.292786 16.625 0.292786Z" fill="#FAFAFA"/>
</svg>
