<svg id="Layer_1" data-name="Layer 1" xmlns="http://www.w3.org/2000/svg" viewBox="0 0 799.5 474.85"><defs><style>.cls-1,.cls-3{fill:none;}.cls-2{fill:#092e53;}.cls-3{stroke:#092e53;stroke-miterlimit:10;}</style></defs><rect class="cls-1" x="147.5" y="147.38" width="504.47" height="180.17"/><rect class="cls-1" x="347.82" y="0.09" width="103.49" height="147.25"/><rect class="cls-1" x="347.63" y="327.55" width="103.49" height="147.25"/><rect class="cls-1" x="-125.37" y="16.2" width="103.49" height="147.25" transform="translate(-16.11 163.55) rotate(-90)"/><rect class="cls-1" x="526.78" y="16.85" width="103.49" height="147.25" transform="translate(635.4 816.35) rotate(-90)"/><polygon class="cls-2" points="374.48 248.78 374.48 248.78 374.62 247.96 374.48 248.78"/><polygon class="cls-2" points="404.66 232.88 404.66 232.88 404.66 232.88 404.66 232.88"/><path class="cls-2" d="M96.54.2H3.13A2.86,2.86,0,0,0,.28,3.05V24.87a2.85,2.85,0,0,0,2.85,2.84H33.24a2.85,2.85,0,0,1,2.84,2.85V144.23a2.85,2.85,0,0,0,2.85,2.84H60.75a2.84,2.84,0,0,0,2.84-2.84V30.56a2.86,2.86,0,0,1,2.85-2.85h30.1a2.84,2.84,0,0,0,2.85-2.84V3.05A2.85,2.85,0,0,0,96.54.2Z" transform="translate(147.34 147.34)"/><path class="cls-2" d="M105.76,144.12V6.48a3,3,0,0,1,3-3L130.32.2a3,3,0,0,1,3,3v141a3,3,0,0,1-3,2.95h-21.6A3,3,0,0,1,105.76,144.12Z" transform="translate(147.34 147.34)"/><path class="cls-2" d="M367.15,144.42V38.3a2.66,2.66,0,0,1,2.66-2.66L392,32.32A2.66,2.66,0,0,1,394.67,35V144.42a2.65,2.65,0,0,1-2.66,2.65h-22.2A2.65,2.65,0,0,1,367.15,144.42Z" transform="translate(147.34 147.34)"/><rect class="cls-2" x="370.29" y="-2.93" width="21.25" height="27.51" rx="2.46" transform="translate(539.08 -222.74) rotate(90)"/><path class="cls-2" d="M237,73c-1.74-23.07-13.47-33.55-25-37.84l-.11,0c-8.85-3.27-17.53-2.89-21.38-1.79A35.36,35.36,0,0,0,168.71,50a2.27,2.27,0,0,1-4.2-1V35.43a3,3,0,0,0-3.67-3l-19.32,3.1a3,3,0,0,0-2.38,3v87a1,1,0,0,0,0,.17v18.5a1,1,0,0,0,0,.17,2.89,2.89,0,0,0,2.89,2.73h19.49a2.9,2.9,0,0,0,2.9-2.9V125.61l0-27.87c0-.49,0-8.62.07-9.4.46-8.7,4.66-32,26.72-31.72,16.45.19,20.63,19.14,20.7,25.95v61.48a3,3,0,0,0,3,3H234a3,3,0,0,0,3-3V73.27A2.44,2.44,0,0,0,237,73Z" transform="translate(147.34 147.34)"/><path class="cls-2" d="M358.37,33.21c-.27-.08-.55-.15-.82-.21a24,24,0,0,0-11.6.33,34.81,34.81,0,0,0-19.18,12.76c-.21.27-.41.55-.61.82-.74,1-1.43,2.07-2.05,3.11a2.27,2.27,0,0,1-4.2-1V35.43a3,3,0,0,0-3.67-3l-19.33,3.1a3,3,0,0,0-2.37,3v87a1,1,0,0,0,0,.17v18.5a1,1,0,0,0,0,.17,2.89,2.89,0,0,0,2.89,2.73h19.48a2.9,2.9,0,0,0,2.91-2.9v-18.5s0,0,0-.06l0-27.87c0-.49,0-8.62.07-9.4.26-5,1.76-14.76,7.15-22.15,4-5.5,10.16-9.67,19.56-9.57a17.89,17.89,0,0,1,8,1.89h.1a2.93,2.93,0,0,0,3.11-1.37,3.14,3.14,0,0,0,.46-1.34l.54-5.18,1.46-14.19A3.13,3.13,0,0,0,358.37,33.21Z" transform="translate(147.34 147.34)"/><path class="cls-2" d="M288.41,48.46V35.17a2.86,2.86,0,0,0-2.85-2.85H274a2.85,2.85,0,0,1-2.85-2.85V3.05A2.86,2.86,0,0,0,268.31.2L246.5,3.52a2.85,2.85,0,0,0-2.85,2.85V133.52c0,10.37,2.64,13.55,12.31,13.55h26.46a2.84,2.84,0,0,0,2.85-2.85l3.32-19.83a2.86,2.86,0,0,0-2.85-2.85H274a2.85,2.85,0,0,1-2.85-2.85V54.16A2.86,2.86,0,0,1,274,51.31h11.55A2.86,2.86,0,0,0,288.41,48.46Z" transform="translate(147.34 147.34)"/><path class="cls-2" d="M425.18,179.87h-22a4.07,4.07,0,0,1-2.12-2.65V38.66a3.78,3.78,0,0,1,3.1-2.64c6.22-1.06,12.41-2.27,18.62-3.42,3.36-.62,4.39.26,4.41,3.76,0,1.46,0,2.92,0,4.38,0,.5-.18,1,.19,1.51a.33.33,0,0,0,.15,0c.91-.61,1.83-1.22,2.74-1.85,11.42-7.8,23.85-9.58,37-5.89,8.92,2.49,16,7.92,21.92,14.91,7.17,8.44,12.15,18,14.14,28.93.39,2.16.63,4.35.94,6.53V93.6a2.21,2.21,0,0,0-.25,1.28,66.25,66.25,0,0,1-3.49,18.29c-4.76,13.54-13.27,23.83-26.48,29.88a39.88,39.88,0,0,1-21.32,3.56c-7.42-.84-14-4-20-8.41a12.72,12.72,0,0,1-3.16-3.38,8.4,8.4,0,0,1,.19-9.79,8,8,0,0,1,9.51-2.58c2.22.77,4.23,2,6.37,2.92,8.1,3.52,14.88,2.53,20.67-4a36.47,36.47,0,0,0,6.63-10.48c5.88-14.47,5.21-28.82-1.27-42.91-3.35-7.31-9.06-12.28-16.3-15.62a14.2,14.2,0,0,0-9.57-.86c-6.21,1.49-10.64,5.4-14,10.63s-4.46,11-4.49,17.08c-.06,14.15,0,28.31,0,42.47,0,18,.16,36-.1,54C427.15,177.46,426.82,179,425.18,179.87Z" transform="translate(147.34 147.34)"/><rect class="cls-1" width="799.45" height="474.85"/><path class="cls-2" d="M494.57,21.5a10.93,10.93,0,0,1,1.94-.16,3.17,3.17,0,0,1,2.25.64,1.93,1.93,0,0,1,.62,1.48,2,2,0,0,1-1.47,2v0a1.93,1.93,0,0,1,1.14,1.58,12.11,12.11,0,0,0,.61,2.14h-1.05a10.72,10.72,0,0,1-.52-1.87c-.23-1.07-.65-1.48-1.56-1.51h-.95v3.38h-1Zm1,3.56h1c1.08,0,1.76-.59,1.76-1.48s-.73-1.45-1.79-1.46a4,4,0,0,0-1,.09Z" transform="translate(147.34 147.34)"/><path class="cls-3" d="M504.33,25.81a7.53,7.53,0,1,1-7.52-7.53A7.52,7.52,0,0,1,504.33,25.81Z" transform="translate(147.34 147.34)"/></svg>