<svg width="14" height="14" viewBox="0 0 14 14" fill="none" xmlns="http://www.w3.org/2000/svg">
<path fill-rule="evenodd" clip-rule="evenodd" d="M6.02734 3.6595C6.35716 3.72169 6.66635 3.86485 6.92714 4.07611C7.18793 4.28738 7.39214 4.56013 7.52142 4.86986C7.6507 5.17958 7.70101 5.51658 7.66781 5.85056C7.63461 6.18454 7.51894 6.50504 7.33122 6.78325L12.519 10.81C12.6879 10.7225 12.8815 10.6946 13.0683 10.731C13.2551 10.7673 13.4241 10.8657 13.5479 11.0102C13.6717 11.1548 13.743 11.3369 13.7502 11.527C13.7575 11.7172 13.7003 11.9042 13.5878 12.0577C13.4754 12.2112 13.3144 12.3222 13.1309 12.3727C12.9474 12.4232 12.7523 12.4102 12.5772 12.3357C12.402 12.2613 12.2572 12.1299 12.1662 11.9628C12.0751 11.7957 12.0433 11.6027 12.0757 11.4152L6.79947 7.3195C6.55101 7.48976 6.2677 7.60246 5.97017 7.64937C5.67265 7.69629 5.3684 7.67624 5.07961 7.59069C4.79081 7.50514 4.52474 7.35625 4.30077 7.15485C4.0768 6.95346 3.90058 6.70464 3.78494 6.42652C3.66931 6.1484 3.61717 5.84799 3.63233 5.54717C3.64749 5.24635 3.72956 4.9527 3.87257 4.68762C4.01558 4.42253 4.21593 4.19269 4.45901 4.01483C4.70209 3.83697 4.98178 3.71558 5.27772 3.6595L5.27697 0.25H6.02697V3.6595H6.02734ZM6.32697 5.65C6.32697 5.73864 6.30951 5.82642 6.27559 5.90831C6.24166 5.99021 6.19194 6.06462 6.12926 6.1273C6.06658 6.18998 5.99217 6.2397 5.91028 6.27362C5.82838 6.30754 5.74061 6.325 5.65197 6.325C5.56332 6.325 5.47555 6.30754 5.39366 6.27362C5.31176 6.2397 5.23735 6.18998 5.17467 6.1273C5.11199 6.06462 5.06227 5.99021 5.02835 5.90831C4.99443 5.82642 4.97697 5.73864 4.97697 5.65C4.97697 5.47098 5.04808 5.29929 5.17467 5.1727C5.30126 5.04612 5.47295 4.975 5.65197 4.975C5.83099 4.975 6.00268 5.04612 6.12926 5.1727C6.25585 5.29929 6.32697 5.47098 6.32697 5.65Z" fill="#082E53"/>
<path d="M8.36097 5.64429C8.36109 5.12557 8.2118 4.6178 7.93097 4.18168C7.65013 3.74556 7.24963 3.39956 6.77734 3.18504V0.290039C8.38572 0.431414 9.22122 0.938039 9.96934 1.63141C10.0068 1.66666 10.0443 1.70079 10.0803 1.73379V1.73416C10.3991 2.02666 10.6526 2.25954 10.7835 2.60829L12.3712 6.83529C12.4138 6.94874 12.4282 7.07082 12.4132 7.19106C12.3983 7.31131 12.3544 7.42613 12.2853 7.52571C12.2163 7.62528 12.1241 7.70663 12.0168 7.76279C11.9094 7.81895 11.79 7.84824 11.6688 7.84816H11.0572V8.72529L8.21659 6.51916C8.31276 6.23765 8.36167 5.94215 8.36134 5.64466L8.36097 5.64429Z" fill="#082E53"/>
<path d="M4.52759 3.1927V0.34082C1.15634 0.848195 0.251465 3.36332 0.251465 4.74107C0.251465 6.9037 1.63259 8.58107 2.28021 9.25344V13.7504H8.69721V11.3084H10.3071C10.4203 11.3084 10.5283 11.2829 10.6243 11.2379L6.65496 8.15545C5.9989 8.42618 5.26262 8.42771 4.60544 8.15971C3.94826 7.8917 3.42303 7.37572 3.14341 6.7234C2.86378 6.07108 2.85224 5.33489 3.11128 4.67412C3.37033 4.01336 3.87913 3.48117 4.52759 3.1927Z" fill="#082E53"/>
</svg>
