<svg xmlns="http://www.w3.org/2000/svg" width="225.741" height="364.668" viewBox="0 0 225.741 364.668">
  <g id="luggage-bag" transform="translate(1907.238 -32.794)">
    <path id="Path_6" data-name="Path 6" d="M-1681.507,163.283c0-2.488.031-4.981-.073-7.466-.747-17.862-14.229-33.628-31.11-36.292-9.065-1.431-18.2-.5-27.308-.582-2.587-.024-3.142-.7-3.125-3.312.119-18.845.084-37.693.057-56.54-.023-15.754-10.143-26.263-25.3-26.284q-25.648-.036-51.3,0c-16.063.006-25.98,10.308-25.987,27-.008,18.728-.041,37.457.049,56.184.011,2.282-.5,2.989-2.774,2.929-6.493-.171-12.994-.021-19.491-.075a40.115,40.115,0,0,0-10.17,1.04c-17.6,4.422-29.146,19.848-29.159,39.135q-.055,80.543-.011,161.087c0,5.808-.106,11.62.071,17.422.554,18.173,14.092,33.956,31.411,36.743,7.935,1.277,15.927.423,23.892.595,6.177.132,6.06.033,6.1,6.406.049,7.161,1.2,13.562,7.6,15.667a10.1,10.1,0,0,0,5.5.263c3.816-.9,8.043-5.355,8.516-12.5.021-1.3,0-2.607.011-3.909.044-4.612.213-4.821,4.623-4.826q23.245-.028,46.488,0c9.568.026,8.254-1.026,8.395,8.731.1,7.059,2.164,10.426,8.542,12.236a8.7,8.7,0,0,0,5.472,0c6.077-2.291,8.206-7.643,7.55-14.242-.175-1.759.105-3.567-.061-5.328-.194-2.053.548-2.559,2.453-2.523,6.381.12,12.767.008,19.15.06a42.122,42.122,0,0,0,10.85-1.06c17.67-4.513,29.111-19.812,29.124-39.161Q-1681.462,248.982-1681.507,163.283ZM-1825.13,59.469c0-4.38.942-5.325,5.256-5.328q25.616-.013,51.234,0c4.049,0,5.053,1.027,5.056,5.181.013,18.824-.041,37.648.062,56.471.014,2.429-.472,3.174-2.929,3.13-9.333-.168-18.671-.068-28.007-.068-9.222,0-18.445-.075-27.665.054-2.234.031-3.1-.319-3.078-2.971C-1825.076,97.116-1825.14,78.292-1825.13,59.469Zm123.1,274.775c0,11.913-7.077,19.3-18.489,19.3q-73.847.018-147.7,0c-11.405,0-18.468-7.4-18.473-19.32q-.019-43.728,0-87.455,0-43.55,0-87.1c0-12.176,6.993-19.474,18.66-19.476q73.678-.013,147.354,0c11.65,0,18.644,7.313,18.646,19.492Q-1702.015,246.966-1702.028,334.244Z" transform="translate(0 0)" fill="#393939"/>
    <path id="Path_7" data-name="Path 7" d="M-1826.683,295.866q0,35.546-.016,71.093c-.015,8.129-7.476,13.3-14.444,10.025-4.235-1.991-6.085-5.53-6.073-10.195.04-15.494.015-30.989.015-46.483q0-47.68.011-95.359c.007-8.054,6.962-13.182,13.988-10.415,4.18,1.646,6.51,5.377,6.514,10.585Q-1826.669,260.491-1826.683,295.866Z" transform="translate(-18.97 -47.925)" fill="#393939"/>
    <path id="Path_8" data-name="Path 8" d="M-1766.684,296.237q0,35.375-.017,70.75c-.016,8.125-7.5,13.276-14.469,9.981-4.236-2-6.059-5.55-6.048-10.211q.059-27,.016-54,0-43.92.011-87.84c.008-8.042,7-13.165,14.016-10.376,4.169,1.657,6.482,5.386,6.485,10.606Q-1766.671,260.691-1766.684,296.237Z" transform="translate(-37.932 -47.924)" fill="#393939"/>
    <path id="Path_9" data-name="Path 9" d="M-1706.678,295.849q0,35.546-.015,71.093c-.014,7.986-7.2,13.173-14.121,10.188-4.281-1.845-6.381-5.294-6.382-9.981q0-21.192,0-42.382,0-49.9.011-99.8c.006-8.061,6.94-13.192,13.971-10.438,4.185,1.639,6.528,5.374,6.53,10.572Q-1706.664,260.474-1706.678,295.849Z" transform="translate(-56.9 -47.926)" fill="#393939"/>
    <path id="Path_10" data-name="Path 10" d="M-1646.684,296.231q0,35.376-.017,70.751c-.016,8.128-7.492,13.281-14.464,9.99-4.236-2-6.064-5.545-6.054-10.207q.059-26.318.016-52.636,0-44.6.011-89.207c.008-8.045,6.99-13.169,14.01-10.384,4.172,1.654,6.489,5.383,6.491,10.6Q-1646.671,260.685-1646.684,296.231Z" transform="translate(-75.858 -47.925)" fill="#393939"/>
  </g>
</svg>
