<svg width="15" height="16" viewBox="0 0 15 16" fill="none" xmlns="http://www.w3.org/2000/svg">
<path d="M12.3 1.95947H2.7C2.04 1.95947 1.5 2.49873 1.5 3.15781V12.7445C1.5 13.4036 2.04 13.9429 2.7 13.9429H12.3C12.96 13.9429 13.5 13.4036 13.5 12.7445V3.15781C13.5 2.49873 12.96 1.95947 12.3 1.95947Z" stroke="#1B9AD4" stroke-miterlimit="10"/>
<path d="M8.70001 4.65576H6.30001H5.70001H5.10001V11.2466H6.30001V8.84995H8.70001C9.69271 8.84995 10.5 8.04377 10.5 7.05244V6.45327C10.5 5.46194 9.69271 4.65576 8.70001 4.65576ZM9.30001 7.05244C9.30001 7.38288 9.03091 7.65161 8.70001 7.65161H6.30001V5.8541H8.70001C9.03091 5.8541 9.30001 6.12283 9.30001 6.45327V7.05244Z" fill="#1B9AD4"/>
</svg>
