<svg width="24" height="21" viewBox="0 0 24 21" fill="none" xmlns="http://www.w3.org/2000/svg">
<path d="M8.74733 20.1976H7.49952C7.37414 20.1975 7.25077 20.1661 7.14069 20.106C7.03062 20.046 6.93735 19.9593 6.86941 19.854C6.80147 19.7486 6.76104 19.6278 6.7518 19.5028C6.74257 19.3778 6.76483 19.2524 6.81655 19.1382L9.83811 12.4702L5.30108 12.3694L3.64639 14.3743C3.33092 14.7709 3.07921 14.9476 2.43702 14.9476H1.59702C1.46402 14.9519 1.33195 14.924 1.212 14.8664C1.09205 14.8088 0.987757 14.7231 0.907956 14.6166C0.796393 14.4662 0.686706 14.2112 0.793581 13.8474L1.72264 10.5193C1.72967 10.4944 1.73811 10.4696 1.74749 10.4452C1.74795 10.4429 1.74795 10.4405 1.74749 10.4382C1.73781 10.4138 1.72951 10.389 1.72264 10.3637L0.792643 7.01445C0.691862 6.65773 0.802018 6.40835 0.912643 6.26163C0.986929 6.16306 1.08331 6.0833 1.19403 6.02875C1.30475 5.97421 1.42672 5.9464 1.55014 5.94757H2.43702C2.91655 5.94757 3.38202 6.16273 3.65577 6.51007L5.27624 8.48116L9.83811 8.41366L6.81749 1.75741C6.7657 1.64325 6.74335 1.51793 6.75249 1.3929C6.76163 1.26787 6.80196 1.14713 6.8698 1.04171C6.93764 0.936286 7.03082 0.849553 7.14083 0.789435C7.25083 0.729318 7.37416 0.697734 7.49952 0.697571H8.76092C8.9369 0.701107 9.10983 0.74424 9.26685 0.823768C9.42388 0.903295 9.56097 1.01717 9.66796 1.15695L15.5297 8.28195L18.2376 8.2107C18.4359 8.19991 18.9853 8.19616 19.1123 8.19616C21.7026 8.19757 23.2495 9.03851 23.2495 10.4476C23.2495 10.891 23.0723 11.7132 21.8869 12.2363C21.187 12.5457 20.2533 12.7023 19.1114 12.7023C18.9858 12.7023 18.4378 12.6985 18.2367 12.6877L15.5292 12.6155L9.65296 19.7405C9.54588 19.8797 9.40891 19.993 9.25216 20.0721C9.0954 20.1512 8.92288 20.1941 8.74733 20.1976V20.1976Z" fill="white"/>
</svg>
