<svg height="512" viewBox="0 0 512 512" width="512" xmlns="http://www.w3.org/2000/svg"><g><g fill="#57a4ff"><path d="m136.66 334-9.79-48h-6.87a16 16 0 1 1 0-32h.34l-14.1-69.07-19.19-94.07-6.4-31.35-47.03 9.6 70.38 344.89h256v-48h-216.81z"/><rect height="128" rx="12" width="80" x="328" y="46"/></g><g fill="#004fac"><path d="m336 216h64a48.055 48.055 0 0 0 48-48v-112a48.055 48.055 0 0 0 -48-48h-64a48.055 48.055 0 0 0 -48 48v112a48.055 48.055 0 0 0 48 48zm-32-160a32.036 32.036 0 0 1 32-32h64a32.036 32.036 0 0 1 32 32v112a32.036 32.036 0 0 1 -32 32h-64a32.036 32.036 0 0 1 -32-32z"/><path d="m340 184h56a20.023 20.023 0 0 0 20-20v-104a20.023 20.023 0 0 0 -20-20h-56a20.023 20.023 0 0 0 -20 20v104a20.023 20.023 0 0 0 20 20zm-4-124a4 4 0 0 1 4-4h56a4 4 0 0 1 4 4v104a4 4 0 0 1 -4 4h-56a4 4 0 0 1 -4-4z"/><path d="m488 488h-144v-64h16a8 8 0 0 0 8-8v-48a8 8 0 0 0 -8-8h-8v-4a28.031 28.031 0 0 0 -28-28h-180.81l-6.52-32h127.33a24 24 0 0 0 0-48h-137.13l-11.19-54.84 3.92-.8a27.982 27.982 0 0 0 21.83-33.03l-11.19-54.87a28 28 0 0 0 -33.04-21.83l-3.91.8-4.8-23.52a8.015 8.015 0 0 0 -9.44-6.24l-47.03 9.6a8.007 8.007 0 0 0 -6.24 9.44l70.38 344.89a8.008 8.008 0 0 0 7.84 6.4h16v64h-96a8 8 0 0 0 0 16h464a8 8 0 0 0 0-16zm-164-144a12.01 12.01 0 0 1 12 12v4h-186.28l-3.26-16zm-204-80h144a8 8 0 0 1 0 16h-144a8 8 0 0 1 0-16zm-19.6-165.7a12.006 12.006 0 0 1 14.16 9.36l11.2 54.87a12.006 12.006 0 0 1 -9.36 14.16l-3.92.8-15.99-78.39zm227.6 389.7h-192v-64h192zm-217.47-80-67.47-330.65 31.35-6.4 36.5 178.84a24 24 0 0 0 9.09 46.21h.34l15.01 73.6a8.008 8.008 0 0 0 7.84 6.4h208.81v32z"/></g></g></svg>