availability<svg xmlns="http://www.w3.org/2000/svg" width="272.414" height="332.731" viewBox="0 0 272.414 332.731">
  <g id="seats" transform="translate(3329.078 734.126)">
    <path id="Path_17" data-name="Path 17" d="M-3080.691-401.395c-.631-.716-1.224-1.469-1.9-2.143q-27.672-27.7-55.33-55.414a6.817,6.817,0,0,0-5.33-2.263q-41.428.125-82.858.029c-22.885-.086-41.644-13.594-49.078-35.076a52.044,52.044,0,0,1-2.592-17.229c.02-31.952-.029-63.9.025-95.855.029-17.149,9.479-31.248,24.584-36.985,15.43-5.861,31.779-1.741,43.387,11,7.8,8.565,15.368,17.357,23.358,25.744,14.613,15.34,32.61,25.031,52.883,30.708a97.649,97.649,0,0,0,23.649,3.694c1.99.055,2.764.427,2.736,2.66q-.2,15.756,0,31.517c.035,2.459-.831,2.7-2.959,2.638-15.671-.475-30.525-4.56-44.981-10.222a171.532,171.532,0,0,1-45.274-26.091c-1.041.522-.6,1.387-.6,2.044-.028,19.171.021,38.342-.079,57.513-.012,2.307.624,2.819,2.862,2.807,17.546-.1,35.092-.028,52.639-.089a6.506,6.506,0,0,1,5.131,2.015q41.169,41.316,82.5,82.467c1.784,1.774,1.551,2.546-.073,4.176-7.388,7.417-15.1,14.515-22.06,22.358Z" fill="#393939"/>
    <path id="Path_18" data-name="Path 18" d="M-3329.012-567.659c0-26,.044-51.992-.066-77.988-.011-2.71.676-3.4,3.373-3.342q13.642.277,27.293,0c2.846-.061,3.587.638,3.581,3.543q-.15,74.088-.069,148.176c0,20.25,8.41,35.889,25.839,46.389,8.366,5.04,17.608,6.831,27.329,6.81,32.278-.073,64.557.012,96.835-.1,2.922-.009,3.816.657,3.745,3.69-.215,9.31-.144,18.629-.029,27.943.027,2.134-.569,2.7-2.7,2.693-33.253-.069-66.51.229-99.759-.127-37.947-.406-68.946-23.129-81.218-59.042a85,85,0,0,1-4.168-27.808Q-3328.969-532.239-3329.012-567.659Z" fill="#393939"/>
    <path id="Path_19" data-name="Path 19" d="M-3277.739-700.165c.118-18.932,15.3-34.288,34.082-33.956,19.319.341,33.965,14.424,33.981,34,.016,19.742-14.849,33.995-34.194,34.1A33.748,33.748,0,0,1-3277.739-700.165Z" fill="#393939"/>
  </g>
</svg>
