<svg clip-rule="evenodd" fill-rule="evenodd" height="512" image-rendering="optimizeQuality" shape-rendering="geometricPrecision" text-rendering="geometricPrecision" viewBox="0 0 4335 4335" width="512" xmlns="http://www.w3.org/2000/svg"><g id="Layer_x0020_1"><path d="m235 840h476v-658c-77 0-167 17-167-51 0-28 22-51 50-51h1082c66 0 66 102 0 102h-117v658h476c65 0 123 26 166 68 43 43 69 102 69 166v2560c0 130-105 235-235 235h-44v200c0 164-199 249-316 131-34-33-55-80-55-131v-200h-970v200c0 164-200 249-317 131-33-33-54-80-54-131v-200c-82 0-144-3-210-69-43-42-69-101-69-166v-2560c0-129 106-234 235-234zm2774 219c-66 0-66-101 0-101h849c67 0 67 101 0 101h-81v494h363c108 0 195 89 195 195v2009c0 54-22 102-57 138-49 48-97 57-162 57 0 104 17 195-46 257-61 61-159 61-221 0-62-62-46-153-46-257h-739c0 104 16 195-46 257-61 61-160 61-221 0-63-62-46-153-46-257-65 0-113-9-162-57-35-36-57-84-57-138v-2009c0-107 88-195 195-195h363v-494zm667 0h-485v494h485zm-884 905c-67 0-67-102 0-102h1283c67 0 67 102 0 102zm0 339c-67 0-67-102 0-102h1283c67 0 67 102 0 102zm0 338c-67 0-67-101 0-101h1283c67 0 67 101 0 101zm0 339c-67 0-67-102 0-102h1283c67 0 67 102 0 102zm0 172h1283c28 0 51 23 51 51v389c0 29-23 51-51 51h-1283c-28 0-51-22-51-51v-389c0-28 23-51 51-51zm1232 102h-1181v288h1181zm-119 698c0 63-11 158 16 185 35 35 94 9 94-39v-146zm-1053 0c0 63-11 158 17 185h-1c35 35 94 9 94-39v-146zm1288-2297h-1413c-52 0-93 42-93 93v2009c0 107 115 94 168 94h1338c26 0 49-11 66-28 17-17 27-40 27-66v-2009c0-51-42-93-93-93zm-2682-1473h-646v658h646zm-1141 1117c-67 0-67-101 0-101h1636c67 0 67 101 0 101zm0 342c-67 0-67-102 0-102h1636c67 0 67 102 0 102zm0 341c-67 0-67-101 0-101h1636c67 0 67 101 0 101zm0 342c-67 0-67-102 0-102h1636c67 0 67 102 0 102zm0 341c-67 0-67-101 0-101h1636c67 0 67 101 0 101zm0 248h1636c28 0 50 23 50 51v496c0 28-22 51-50 51h-1636c-28 0-51-23-51-51v-496c0-28 23-51 51-51zm1585 102h-1534v394h1534zm-12 854h-168v200c0 111 168 111 168 0zm-1342 0h-168v200c0 111 168 110 168 0zm1487-2928c-600 0-1200 0-1800 0-74 0-133 60-133 133v2560c0 73 60 133 133 133h1800c73 0 133-60 133-133v-2560c0-36-15-70-39-94-24-24-57-39-94-39z" fill="#092f6a" fill-rule="nonzero"/><path d="m2634 1748v2009c0 107 115 94 168 94h1338c26 0 49-11 66-28s27-40 27-66v-2009c0-51-42-93-93-93h-1413c-52 0-93 42-93 93zm158 216c-67 0-67-102 0-102h1283c67 0 67 102 0 102zm0 339c-67 0-67-102 0-102h1283c67 0 67 102 0 102zm0 338c-67 0-67-101 0-101h1283c67 0 67 101 0 101zm0 339c-67 0-67-102 0-102h1283c67 0 67 102 0 102zm0 172h1283c28 0 51 23 51 51v389c0 29-23 51-51 51h-1283c-28 0-51-22-51-51v-389c0-28 23-51 51-51z" fill="#fafafb"/><g fill="#42a5f5"><path d="m4024 3254h-1181v288h1181z"/><path d="m1902 3409v-394h-1534v394z"/><path d="m317 2913h1636c28 0 50 23 50 51v496c0 28-22 51-50 51h-1636c-28 0-51-23-51-51v-496c0-28 23-51 51-51zm1636-248h-1636c-67 0-67-101 0-101h1636c67 0 67 101 0 101zm0-341h-1636c-67 0-67-102 0-102h1636c67 0 67 102 0 102zm0-342h-1636c-67 0-67-101 0-101h1636c67 0 67 101 0 101zm0-341h-1636c-67 0-67-102 0-102h1636c67 0 67 102 0 102zm0-342h-1636c-67 0-67-101 0-101h1636c67 0 67 101 0 101zm82-358h-1800c-74 0-133 60-133 133v2560c0 73 60 133 133 133h1800c73 0 133-60 133-133v-2560c0-36-15-70-39-94s-57-39-94-39z"/><path d="m548 4069v-200h-168v200c0 111 168 110 168 0z"/><path d="m1722 3869v200c0 111 168 111 168 0v-200z"/><path d="m2852 3952c0 63-11 158 16 185 35 35 94 9 94-39v-146z"/><path d="m3905 3952c0 63-11 158 16 185 35 35 94 9 94-39v-146z"/></g></g></svg>