<svg width="18" height="21" viewBox="0 0 18 21" fill="none" xmlns="http://www.w3.org/2000/svg">
<path d="M6.266 0.534912C6.06709 0.534912 5.87632 0.61393 5.73567 0.754582C5.59502 0.895234 5.516 1.086 5.516 1.28491V3.04291H4.852C4.15522 3.04269 3.47682 3.26641 2.91686 3.68107C2.3569 4.09573 1.94503 4.67937 1.742 5.34591L1.683 5.54291H0.75C0.551088 5.54291 0.360322 5.62193 0.21967 5.76258C0.0790178 5.90323 2.59244e-07 6.094 2.59244e-07 6.29291C2.59244e-07 6.49182 0.0790178 6.68259 0.21967 6.82324C0.360322 6.96389 0.551088 7.04291 0.75 7.04291H1.283L1.081 7.86991C0.7508 8.07058 0.47787 8.35294 0.288527 8.68977C0.0991842 9.02659 -0.000185243 9.40652 2.59244e-07 9.79291V18.2929C2.59244e-07 19.2589 0.784 20.0429 1.75 20.0429H3.25C3.71413 20.0429 4.15925 19.8585 4.48744 19.5303C4.81563 19.2022 5 18.757 5 18.2929V17.0429H13V18.2929C13 19.2589 13.784 20.0429 14.75 20.0429H16.25C16.7141 20.0429 17.1592 19.8585 17.4874 19.5303C17.8156 19.2022 18 18.757 18 18.2929V9.79291C18 8.97791 17.566 8.26291 16.917 7.86891L16.711 7.04291H17.25C17.4489 7.04291 17.6397 6.96389 17.7803 6.82324C17.921 6.68259 18 6.49182 18 6.29291C18 6.094 17.921 5.90323 17.7803 5.76258C17.6397 5.62193 17.4489 5.54291 17.25 5.54291H16.308L16.253 5.35891C16.0521 4.68946 15.6408 4.10259 15.08 3.68539C14.5193 3.26819 13.8389 3.04289 13.14 3.04291H12.484V1.28491C12.484 1.086 12.405 0.895234 12.2643 0.754582C12.1237 0.61393 11.9329 0.534912 11.734 0.534912H6.266ZM4.852 4.54291H13.14C13.5163 4.54294 13.8826 4.66427 14.1845 4.8889C14.4864 5.11353 14.7078 5.42949 14.816 5.78991L15.026 6.49191L15.29 7.54291H2.705L2.962 6.49091L3.178 5.78291C3.28731 5.42412 3.509 5.10994 3.81039 4.88669C4.11178 4.66343 4.47693 4.54292 4.852 4.54291ZM1.5 17.0429H3.5V18.2929C3.5 18.3592 3.47366 18.4228 3.42678 18.4697C3.37989 18.5166 3.3163 18.5429 3.25 18.5429H1.75C1.6837 18.5429 1.62011 18.5166 1.57322 18.4697C1.52634 18.4228 1.5 18.3592 1.5 18.2929V17.0429ZM14.5 17.0429H16.5V18.2929C16.5 18.3592 16.4737 18.4228 16.4268 18.4697C16.3799 18.5166 16.3163 18.5429 16.25 18.5429H14.75C14.6837 18.5429 14.6201 18.5166 14.5732 18.4697C14.5263 18.4228 14.5 18.3592 14.5 18.2929V17.0429ZM5.005 11.5429C5.005 11.8081 4.89964 12.0625 4.71211 12.25C4.52457 12.4376 4.27022 12.5429 4.005 12.5429C3.73978 12.5429 3.48543 12.4376 3.29789 12.25C3.11036 12.0625 3.005 11.8081 3.005 11.5429C3.005 11.2777 3.11036 11.0233 3.29789 10.8358C3.48543 10.6483 3.73978 10.5429 4.005 10.5429C4.27022 10.5429 4.52457 10.6483 4.71211 10.8358C4.89964 11.0233 5.005 11.2777 5.005 11.5429ZM14 12.5429C13.7348 12.5429 13.4804 12.4376 13.2929 12.25C13.1054 12.0625 13 11.8081 13 11.5429C13 11.2777 13.1054 11.0233 13.2929 10.8358C13.4804 10.6483 13.7348 10.5429 14 10.5429C14.2652 10.5429 14.5196 10.6483 14.7071 10.8358C14.8946 11.0233 15 11.2777 15 11.5429C15 11.8081 14.8946 12.0625 14.7071 12.25C14.5196 12.4376 14.2652 12.5429 14 12.5429Z" fill="#FAFAFA"/>
</svg>
