<svg width="20" height="20" viewBox="0 0 20 20" fill="none" xmlns="http://www.w3.org/2000/svg">
<path d="M8.456 13.3287C8.25467 13.1547 8.09267 12.9447 8 12.6667V11.3333C8.25533 11.2073 8.90867 10.4507 9.156 9.73667C8.94667 9.40467 8.78267 8.98667 8.71333 8.44333C8.656 7.992 8.724 7.59933 8.862 7.27333C8.75867 6.914 8.66667 6.464 8.66667 6C8.66667 5.076 8.858 4.23 9.19933 3.49533C8.89133 3.186 8.49533 3 8 3C8 3 7.75067 2 6.33333 2C4.008 2 2.66667 3.814 2.66667 6C2.66667 6.736 3.01867 7.476 3.01867 7.476C2.87733 7.55733 2.644 7.816 2.70267 8.27467C2.812 9.13 3.18267 9.34667 3.41867 9.36467C3.50867 10.1633 4.36667 11.1847 4.66667 11.3333V12.6667C4 14.6667 0 13.3333 0 18H6C6 15.216 7.24267 13.9933 8.456 13.3287Z" fill="#C5C5C5"/>
<path d="M15.3333 12.6665V11.3332C15.6333 11.1845 16.4913 10.1632 16.5813 9.36516C16.8173 9.34716 17.188 9.13049 17.2973 8.27516C17.356 7.81582 17.1227 7.55782 16.9813 7.47649C16.9813 7.47649 17.3333 6.80782 17.3333 6.00049C17.3333 4.38182 16.698 3.00049 15.3333 3.00049C15.3333 3.00049 15.084 2.00049 13.6667 2.00049C11.3413 1.99982 10 3.81382 10 5.99982C10 6.73582 10.352 7.47582 10.352 7.47582C10.2107 7.55715 9.97734 7.81582 10.036 8.27449C10.1453 9.12982 10.516 9.34649 10.752 9.36449C10.842 10.1632 11.7 11.1845 12 11.3332V12.6665C11.3333 14.6665 7.33334 13.3332 7.33334 17.9998H20C20 13.3332 16 14.6665 15.3333 12.6665Z" fill="#C5C5C5"/>
</svg>
