<svg width="50" height="51" viewBox="0 0 50 51" fill="none" xmlns="http://www.w3.org/2000/svg">
<path d="M21.8753 36.2093H28.1253V47.1468H21.8753V36.2093Z" fill="white"/>
<path d="M45.3125 44.0217H42.1875V12.7718C42.1875 11.8343 41.5625 11.2093 40.625 11.2093H39.0625V4.95926C39.0625 4.02176 38.4375 3.39676 37.5 3.39676H12.5C11.5625 3.39676 10.9375 4.02176 10.9375 4.95926V11.2093H9.37502C8.43752 11.2093 7.81252 11.8343 7.81252 12.7718V44.0217H4.68752C3.75002 44.0217 3.12502 44.6467 3.12502 45.5842C3.12502 46.5217 3.75002 47.1467 4.68752 47.1467H18.75V34.6468C18.75 33.7093 19.375 33.0843 20.3125 33.0843H29.6875C30.625 33.0843 31.25 33.7093 31.25 34.6468V47.1467H45.3125C46.25 47.1467 46.875 46.5217 46.875 45.5842C46.875 44.6467 46.25 44.0217 45.3125 44.0217ZM34.375 15.8968C35.3125 15.8968 35.9375 16.5218 35.9375 17.4593V20.5843C35.9375 21.5218 35.3125 22.1468 34.375 22.1468C33.4375 22.1468 32.8125 21.5218 32.8125 20.5843V17.4593C32.8125 16.5218 33.4375 15.8968 34.375 15.8968ZM15.625 39.3343C15.625 40.2718 15 40.8968 14.0625 40.8968C13.125 40.8968 12.5 40.2718 12.5 39.3343V36.2093C12.5 35.2718 13.125 34.6468 14.0625 34.6468C15 34.6468 15.625 35.2718 15.625 36.2093V39.3343ZM17.1875 29.9593C17.1875 30.8968 16.5625 31.5218 15.625 31.5218C14.6875 31.5218 14.0625 30.8968 14.0625 29.9593V26.8343C14.0625 25.8968 14.6875 25.2718 15.625 25.2718C16.5625 25.2718 17.1875 25.8968 17.1875 26.8343V29.9593ZM17.1875 20.5843C17.1875 21.5218 16.5625 22.1468 15.625 22.1468C14.6875 22.1468 14.0625 21.5218 14.0625 20.5843V17.4593C14.0625 16.5218 14.6875 15.8968 15.625 15.8968C16.5625 15.8968 17.1875 16.5218 17.1875 17.4593V20.5843ZM18.75 14.3343C17.8125 14.3343 17.1875 13.7093 17.1875 12.7718V9.64676C17.1875 8.70926 17.8125 8.08426 18.75 8.08426C19.6875 8.08426 20.3125 8.70926 20.3125 9.64676V12.7718C20.3125 13.7093 19.6875 14.3343 18.75 14.3343ZM23.4375 29.9593C23.4375 30.8968 22.8125 31.5218 21.875 31.5218C20.9375 31.5218 20.3125 30.8968 20.3125 29.9593V26.8343C20.3125 25.8968 20.9375 25.2718 21.875 25.2718C22.8125 25.2718 23.4375 25.8968 23.4375 26.8343V29.9593ZM23.4375 20.5843C23.4375 21.5218 22.8125 22.1468 21.875 22.1468C20.9375 22.1468 20.3125 21.5218 20.3125 20.5843V17.4593C20.3125 16.5218 20.9375 15.8968 21.875 15.8968C22.8125 15.8968 23.4375 16.5218 23.4375 17.4593V20.5843ZM25 14.3343C24.0625 14.3343 23.4375 13.7093 23.4375 12.7718V9.64676C23.4375 8.70926 24.0625 8.08426 25 8.08426C25.9375 8.08426 26.5625 8.70926 26.5625 9.64676V12.7718C26.5625 13.7093 25.9375 14.3343 25 14.3343ZM29.6875 29.9593C29.6875 30.8968 29.0625 31.5218 28.125 31.5218C27.1875 31.5218 26.5625 30.8968 26.5625 29.9593V26.8343C26.5625 25.8968 27.1875 25.2718 28.125 25.2718C29.0625 25.2718 29.6875 25.8968 29.6875 26.8343V29.9593ZM29.6875 20.5843C29.6875 21.5218 29.0625 22.1468 28.125 22.1468C27.1875 22.1468 26.5625 21.5218 26.5625 20.5843V17.4593C26.5625 16.5218 27.1875 15.8968 28.125 15.8968C29.0625 15.8968 29.6875 16.5218 29.6875 17.4593V20.5843ZM31.25 14.3343C30.3125 14.3343 29.6875 13.7093 29.6875 12.7718V9.64676C29.6875 8.70926 30.3125 8.08426 31.25 8.08426C32.1875 8.08426 32.8125 8.70926 32.8125 9.64676V12.7718C32.8125 13.7093 32.1875 14.3343 31.25 14.3343ZM32.8125 29.9593V26.8343C32.8125 25.8968 33.4375 25.2718 34.375 25.2718C35.3125 25.2718 35.9375 25.8968 35.9375 26.8343V29.9593C35.9375 30.8968 35.3125 31.5218 34.375 31.5218C33.4375 31.5218 32.8125 30.8968 32.8125 29.9593ZM37.5 39.3343C37.5 40.2718 36.875 40.8968 35.9375 40.8968C35 40.8968 34.375 40.2718 34.375 39.3343V36.2093C34.375 35.2718 35 34.6468 35.9375 34.6468C36.875 34.6468 37.5 35.2718 37.5 36.2093V39.3343Z" fill="white"/>
</svg>
