<svg width="50" height="51" viewBox="0 0 50 51" fill="none" xmlns="http://www.w3.org/2000/svg">
<path d="M42.6203 41.5447C39.8349 41.5143 37.0636 41.1444 34.3677 40.4432C34.4025 40.245 34.4228 40.0444 34.4286 39.8432C34.4237 38.5668 33.8468 37.3598 32.8566 36.5544C34.4659 32.4104 35.2896 28.003 35.2857 23.5575C35.2845 22.0384 35.186 20.5211 34.9909 19.0146C36.2583 18.5652 37.2403 17.5456 37.642 16.2623C41.6394 17.3612 45.3981 19.1922 48.7275 21.6623C49.8239 28.8749 47.576 36.1942 42.6203 41.5481V41.5447ZM22.1414 49.0952C19.8914 48.8294 17.6909 48.2435 15.6066 47.3552C15.5851 46.8812 15.5714 46.3892 15.5714 45.8432C15.5743 42.6406 16.0276 39.4542 16.918 36.3778C17.0414 36.3881 17.1597 36.4146 17.2857 36.4146C18.4093 36.4138 19.4872 35.97 20.2857 35.1795C22.0496 36.6159 23.9435 37.8848 25.9429 38.9698C25.6161 40.5204 26.1835 42.1236 27.4129 43.1235C25.8961 45.314 24.1268 47.3184 22.1414 49.0952ZM7.85711 19.2718C7.85711 17.8516 9.00838 16.7003 10.4285 16.7003C11.8487 16.7003 13 17.8516 13 19.2718C13 20.6919 11.8487 21.8432 10.4285 21.8432C9.00838 21.8432 7.85711 20.6919 7.85711 19.2718ZM8.72626 7.6523C13.1509 3.54744 18.9645 1.26807 25 1.27172C25.1132 1.27172 25.2246 1.27857 25.3377 1.28029C27.9015 4.26614 29.9263 7.67527 31.3215 11.3552C30.5704 11.8164 29.9794 12.4975 29.6286 13.306C29.2292 13.2915 28.8297 13.2717 28.4286 13.2717C23.3264 13.2631 18.2818 14.3501 13.636 16.4595C12.6505 15.3019 11.1152 14.7692 9.62455 15.0675C9.05494 12.636 8.75371 10.1494 8.72626 7.6523ZM48.2235 19.2118C45.0311 17.0935 41.5138 15.5114 37.8109 14.5283C37.7856 14.2866 37.7397 14.0474 37.6738 13.8135C40.0165 12.9161 42.4522 12.2836 44.9355 11.9277C46.4327 14.1539 47.5442 16.6164 48.2235 19.2118ZM36.1429 14.986C36.1429 16.4062 34.9916 17.5575 33.5715 17.5575C32.1513 17.5575 31 16.4062 31 14.986C31 13.5659 32.1513 12.4146 33.5715 12.4146C34.9916 12.4146 36.1429 13.5659 36.1429 14.986ZM33.5715 23.5575C33.575 27.7231 32.8153 31.8542 31.33 35.7461C30.9453 35.6268 30.5456 35.5633 30.1429 35.5575C28.7446 35.5594 27.4355 36.2447 26.6372 37.3926C24.7311 36.3495 22.9267 35.1305 21.2474 33.7515C21.9557 32.0488 21.478 30.0834 20.0671 28.8958C22.6035 24.4551 26.0941 20.6329 30.2869 17.7049C31.0305 18.6065 32.1123 19.1623 33.2783 19.2418C33.4679 20.6726 33.5658 22.1141 33.5715 23.5575ZM14.7143 19.2718C14.7082 18.8242 14.6313 18.3804 14.4863 17.9569C18.8709 15.9905 23.6232 14.9779 28.4286 14.986C28.7166 14.986 29.0012 15.0023 29.2857 15.0109C29.2931 15.4075 29.3563 15.8011 29.4734 16.18C24.994 19.2725 21.2679 23.3334 18.5714 28.0618C17.6724 27.7507 16.6916 27.7722 15.8071 28.1226C14.5655 26.5092 13.4706 24.7881 12.5354 22.9798C13.8764 22.2263 14.7087 20.8099 14.7143 19.2718ZM17.2857 29.5575C18.7059 29.5575 19.8571 30.7088 19.8571 32.1289C19.8571 33.5491 18.7059 34.7004 17.2857 34.7004C15.8655 34.7004 14.7143 33.5491 14.7143 32.1289C14.7143 30.7088 15.8655 29.5575 17.2857 29.5575ZM27.5714 39.8432C27.5714 38.4231 28.7227 37.2718 30.1429 37.2718C31.563 37.2718 32.7143 38.4231 32.7143 39.8432C32.711 40.148 32.653 40.4496 32.5429 40.7338V40.7407C32.1096 41.905 30.9045 42.5918 29.6818 42.3711C28.4592 42.1504 27.5703 41.0856 27.5714 39.8432ZM43.7955 10.3737C41.4283 10.774 39.1081 11.4142 36.8706 12.2843C36.0651 11.287 34.8534 10.7052 33.5715 10.7003C33.3564 10.7054 33.142 10.7272 32.9303 10.7655C31.6595 7.40338 29.8865 4.25331 27.6717 1.42258C34.0243 2.1386 39.8284 5.36072 43.7955 10.3737ZM7.06597 9.34516C7.18994 11.4979 7.50896 13.6349 8.01911 15.73C6.36747 16.8371 5.70879 18.9443 6.43597 20.7949C4.45446 22.3219 2.63827 24.0522 1.0171 25.9575C1.0111 25.7295 0.999956 25.5015 0.999956 25.2718C0.996111 19.3984 3.15555 13.7293 7.06597 9.34688V9.34516ZM1.2151 28.4355C2.99193 26.1215 5.05658 24.0436 7.35911 22.252C8.16281 23.0856 9.27068 23.5567 10.4285 23.5575C10.579 23.5507 10.7289 23.5355 10.8777 23.5121C11.8632 25.4523 13.0228 27.299 14.3423 29.0295C13.3397 29.9681 12.8527 31.3336 13.0351 32.6948C13.2175 34.056 14.0468 35.2451 15.2611 35.8866C14.3284 39.1232 13.8558 42.4749 13.8571 45.8432C13.8571 46.0815 13.8623 46.2992 13.8666 46.523C6.96796 42.8997 2.25265 36.1583 1.2151 28.4355ZM24.4771 49.2581C26.1357 47.634 27.6314 45.8515 28.9429 43.9361C29.3315 44.0579 29.7357 44.1228 30.1429 44.1289C31.6358 44.1249 33.0184 43.3422 33.79 42.0641C36.1263 42.6825 38.519 43.0633 40.9318 43.2007C36.5483 47.1144 30.8764 49.2758 25 49.2718C24.8286 49.2718 24.652 49.2624 24.4771 49.2581Z" fill="white"/>
</svg>
