<svg width="50" height="51" viewBox="0 0 50 51" fill="none" xmlns="http://www.w3.org/2000/svg">
<path d="M43.9933 34.554C43.3408 34.1944 42.5215 34.4336 42.1633 35.088C41.8049 35.7425 42.0431 36.5647 42.6955 36.9241C44.3008 37.809 45.2215 38.7899 45.2215 39.6155C45.2215 40.6252 43.7957 42.1901 39.7938 43.5542C35.8402 44.902 30.5568 45.6442 24.9169 45.6442C19.2769 45.6442 13.9935 44.902 10.0399 43.5542C6.03799 42.1901 4.61217 40.6252 4.61217 39.6155C4.61217 38.7899 5.53289 37.809 7.13822 36.9241C7.79057 36.5646 8.02884 35.7424 7.67045 35.0879C7.31207 34.4335 6.49296 34.1943 5.84043 34.5539C4.05056 35.5405 1.91686 37.2195 1.91686 39.6155C1.91686 41.4521 3.17575 44.0705 9.17282 46.1148C13.3984 47.5552 18.9897 48.3485 24.9169 48.3485C30.844 48.3485 36.4354 47.5552 40.6609 46.1148C46.658 44.0705 47.9169 41.4521 47.9169 39.6155C47.9169 37.2195 45.7832 35.5405 43.9933 34.554Z" fill="white"/>
<path d="M14.7422 41.5995C17.478 42.3749 21.0914 42.802 24.9169 42.802C28.7423 42.802 32.3558 42.375 35.0915 41.5995C38.4384 40.6509 40.1355 39.2776 40.1355 37.5182C40.1355 35.7587 38.4384 34.3856 35.0915 33.4371C34.3485 33.2265 33.5404 33.0418 32.6813 32.8842C32.2148 33.693 31.7259 34.5255 31.2148 35.3819C32.1657 35.5251 33.0585 35.7006 33.8693 35.9078C36.3324 36.5373 37.2323 37.2459 37.4173 37.5183C37.2322 37.7908 36.3325 38.4994 33.8693 39.1288C31.538 39.7246 28.5385 40.0644 25.3793 40.0948C25.2263 40.1062 25.0721 40.1126 24.9169 40.1126C24.7615 40.1126 24.6074 40.1062 24.4544 40.0948C21.2952 40.0644 18.2957 39.7247 15.9643 39.1288C13.5011 38.4994 12.6014 37.7907 12.4164 37.5183C12.6014 37.2459 13.5012 36.5373 15.9644 35.9078C16.7751 35.7007 17.6679 35.5251 18.6189 35.3819C18.1078 34.5256 17.6189 33.6929 17.1524 32.8842C16.2933 33.0419 15.4852 33.2265 14.7422 33.4371C11.3953 34.3856 9.69823 35.7588 9.69823 37.5182C9.69823 39.2776 11.3953 40.6508 14.7422 41.5995Z" fill="white"/>
<path d="M24.9169 37.4081C26.1166 37.4081 27.2063 36.7948 27.8321 35.7674C32.2174 28.5688 37.4447 19.0816 37.4447 14.7645C37.4447 7.83366 31.8248 2.19501 24.9169 2.19501C18.009 2.19501 12.3891 7.83366 12.3891 14.7645C12.3891 19.0816 17.6164 28.5688 22.0016 35.7674C22.6275 36.7948 23.7173 37.4081 24.9169 37.4081ZM19.8814 13.9015C19.8814 11.1158 22.1403 8.8494 24.9169 8.8494C27.6934 8.8494 29.9524 11.1158 29.9524 13.9015C29.9524 16.6873 27.6934 18.9537 24.9169 18.9537C22.1403 18.9537 19.8814 16.6874 19.8814 13.9015Z" fill="white"/>
</svg>
