<svg width="51" height="51" viewBox="0 0 51 51" fill="none" xmlns="http://www.w3.org/2000/svg">
<path d="M50.1796 27.3567C50.2584 29.2396 49.5872 31.0769 48.313 32.4655C47.0389 33.8541 45.266 34.6806 43.3833 34.7637C43.2732 34.7688 43.1633 34.7713 43.0536 34.7713C42.5533 34.771 42.0546 34.7168 41.5659 34.6099C40.116 36.8486 38.2147 38.76 35.9838 40.2218C33.7529 41.6837 31.2414 42.6639 28.61 43.0996C28.2988 44.0139 27.6779 44.7908 26.8546 45.2959C26.0313 45.801 25.0574 46.0026 24.1013 45.8658C23.1452 45.7291 22.2669 45.2625 21.6182 44.5469C20.9696 43.8312 20.5913 42.9114 20.5489 41.9465C20.5065 40.9815 20.8025 40.0321 21.3859 39.2623C21.9692 38.4925 22.8032 37.9507 23.7437 37.7305C24.6841 37.5104 25.6719 37.6257 26.5364 38.0566C27.4008 38.4876 28.0875 39.207 28.4777 40.0905C32.1824 39.4053 35.5291 37.4419 37.9347 34.5424C40.3403 31.6429 41.6521 27.9912 41.6416 24.2238C41.6416 15.3232 34.4005 8.08209 25.4999 8.08209C16.5993 8.08209 9.35822 15.3232 9.35822 24.2238C9.35774 26.976 10.0611 29.6826 11.4015 32.0864C11.4469 32.1657 11.481 32.251 11.5028 32.3398C11.6323 32.6996 11.6184 33.0955 11.4642 33.4454C11.3099 33.7953 11.027 34.0726 10.674 34.2197C9.80961 34.5835 8.88126 34.7708 7.94347 34.7706C7.83311 34.7706 7.72251 34.7681 7.61167 34.763C5.72974 34.6788 3.95796 33.8519 2.68484 32.4634C1.41172 31.0749 0.741164 29.2382 0.820207 27.356C0.851982 26.6055 0.834252 25.9358 0.81692 25.2882C0.800783 24.6785 0.783949 24.048 0.81164 23.3901C0.894284 21.5523 1.68481 19.8178 3.01764 18.5499C4.35048 17.282 6.12223 16.5789 7.9618 16.588C10.9158 9.82934 17.6646 5.09381 25.4999 5.09381C33.3352 5.09381 40.0841 9.82934 43.0381 16.5881C44.8779 16.5776 46.6502 17.2801 47.9833 18.548C49.3164 19.816 50.1066 21.551 50.1881 23.389C50.2159 24.0479 50.1992 24.6783 50.1828 25.288C50.1657 25.9357 50.1479 26.6057 50.1796 27.3567ZM38.0313 24.2238C38.0306 26.1436 37.5889 28.0376 36.7404 29.7597C35.8919 31.4819 34.6592 32.9861 33.1373 34.1565C31.6155 35.3268 29.8452 36.132 27.963 36.5099C26.0807 36.8879 24.1368 36.8285 22.2811 36.3363L17.2089 39.2655C16.953 39.4133 16.659 39.4819 16.3641 39.4626C16.0692 39.4433 15.7866 39.3369 15.5522 39.157C15.3177 38.9771 15.1419 38.7317 15.0469 38.4519C14.9519 38.172 14.942 37.8703 15.0185 37.5848L16.3148 32.749C14.1681 30.4285 12.9736 27.385 12.9691 24.2238C12.9691 17.3121 18.5901 11.6895 25.4999 11.6895C32.4097 11.6895 38.0313 17.3121 38.0313 24.2238ZM22.0161 24.2238C22.0161 23.8275 21.8587 23.4475 21.5785 23.1673C21.2983 22.8871 20.9182 22.7297 20.5219 22.7297H20.5195C20.2241 22.7302 19.9355 22.8183 19.6901 22.9828C19.4448 23.1473 19.2537 23.3809 19.141 23.6539C19.0284 23.927 18.9992 24.2273 19.0572 24.517C19.1151 24.8066 19.2576 25.0726 19.4667 25.2813C19.6758 25.49 19.942 25.632 20.2318 25.6894C20.5215 25.7468 20.8218 25.7171 21.0947 25.6039C21.3675 25.4908 21.6007 25.2992 21.7648 25.0536C21.9288 24.808 22.0164 24.5192 22.0164 24.2238H22.0161ZM26.9944 24.2238C26.9942 24.1749 26.9916 24.126 26.9864 24.0774C26.9817 24.0285 26.9744 23.98 26.9646 23.9319C26.9557 23.8841 26.9436 23.8368 26.9286 23.7905C26.9148 23.7437 26.8978 23.6979 26.8799 23.652C26.862 23.6062 26.8401 23.5634 26.8172 23.5205C26.7944 23.4775 26.7695 23.4356 26.7425 23.395C26.7152 23.3541 26.6859 23.3145 26.6547 23.2765C26.624 23.2384 26.5911 23.2022 26.5562 23.1679C26.5223 23.1331 26.4855 23.1002 26.4476 23.0683C26.4097 23.0384 26.3698 23.0086 26.329 22.9817C26.2885 22.9546 26.2466 22.9297 26.2036 22.907C26.1606 22.884 26.1159 22.8631 26.071 22.8442C26.0261 22.8254 25.9803 22.8091 25.9336 22.7954C25.8405 22.7655 25.7442 22.7461 25.6467 22.7376C25.5004 22.7235 25.3528 22.7306 25.2085 22.7585C25.1604 22.7683 25.1129 22.7806 25.0661 22.7954C25.0194 22.8091 24.9735 22.8254 24.9287 22.8442C24.8838 22.8631 24.839 22.884 24.7962 22.907C24.7534 22.9299 24.7115 22.9548 24.6706 22.9817C24.6296 23.0086 24.5899 23.0384 24.5531 23.0683C24.5143 23.1002 24.4784 23.1331 24.4436 23.1679C24.4086 23.2022 24.3756 23.2385 24.3449 23.2765C24.314 23.3145 24.2851 23.3541 24.2583 23.395C24.2309 23.4355 24.2056 23.4774 24.1826 23.5205C24.1596 23.5632 24.139 23.6071 24.1207 23.652C24.1018 23.6973 24.0852 23.7435 24.0709 23.7905C24.0571 23.8363 24.0451 23.8841 24.0352 23.9319C24.0253 23.98 24.018 24.0285 24.0132 24.0774C24.0083 24.1262 24.0062 24.175 24.0062 24.2238C24.0062 24.2726 24.0083 24.3224 24.0132 24.3712C24.0181 24.4197 24.0254 24.4679 24.0352 24.5156C24.0451 24.5635 24.0571 24.6113 24.0709 24.6581C24.0852 24.7047 24.1018 24.7506 24.1207 24.7955C24.139 24.8408 24.1596 24.885 24.1826 24.928C24.2054 24.9709 24.2314 25.0127 24.2583 25.0535C24.2851 25.0942 24.314 25.1334 24.3449 25.1711C24.3759 25.2092 24.4088 25.2458 24.4436 25.2806C24.4784 25.3145 24.5143 25.3484 24.5531 25.3793C24.5906 25.4104 24.6298 25.4393 24.6706 25.4659C24.7115 25.4928 24.7533 25.5187 24.7962 25.5416C24.8827 25.5867 24.973 25.6241 25.0661 25.6532C25.1128 25.6671 25.1607 25.6791 25.2085 25.689C25.3045 25.7087 25.4023 25.7184 25.5003 25.7179C25.8961 25.7169 26.2755 25.5597 26.5562 25.2806C26.625 25.2108 26.6874 25.1347 26.7425 25.0535C26.7693 25.0127 26.7942 24.9709 26.8172 24.928C26.8401 24.8852 26.861 24.8404 26.8799 24.7955C26.8988 24.7507 26.9148 24.7039 26.9286 24.6581C26.9435 24.6114 26.9555 24.5638 26.9646 24.5156C26.9743 24.4679 26.9816 24.4197 26.9864 24.3712C26.9915 24.3222 26.994 24.2729 26.9941 24.2236L26.9944 24.2238ZM31.9748 24.2238C31.9748 23.8275 31.8174 23.4475 31.5372 23.1673C31.257 22.8871 30.877 22.7297 30.4807 22.7297H30.4778C30.1824 22.7302 29.8938 22.8183 29.6485 22.9829C29.4032 23.1474 29.2121 23.3809 29.0995 23.654C28.9868 23.9271 28.9576 24.2274 29.0156 24.5171C29.0736 24.8067 29.2161 25.0727 29.4252 25.2813C29.6343 25.49 29.9005 25.632 30.1903 25.6894C30.48 25.7468 30.7803 25.7171 31.0531 25.6039C31.326 25.4907 31.5592 25.2992 31.7232 25.0536C31.8873 24.8079 31.9748 24.5192 31.9748 24.2238Z" fill="white"/>
</svg>
