<svg width="16" height="15" viewBox="0 0 16 15" fill="none" xmlns="http://www.w3.org/2000/svg">
<g clip-path="url(#clip0)">
<path d="M10.4055 8.78144C9.62794 8.03257 8.60123 7.62012 7.51455 7.62012C6.42765 7.62012 5.40082 8.03268 4.62328 8.78179C4.47984 8.91996 4.34545 9.06925 4.22379 9.22542C3.93896 9.59143 3.97302 10.1166 4.30279 10.4481C4.30337 10.4487 4.30394 10.4492 4.30451 10.4498C4.47961 10.6249 4.71215 10.7213 4.95913 10.7213C5.24924 10.7213 5.51916 10.5897 5.69964 10.36C5.75617 10.288 5.81797 10.2184 5.88322 10.1533C6.31791 9.7186 6.8972 9.47918 7.51455 9.47918C8.13179 9.47918 8.71119 9.7186 9.14589 10.1532C9.2109 10.2183 9.27271 10.2879 9.32946 10.36C9.50995 10.5896 9.77975 10.7213 10.0699 10.7213H10.07C10.317 10.7213 10.5495 10.6249 10.7245 10.4498C10.7252 10.4492 10.7257 10.4487 10.7263 10.4481C11.0561 10.1166 11.0901 9.59143 10.8052 9.22542C10.6835 9.06914 10.549 8.91984 10.4055 8.78144ZM10.4133 10.1384C10.4128 10.1388 10.4124 10.1393 10.412 10.1398C10.3202 10.2309 10.1987 10.2811 10.0699 10.2811C9.91574 10.2811 9.77207 10.2107 9.67552 10.0879C9.60799 10.002 9.53448 9.91926 9.45709 9.84198C8.93937 9.32404 8.24944 9.03898 7.51455 9.03898C6.77955 9.03898 6.08973 9.32415 5.5719 9.84198C5.49427 9.9196 5.42089 10.0023 5.35347 10.088C5.25703 10.2107 5.11336 10.2811 4.95913 10.2811C4.83025 10.2811 4.70894 10.2309 4.61709 10.1398C4.61663 10.1394 4.61617 10.139 4.61583 10.1385C4.44119 9.96387 4.42205 9.68764 4.57122 9.49592C4.68004 9.35626 4.80032 9.22267 4.92875 9.09883C5.62385 8.42919 6.5422 8.06043 7.51455 8.06043C8.48679 8.06043 9.40503 8.42908 10.1 9.0986C10.2285 9.22244 10.3489 9.35614 10.4578 9.49592C10.6071 9.68764 10.5879 9.96387 10.4133 10.1384Z" fill="#1B9AD4"/>
<path d="M7.51503 10.4585C7.16083 10.4585 6.82773 10.5964 6.5773 10.8469C6.32688 11.0973 6.18893 11.4303 6.18893 11.7845C6.18893 12.1387 6.32688 12.4718 6.5773 12.7222C6.82773 12.9726 7.16083 13.1106 7.51503 13.1106C7.86923 13.1106 8.20222 12.9726 8.45265 12.7222C8.96967 12.2052 8.96967 11.3639 8.45265 10.8469C8.20222 10.5964 7.86923 10.4585 7.51503 10.4585ZM8.14133 12.4109C7.97404 12.5782 7.75159 12.6704 7.51503 12.6704C7.27837 12.6704 7.05592 12.5782 6.88862 12.4109C6.72132 12.2436 6.62913 12.0211 6.62913 11.7846C6.62913 11.5479 6.72132 11.3255 6.88862 11.1582C7.05592 10.9909 7.27837 10.8987 7.51503 10.8987C7.75159 10.8987 7.97404 10.9909 8.14133 11.1582C8.4867 11.5036 8.4867 12.0655 8.14133 12.4109Z" fill="#1B9AD4"/>
<path d="M14.7862 5.13601C14.6877 5.02834 14.585 4.92089 14.4809 4.81678C13.0481 3.38461 11.2454 2.43863 9.2674 2.08122C7.33403 1.73195 5.36352 1.96289 3.5689 2.74937C3.45756 2.79822 3.40676 2.92802 3.45561 3.03936C3.50446 3.1507 3.63426 3.2015 3.7456 3.15265C7.31362 1.58908 11.4053 2.36456 14.1696 5.12821C14.2691 5.22774 14.3673 5.33036 14.4615 5.43322C14.6377 5.62574 14.6299 5.92226 14.4438 6.10836C14.3479 6.20422 14.2201 6.25582 14.0848 6.25238C13.951 6.2494 13.8277 6.19379 13.738 6.09552C13.6534 6.00322 13.5656 5.91137 13.4769 5.82262C11.8879 4.23371 9.77066 3.35882 7.51463 3.35882C7.51452 3.35882 7.51417 3.35882 7.51406 3.35882C5.2578 3.35893 3.14028 4.23428 1.5516 5.82342C1.46285 5.91229 1.37525 6.00379 1.29131 6.09552C1.20141 6.19379 1.07826 6.24952 0.94445 6.25238C0.808228 6.25559 0.681409 6.20422 0.585434 6.10836C0.399333 5.92226 0.391536 5.62574 0.567661 5.43333C0.661572 5.33071 0.75961 5.22831 0.85891 5.12901C1.50275 4.48505 2.22973 3.94005 3.01931 3.50914C3.12606 3.45089 3.16539 3.31719 3.10714 3.21044C3.04889 3.1038 2.91519 3.06436 2.80844 3.12272C1.98182 3.5737 1.22114 4.14404 0.54748 4.8177C0.443709 4.92158 0.341198 5.02868 0.24293 5.13601C-0.0926938 5.5027 -0.0790487 6.06651 0.274119 6.41968C0.450818 6.59626 0.683931 6.69281 0.932869 6.69281C0.939863 6.69281 0.947087 6.6927 0.954197 6.69258C1.20933 6.68696 1.44439 6.58044 1.61616 6.39273C1.69573 6.3057 1.77875 6.2189 1.86292 6.13474C3.36847 4.62873 5.37544 3.79924 7.51406 3.79913H7.51463C9.6529 3.79913 11.6599 4.62827 13.1655 6.13393C13.2497 6.2181 13.3331 6.30524 13.4131 6.39273C13.5849 6.58044 13.8199 6.68696 14.0751 6.69258C14.3292 6.69809 14.576 6.59867 14.7551 6.41968C15.1082 6.06651 15.122 5.5027 14.7862 5.13601Z" fill="#1B9AD4"/>
<path d="M12.3489 6.70711C11.156 5.57009 9.58967 4.88978 7.93827 4.7914C7.81672 4.78429 7.71261 4.87671 7.70538 4.99803C7.69816 5.11946 7.79069 5.22369 7.91212 5.23091C9.45975 5.3231 10.9275 5.96041 12.0451 7.02576C12.1866 7.16072 12.3234 7.30302 12.4516 7.44876C12.6226 7.64312 12.6135 7.93826 12.431 8.12081C12.3343 8.21736 12.2062 8.26815 12.0694 8.2638C11.9318 8.25932 11.8057 8.19981 11.7144 8.09593C11.614 7.98172 11.5073 7.87004 11.3976 7.76386C10.354 6.75538 8.97507 6.20006 7.51469 6.19994H7.51458C6.05432 6.19994 4.67536 6.75527 3.6318 7.76363C3.52172 7.86992 3.41508 7.98172 3.31463 8.09593C3.22336 8.19981 3.09734 8.25932 2.95963 8.2638C2.82318 8.26838 2.69476 8.21736 2.59809 8.12069C2.41578 7.93838 2.40546 7.64449 2.5747 7.45185C2.66036 7.35427 2.75014 7.25796 2.84164 7.16554C3.9782 6.01591 5.49671 5.32895 7.11738 5.23125C7.2387 5.22392 7.33112 5.11957 7.32389 4.99826C7.31655 4.87694 7.21232 4.78418 7.09089 4.79174C5.36175 4.89597 3.74153 5.62914 2.52861 6.85594C2.43114 6.95455 2.3354 7.05729 2.24389 7.16129C1.92191 7.52788 1.94083 8.08607 2.28678 8.43201C2.46313 8.60825 2.69498 8.70422 2.94289 8.70422C2.95321 8.70422 2.96353 8.70411 2.97385 8.70377C3.23058 8.69551 3.47539 8.57993 3.64533 8.3866C3.73786 8.28123 3.83624 8.17814 3.93772 8.08022C5.91019 6.17437 9.11943 6.17449 11.0917 8.08045C11.1929 8.17826 11.2912 8.28123 11.3838 8.3866C11.5538 8.57993 11.7986 8.69551 12.0553 8.70377C12.315 8.71214 12.5587 8.61559 12.7423 8.43201C13.0886 8.08572 13.106 7.52604 12.7822 7.15785C12.6455 7.0026 12.4997 6.8509 12.3489 6.70711Z" fill="#1B9AD4"/>
</g>
<defs>
<clipPath id="clip0">
<rect width="15.0293" height="15" fill="white"/>
</clipPath>
</defs>
</svg>
