<?xml version="1.0"?>
<svg xmlns="http://www.w3.org/2000/svg" viewBox="0 0 64 64" width="512" height="512"><g id="Outline"><path fill="#4169e1" d="M47.559,22.841a8.49,8.49,0,0,1,2.426.8A20.983,20.983,0,0,0,9,30c0,.075.011.148.011.223,0,.041-.011.081-.011.122,0,.138.029.272.038.409A21.01,21.01,0,0,0,30,51a20.783,20.783,0,0,0,3.733-.35c-.255-.626-.489-1.261-.69-1.909A19.6,19.6,0,0,1,31,48.962V41.311c.338-.008.666-.031,1-.047V39.258c-.334.017-.663.042-1,.051V31h1V29H31V21.362a35.731,35.731,0,0,1,7.179.9,34.5,34.5,0,0,1,.615,4.031c.664-.159,1.323-.331,1.974-.53-.1-1-.242-1.968-.414-2.906a22.382,22.382,0,0,1,3.885,1.619c.737-.32,1.464-.664,2.179-1.039a23,23,0,0,0-6.569-2.845,20.86,20.86,0,0,0-4.259-8.736A19.057,19.057,0,0,1,47.559,22.841Zm-23.14-11A20.851,20.851,0,0,0,20.138,20.6a20.261,20.261,0,0,0-8.413,4.266A19.065,19.065,0,0,1,24.419,11.839ZM19.644,22.853A39.1,39.1,0,0,0,19.026,29H11.247C12.091,26.465,15.247,24.241,19.644,22.853ZM19.026,31a38.614,38.614,0,0,0,.755,6.876c-4.863-1.507-8.251-4.03-8.708-6.876Zm-7.011,5.079a20.893,20.893,0,0,0,8.31,4.06,20.164,20.164,0,0,0,4.094,8.022A19.078,19.078,0,0,1,12.015,36.079ZM29,48.868c-2.621-.645-4.94-3.775-6.4-8.214a38.924,38.924,0,0,0,6.4.665Zm0-9.548a35.943,35.943,0,0,1-7.013-.858A35.67,35.67,0,0,1,21.025,31H29ZM29,29H21.025a36.084,36.084,0,0,1,.793-6.733A35.8,35.8,0,0,1,29,21.37Zm0-9.63a38.869,38.869,0,0,0-6.618.707c1.437-4.82,3.857-8.266,6.618-8.945Zm8.61.7A38.77,38.77,0,0,0,31,19.365V11.133C33.759,11.812,36.175,15.256,37.61,20.073Z"/><path fill="#4169e1" d="M31.905,52.735,30.542,54.2l1.8,1.68C31.571,55.952,30.792,56,30,56A26,26,0,1,1,55.659,25.885q1.041.3,2.1.537A28,28,0,1,0,30,58c.875,0,1.736-.053,2.59-.134l-1.852,1.986L32.2,61.215l3.41-3.656a1,1,0,0,0-.049-1.413Z"/><path d="M61.109,29.006A34.91,34.91,0,0,1,48.47,25.117a1,1,0,0,0-.94,0,34.916,34.916,0,0,1-12.639,3.889A1,1,0,0,0,34,30V41.844A21.818,21.818,0,0,0,47.615,61.923a1,1,0,0,0,.77,0A21.818,21.818,0,0,0,62,41.844V30A1,1,0,0,0,61.109,29.006ZM60,41.844A19.808,19.808,0,0,1,48,59.912,19.808,19.808,0,0,1,36,41.844V30.885a36.882,36.882,0,0,0,12-3.756,36.874,36.874,0,0,0,12,3.756Z"/><path d="M39.707,41.293l-1.414,1.414,6,6a1,1,0,0,0,1.414,0l12-12-1.414-1.414L45,46.586Z"/></g></svg>
