<svg id="Layer_1" data-name="Layer 1" xmlns="http://www.w3.org/2000/svg" xmlns:xlink="http://www.w3.org/1999/xlink" viewBox="0 0 864 380.64"><defs><style>.cls-1{fill:url(#linear-gradient);}.cls-2{fill:url(#linear-gradient-2);}.cls-3{fill:url(#linear-gradient-3);}.cls-4{fill:url(#linear-gradient-4);}.cls-5{fill:none;stroke:#231f20;stroke-miterlimit:10;}.cls-6{fill:url(#linear-gradient-5);}.cls-7{fill:url(#linear-gradient-6);}.cls-8{fill:url(#linear-gradient-7);}.cls-9{fill:#871919;}.cls-10{fill:#414141;}.cls-11{fill:#c82323;}.cls-12{fill:#1e417d;}.cls-13{fill:#fff;}</style><linearGradient id="linear-gradient" x1="97.65" y1="120.32" x2="714.93" y2="101.29" gradientUnits="userSpaceOnUse"><stop offset="0" stop-color="#05508c"/><stop offset="0.5" stop-color="#0095db"/><stop offset="1" stop-color="#05508c"/></linearGradient><linearGradient id="linear-gradient-2" x1="175.07" y1="135.96" x2="378.54" y2="110.06" gradientUnits="userSpaceOnUse"><stop offset="0.01" stop-color="#009756"/><stop offset="1" stop-color="#008c4f"/></linearGradient><linearGradient id="linear-gradient-3" x1="123.54" y1="45.99" x2="439.09" y2="49.95" gradientUnits="userSpaceOnUse"><stop offset="0" stop-color="#141e4b"/><stop offset="0.5" stop-color="#1e468c"/><stop offset="1" stop-color="#141e4b"/></linearGradient><linearGradient id="linear-gradient-4" x1="98.81" y1="230.38" x2="672.82" y2="44.07" xlink:href="#linear-gradient-3"/><linearGradient id="linear-gradient-5" x1="84.08" y1="226.78" x2="428.13" y2="50.26" gradientUnits="userSpaceOnUse"><stop offset="0.01" stop-color="#008c41"/><stop offset="1" stop-color="#0a4b23"/></linearGradient><linearGradient id="linear-gradient-6" x1="167.28" y1="58.31" x2="292" y2="110.63" xlink:href="#linear-gradient-5"/><linearGradient id="linear-gradient-7" x1="138.48" y1="108.63" x2="237.57" y2="108.63" gradientTransform="translate(26.14 -36.1) rotate(11.78)" gradientUnits="userSpaceOnUse"><stop offset="0.01" stop-color="#f61423"/><stop offset="1" stop-color="#ac1e23"/></linearGradient></defs><path class="cls-1" d="M410.16,57.92c4.41-41.75-260.78-2.75-260.78-2.75C368.94-25.23,716.69,6,716.69,6S368.68,164.5,75.58,228.16c0,0,64-19.24,169.84-70.37C245.42,157.79,403,83.37,410.16,57.92Z"/><path class="cls-2" d="M77,225.68C394.31,82.05,380.58,62.27,380.58,62.27c1.29-23.42-233.45,0-233.45,0S264.3,63.56,260.07,99C260.07,99,270.39,128.46,77,225.68Z"/><path class="cls-3" d="M409.46,59.7a10.06,10.06,0,0,0,.7-1.78c4.41-41.75-260.78-2.75-260.78-2.75S377.53,27.86,409.46,59.7Z"/><path class="cls-4" d="M75.58,228.16S431.63,197,716.69,6C716.69,6,368.68,164.5,75.58,228.16Z"/><path class="cls-5" d="M75.58,228.16s2.63-.79,7.69-2.47Z"/><path class="cls-6" d="M77,225.68S351.24,119.46,379,66.16C370.84,76.77,325.17,113.35,77,225.68Z"/><path class="cls-7" d="M260.18,97c-.28-33.48-113-34.72-113-34.72S230.37,66.6,260.18,97Z"/><ellipse class="cls-8" cx="188.03" cy="108.63" rx="50.34" ry="24.96" transform="translate(-18.22 40.68) rotate(-11.78)"/><path class="cls-9" d="M237.62,100.31c0-.15-.06-.29-.1-.43,1.11,13.12-18.2,27.73-44.4,33.19-27.21,5.68-51.55-.66-54.37-14.16a13.18,13.18,0,0,1-.26-3.07,17,17,0,0,0,.27,5.09c3.22,15.45,28,23.36,55.26,17.67S240.84,115.76,237.62,100.31Z"/><path class="cls-10" d="M563.49,347.23l-1.2,5.51H550.45l-1,4.62H561l-1.14,5.23H548.25l-2.12,10.47h-8l5.52-25.83Z"/><path class="cls-10" d="M575.07,347.23l-5.5,25.83h-7.21l5.52-25.83Z"/><path class="cls-10" d="M597.89,354.36,586,375.44a12.32,12.32,0,0,1-3.34,4.14,7,7,0,0,1-3.92,1.06,19.6,19.6,0,0,1-5.27-.73l.58-4.82a6.36,6.36,0,0,0,2.34.45c1.4,0,2.51-.82,3.32-2.48l-3.6-18.7h7.07l1,13h.07l6.36-13Z"/><path class="cls-10" d="M634.34,347.23l-1.19,5.51H621.3l-1,4.62h11.58l-1.15,5.23H619.1L617,373.06h-8l5.51-25.83Z"/><path class="cls-10" d="M635.1,359.49a6.56,6.56,0,0,1,3-4.11q2.32-1.44,7.18-1.44,5.52,0,7.45,1.38a4.68,4.68,0,0,1,1.93,4,29.1,29.1,0,0,1-1,5.8,27.71,27.71,0,0,0-.9,5.32,7.78,7.78,0,0,0,.46,2.59h-7a10.11,10.11,0,0,1-.25-2.13,9.1,9.1,0,0,1-6.29,2.57q-3.54,0-5.09-1.66A5.45,5.45,0,0,1,633,368a5,5,0,0,1,1.38-3.79,7.25,7.25,0,0,1,3.41-1.77,48,48,0,0,1,5.54-.82,27.41,27.41,0,0,0,4.16-.65,5.55,5.55,0,0,0,.21-1.27,1.28,1.28,0,0,0-.72-1.13,3.68,3.68,0,0,0-1.89-.42,4.29,4.29,0,0,0-2,.4,3.36,3.36,0,0,0-1.35,1.66Zm11.63,5.2q-5,.82-5.81,1.46a1.82,1.82,0,0,0-.87,1.5,1.77,1.77,0,0,0,.62,1.42,2.41,2.41,0,0,0,1.59.52,4.21,4.21,0,0,0,2.68-1.1A6.06,6.06,0,0,0,646.73,364.69Z"/><path class="cls-10" d="M677.25,358.84l-6.71.72c-.2-1.13-1-1.69-2.52-1.69a3.4,3.4,0,0,0-2,.48,1.34,1.34,0,0,0-.66,1.11,1.28,1.28,0,0,0,.59,1.08,8.94,8.94,0,0,0,3.16.8c2.76.41,4.59,1,5.51,1.86a4.28,4.28,0,0,1,1.36,3.32,6.05,6.05,0,0,1-2.68,4.94q-2.67,2-8.16,2c-3,0-5.17-.44-6.55-1.3a5.48,5.48,0,0,1-2.43-4.3l7.08-.62a2.69,2.69,0,0,0,3,2.27,4.16,4.16,0,0,0,2.08-.51,1.59,1.59,0,0,0,.91-1.46,1.15,1.15,0,0,0-.65-1.16,10.74,10.74,0,0,0-2.47-.59c-2.78-.43-4.67-1.09-5.65-2a4.26,4.26,0,0,1-1.48-3.33,5.52,5.52,0,0,1,1.11-3.21,7.35,7.35,0,0,1,3.35-2.47,14.71,14.71,0,0,1,5.53-.91,12.17,12.17,0,0,1,5.75,1.1A5.15,5.15,0,0,1,677.25,358.84Z"/><path class="cls-10" d="M694.47,354.36l-1.09,5.13h-3.76l-1.37,6.61a2.65,2.65,0,0,0-.14.9c0,.84.55,1.27,1.67,1.27a15.72,15.72,0,0,0,2.22-.34l-1.07,5.13a40.45,40.45,0,0,1-4.76.44c-2,0-3.44-.48-4.28-1.45a4.67,4.67,0,0,1-1.25-3.15,22.14,22.14,0,0,1,.51-3l1.34-6.4h-2.58l1.06-5.13h2.63l.61-2.92,8-4-1.48,6.92Z"/><path class="cls-10" d="M706,360.86l-1.2,5.52H694.38l1.2-5.52Z"/><path class="cls-10" d="M732.21,347.23l-1.2,5.51H719.17l-1,4.62h11.58l-1.15,5.23H717l-2.11,10.47h-8l5.52-25.83Z"/><path class="cls-10" d="M743.79,347.23l-5.5,25.83h-7.21l5.52-25.83Z"/><path class="cls-10" d="M766.61,354.36l-11.86,21.08a12.2,12.2,0,0,1-3.34,4.14,7,7,0,0,1-3.92,1.06,19.6,19.6,0,0,1-5.27-.73l.58-4.82a6.41,6.41,0,0,0,2.35.45c1.39,0,2.5-.82,3.31-2.48l-3.6-18.7h7.07l1,13H753l6.37-13Z"/><path class="cls-10" d="M803.35,354.4l-7.47.4q-.25-3.36-3.76-3.36a3.42,3.42,0,0,0-2.19.61,1.81,1.81,0,0,0-.77,1.45,1.59,1.59,0,0,0,.62,1.17,10.94,10.94,0,0,0,2.93,1.42,40.4,40.4,0,0,1,4.75,2.13,9,9,0,0,1,3,2.61,6.67,6.67,0,0,1,1.16,4,7.6,7.6,0,0,1-1.26,4.2,9.52,9.52,0,0,1-3.63,3.21A14.62,14.62,0,0,1,790,373.5q-6.15,0-8.72-2.36a7.85,7.85,0,0,1-2.57-6.06v-.6l7.5-.51a4.54,4.54,0,0,0,1.07,3.41,4.16,4.16,0,0,0,3,1,4.38,4.38,0,0,0,2.9-.83,2.42,2.42,0,0,0,1-1.88,2.08,2.08,0,0,0-.63-1.46,9.08,9.08,0,0,0-3.12-1.57c-3.79-1.37-6.19-2.62-7.2-3.77a6.15,6.15,0,0,1-1.5-4.16,7.09,7.09,0,0,1,1.24-4.06,8,8,0,0,1,3.61-2.84,14.35,14.35,0,0,1,5.68-1Q802.68,346.79,803.35,354.4Z"/><path class="cls-10" d="M806.17,359.49a6.49,6.49,0,0,1,3-4.11c1.54-1,3.94-1.44,7.18-1.44,3.67,0,6.16.46,7.44,1.38a4.65,4.65,0,0,1,1.93,4,28.37,28.37,0,0,1-1,5.8,27.71,27.71,0,0,0-.9,5.32,8,8,0,0,0,.46,2.59h-7a9.5,9.5,0,0,1-.25-2.13,9.14,9.14,0,0,1-6.29,2.57q-3.54,0-5.09-1.66a5.41,5.41,0,0,1-1.55-3.84,5,5,0,0,1,1.38-3.79,7.2,7.2,0,0,1,3.41-1.77,47.8,47.8,0,0,1,5.53-.82,27.18,27.18,0,0,0,4.16-.65,5.55,5.55,0,0,0,.21-1.27,1.29,1.29,0,0,0-.71-1.13,3.74,3.74,0,0,0-1.9-.42,4.29,4.29,0,0,0-2,.4,3.29,3.29,0,0,0-1.34,1.66Zm11.63,5.2q-4.95.82-5.82,1.46a1.84,1.84,0,0,0-.86,1.5,1.74,1.74,0,0,0,.62,1.42,2.4,2.4,0,0,0,1.58.52,4.23,4.23,0,0,0,2.69-1.1A6.12,6.12,0,0,0,817.8,364.69Z"/><path class="cls-10" d="M845.29,347.58l-1.15,4.26a8.38,8.38,0,0,0-2.5-.47,2,2,0,0,0-1.28.38,5.53,5.53,0,0,0-1,2.61h3.4l-1.09,5.13h-3.38l-2.86,13.57h-7.22l2.92-13.57h-2.66l1.08-5.13h2.67a40.35,40.35,0,0,1,1-4.23,4.84,4.84,0,0,1,3.1-3,9.57,9.57,0,0,1,2.86-.38A28.61,28.61,0,0,1,845.29,347.58Z"/><path class="cls-10" d="M862.87,368.27a9.37,9.37,0,0,1-4.09,4,14.47,14.47,0,0,1-6.34,1.23q-5.54,0-7.87-2.49a8.65,8.65,0,0,1-2.33-6.11,10.44,10.44,0,0,1,1.09-4.71,10.89,10.89,0,0,1,3-3.71,10.73,10.73,0,0,1,3.68-2,15.4,15.4,0,0,1,4.25-.52q5.24,0,7.51,2.27A7.63,7.63,0,0,1,864,361.8a24.58,24.58,0,0,1-.48,3.75H849.27c.2,2.5,1.32,3.76,3.36,3.76a3.91,3.91,0,0,0,3.32-1.7Zm-6-6.19A3.8,3.8,0,0,0,857,361a2.66,2.66,0,0,0-.85-2.16,3.11,3.11,0,0,0-2.11-.73,3.58,3.58,0,0,0-2.43,1,6.34,6.34,0,0,0-1.69,3Z"/><path class="cls-11" d="M5.07,326.13H39.33s7.24-2.14,10.58-10.94l8.76-32.51H38.06l-8.54,31.37s-1.33,4.15-4.9,3.71a3.88,3.88,0,0,1-3.62-5l8-30.06H9.45L.18,315.19S-1.45,322.52,5.07,326.13Z"/><path class="cls-12" d="M594.52,326.13l2.2-8.81,3.92,8.81h25.91L621,312.3c11.45-9.33,10.75-20.08,10.75-20.08.3-6-1.65-8.48-3.4-9.54H585.59l-11.65,43.45Zm8.47-32h4.67c5.63,2.43-.9,8.25-.9,8.25h-5.82Z"/><polygon class="cls-12" points="671.42 326.13 675.11 313.62 656.97 313.62 665.73 282.68 645.43 282.68 633.79 326.13 671.42 326.13"/><polygon class="cls-12" points="566.2 326.13 577.9 282.68 558.64 282.68 547.16 326.13 566.2 326.13"/><polygon class="cls-12" points="724.58 326.13 728.85 310.76 732.87 326.13 753.5 326.13 765.22 282.68 744.35 282.68 740.21 298.87 736.45 282.68 717.62 282.68 705.99 326.13 724.58 326.13"/><path class="cls-12" d="M813.21,307.9H839.9s-1.14,9.51-7,9.86c0,0-4,.71-3.7-4.58H808.37s-1.5,9.6,5.2,12.95h34.08s7.23-2.47,10-9.86l3.17-12s1.23-4.36-2-4.53H832.33s.26-7.93,6.78-8.64a4.06,4.06,0,0,1,3.79,4.67H863s1.67-9-3.76-13.06h-35a21.18,21.18,0,0,0-10.53,11.92l-2.46,10.83S810.83,308,813.21,307.9Z"/><polygon class="cls-12" points="798.46 326.13 801.78 314 784.01 314 784.8 310.23 802.81 310.23 805.74 299.53 787.9 299.53 788.7 295.76 806.77 295.76 810.35 282.68 772 282.68 760.71 326.13 798.46 326.13"/><polygon class="cls-12" points="698.21 326.13 709.91 282.68 690.65 282.68 679.17 326.13 698.21 326.13"/><path class="cls-11" d="M62,307.9H88.66s-1.14,9.51-7,9.86c0,0-4,.71-3.7-4.58H57.13s-1.5,9.6,5.19,12.95H96.41a17.61,17.61,0,0,0,10-9.86l3.18-12s1.23-4.36-2-4.53H81.09s.26-7.93,6.78-8.64a4,4,0,0,1,3.78,4.67h20.09s1.66-9-3.77-13.06h-35A21.11,21.11,0,0,0,62.41,294.6L60,305.43S59.59,308,62,307.9Z"/><polygon class="cls-11" points="265.85 326.13 270.11 310.76 274.14 326.13 294.77 326.13 306.49 282.68 285.62 282.68 281.47 298.87 277.72 282.68 258.88 282.68 247.25 326.13 265.85 326.13"/><path class="cls-11" d="M308.44,326.13h46V314.06l2.24-8.76h-24L330,314.86h3a4.77,4.77,0,0,1-4.05,3s-4.58.09-3.74-5.77l4.53-16.95a6.26,6.26,0,0,1,5.82-4s3.08,0,3.26,3.61l-1.15,4.06h20.61l1.23-4.06s2.65-8.52-4.88-12.09H320.39c-2.09.72-6.33,3-9.19,9.72l-6.34,22.85S303.44,322.21,308.44,326.13Z"/><path class="cls-11" d="M176.74,326.13c1.76,0,3.82-2,4.87-3.18,4.43-4.81,6.48-12.2,5.86-18.71,0,0,9.76-13.83.69-21.56h-42.6l-11.47,43.45Zm-13.5-32.78h4.67c5.63,2.44-.9,8.26-.9,8.26h-5.82ZM159.66,307h4.82c5.81,2.51-.93,8.52-.93,8.52h-6Z"/><path class="cls-11" d="M210.65,326.13l4-15.17h9l-3.88,15.17H240l8.52-32.51s1.63-7.33-4.89-10.94H209.38s-6.71,2.33-10,11.12l-8.51,32.33Zm8.28-31.37s1.33-4.15,4.9-3.71a3.89,3.89,0,0,1,3.63,5l-.92,3.59h-8.91Z"/><polygon class="cls-11" points="134.09 300.85 117.24 300.85 114.34 311.75 131.25 311.75 134.09 300.85"/><path class="cls-12" d="M510.28,326.13l4-15.17h9l-3.88,15.17h20.26l8.52-32.51s1.63-7.33-4.89-10.94H509s-6.7,2.33-10,11.12l-8.51,32.33Zm8.28-31.37s1.33-4.15,4.9-3.71a3.88,3.88,0,0,1,3.63,5l-.92,3.59h-8.91Z"/><polygon class="cls-11" points="399.33 326.13 403.03 313.62 384.88 313.62 393.65 282.68 373.34 282.68 361.71 326.13 399.33 326.13"/><path class="cls-11" d="M426.91,326.13l4-15.17h9L436,326.13h20.26l8.52-32.51s1.63-7.33-4.89-10.94H425.65s-6.71,2.33-10,11.12l-8.51,32.33Zm8.28-31.37s1.34-4.15,4.9-3.71a3.88,3.88,0,0,1,3.63,5l-.92,3.59h-8.9Z"/><polygon class="cls-13" points="444.35 102.82 439.32 99.01 433.57 101.58 435.64 95.63 431.41 90.95 437.72 91.08 440.86 85.61 442.69 91.65 448.85 92.95 443.67 96.55 444.35 102.82"/><polygon class="cls-13" points="391.23 31.74 386.21 27.93 380.45 30.5 382.52 24.55 378.3 19.87 384.61 20 387.75 14.53 389.57 20.57 395.74 21.87 390.56 25.47 391.23 31.74"/><polygon class="cls-13" points="356.35 133.21 351.33 129.4 345.57 131.97 347.64 126.02 343.42 121.34 349.72 121.47 352.87 116 354.69 122.04 360.86 123.34 355.68 126.94 356.35 133.21"/><polygon class="cls-13" points="457.22 56.95 452.81 52.78 447.04 54.65 449.64 49.17 446.09 44.26 452.1 45.04 455.67 40.14 456.79 46.1 462.55 47.98 457.23 50.89 457.22 56.95"/><polygon class="cls-13" points="482.69 25.08 477.82 21.46 472.31 24 474.25 18.25 470.13 13.79 476.2 13.86 479.17 8.57 480.98 14.35 486.93 15.54 481.98 19.05 482.69 25.08"/><polygon class="cls-13" points="568.84 58.9 563.97 55.28 558.46 57.82 560.39 52.07 556.28 47.62 562.35 47.68 565.31 42.39 567.13 48.18 573.07 49.36 568.13 52.88 568.84 58.9"/><polygon class="cls-13" points="512.4 79.17 508.01 74.98 502.24 76.81 504.87 71.35 501.34 66.42 507.35 67.23 510.95 62.35 512.03 68.32 517.78 70.24 512.44 73.11 512.4 79.17"/><polygon class="cls-13" points="555.47 25.23 551.09 21.04 545.31 22.87 547.94 17.41 544.41 12.47 550.42 13.29 554.03 8.41 555.11 14.38 560.86 16.3 555.51 19.17 555.47 25.23"/><polygon class="cls-13" points="635.15 27.11 630.77 22.92 624.99 24.75 627.62 19.29 624.1 14.35 630.11 15.17 633.71 10.29 634.79 16.26 640.54 18.18 635.2 21.05 635.15 27.11"/></svg>