<svg xmlns="http://www.w3.org/2000/svg" viewBox="0 0 604.34 208.71"><defs><style>.cls-1,.cls-4{fill:none;}.cls-2{fill:#eb5b25;}.cls-3{fill:#163072;}.cls-4{stroke:#000;stroke-width:0.2px;}</style></defs><g id="Logo"><rect class="cls-1" x="27.64" y="20.43" width="549.05" height="167.86"/><path class="cls-2" d="M87.27,161.07c0,5.62-6.17,10.17-13.77,10.17s-13.78-4.55-13.78-10.17,6.16-10.16,13.78-10.16S87.27,155.47,87.27,161.07Z" transform="translate(-4.54 -3.28)"/><path class="cls-2" d="M96.91,136.88c0,4.69-5.42,8.48-12.09,8.49s-12.09-3.8-12.09-8.49,5.41-8.45,12.09-8.46S96.91,132.21,96.91,136.88Z" transform="translate(-4.54 -3.28)"/><path class="cls-2" d="M104.78,116.7c0,3.77-4.61,6.82-10.29,6.83s-10.28-3.06-10.28-6.83,4.6-6.83,10.28-6.83S104.78,112.93,104.78,116.7Z" transform="translate(-4.54 -3.28)"/><path class="cls-2" d="M125.8,61.55c0,1.48-2.4,2.68-5.36,2.68s-5.37-1.2-5.37-2.68,2.4-2.68,5.37-2.7S125.8,60.05,125.8,61.55Z" transform="translate(-4.54 -3.28)"/><path class="cls-2" d="M132,46c0,1.07-1.8,1.94-4,1.95s-4-.88-4-1.95S125.74,44,128,44,132,44.89,132,46Z" transform="translate(-4.54 -3.28)"/><path class="cls-2" d="M129.08,53.39c0,1.24-2.08,2.22-4.66,2.23s-4.66-1-4.66-2.23,2.08-2.24,4.66-2.24S129.08,52.14,129.08,53.39Z" transform="translate(-4.54 -3.28)"/><path class="cls-2" d="M111.45,99c0,3-3.91,5.49-8.75,5.49S93.94,102,93.94,99s3.92-5.49,8.76-5.49S111.45,95.94,111.45,99Z" transform="translate(-4.54 -3.28)"/><path class="cls-2" d="M117.21,84.15c0,2.42-3.34,4.42-7.46,4.42s-7.48-2-7.48-4.42,3.35-4.41,7.48-4.41S117.21,81.72,117.21,84.15Z" transform="translate(-4.54 -3.28)"/><path class="cls-2" d="M119.4,159.39c0,5.05-5.59,9.12-12.5,9.12s-12.51-4.07-12.51-9.12,5.6-9.15,12.5-9.13S119.4,154.34,119.4,159.39Z" transform="translate(-4.54 -3.28)"/><path class="cls-2" d="M146.89,151.78c0,4.46-5,8.07-11.27,8.07s-11.27-3.61-11.27-8.07,5-8.05,11.27-8.05S146.89,147.33,146.89,151.78Z" transform="translate(-4.54 -3.28)"/><path class="cls-2" d="M160.92,136.32c0,3.51-4.13,6.36-9.23,6.36s-9.23-2.85-9.23-6.36,4.13-6.34,9.23-6.34S160.92,132.82,160.92,136.32Z" transform="translate(-4.54 -3.28)"/><path class="cls-2" d="M147.49,108.74c0,2.32-3,4.21-6.71,4.21s-6.73-1.89-6.73-4.21,3-4.21,6.73-4.21S147.5,106.42,147.49,108.74Z" transform="translate(-4.54 -3.28)"/><path class="cls-2" d="M122.19,71.82c0,1.94-2.85,3.51-6.36,3.51s-6.35-1.57-6.34-3.51,2.84-3.52,6.34-3.52S122.19,69.88,122.19,71.82Z" transform="translate(-4.54 -3.28)"/><path class="cls-2" d="M158.45,120.29c0,2.84-3.5,5.13-7.83,5.12s-7.82-2.29-7.82-5.12,3.49-5.11,7.82-5.11S158.45,117.48,158.45,120.29Z" transform="translate(-4.54 -3.28)"/><path class="cls-3" d="M188.46,159.38V120.29h6.26v14.43a17.37,17.37,0,0,1,5.69-1.06q5.85,0,9.07,3.89a13.33,13.33,0,0,1,2.8,8.81q0,7.14-4.76,10.69-4.14,3.12-11.47,3.12A44.23,44.23,0,0,1,188.46,159.38Zm6.26-19.87V155a14.76,14.76,0,0,0,2.42.23q8.75,0,8.74-8.4,0-4.08-2.16-6.15a7,7,0,0,0-5.09-1.83A11.83,11.83,0,0,0,194.72,139.51Z" transform="translate(-4.54 -3.28)"/><path class="cls-3" d="M218.7,159.84V135.93a29,29,0,0,1,11-2.22,17,17,0,0,1,5,.73v5.28a12.78,12.78,0,0,0-4.4-.74,15.26,15.26,0,0,0-5.4,1v19.87Z" transform="translate(-4.54 -3.28)"/><path class="cls-3" d="M238.89,134.13h6.26v15.34c0,2.16.45,3.61,1.34,4.37a6.08,6.08,0,0,0,4,1,20,20,0,0,0,4.19-.49V134.13h6.26v24.81a57.82,57.82,0,0,1-11,1.23c-4,0-6.85-.8-8.65-2.39a7,7,0,0,1-2-3.32,19.13,19.13,0,0,1-.46-4.73Z" transform="translate(-4.54 -3.28)"/><path class="cls-3" d="M267.78,158.94v-5.69a13.33,13.33,0,0,0,7,2.31q4.16,0,4.16-2.6c0-1.18-.82-2.15-2.47-2.9L274,148.85A12.5,12.5,0,0,1,269,145.3a6.51,6.51,0,0,1-1.26-4,6.68,6.68,0,0,1,3-5.81,11.61,11.61,0,0,1,6.79-1.83,16.19,16.19,0,0,1,6.63,1.42v5.38a11.74,11.74,0,0,0-6.19-2c-2.77,0-4.16.83-4.16,2.47a2,2,0,0,0,.85,1.67,24.54,24.54,0,0,0,3.56,1.9,18.21,18.21,0,0,1,5.17,3.46,6.92,6.92,0,0,1,1.67,4.68,6.84,6.84,0,0,1-3.06,6,12.09,12.09,0,0,1-7,1.86A17,17,0,0,1,267.78,158.94Z" transform="translate(-4.54 -3.28)"/><path class="cls-3" d="M290.13,158.94v-5.69a13.33,13.33,0,0,0,7,2.31q4.15,0,4.16-2.6c0-1.18-.82-2.15-2.47-2.9l-2.52-1.21a12.5,12.5,0,0,1-4.91-3.55,6.51,6.51,0,0,1-1.26-4,6.68,6.68,0,0,1,3-5.81,11.61,11.61,0,0,1,6.79-1.83,16.28,16.28,0,0,1,6.64,1.42v5.38a11.8,11.8,0,0,0-6.2-2c-2.78,0-4.16.83-4.16,2.47a2,2,0,0,0,.84,1.67,24.85,24.85,0,0,0,3.57,1.9,18.36,18.36,0,0,1,5.17,3.46,6.92,6.92,0,0,1,1.67,4.68,6.84,6.84,0,0,1-3.06,6,12.09,12.09,0,0,1-7,1.86A17,17,0,0,1,290.13,158.94Z" transform="translate(-4.54 -3.28)"/><path class="cls-3" d="M335.93,148.16H318.27q.41,7.17,8,7.16a13.93,13.93,0,0,0,8.39-2.72v5.23a17.74,17.74,0,0,1-9.33,2.62q-6.59,0-10.07-3.91-3-3.43-3-9.21,0-6.6,3.89-10.44a11.87,11.87,0,0,1,8.65-3.32,11.46,11.46,0,0,1,6.42,1.78,9.67,9.67,0,0,1,3.55,4.17q1.21,2.78,1.21,8.54Zm-17.25-4.47h11.2c-.27-3.58-2-5.37-5.23-5.37a5.56,5.56,0,0,0-4.14,1.62A6.72,6.72,0,0,0,318.68,143.69Z" transform="translate(-4.54 -3.28)"/><path class="cls-3" d="M342.38,159.84V120.29h6.26v39.55Z" transform="translate(-4.54 -3.28)"/><path class="cls-3" d="M355.56,158.94v-5.69a13.3,13.3,0,0,0,7,2.31q4.17,0,4.17-2.6c0-1.18-.83-2.15-2.47-2.9l-2.52-1.21a12.43,12.43,0,0,1-4.91-3.55,6.51,6.51,0,0,1-1.26-4,6.66,6.66,0,0,1,3-5.81,11.61,11.61,0,0,1,6.79-1.83,16.26,16.26,0,0,1,6.63,1.42v5.38a11.77,11.77,0,0,0-6.19-2c-2.78,0-4.17.83-4.17,2.47a2,2,0,0,0,.85,1.67,24.85,24.85,0,0,0,3.57,1.9,18.12,18.12,0,0,1,5.16,3.46,7.41,7.41,0,0,1-1.38,10.68,12.14,12.14,0,0,1-7.05,1.86A17,17,0,0,1,355.56,158.94Z" transform="translate(-4.54 -3.28)"/><path class="cls-3" d="M389.93,141.67v-5.38a21.09,21.09,0,0,1,10-2.63c3.69,0,6.1,1.1,7.22,3.27.57,1.09.85,3.12.85,6.11v16.29a81.75,81.75,0,0,1-10.82.94c-3.23,0-5.54-.67-6.94-2a7,7,0,0,1-1.82-5.28,7.54,7.54,0,0,1,4.43-7.39,28.34,28.34,0,0,1,8.86-2.06l.54-.05v-.93a4,4,0,0,0-.93-3.07,4.32,4.32,0,0,0-2.79-.7A16.2,16.2,0,0,0,389.93,141.67Zm12.43,13.38v-6.84q-4.82.36-6.62,1.46a3.16,3.16,0,0,0-1.57,2.89q0,2.9,3.42,2.9A33.64,33.64,0,0,0,402.36,155.05Z" transform="translate(-4.54 -3.28)"/><path class="cls-3" d="M415.65,129.29V122.6h6.45v6.69Zm.09,30.55V134.18H422v25.66Z" transform="translate(-4.54 -3.28)"/><path class="cls-3" d="M430.09,159.84V135.93a28.93,28.93,0,0,1,11-2.22,16.84,16.84,0,0,1,5,.73v5.28a12.68,12.68,0,0,0-4.39-.74,15.26,15.26,0,0,0-5.4,1v19.87Z" transform="translate(-4.54 -3.28)"/><path class="cls-3" d="M451.16,159.84V120.29h6.27v39.55Z" transform="translate(-4.54 -3.28)"/><path class="cls-3" d="M465.47,129.29V122.6h6.45v6.69Zm.1,30.55V134.18h6.26v25.66Z" transform="translate(-4.54 -3.28)"/><path class="cls-3" d="M479.91,159.84v-24.4a42.51,42.51,0,0,1,11.65-1.73q6.09,0,8.56,2.63,2.06,2.22,2.06,7v16.5h-6.26V143.78c0-1.93-.44-3.27-1.32-4a6,6,0,0,0-3.81-1,15.93,15.93,0,0,0-4.62.71v20.33Z" transform="translate(-4.54 -3.28)"/><path class="cls-3" d="M532.08,148.16H514.41q.42,7.17,8,7.16a13.91,13.91,0,0,0,8.39-2.72v5.23a17.73,17.73,0,0,1-9.32,2.62q-6.6,0-10.07-3.91-3-3.43-3-9.21,0-6.6,3.89-10.44a11.9,11.9,0,0,1,8.66-3.32,11.45,11.45,0,0,1,6.41,1.78,9.69,9.69,0,0,1,3.56,4.17c.8,1.85,1.21,4.7,1.21,8.54Zm-17.25-4.47H526q-.42-5.37-5.23-5.37a5.58,5.58,0,0,0-4.15,1.62A6.71,6.71,0,0,0,514.83,143.69Z" transform="translate(-4.54 -3.28)"/><path class="cls-3" d="M537.26,158.94v-5.69a13.33,13.33,0,0,0,7,2.31q4.17,0,4.17-2.6c0-1.18-.83-2.15-2.47-2.9l-2.52-1.21a12.43,12.43,0,0,1-4.91-3.55,6.51,6.51,0,0,1-1.26-4,6.66,6.66,0,0,1,3-5.81,11.61,11.61,0,0,1,6.79-1.83,16.26,16.26,0,0,1,6.63,1.42v5.38a11.77,11.77,0,0,0-6.19-2c-2.78,0-4.17.83-4.17,2.47a2,2,0,0,0,.85,1.67,24.85,24.85,0,0,0,3.57,1.9,18.12,18.12,0,0,1,5.16,3.46,7.39,7.39,0,0,1-1.38,10.68,12.12,12.12,0,0,1-7,1.86A17,17,0,0,1,537.26,158.94Z" transform="translate(-4.54 -3.28)"/></g><g id="guides"><path class="cls-4" d="M59.72,161.07c0,5.62-6.16,10.17-13.77,10.17s-13.77-4.55-13.77-10.17S38.34,150.91,46,150.91,59.72,155.47,59.72,161.07Z" transform="translate(-4.54 -3.28)"/><path class="cls-4" d="M32.18,161.07c0,5.62-6.17,10.17-13.77,10.17S4.64,166.69,4.64,161.07s6.15-10.16,13.77-10.16S32.18,155.47,32.18,161.07Z" transform="translate(-4.54 -3.28)"/><path class="cls-4" d="M87.27,181.4c0,5.61-6.17,10.17-13.77,10.17S59.72,187,59.72,181.4s6.16-10.16,13.78-10.16S87.27,175.79,87.27,181.4Z" transform="translate(-4.54 -3.28)"/><path class="cls-4" d="M87.27,201.73c0,5.61-6.17,10.16-13.77,10.16s-13.78-4.55-13.78-10.16,6.16-10.16,13.78-10.16S87.27,196.12,87.27,201.73Z" transform="translate(-4.54 -3.28)"/><path class="cls-4" d="M188.46,136.32c0,5.62-6.16,10.17-13.77,10.17s-13.77-4.55-13.77-10.17,6.15-10.16,13.77-10.16S188.46,130.72,188.46,136.32Z" transform="translate(-4.54 -3.28)"/><path class="cls-4" d="M581.23,138.06c0,5.62-6.16,10.17-13.77,10.17s-13.77-4.55-13.77-10.17,6.16-10.16,13.78-10.16S581.23,132.46,581.23,138.06Z" transform="translate(-4.54 -3.28)"/><path class="cls-4" d="M608.78,138.06c0,5.62-6.17,10.17-13.78,10.17s-13.77-4.55-13.77-10.17S587.39,127.9,595,127.9,608.78,132.46,608.78,138.06Z" transform="translate(-4.54 -3.28)"/><path class="cls-4" d="M141.74,33.87C141.74,39.48,135.57,44,128,44s-13.78-4.55-13.78-10.16S120.35,23.71,128,23.71,141.74,28.26,141.74,33.87Z" transform="translate(-4.54 -3.28)"/><path class="cls-4" d="M141.74,13.54c0,5.62-6.17,10.17-13.77,10.17s-13.78-4.55-13.78-10.17S120.35,3.38,128,3.38,141.74,7.94,141.74,13.54Z" transform="translate(-4.54 -3.28)"/><path class="cls-4" d="M132,42.09c0,1.07-1.8,1.93-4,1.94s-4-.87-4-1.94,1.81-1.93,4-1.93S132,41,132,42.09Z" transform="translate(-4.54 -3.28)"/></g></svg>