<svg id="Layer_1" data-name="Layer 1" xmlns="http://www.w3.org/2000/svg" viewBox="0 0 287.78 85.19"><defs><style>.cls-1{fill:#26285d;}.cls-2{fill:#b09256;}</style></defs><polygon class="cls-1" points="124 44.04 127.09 47.29 130.21 44.04 127.09 40.81 124 44.04"/><polygon class="cls-1" points="110.85 3.25 107.74 0 104.62 3.25 107.74 6.48 110.85 3.25"/><polygon class="cls-1" points="115.82 44.04 118.97 47.29 122.08 44.04 118.97 40.81 115.82 44.04"/><polygon class="cls-1" points="119.03 3.25 115.88 0 112.76 3.25 115.88 6.48 119.03 3.25"/><path class="cls-1" d="M191.19,29.19h-11v-.78c0-9.36,7.28-15.06,11-16.07Zm83.73-22.8V29.26a6.42,6.42,0,0,1-.58,3.18,4.34,4.34,0,0,1-6.92,0,6.29,6.29,0,0,1-.61-3.18V12.76h-5.37V29.19h-6.72V12.78h-5.34V29.19h-6.72V12.76h-5.33V29.19H216.71c-6-.42-7.34-3.59-7.34-6.54,0-4.15,3.68-5.75,7.7-5.75h8.75V12.76h-7.77c-6.32,0-11.61,2.59-11.61,9.17,0,4.27,1.92,6.21,3.59,7.26H196.5V8.82c-11.69,1.45-21,10.19-21,24.54h15.66v5c0,2,.22,5.67-2.61,6.2v2.23c2-.21,5.17-1.53,6.58-3.93,1.11-1.86,1.34-3.55,1.34-7.46V33.36h65.62a8.11,8.11,0,0,0,.85,1.57c1.63,2.27,4.53,3.28,7.92,3.28s6.21-1,7.85-3.28c1.36-1.92,1.51-3.82,1.51-6.13V6.39Z" transform="translate(-5.39)"/><rect class="cls-1" x="282.34" y="6.39" width="5.3" height="26.96"/><path class="cls-1" d="M158.51,12.66h-7.66v4.18h6.42c5,0,10,.24,10,6,0,5.12-3.75,6.27-10.46,6.27H144v4.17h13.83c8.34,0,12.43-2.55,12.43-10.41s-4.85-10.2-11.74-10.2" transform="translate(-5.39)"/><path class="cls-1" d="M119,29.19H108.12v-.7c0-9.31,7.18-15.18,10.89-16.18Zm13.48,0a6.53,6.53,0,0,1-.61,3.21,3.63,3.63,0,0,1-3.44,1.7A3.69,3.69,0,0,1,125,32.4a6.42,6.42,0,0,1-.61-3.21V8.8c-12.73,1.2-21,11.25-21,24.56h16.25a9.23,9.23,0,0,0,.86,1.51c1.62,2.26,4.51,3.28,7.88,3.28s6.23-1,7.85-3.28c1.39-1.9,1.56-3.79,1.56-6.13V11h-5.32Z" transform="translate(-5.39)"/><path class="cls-1" d="M183.54,84.86c-5.26,0-9.21-1.1-11.64-3.43-2.15-2-3.15-4.28-3.15-8.83v-19h5.7V73.4c0,2.92.45,4.58,1.85,6.08s4.09,2.5,7.24,2.5,5.71-.88,7.22-2.5,1.82-3.16,1.82-6.08V53.58h5.74v19c0,4.55-1,6.83-3.15,8.83-2.43,2.33-6.41,3.43-11.63,3.43" transform="translate(-5.39)"/><path class="cls-1" d="M220.8,81.55c-1.14,0-3.62-.12-4.68-1-.87-.75-.89-2-.89-3.8V55.52c8.78-.78,18.5,1.82,18.5,13.37,0,9.25-6,12.66-12.93,12.66M219.7,53c-2.81.07-9.73.38-14.78,1.83l.48,2.27a36.53,36.53,0,0,1,4.12-.9V84.21c8.07.15,11.54.13,15.77-.36,7.42-.9,14.44-6.48,14.44-15,0-12.07-10.79-16-20-15.85" transform="translate(-5.39)"/><rect class="cls-1" x="242.22" y="53.59" width="5.74" height="30.62"/><path class="cls-1" d="M141.57,70.9c2.92,0,8.37.39,12.26,3.48l-7-14.29ZM165,84.21h-6.5c-2.29-4.65-8.27-11.38-18.2-10.73L135.1,84.21h-4l16-31.12h2Z" transform="translate(-5.39)"/><path class="cls-1" d="M269.73,70.9c2.92,0,8.37.4,12.25,3.49l-7-14.3Zm23.44,13.31h-6.49c-2.3-4.64-8.28-11.37-18.2-10.73l-5.23,10.73h-4l16-31.12h2Z" transform="translate(-5.39)"/><path class="cls-1" d="M126.53,54.63a23.35,23.35,0,0,0-10-2.06c-7.48.19-12.47,3.24-12.52,8.75A7.42,7.42,0,0,0,104.9,65c3.62,6.2,18.62,5.18,18.62,11.82,0,1.9-1.82,5-7,5a19.66,19.66,0,0,1-11.91-4.19l-1.48,4.49a30.47,30.47,0,0,0,13.13,2.6A14.85,14.85,0,0,0,125.23,82a8.56,8.56,0,0,0,3.52-7.15c0-11-19.17-8.23-19.17-15.13a3.69,3.69,0,0,1,.85-2.25c1-1.34,3.32-2.16,6.2-2.16a13.2,13.2,0,0,1,8.3,3.13Z" transform="translate(-5.39)"/><path class="cls-2" d="M82.45,61.94l-.11.18a40.2,40.2,0,1,1-69.75-40l.08-.16,0-.15-.15.06-.1.14c-.6.86-1.16,1.78-1.7,2.7A40.56,40.56,0,0,0,81.05,65.07c.55-.93,1-1.88,1.49-2.84l.09-.19,0-.15Z" transform="translate(-5.39)"/><path class="cls-2" d="M37.62,11.05c-5.72,1.22-15.32,7.1-17.36,16.86,6.16-7.28,12.58-11.1,17.49-12-5,3.76-9.75,12.53-8.29,18.69,2.66-6.54,7.32-12.94,11.59-15.27-2.41,4-3.21,13.63-.89,17.88.54-5.51,2.28-12.69,5-16.23L46,27.91h-.94l1,7h-.79l.82,7h-.67l1,7-3.33,1.7V51H51.8v-.24L48.47,49l-1,.78,1-.78,1-7h-.67l.82-7h-.79l1-7h-1L49.72,21c2.75,3.54,4.49,10.72,5,16.23,2.32-4.25,1.52-13.89-.9-17.88,4.27,2.33,8.93,8.73,11.6,15.27,1.46-6.16-3.26-14.93-8.29-18.69,4.91.89,11.32,4.71,17.48,12-2-9.76-11.63-15.64-17.36-16.86,6.31-.62,12.44,1.4,18,4.1-6-7-15.16-9.51-21.19-8.82a7.25,7.25,0,0,1,3.55-2.1C55.1,3,51.14,3.66,49.59,5.39c0,0-.28-3.23-2.13-4.5-1.86,1.27-2.13,4.5-2.13,4.5-1.55-1.73-5.51-2.35-8-1.16a7.31,7.31,0,0,1,3.54,2.1c-6-.69-15.16,1.85-21.2,8.82,5.57-2.7,11.7-4.72,18-4.1" transform="translate(-5.39)"/><path class="cls-2" d="M49.18,56l-1.72,1.16L45.74,56c-2.56-1.71-24.17-16.17-33.51-5.94,8.62-3.42,21.4,3,31.91,9.37C41.51,61.23,38.51,63.3,36,65c-4-3.92-5.54-3.29-5.91-3.14a1.12,1.12,0,0,0-.69,1,1.09,1.09,0,0,0,1,1.11,1.05,1.05,0,0,0,1.07-1l0-.24c1.12.7,2.16,1.65,4.77,4.34s3.69,3.51,4.47,4a2.57,2.57,0,0,0,1.42.36,1.12,1.12,0,0,0,1.12-1,1,1,0,0,0-1-1.12,1.05,1.05,0,0,0-1.07,1.07v.1a29.09,29.09,0,0,1-3-3.13c2.53-1.45,5.76-3.53,9.36-5.78,3.6,2.25,6.82,4.33,9.35,5.78a28.13,28.13,0,0,1-3,3.13v-.1a1,1,0,0,0-1.08-1.07,1,1,0,0,0-1,1.12,1.13,1.13,0,0,0,1.12,1A2.62,2.62,0,0,0,54.23,71c.78-.46,1.81-1.22,4.47-4a27.35,27.35,0,0,1,4.76-4.34l0,.24a1.07,1.07,0,0,0,1.07,1,1.09,1.09,0,0,0,1-1.11,1.1,1.1,0,0,0-.69-1C64.49,61.74,63,61.11,59,65c-2.54-1.72-5.55-3.79-8.18-5.59,10.52-6.34,23.3-12.79,31.91-9.37-9.34-10.23-31,4.23-33.5,5.94" transform="translate(-5.39)"/><path class="cls-2" d="M25.06,69.48a4.54,4.54,0,0,0-.85-.36.32.32,0,0,0-.3.09.4.4,0,0,0,0,.41,1.73,1.73,0,0,0,.5.6c1.42,1.23,4.26,2.33,11.75-1.86-.23-.23-.46-.48-.71-.72-.5-.52-.94-1-1.33-1.37-4,2.5-7.1,4-9,3.21" transform="translate(-5.39)"/><path class="cls-2" d="M69.85,69.48c-1.94.79-5.08-.71-9-3.21-.4.39-.83.85-1.34,1.37l-.7.72c7.48,4.19,10.33,3.09,11.74,1.86a1.81,1.81,0,0,0,.51-.6.4.4,0,0,0,0-.41.32.32,0,0,0-.3-.09,4.87,4.87,0,0,0-.86.36" transform="translate(-5.39)"/></svg>