<svg xmlns="http://www.w3.org/2000/svg" height="800" width="1200" viewBox="-97.5 -13.51745 845 81.1047"><path d="M0 2.3313h64.2023c-15.8714 9.1462-16.678 26.7211-12.2846 46.9849L0 2.3313" fill="#ed1c24"/><path d="M13.9887 10.3118h3.1383V6.6355h-3.1383zm4.7524-5.7388h3.6759V1.2552h-3.676zm-.3591 11.7466h4.125v-4.214h-4.125zm5.201-4.6628h5.021V6.1873h-5.021zm.1792 10.1325h4.752V17.306h-4.752zm5.7385-4.9317h4.3939v-4.394h-4.394zm5.38-5.4698h5.111v-5.021h-5.111zM41.2472 5.38h4.6624V.3582h-4.6624zm4.9315 18.2027h6.0976V16.858h-6.0976z" fill="#fff"/><path d="M39.902 29.1421h8.6978v-6.187h-8.6977zM29.5902 5.4697h4.3044V1.6144h-4.3044zm0 23.2228h5.2905v-5.738h-5.2905z" fill="#fff"/><path d="M34.8807 33.8945h5.7385v-5.649h-5.7385zm9.8633-.3587h5.739v-5.739h-5.739zm.5382 19.3684h8.3397V37.9288h-8.3397z" fill="#fff"/><path d="M40.1712 38.7353h11.298v-6.276h-11.298z" fill="#fff"/><path d="M37.571 41.5163h4.5734V37.212h-4.5735zm-5.1115-5.2007h3.6768v-3.2278h-3.6768zM26.99 31.1148h3.5868v-3.2283H26.99zm7.6216-7.7115h6.1871v-6.1875h-6.187z" fill="#fff"/><path d="M39.9916 17.9336h6.187V11.746h-6.187z" fill="#fff"/><path d="M45.9996 12.3742h5.8286V6.1876h-5.8286zm5.6496-6.1872h7.0837V0h-7.0837z" fill="#fff"/><path d="M445.1992 26.183h.0897c4.6628 0 7.9805-.7173 10.0428-2.3313 1.9727-1.5244 3.0488-4.1247 3.0488-7.6218 0-1.7037-.3587-3.1384-.9864-4.3937-.6277-1.345-1.5244-2.3314-2.7797-3.1384-.8967-.6277-1.9727-1.076-3.228-1.345-1.2554-.269-3.3178-.4484-6.1872-.4484h-13.0915v19.2787zM84.5565 36.495h4.3938c0 2.6004-.538 5.0214-1.5244 7.2631-.9863 2.0624-2.421 3.9442-4.2144 5.6479-3.4074 3.0487-7.9797 4.664-13.6292 4.664-6.5456 0-11.6566-2.3314-15.5124-7.085-3.7663-4.6616-5.6495-11.1177-5.6495-19.2775s1.8832-14.5262 5.7395-19.189c3.7658-4.6627 8.9663-6.994 15.5119-6.994 5.47 0 9.953 1.4346 13.2707 4.3937 1.7934 1.4347 3.1384 3.1396 4.1247 5.0214.8967 1.9727 1.345 4.1247 1.345 6.5457h-4.304c-.4483-3.6763-1.883-6.6354-4.4834-8.6978-2.5999-2.152-5.9176-3.1383-9.953-3.1383-5.2004 0-9.3253 1.883-12.1947 5.7387-2.9591 3.8557-4.3938 9.3255-4.3938 16.23 0 6.994 1.4347 12.5535 4.3938 16.4989 2.9593 3.9454 7.0837 5.918 12.3742 5.918 4.3039 0 7.7118-1.2553 10.3115-3.6763 1.345-1.2566 2.421-2.6004 3.228-4.3053.7174-1.6128 1.1657-3.4958 1.1657-5.5582zm529.8452.9863h4.5731c0 3.9454 1.2554 6.9045 3.6764 9.0553 2.5107 2.1533 5.9181 3.2293 10.3118 3.2293 3.8558 0 6.9045-.8083 9.1462-2.6016 2.2417-1.7037 3.3177-4.0339 3.3177-7.0838 0-2.8682-.7173-5.0202-2.3314-6.4549-1.5243-1.5243-4.573-2.8694-9.2358-4.126l-4.7511-1.1644c-5.0227-1.2554-8.6094-2.959-10.5809-4.9318-1.9727-2.0623-2.9603-4.9317-2.9603-8.5184 0-4.035 1.5244-7.2631 4.4834-9.6842 2.959-2.5107 6.9045-3.6764 11.8362-3.6764 5.2008 0 9.3255 1.345 12.2846 4.035 2.959 2.6901 4.4834 6.3665 4.4834 11.119h-4.6628c0-3.4971-1.076-6.1872-3.228-8.1599-2.152-1.9727-5.2008-2.959-9.0565-2.959-3.6764 0-6.5458.807-8.5185 2.421-1.9727 1.7037-3.0487 4.035-3.0487 6.9941 0 2.3314.7174 4.1248 1.9727 5.3801 1.2554 1.345 3.497 2.3314 6.5458 3.1384l5.8284 1.5244c5.6491 1.4347 9.6842 3.228 12.0155 5.4697 2.3314 2.152 3.497 5.2008 3.497 9.1462 0 4.3925-1.5243 7.7999-4.573 10.4015-3.0487 2.6004-7.1734 3.8557-12.4639 3.8557-5.918 0-10.4911-1.345-13.7192-4.1247-3.2268-2.781-4.842-6.7251-4.842-11.9259zm-40.8886 15.0643V2.7797h32.5495v4.1247h-27.9764v18.113h25.645v3.9454h-25.645v19.458h28.8743v4.1247zm-48.7782 0V2.7797h5.0201l28.1558 42.6808V2.7797h4.395v49.7658h-5.0226l-28.065-42.682v42.682zm-16.1403 0V2.7797h4.6615v49.7658zm-36.3156 0V2.7797h4.7524v45.641h25.3761v4.1248zm-59.5396 0V2.7797h4.7524v49.7658zm-140.15 0V2.7797h4.6627v49.7658zm-26.6315 0V6.9045h-15.4217V2.7796h35.597v4.1247h-15.4229v45.641zM102.58 26.183h13.2708c4.573 0 7.8908-.7174 9.9532-2.3314 2.0623-1.5244 3.1384-4.1247 3.1384-7.6218 0-1.7037-.3587-3.1384-.9864-4.3937-.6277-1.345-1.5243-2.3314-2.7797-3.1384-.8967-.6277-1.9727-1.076-3.3177-1.345-1.2554-.269-3.3177-.4484-6.0975-.4484h-13.1813zm13.1811 4.1247h-13.1812v22.2377h-4.573V2.7797h17.7542c1.5244 0 2.7798.0896 3.8558.0896 1.345.0897 2.421.1794 3.4074.4484 1.7037.269 3.1384.807 4.4834 1.5243 1.9727 1.076 3.4074 2.6004 4.4834 4.5731 1.076 1.9727 1.614 4.1248 1.614 6.6355 0 3.0487-.6277 5.649-1.9727 7.7114-1.4347 2.0624-3.4074 3.5867-6.0974 4.4834 2.0623.7174 3.5867 1.7934 4.3937 3.1384.8967 1.345 1.5244 4.2144 1.883 8.4288l.6277 7.4425c0 .6276 0 1.076.0897 1.5243.0897.3575.269.8955.538 1.5231.1793.6277.538 1.167.9863 1.5244v.7186h-5.111c-.0897-.2703-.269-.538-.3587-.807s-.1793-.7186-.3587-1.345c-.0896-.6277-.1793-1.0773-.1793-1.2566-.0897-.5368-.1794-1.0748-.1794-1.7037l-.538-6.5446c0-2.1533-.269-3.9454-.7173-5.38-.4483-1.5257-.9864-2.6004-1.7037-3.3178-1.345-1.2553-3.9454-1.883-7.8011-1.883zm28.9629-2.6004c0 6.8148 1.614 12.1936 4.842 16.23 3.228 3.8557 7.6218 5.8284 13.1812 5.8284h.0897c5.4698 0 9.8623-1.9727 13.1812-5.8285 3.3177-3.9454 4.9318-9.4151 4.9318-16.2299s-1.614-12.1948-4.9318-16.23c-3.228-3.9453-7.6218-6.0077-13.1812-6.0077h-.0897c-5.4697 0-9.8634 2.0624-13.0915 6.0975-3.3177 3.9454-4.9317 9.4151-4.9317 16.1402zm18.113 26.1831h-.0898c-6.994 0-12.465-2.3326-16.5886-7.0838-4.1247-4.573-6.187-10.9395-6.187-19.0993 0-8.0701 2.0623-14.4366 6.187-19.0993 4.1235-4.7524 9.5945-7.0838 16.5886-7.0838h.0897c6.9941 0 12.5536 2.3314 16.5886 7.0838 4.1248 4.6627 6.1871 11.0292 6.1871 19.0993s-2.0623 14.4366-6.187 19.0993c-4.0351 4.7512-9.5946 7.0838-16.5887 7.0838zm37.8399-20.6237h19.2786L210.27 7.7114zm9.5932 4.0351h-11.0292l-5.8272 15.2436h-4.7524l18.92-49.7658h5.4685l18.9212 49.7658h-4.8433l-5.649-15.2436zm84.5583-4.035h19.2761l-9.5932-25.5555h-.0897zm9.6829 4.035h-11.1188l-5.7388 15.2436h-4.842l18.9199-49.7658h5.4697l18.92 49.7658h-4.7524l-5.7387-15.2436zm71.3758-4.035h19.2774L385.57 7.7113zm9.683 4.035h-11.119l-5.7387 15.2436H363.96l18.8303-49.7658h5.471L407.18 52.5455h-4.7525l-5.649-15.2436zm59.6292-34.5222c1.5244 0 2.8694.0896 3.9454.0896 1.2554.0897 2.421.1794 3.3178.4484 1.7037.269 3.228.807 4.4834 1.5243 1.9727 1.076 3.497 2.6004 4.573 4.5731 1.076 1.9727 1.614 4.1248 1.614 6.6355 0 3.0487-.7173 5.649-2.0623 7.7114-1.345 2.0624-3.4074 3.5867-6.0078 4.4834 2.0624.7174 3.4958 1.7934 4.3938 3.1384.807 1.345 1.4347 4.2144 1.7933 8.4288l.6277 7.4425c0 .6276.0897 1.076.1794 1.5243.0896.3575.1793.8955.4483 1.5231.269.6277.538 1.167.9863 1.5244v.7186h-5.0214c-.1793-.2703-.269-.538-.3586-.807-.0897-.269-.269-.7186-.3587-1.345-.1794-.6277-.269-1.0773-.269-1.2566-.0897-.5368-.1794-1.0748-.1794-1.7037l-.538-6.5446c0-2.1533-.1793-3.9454-.6276-5.38-.4484-1.5257-1.076-2.6004-1.7934-3.3178-1.345-1.2553-3.8557-1.883-7.7115-1.883h-14.5262v22.2377h-4.573V2.7797h17.6645" fill="#363f9e"/></svg>