<?xml version="1.0" encoding="utf-8"?>
<!-- Generator: Adobe Illustrator 24.3.0, SVG Export Plug-In . SVG Version: 6.00 Build 0)  -->
<svg version="1.1" id="layer" xmlns="http://www.w3.org/2000/svg" xmlns:xlink="http://www.w3.org/1999/xlink" x="0px" y="0px"
	 viewBox="0 0 599.2 158" style="enable-background:new 0 0 599.2 158;" xml:space="preserve">
<style type="text/css">
	.st0{fill:#BA9653;}
	.st1{fill:#501C4B;}
</style>
<path class="st0" d="M156.3,77.8c-0.3-0.4-8.5-11.2-23.8-21.1c1.3-5.9,1.9-11.1,2.2-15.4c0.7-10.2-0.3-16.8-0.3-17.1l-0.2-1.3
	l-1.3-0.2c-0.3,0-6.9-1.1-17.1-0.3c-4.2,0.3-9.5,0.9-15.3,2.1C90.6,9.2,79.8,1.2,79.4,0.8L78.3,0l-1.1,0.8C76.7,1.2,66,9.2,56,24.6
	c-5.9-1.3-11.1-1.9-15.4-2.2c-10.2-0.7-16.8,0.3-17.1,0.3l-1.4,0.2l-0.2,1.3c-0.1,0.3-1,6.9-0.3,17.1c0.3,4.3,0.9,9.5,2.2,15.4
	C8.3,66.6,0.3,77.3,0,77.8l-0.8,1.1L0,80c0.3,0.5,8.4,11.2,23.8,21.2c-1.2,5.8-1.9,11.1-2.2,15.3c-0.7,10.2,0.2,16.8,0.3,17.1
	l0.2,1.4l1.4,0.2c0.2,0,3.8,0.5,9.6,0.5c2.2,0,4.7-0.1,7.5-0.3c4.3-0.3,9.6-0.9,15.4-2.2c10,15.4,20.7,23.5,21.2,23.9l1.1,0.9
	l1.1-0.9c0.5-0.3,11.2-8.5,21.1-23.8c5.8,1.2,11,1.9,15.3,2.2c2.8,0.2,5.3,0.3,7.5,0.3c5.8,0,9.4-0.5,9.6-0.5l1.4-0.2l0.2-1.4
	c0-0.3,1-6.9,0.3-17.1c-0.3-4.3-0.9-9.5-2.2-15.3c15.4-9.9,23.6-20.7,23.9-21.1l0.9-1.1L156.3,77.8z M124.9,78.9
	c1.6-3.4,3-6.8,4.1-10.1c6,4.2,10,8.1,11.8,10c-1.8,1.9-5.8,5.9-11.9,10.1C127.9,85.7,126.5,82.3,124.9,78.9 M115.8,26
	c7.2-0.5,12.6-0.1,15,0.1c0.6,5.7,1.9,28.3-9.6,52c-1.5,3-3.1,6-4.8,8.7c-1.3,2-2.6,4-4,5.8l-0.4,0.6l0.1,0.8
	c1.4,8.9,0.7,16.3,0.3,19.1c-2.8,0.4-10.1,1.1-19.1-0.3l-0.8-0.1l-0.6,0.5c-1.5,1.1-3.2,2.3-4.9,3.4c-1.6-0.7-3.3-1.4-4.9-2.3
	c3.3-2,6.5-4.2,9.5-6.6c8.6,2.1,14.8,1.5,15.1,1.5l1.5-0.1l0.1-1.5c0-0.3,0.6-6.5-1.5-15c3.2-4,6-8.3,8.5-12.7
	c1.6-2.9,3.1-6,4.4-9.1c8.5-20.6,6.8-37.6,6.7-38.4l-0.1-1.5l-1.5-0.2c-0.7-0.1-17.2-1.7-37.4,6.4c-1.6-1-3.3-2-5-2.9
	C95.3,28.5,107.5,26.6,115.8,26 M115.8,94.3c0.6-0.8,1.2-1.6,1.7-2.4c5.4,14.7,5.5,27.4,5.4,31.7c-4.3,0.2-16.9,0-31.7-5.3
	c0.8-0.5,1.5-1,2.2-1.6c11.8,1.7,20.5,0,20.9,0l1.2-0.2l0.2-1.2C115.9,114.8,117.5,106,115.8,94.3 M52.8,90.7
	c-3-3.7-5.7-7.7-8.1-11.8c2.3-4.1,5-8.1,8-11.8l0.6-0.7l-0.2-0.9c-1.5-5.9-1.7-10.7-1.6-13.1c2.4,0,7.2,0.1,13.1,1.6l0.9,0.2
	l0.7-0.6c3.8-3,7.8-5.8,12-8.2c4.2,2.4,8.2,5.1,11.9,8.1l0.7,0.6l0.9-0.2c5.9-1.5,10.7-1.7,13-1.7c0,2.4-0.1,7.2-1.6,13.1l-0.2,0.9
	l0.6,0.7c3,3.7,5.7,7.7,8.1,11.9c-2.4,4.2-5.1,8.2-8.1,12l-0.6,0.7l0.2,0.9c1.5,5.8,1.7,10.7,1.7,13.1c-2.4,0-7.2-0.1-13-1.7
	l-0.9-0.2l-0.7,0.6c-3.7,3-7.7,5.7-11.8,8c-4.2-2.4-8.2-5.1-11.9-8.1l-0.7-0.6l-0.9,0.2c-5.9,1.5-10.7,1.7-13.1,1.6
	c-0.1-2.4,0.1-7.2,1.6-13.1l0.2-0.9L52.8,90.7z M115.8,42.6l-0.2-1.2l-1.2-0.2c-0.4-0.1-9.1-1.7-20.9,0c-0.7-0.5-1.5-1.1-2.3-1.6
	c14.8-5.4,27.3-5.4,31.6-5.3c0.2,4.3,0.1,16.9-5.3,31.6c-0.5-0.8-1.1-1.6-1.7-2.4C117.5,51.7,115.9,43,115.8,42.6 M78,32
	c-3.4-1.6-6.7-3-10-4.1c4.2-6,8.2-9.9,10.1-11.7c1.9,1.8,5.8,5.7,10,11.7C84.8,29,81.5,30.4,78,32 M78.1,4.6
	C81,6.9,88.9,14,96.5,25.3c-1.5,0.4-3.1,0.8-4.7,1.3c-6.4-9.3-12.3-14.2-12.5-14.4l-1.2-1l-1.2,1c-0.3,0.2-6.2,5.1-12.6,14.4
	c-1.6-0.5-3.2-0.9-4.7-1.3C67.3,14,75.3,7,78.1,4.6 M25.3,26.1c5.7-0.6,28.2-1.9,51.9,9.6c3.1,1.5,6.1,3.1,8.9,4.9
	c2,1.2,4,2.6,5.7,3.9l0.6,0.5l0.7-0.1c8.9-1.4,16.3-0.7,19.1-0.3c0.4,2.8,1.1,10.1-0.3,19.1l-0.1,0.8l0.5,0.6
	c1.2,1.6,2.3,3.4,3.4,5.1c-0.7,1.7-1.4,3.3-2.3,4.9c-2-3.3-4.2-6.6-6.6-9.6c2-8.6,1.5-14.8,1.5-15l-0.1-1.5l-1.6-0.2
	c-0.3,0-6.4-0.6-15,1.5c-4-3.1-8.2-6-12.6-8.4c-3-1.6-6.1-3.1-9.3-4.4c-20.6-8.5-37.6-6.8-38.3-6.7l-1.5,0.1l-0.2,1.5
	c-0.1,0.7-1.7,17.2,6.4,37.4c-1,1.7-2,3.3-2.9,5c-5.6-13-7.6-25.2-8.1-33.5C24.7,34,25.1,28.5,25.3,26.1 M40.2,63.5
	c-0.5,0.7-1,1.5-1.5,2.2c-5.4-14.8-5.4-27.4-5.3-31.6c4.3-0.2,16.8-0.1,31.6,5.3c-0.8,0.5-1.6,1.1-2.3,1.6c-11.8-1.7-20.6,0-21,0.1
	l-1.2,0.2l-0.3,1.2C40.2,43,38.5,51.7,40.2,63.5 M27.1,88.9c-6-4.2-10-8.1-11.7-10c1.8-1.9,5.7-5.8,11.7-10c1.1,3.3,2.5,6.6,4.1,10
	C29.6,82.3,28.2,85.7,27.1,88.9 M3.8,78.9c2.3-2.9,9.4-10.8,20.7-18.4c0.4,1.5,0.8,3.1,1.3,4.7c-9.3,6.4-14.2,12.3-14.4,12.5l-1,1.2
	l1,1.2c0.2,0.3,5.1,6.1,14.5,12.6c-0.5,1.6-0.9,3.2-1.3,4.7C13.3,89.8,6.2,81.8,3.8,78.9 M40.3,131.7c-7.2,0.5-12.6,0.2-15-0.1
	c-0.2-2.4-0.6-7.8-0.1-15c0.6-9,2.8-22.7,9.6-36.9c1.5-3,3.1-6.1,4.9-8.9c1.2-2,2.5-3.9,3.8-5.7l0.5-0.6l-0.1-0.8
	c-1.4-9-0.6-16.3-0.2-19.2c2.8-0.4,10.1-1.1,19.1,0.2l0.7,0.1l0.6-0.4c1.6-1.2,3.3-2.3,5-3.4c1.7,0.7,3.4,1.5,5.1,2.3
	c-3.4,2-6.7,4.3-9.8,6.7c-8.6-2-14.8-1.4-15.1-1.4l-1.5,0.2l-0.2,1.5c0,0.3-0.6,6.5,1.4,15.1c-3.1,3.9-5.9,8.1-8.3,12.5
	c-1.7,3-3.2,6.1-4.5,9.3c-8.4,20.6-6.9,37.6-6.8,38.3l0.2,1.5l1.5,0.1c0.2,0,1.7,0.2,4.2,0.2c6.3,0,18.9-0.9,33.3-6.6
	c1.6,1,3.2,1.9,4.8,2.7C60.9,129.2,48.6,131.1,40.3,131.7 M38.7,92c0.5,0.7,1,1.5,1.5,2.2c-1.7,11.8,0,20.6,0.1,21l0.3,1.2l1.2,0.2
	c0.4,0.1,9.2,1.8,21,0.1c0.8,0.5,1.5,1.1,2.3,1.6c-14.8,5.4-27.5,5.5-31.8,5.4C33.2,119.4,33.3,106.8,38.7,92 M78,125.7
	c3.4,1.6,6.8,3,10.1,4.1c-4.2,6-8.1,10-10,11.8c-1.9-1.8-5.8-5.8-10.1-11.9C71.3,128.7,74.7,127.3,78,125.7 M78.1,153.2
	c-2.9-2.4-10.9-9.5-18.4-20.9c1.5-0.4,3.1-0.8,4.7-1.3c6.4,9.4,12.3,14.4,12.6,14.6l1.2,1l1.2-1c0.3-0.2,6.1-5.2,12.5-14.6
	c1.6,0.5,3.1,0.9,4.7,1.3C89,143.6,81,150.8,78.1,153.2 M130.8,131.6c-2.5,0.2-7.8,0.6-15,0.1c-9-0.6-22.8-2.8-36.9-9.7
	c-3-1.4-6-3.1-8.8-4.8c-2-1.2-3.9-2.6-5.8-3.9l-0.6-0.5l-0.8,0.1c-9,1.4-16.3,0.6-19.2,0.2c-0.4-2.8-1.2-10.2,0.2-19.2l0.1-0.8
	l-0.5-0.6c-1.1-1.6-2.2-3.2-3.3-4.9c0.7-1.7,1.5-3.4,2.3-5.1c2,3.4,4.2,6.6,6.7,9.6c-2,8.6-1.4,14.8-1.4,15.1l0.2,1.5l1.5,0.2
	c0.3,0,6.5,0.6,15.1-1.5c4,3.1,8.2,6,12.6,8.4c2.9,1.6,6,3.1,9.1,4.3c14.8,6.1,27.7,7,34.1,7c2.6,0,4.1-0.1,4.3-0.2l1.5-0.2l0.2-1.5
	c0.1-0.7,1.6-17.3-6.5-37.5c1-1.6,1.9-3.2,2.8-4.8c5.6,12.9,7.5,25.2,8.1,33.4C131.4,123.8,131,129.2,130.8,131.6 M131.5,97.3
	c-0.4-1.5-0.8-3.1-1.3-4.6c9.4-6.4,14.4-12.3,14.6-12.6l1-1.2l-1-1.2c-0.2-0.3-5.2-6.1-14.6-12.5c0.5-1.6,0.9-3.1,1.3-4.7
	C142.8,68,150,76,152.4,78.9C150,81.8,142.9,89.8,131.5,97.3"/>
<path class="st1" d="M201.2,128.1h-9.7v7.6h8.3v2.2h-8.5c0,0,0.2,0.7,0.2,1.3v9.2h-2.4V126h12.7L201.2,128.1z"/>
<path class="st1" d="M209,148.6c-2.5,0-3.7-1.3-3.7-4v-20.4h2.4v20.4c0,1.4,0.4,1.9,1.4,1.9h1.2v2.2H209V148.6z"/>
<path class="st1" d="M218.6,152.7c-0.9,2.3-2.2,3.1-5,3.1h-2.2v-2.2h2.2c1.9,0,2.3-0.4,2.9-2l1.1-2.9l-6.4-17.1h2.5l4.6,12.3
	c0.2,0.5,0.4,1.4,0.5,2.1c0.2-0.8,0.4-1.6,0.6-2.1l4.6-12.3h2.5L218.6,152.7z"/>
<path class="st1" d="M242.9,148.8c-2.5,0-4.4-0.9-4.4-4.6V135c0-0.6,0.2-0.9,0.3-1.2h-3.1v-2.1h2.9V126l2.4-0.7v6.4h6l-0.7,2.1H241
	v10.5c0,2,0.9,2.6,2.7,2.6c0.8,0,1.7-0.3,2.7-0.9l1.5,1.6C246.6,148.5,244.6,148.8,242.9,148.8"/>
<path class="st1" d="M261.9,148.4v-10.7c0-3.6-1.5-4.5-3.5-4.5c-1.4,0-2.4,0.4-3.9,1.5l-1.6,1.1v12.6h-2.4v-24.2h2.4v8.6l-0.2,1.1
	l1.5-1.1c1.6-1.1,2.9-1.7,4.3-1.7c3.4,0,5.9,1.8,5.9,6.4v10.8h-2.5V148.4z"/>
<path class="st1" d="M270.3,140.7c0.1,4.1,1.3,6.1,5.2,6.1c2.4,0,3.9-0.8,4.7-2.4l2.1,0.8c-1.1,2.3-3,3.6-6.8,3.6
	c-5.3,0-7.7-2.7-7.7-8.8c0-5.6,1.9-8.8,7.8-8.8c6.2,0,7,4.1,7,8.8v0.7L270.3,140.7L270.3,140.7z M275.6,133.2c-3.3,0-5,1.3-5.2,5.5
	h9.7C280.1,135.3,279.3,133.2,275.6,133.2"/>
<path class="st1" d="M305.4,148.4v-10.7c0-3.6-1.5-4.5-3.5-4.5c-1.4,0-2.3,0.4-3.9,1.5l-1.6,1.1v12.6H294v-16.7h1.9l0.5,2l1.2-0.8
	c1.6-1.1,2.9-1.7,4.3-1.7c3.4,0,5.9,1.8,5.9,6.4v10.8L305.4,148.4L305.4,148.4z"/>
<path class="st1" d="M313.9,140.7c0.1,4.1,1.3,6.1,5.2,6.1c2.4,0,3.9-0.8,4.7-2.4l2.1,0.8c-1.1,2.3-3.1,3.6-6.8,3.6
	c-5.3,0-7.7-2.7-7.7-8.8c0-5.6,1.9-8.8,7.8-8.8c6.2,0,7.1,4.1,7.1,8.8v0.7L313.9,140.7L313.9,140.7z M319.1,133.2
	c-3.2,0-5,1.3-5.2,5.5h9.7C323.6,135.3,322.8,133.2,319.1,133.2"/>
<path class="st1" d="M345.7,148.4h-2.4l-3.4-11.1c-0.3-1.1-0.6-3.1-0.6-3.1s-0.2,2.1-0.5,3.1l-3.5,11.1h-2.4l-5.2-16.7h2.4l3.4,11.4
	c0.3,0.9,0.6,3.1,0.6,3.1s0.3-2.1,0.6-3.1l3.5-11.4h2.3l3.5,11.4c0.3,1,0.5,3.1,0.5,3.1s0.4-2.2,0.6-3.1l3.5-11.4h2.4L345.7,148.4z"
	/>
<path class="st1" d="M372,126.7c-0.6-0.1-1.1-0.2-1.5-0.3c-0.5-0.1-1-0.2-1.8-0.2c-1.8,0-3.4,0.9-3.4,3.6v1.8h5.7l-0.5,2.1h-5.2
	v14.6h-2.4v-13.2c0-0.5,0.1-0.9,0.3-1.4h-2.9v-2.1h2.6v-1.8c0-3.8,2.4-5.7,5.8-5.7c1.6,0,2.3,0.2,3.8,0.4L372,126.7z"/>
<path class="st1" d="M375,140.7c0.1,4.1,1.3,6.1,5.2,6.1c2.4,0,3.9-0.8,4.7-2.4l2.1,0.8c-1.1,2.3-3.1,3.6-6.8,3.6
	c-5.3,0-7.8-2.7-7.8-8.8c0-5.6,1.9-8.8,7.8-8.8c6.2,0,7.1,4.1,7.1,8.8v0.7L375,140.7L375,140.7z M380.3,133.2c-3.3,0-5,1.3-5.2,5.5
	h9.7C384.8,135.3,384,133.2,380.3,133.2"/>
<path class="st1" d="M392.9,140.7c0.1,4.1,1.3,6.1,5.2,6.1c2.4,0,3.9-0.8,4.7-2.4l2.1,0.8c-1.1,2.3-3,3.6-6.8,3.6
	c-5.4,0-7.8-2.7-7.8-8.8c0-5.6,1.9-8.8,7.8-8.8c6.2,0,7.1,4.1,7.1,8.8v0.7L392.9,140.7L392.9,140.7z M398.1,133.2
	c-3.3,0-5,1.3-5.2,5.5h9.8C402.6,135.3,401.8,133.2,398.1,133.2"/>
<path class="st1" d="M412.5,148.6c-2.4,0-3.7-1.3-3.7-4v-20.4h2.4v20.4c0,1.4,0.4,1.9,1.4,1.9h1.2v2.2h-1.3V148.6z"/>
<path class="st1" d="M419,127.1h-2.5l-0.2-0.3v-2.4l0.2-0.3h2.5l0.2,0.3v2.4L419,127.1z M416.5,131.7h2.4v16.7h-2.4V131.7z"/>
<path class="st1" d="M434.7,148.4v-10.7c0-3.6-1.5-4.5-3.5-4.5c-1.4,0-2.4,0.4-3.9,1.5l-1.6,1.1v12.6h-2.4v-16.7h1.9l0.5,2l1.2-0.8
	c1.6-1.1,2.9-1.7,4.3-1.7c3.4,0,5.9,1.8,5.9,6.4v10.8L434.7,148.4L434.7,148.4z"/>
<path class="st1" d="M456.3,133.5h-1.2c-0.3,0-0.9,0-1.5-0.2c1,1.1,1.4,2.6,1.4,3.7c0,3.9-2.2,5.7-6.8,5.7c-0.8,0-1.2-0.1-1.9-0.2
	l-1.2-0.2c-1,0-1.4,0.6-1.4,1.3c0,0.6,0.4,1,1.2,1.1l6.9,1.2c3.6,0.6,4.4,2.5,4.4,4.6c0,4-3.5,5.2-8,5.2c-3.7,0-8-0.7-8-5.6
	c0-2,1-3.4,2.4-4.4c-0.6-0.5-1-1.1-1-2.2s0.6-1.8,1.7-2.4c-1.3-1.2-1.8-2.5-1.8-4.2c0-4.2,3.2-5.8,6.8-5.8c1.7,0,3.1,0.2,4.4,1
	l2.6-1h1.7L456.3,133.5z M451.3,148l-7.1-1.3c-1.1,0.7-1.6,2-1.6,3.5c0,2.8,1.9,3.7,5.5,3.7c4.1,0,5.5-1.3,5.5-3.3
	C453.5,149.1,452.9,148.3,451.3,148 M448,133.1c-2.7,0-4.4,1.1-4.4,3.9c0,3,1.9,3.7,4.4,3.7c2.7,0,4.4-0.8,4.4-3.7
	C452.4,134.5,450.9,133.1,448,133.1"/>
<path class="st1" d="M177.4,53.8h9.8c1.2,0,1.6,0.8,1.7,1c5.2,9.7,22.9,41.2,22.9,41.2s18-31.6,23.3-41.3c0.2-0.3,0.5-1,1.6-1h5
	c0.8,0,1.2,0.9,0.8,1.5c-6.1,10.7-23,40.1-26.6,46.5c-0.4,0.8-0.9,1.2-1.8,1.2h-9.3c-0.9,0-1.5-0.6-1.9-1.3
	c-3.6-6.3-20.4-35.6-26.5-46.2C176.4,55,176,53.8,177.4,53.8"/>
<path class="st1" d="M325.3,62.3c-2.6-1.4-10.4-5.5-22.3-5.5c-12.9,0-15.4,5.5-15.4,9.4c0,4.9,5.1,6.3,11,6.7
	c3.6,0.3,12.7,0.7,17.6,1.6c11.7,2.1,14.8,8.7,14.8,14c0,11.1-12.9,15.8-28.5,15.8c-13.2,0-22.7-4.2-26.5-6.3
	c-0.7-0.4-0.7-1.3-0.4-1.9c1-1.8,0.7-1.2,1.5-2.7c0.4-0.8,1.1-0.9,1.8-0.5c3.1,2,13,6.8,23.7,6.8c11,0,16.9-4.8,16.9-9.6
	c0-4-1.5-6.5-9.8-7.7c-4.4-0.6-14.2-0.6-19.2-1.8c-5-1.1-13.7-3.5-13.7-13.2c0-5.4,4.3-15.3,26.8-15.3c12.3,0,20.5,3.3,24.6,5.4
	c0.7,0.4,0.9,1,0.5,1.7c-0.7,1.1-0.9,1.6-1.6,2.7C326.6,62.5,325.9,62.6,325.3,62.3"/>
<path class="st1" d="M262,53.8h-8c-0.8,0-1.5,0.7-1.5,1.5v46c0,0.9,0.7,1.7,1.5,1.7h8c0.8,0,1.5-0.8,1.5-1.7v-46
	C263.5,54.5,262.8,53.8,262,53.8"/>
<path class="st1" d="M378.4,100.4c-0.7-2-0.4-1.2-1-3c-0.3-1-1.2-0.8-1.6-0.7c-3.2,1.3-7.6,2.4-10.7,2.4c-7.9,0-12.5-3.4-12.5-10.5
	V60h22.2c0.9,0,1.7-0.7,1.7-1.5v-2.3c0-0.9-0.8-1.5-1.7-1.5h-22.2V42.8c0-1.1-1-1.5-1.7-1.2c-1.9,0.6-5.5,1.8-7.5,2.4
	c-0.7,0.2-1.4,0.8-1.4,1.9V86c0,10,5.8,18.1,21.5,18.1c5.5,0,10.7-1.2,14-2.2C378,101.8,378.8,101.4,378.4,100.4"/>
<path class="st1" d="M511,100.7c-5.6-4.3-18.2-13.8-19.7-15c8.9,0,19.4-5.1,19.4-16.3c0-12.3-12-15.7-17.6-15.7h-36.3
	c-0.8,0-1.5,0.7-1.5,1.7v45.8c0,0.9,0.7,1.7,1.5,1.7h7.7c0.8,0,1.5-0.8,1.5-1.7V86.1h11.9c0,0,13.6,11,18.3,14.9
	c0.4,0.4,2.1,1.8,3.9,1.8h10.6C511.5,103,512.3,101.7,511,100.7 M466.1,81.5V58.7h22.7c7.2,0,10.4,5.8,10.4,10.9
	c0,5.7-2.8,11.9-12,11.9H466.1z"/>
<path class="st1" d="M442.5,74v-0.4c0-3.1-0.8-10.2-6.8-15.1c-2.1-1.7-8.5-5.7-20.9-5.7c-10.3,0-18.1,2.6-25.7,6.6
	c-0.7,0.3-0.9,1-0.6,1.6c0.9,2,0.7,1.8,1.3,3c0.3,0.7,0.9,0.9,1.7,0.4c3.8-2.2,12.4-6.7,22.1-6.7c11.8,0,18.2,5.4,18.2,12.8v5.7
	c-4.2-1.1-12-2.8-19.9-2.8c-20.1,0-27.1,7.3-27.1,15.7c0,12.2,12.1,15.2,22.8,15.2c9.2,0,17.5-2.1,24-7h0.2c0,2.3,0,4.1,0,4.1
	c0,0.9,0.7,1.7,1.5,1.7h7.6c0.9,0,1.5-0.8,1.5-1.7L442.5,74L442.5,74z M409.7,99.3c-10.8,0-13.6-5.5-13.6-10.8
	c0-8.9,10.7-10.6,17.4-10.6c7.6,0,14.2,1.4,18.3,2.4v12.2C427.5,95.4,420.8,99.3,409.7,99.3"/>
<path class="st1" d="M577.2,74v-0.4c0-3.1-0.7-10.2-6.8-15.1c-2.1-1.7-8.4-5.7-20.8-5.7c-10.3,0-18.1,2.6-25.7,6.6
	c-0.7,0.3-0.8,1-0.6,1.6c0.9,2,0.7,1.8,1.3,3c0.3,0.7,0.9,0.9,1.7,0.4c3.8-2.2,12.4-6.7,22-6.7c11.8,0,18.2,5.4,18.2,12.8v5.7
	c-4.2-1.1-12-2.8-19.8-2.8c-20.2,0-27.2,7.3-27.2,15.7c0,12.2,12.1,15.2,22.9,15.2c9.2,0,17.4-2.1,24-7h0.2c0,2.3,0,4.1,0,4.1
	c0,0.9,0.7,1.7,1.6,1.7h7.6c0.8,0,1.5-0.8,1.5-1.7V74H577.2z M544.4,99.3c-10.8,0-13.6-5.5-13.6-10.8c0-8.9,10.7-10.6,17.4-10.6
	c7.6,0,14.1,1.4,18.3,2.4v12.2C562.1,95.4,555.4,99.3,544.4,99.3"/>
<path class="st1" d="M464.8,39.4l-1.2-3.4h-4.7l-1.2,3.4h-2.6l4.9-13.5h2.6l4.9,13.5H464.8z M461.5,29.9l-0.2-1.1l-0.3,1.1l-1.4,4
	h3.3L461.5,29.9z"/>
<polygon class="st1" points="477.4,28 477.4,39.4 474.9,39.4 474.9,28 471,28 471,25.9 481.2,25.9 481.2,28 "/>
<path class="st1" d="M490.5,39.4l-1.2-3.4h-4.7l-1.2,3.4h-2.6l4.9-13.5h2.6l4.9,13.5H490.5z M487.3,29.9l-0.3-1.1l-0.3,1.1l-1.4,4
	h3.3L487.3,29.9z"/>
<polygon class="st1" points="499.2,28 499.2,39.4 496.7,39.4 496.7,28 492.8,28 492.8,25.9 503.1,25.9 503.1,28 "/>
<path class="st1" d="M512.4,39.4l-1.2-3.4h-4.7l-1.2,3.4h-2.6l4.9-13.5h2.6l4.9,13.5H512.4z M509.2,29.9l-0.3-1.1l-0.3,1.1l-1.4,4
	h3.3L509.2,29.9z"/>
<path class="st1" d="M525.4,39.7c-2.8,0-4.1-1.3-5-2.7l2.1-1.1c0.6,0.9,1.5,1.6,2.9,1.6c2.1,0,2.7-0.9,2.7-2.1
	c0-0.9-0.4-1.5-1.6-1.7l-2.8-0.5c-1.9-0.3-3.2-1.3-3.2-3.8c0-1.9,1.3-3.9,4.9-3.9c2.8,0,4,1,4.9,2.4l-2.1,1.1
	c-0.6-0.9-1.4-1.3-2.8-1.3c-1.8,0-2.4,0.7-2.4,1.7s0.3,1.3,1.3,1.4l2.7,0.4c2,0.3,3.7,1.4,3.7,4.1C530.6,37.9,529.1,39.7,525.4,39.7
	"/>
<rect x="532.7" y="25.9" class="st1" width="2.5" height="13.5"/>
<path class="st1" d="M547.5,39.4l-1.2-3.4h-4.7l-1.2,3.4h-2.6l4.9-13.5h2.6l4.9,13.5H547.5z M544.2,29.9l-0.3-1.1l-0.3,1.1l-1.4,4
	h3.3L544.2,29.9z"/>
<path class="st1" d="M558.6,39.7c-1,0-2.2-0.2-3.2-1.1l1.1-1.6c0.7,0.7,1.4,0.7,2,0.7c1.1,0,1.5-0.6,1.5-2.2V26h2.5v9.5
	C562.5,38.5,561,39.7,558.6,39.7"/>
<polygon class="st1" points="572.5,39.4 570,39.4 565.1,25.9 567.8,25.9 571,35.4 571.3,36.5 571.5,35.4 574.8,25.9 577.4,25.9 "/>
<path class="st1" d="M592.7,53c1.1,0,2.1,0.3,3.2,0.8c1,0.5,1.8,1.3,2.4,2.4c0.6,1,0.9,2.1,0.9,3.2s-0.3,2.2-0.8,3.2
	c-0.6,1-1.4,1.8-2.4,2.4s-2.1,0.9-3.2,0.9c-1.1,0-2.2-0.3-3.2-0.9s-1.8-1.4-2.4-2.4c-0.6-1-0.9-2.1-0.9-3.2s0.3-2.2,0.9-3.2
	c0.6-1,1.4-1.8,2.4-2.4C590.6,53.3,591.6,53,592.7,53 M592.7,54.1c-0.9,0-1.8,0.2-2.6,0.7c-0.9,0.5-1.5,1.1-2,2s-0.7,1.8-0.7,2.7
	c0,0.9,0.2,1.8,0.7,2.7c0.5,0.9,1.1,1.5,2,2c0.8,0.5,1.7,0.7,2.7,0.7c0.9,0,1.8-0.2,2.7-0.7c0.8-0.5,1.5-1.1,2-2
	c0.5-0.8,0.7-1.7,0.7-2.7c0-0.9-0.2-1.8-0.7-2.7c-0.5-0.9-1.2-1.5-2-2C594.5,54.3,593.6,54.1,592.7,54.1 M589.9,63v-6.9h2.4
	c0.8,0,1.4,0.1,1.8,0.2L595,57l0.3,1c0,0.5-0.2,0.9-0.5,1.3c-0.4,0.4-0.8,0.6-1.4,0.6l0.6,0.4c0.3,0.3,0.6,0.7,1,1.4l0.8,1.4h-1.5
	l-0.6-1.1c-0.5-0.9-0.9-1.4-1.2-1.6l-0.9-0.2h-0.7v3h-1V63z M591,59.1h1.4c0.6,0,1.1-0.1,1.3-0.3L594,58l-0.2-0.6l-0.5-0.4
	c-0.2-0.1-0.6-0.1-1.1-0.1h-1.3L591,59.1L591,59.1z"/>
</svg>
