<svg xmlns="http://www.w3.org/2000/svg" height="800" width="1200" viewBox="-14.83302 -6.579725 128.55284 39.47835"><path d="M22.3755 1.031C21.4199.221 20.6575 0 19.3865 0H0l12.7017 24.9563c.4889.96 1.1288 1.3626 2.0344 1.3626h16.5502c.7686 0 1.227-.3989 1.5386-1.0968l2.2686-5.0832 2.6962-6.041zm3.2035 6.9236c.1328-.0176.242-.0395.3761-.0207.1776.0246.1862.2834.1376.4154-.0786.2131-.3289.4984-.5212.618-.0872.054-.182.0119-.2795.0173-.15.0083-.2407-.1525-.2888-.2712.0605.1491-.1021-.244 0 0-.1125-.2677.3198-.733.5758-.7588zm-1.206 5.3537c.0061-.2642.0723-.5163.079-.7844.0111-.4451.0923-.843.1233-1.274.0176-.2456.0435-.5644.1758-.7722.1135-.1783.1898-.3461.3969-.4353.0845-.0363.2024-.0415.2934-.0325.1838.0185.0628.1508.1404.236.0085-.0135.0197-.0164.0339-.0089.0005.0265.001.053.001.0798.091.0083-.0072.127-.003.1933.016.1497.0015.2905-.0691.4321a.153.153 0 00.0543.0045c.0005.0049-.0132.045-.016.0485-.0523.0343-.0435.0481-.0365.151.0039.0577.037.1785-.0065.2245-.0075.0078-.009.1679-.0036.1941.0078.0385-.0057.2884-.002.2934a.0498.0498 0 00.0258-.0195c-.01-.0031.015.3258-.0088.3528-.0344.039-.077.0816-.067.1403.0042.025.088.1988.0626.2113-.0243.014-.043-.0522-.054-.0522-.037 0 .0633.1408.0548.1528-.0194.0267-.0747-.0938-.0975.007-.0217.0964-.0065.204-.0005.3014.0054.088-.0036.165-.0072.2528-.0062.1447.0483.3258-.0187.4617-.1535.3124-.8443.8011-1.0729.3308.0259.0556.0683.1484-.0038-.0065-.0171-.0377-.0125-.028-.0019-.006-.0873-.2024.0228-.4666.0277-.6766zm-5.339-.358c-.0073-.0497.3544-.1674.402-.1809.0705-.02.1636-.0067.2334.0088.157.0354.1345.0993.1794.222.0494.1343.0613.1592.0316.3081-.025.1255-.0603.2378-.1787.3043-.1383.1117-.2774.2258-.415.3362a1.314 1.314 0 00-.3319.3968c-.0488.0888-.0408.187-.0783.2705-.093.2068-.0807.422-.1073.637-.0587.4699-.0114.948-.0724 1.4144-.0478.365-.4462.8294-.8555.8005-.3273-.023-.329-.4209-.3224-.6677.004-.1455.0326-.2812.0476-.4249.0158-.1491-.0212-.253.0124-.4045.021-.0941-.0256-.1986-.0064-.3066.0103-.0582.0121-.1014.0243-.1557.0406-.183.048-.3768.0623-.563.032-.4205-.012-.863.1026-1.271.052-.1847.1968-.3128.3462-.4253.0737-.0501.286-.0574.3314-.1252.1857.0488.4532-.127.6254-.1679-.0046-.0195-.015-.0213-.0308-.006zm-4.5781 2.6596c-.0236.0762-.0642.1476-.0735.228-.0098.0844.0168.1467-.0142.2312-.0282.0774-.0452.137-.0517.2195-.013.1679-.0719.3274-.0936.4943-.0075.0576-.0336.1603.0013.2143.0313.0483.0721.0751.0602.1414-.0336.1865-.1354.3422-.1714.5254-.0199.1005-.0863.3606-.0354.4523.0497.0892-.0437.2957-.0799.4147-.083.2744-.13.6101-.147.895-.0215.361-.1056.7038-.1311 1.0626-.0331.4649-.0696.9783-.1753 1.4333-.0437.1884-.1166.41-.292.515-.1713.1029-.4397.104-.5764-.0527-.2007-.23-.2198-.6244-.2806-.9084-.0798-.3734-.0961-.7572-.1833-1.1295-.0315-.1357-.0062-.3675-.0987-.4766-.031-.0366-.0615-.2344-.067-.2868-.0103-.099.0173-.1848-.0026-.2895-.0188-.0987-.0462-.1933-.0703-.2902-.0814-.3298-.131-.7047-.1667-1.0435-.0352-.3332-.1138-.6556-.143-.9921-.033-.3804-.1241-.7494-.1652-1.129-.0349-.3204-.0261-.6717-.1479-.9744-.0346-.086-.0752-.1704-.076-.2653-.0003-.0301.04-.1294.0259-.1577-.0308-.0603-.0882.025-.095-.0663-.0203-.2834-.3063.0767-.2807.1944-.0884-.074-.0713.092-.0703.1356.002.0751-.0905.1718-.121.243-.1166.2726-.1598.5823-.2704.864-.0944.24-.1931.5058-.4018.6703-.2115.1666-.531.1156-.6616-.1317-.1375-.2609.0535-.573.1347-.8203.0975-.2965.165-.6158.3035-.8965.1384-.2803.2133-.6103.3123-.9068.174-.5202.3532-1.0453.5029-1.5728.1251-.4412.3971-1.1053.9708-.7803.2735.1549.3017.4649.3513.7497.0574.331.1096.662.1678.9928.075.427.15.8154.1913 1.2503.0186.1957.0843.3815.1448.567.0491.1497.0584.3284.1171.4713.0375.0912.0176.203.0432.3103.038.1593.0468.318.0982.4747.0554.1686-.0511.325.0044.4789.0468.1291.135.317.1045.4555-.029.1322.0308.2458.0253.3827-.0046.1193.083.189.0517.3217-.0276.1237.1192.146.1526.0075.0245-.1018.0284-.2086.0325-.3128.012-.3001.06-.602.1174-.8967.1556-.801.2624-1.6097.4222-2.4105.3064-1.533.7585-3.0204 1.1437-4.5292.0848-.3318.236-.642.339-.97.1215-.3872.2699-.7657.4098-1.1464.2924-.7951.578-1.5915.8816-2.3822.2073-.5402.4937-1.2768 1.1732-1.3213.5788-.0379 1.0279.6047.8565 1.1451-.0453.1427-.1507.2446-.226.3685-.0206.034-.0134.081-.0235.119-.0212.0795-.0613.0543-.115.1008-.2232.1933-.4535.4061-.6146.658-.3436.5373-.5395 1.1354-.8193 1.7107-.0809.166-.0881.3528-.1662.5236-.062.1353-.1572.2614-.196.406-.0873.3277-.25.6338-.3438.9591-.0569.1978-.0535.3976-.1536.5847-.0346.0595-.0026.1302-.026.1925-.0412.0385-.0632.1094-.079.1614-.0933.3102-.2125.6238-.2321.95-.0116.192-.043.2686-.1435.4214-.074.1122-.0794.2668-.1347.3892-.1453.3225-.2376.673-.3343 1.0129-.049.1722-.0698.3575-.1018.5334-.0277.1518-.0835.2913-.0846.4475-.0013.1631-.0468.2395-.1026.3843-.0502.1304-.0041.272-.039.404.0147-.0184.0211-.0169-.0163.0582-.0696.06-.0212.1382-.0442.2125zm2.3286-.8673c.0576.1549-.069.4007-.066.561.0034.176-.0403.3736-.0587.5506-.0227.2203-.0592.4313-.0892.653-.0281.2089-.0392.4183-.064.6272-.0233.1949-.0065.4103-.0546.5992-.0318.1247-.0789.2627-.0755.3926.0015.065.0408-.0029.0729.014.0416.0221-.0494.1835-.0786.0744-.0227.02-.01.0724-.0396.0847-.0633.0262-.0778.0117-.1367.0784-.0887.1003-.2797.2082-.4023.2617-.4157.1819-.407-.3703-.4167-.6039-.022-.5256.0972-1.083.082-1.5967-.0042-.135.0294-.276.0472-.4097.017-.1258-.002-.2287-.002-.3464.0002-.2653.0279-.6363.1328-.8743.1422-.3308.3465-.6195.704-.7291.1177-.0364.2826-.0406.3547.0808.035.0587.0373.3281.1257.3266.0008.0083-.0039.012-.0098.013-.021.0127-.074.013-.0781.0592-.0057.0686.0297.1227.0525.1837zm-.2798-2.0439c-.0618.0089-.2885.0304-.2952-.0717-.0039-.0597-.0804-.119-.0856-.205-.0057-.093.0233-.1863.0571-.272.0923-.2329.2356-.3012.4116-.453.1065-.0917.3796-.271.5264-.1704.0801.0551.2125.2871.1554.3867-.0047.008.044-.0762 0 0-.0466.0797-.052.1946-.0962.267-.075.1227-.1763.1926-.2852.2783-.1147.0905-.2391.2186-.3883.2401zm15.4212-.3398c-.2921.19-.6336.3016-.9633.4058-.7352.232-1.4012.5335-2.082.8965-.6824.3637-1.3828.6943-2.0457 1.0941-.6117.369-1.2208.7356-1.841 1.0908-.2663.1526-.4886.355-.7578.5041-.1566.0868-.3125.1907-.4493.3095-.113.098-.2851.199-.3805.3082-.1795.2052.0062.4955-.0978.7103-.0328.0676-.0038.0458.021.0902.0269.0486-.0207.119-.0344.1624-.0383.1219-.0088.3682-.0047.5002.0037.117.0225.2297.0176.3474-.0046.1174-.0675.2481-.0103.362.0196.1538-.045.3047-.0375.4588.0077.1614.0201.3131.0178.476-.001.0783.0052.158.0367.2308-.026.029-.0718.0522-.0876.0899-.0445.107.0628.1091.069.1751-.0147.0229-.0377.032-.0685.0276.043.0758.0887.1691.0432.2468-.0334.0566-.0714.1133-.02.1751-.0222.0593.0916.1063.0657.1611-.0193.0416-.0579.0764-.0744.1185-.0313.079.0959.0982.0196.1681-.0517.0476-.0038.085.0305.1224.0636.0691-.0281.0764-.0188.1572.0183.16.1212.303.1189.467-.0023.1613-.1277.29.0225.3936.0786.054.1652.4789-.0109.4248.0825.0252-.0062.1346.0024.1879.0144.0907.1866.0704.1926.1923.0028.059-.0528.0948-.1.113.0188.055.0361.1107.0625.1627.0349.0696.108.164.0584.2562-.0163.03-.0514.0402-.0419.0826.024.1042-.0183.0574-.0615.1624-.0584.1426-.2043.2453-.3433.2985-.3217.1237-.6792-.0283-.8395-.3266-.1642-.305-.113-.689-.101-1.0217.0152-.4339.046-.867.0493-1.3012.0054-.6902.047-1.3925.0163-2.0842a43.3055 43.3055 0 01-.0026-1.2017 31.151 31.151 0 01.0132-.6018c.002-.067.0605-.2406-.0556-.1975-.3211.1193-.6158.4314-.8749.646-.8405.696-1.677 1.3958-2.5395 2.0662-.2743.2133-.5148.4558-.757.7039-.2599.2658-.5665.4872-.8105.766-.2296.2622-.4659.5106-.7043.7644-.2526.2692-.4868.594-.7769.823-.1137.0841-.2228.1784-.318.2834-.0876.0964-.3055.1162-.4335.0959-.2875-.0455-.5528-.3147-.5256-.6182.0256-.285.2637-.5131.4522-.7049.2784-.2835.555-.5667.849-.834 1.1336-1.0316 2.3128-2.0143 3.506-2.9744.6106-.4914 1.2626-.9253 1.8885-1.3964.3188-.2398.63-.4885.9576-.7166.1898-.1323.1608-.4157.1487-.6247-.0098-.1714-.3167.0608-.384.13-.0591.0608-.29.1244-.3702.1416-.1822.0392-.402.0935-.5879.0766-.1773-.0158-.5568-.1543-.6202-.3534-.0548-.1727-.1352-.3432-.1261-.5292.0088-.177.0281-.3534.0281-.5306 0-.156-.0504-.3072-.045-.4615.0063-.1811.0471-.3588.0546-.5405.014-.3484.0639-.7155.2159-1.0328.21-.572.5974-1.1043 1.1797-1.3296.2613-.101.5532-.0561.4873.2835-.052.2674-.2358.3994-.372.6124-.006.065-.0778.1102-.1102.1606-.0434.0678-.0718.1434-.098.219-.0462.1352-.1176.2466-.144.3877-.0214.1156-.0855.2217-.0972.3383-.015.1526.0104.3022-.006.4597-.0314.3079-.193.9042.0911 1.1375.1768.1453.4625.0346.6063-.1031.1882-.1806.2944-.4573.3068-.7159.0228-.4362.1461-.8616.1497-1.2991.0036-.4368.055-.8736.0781-1.3094.0191-.358.128-.6852.5062-.7867.37-.0993.5923.1499.5887.5001-.0065.6078-.1014 1.2072-.1386 1.8166-.0525.8543-.1367 1.6853-.132 2.5448.0723.0621.7295-.437.8068-.4888.4348-.29.8762-.5695 1.3213-.8434.6795-.317 1.2883-.7634 1.9571-1.1004.3359-.1728.6562-.3736.984-.561.0933-.0532.7208-.331.5261-.4474-.2575-.1541-.222-.5543-.1998-.8047.0297-.3331.0098-.6652.0158-.9973.0054-.309.3115-1.3644-.3294-1.1895-.1342.0366-.2275.1221-.3273.2151-.0915.0855-.1184.2354-.2684.2531-.0432.0928.0173.0819-.084.176.0287.081-.0644.2642-.0838.3504-.0132.0588.0228.1081-.0354.1398-.052.0284-.0514.0486-.008.098.0773.088-.0832.067-.0587.1486.0416.1382.0166.16-.0364.2827-.0484.1117.0558.186.0633.2931-.0003-.0041-.0905-.0156-.0905-.0161-.0214.137-.0646.3523-.0194.4859.0142.0418.0572.099.031.1458-.0212.0379-.0553.0904-.0349.1366.0238.0538.0766.0694.0453.1346-.0191.0403-.0737.0954-.0587.1458.0191.0644.0039.1234.0119.1884.0067.0538-.0698.0808-.081.1299-.026.1151-.0235.1494-.1263.2406-.0704.0624-.1347.121-.2193.1642-.169.0863-.4304.1515-.5894.0091-.2084-.1868-.1102-.6527-.0913-.8946.0326-.4191.0414-.8377.0646-1.257.0324-.5813-.0775-1.4973.5608-1.7914.2381-.1097.5202-.1245.7748-.074.2358.0979.4811-.211.611-.3638.2706-.3188 1.0744-.8507 1.3782-.2661.0581.1117.069.2409.0961.3622.0148.066.0342.131.0636.192-.0408.0307-.0858.0681-.0886.124-.0031.0603.1253.4703.069.5077-.1099.0728-.0528.1494-.063.2832-.01.1279-.0826.3628-.0047.4776.0439.065-.0006.0767-.0148.1497-.0147.0761.0476.1608.0442.241-.0057.1308.037.3615-.0294.4785-.005.087.1124.1925.0607.2486-.0553.0598.1052.1946.1448.25.144.2019.7035-.1739.8397-.2482.2834-.1543.6163-.371.9535-.3466.3402.0244.4222.1117.56.4259-.015.2752-.2725.5786-.4913.7208z" fill="#df173b"/><path d="M79.2055 13.549v1.1054h.9068V13.549zM51.659 15.707c-1.6838 0-2.5347.9296-3.1453 1.9152v-1.6925h-.9069v9.4846h.9069V19.947c0-1.9155 1.3322-3.4032 3.016-3.4032 1.6839 0 2.757 1.2088 2.757 3.18v5.6905h.9064v-5.523c0-2.1201 1.388-3.3475 2.9792-3.3475 1.7394 0 2.7939 1.1903 2.7939 3.2358v5.6347h.9069v-5.7464c-.0003-2.38-1.3882-3.961-3.627-3.961-1.7764 0-2.7938.9854-3.4044 2.0452-.5181-1.097-1.5358-2.0452-3.1827-2.0452zm15.7437 0c-2.5532 0-4.4778 2.1943-4.4778 4.9465v.037c0 2.957 2.1467 4.9466 4.6263 4.9466 1.8133 0 2.9415-.744 3.9037-1.7854l-.6286-.5577c-.7772.8369-1.7765 1.4874-3.2383 1.4874-1.8503 0-3.5342-1.3758-3.7007-3.7377h7.8267c.0186-.1489.0187-.2046.0187-.372 0-2.8078-1.6839-4.9648-4.33-4.9648zm18.8128 0c-2.7014 0-4.8111 2.306-4.8111 4.9652v.037c0 2.6593 2.0911 4.9284 4.8111 4.9284 1.7394 0 2.8862-.7812 3.8482-1.8783l-.6291-.5577c-.7955.8925-1.8313 1.5803-3.1635 1.5803-2.165 0-3.8861-1.8223-3.8861-4.1097v-.0375c0-2.2686 1.6655-4.0726 3.8118-4.0726 1.4065 0 2.3312.7256 3.1454 1.5625l.6478-.6694c-.888-.93-1.998-1.7483-3.7745-1.7483zm-43.8682.074c-1.2953 0-2.3131.335-3.3493.8186l.3332.7998c.8697-.4464 1.8134-.7627 2.9605-.7627 1.943 0 3.1085.9858 3.1085 2.9013h-3.1271c-2.4427 0-4.126 1.1154-4.126 3.0866v.0375c0 1.9714 1.8875 2.9755 3.6452 2.9755 1.7948 0 2.9603-.893 3.6079-1.8042v1.5809h.8882v-5.9139c0-1.1716-.3327-2.0456-.962-2.678-.6845-.688-1.7025-1.0414-2.9791-1.0414zm52.5983 0c-1.2953 0-2.3132.335-3.3494.8186l.3333.7998c.8697-.4464 1.8134-.7627 2.9605-.7627 1.9429 0 3.1085.9858 3.1085 2.9013h-3.1272c-2.4426 0-4.1259 1.1154-4.1259 3.0866v.0375c0 1.9714 1.887 2.9755 3.6447 2.9755 1.7947 0 2.9607-.893 3.6084-1.8042v1.5809h.8882v-5.9139c0-1.1713-.333-2.0456-.962-2.678-.6846-.688-1.7023-1.0414-2.9791-1.0414zm-17.0521.0005c-1.8687-.0745-3.441 1.153-4.1815 2.845v-2.6963h-.9068v9.484h.9068v-3.8868c0-3.0869 1.9058-4.742 4.0891-4.742h.0924zm1.3119.1487v9.484h.9068v-9.484zm-11.8395.6136c2.165 0 3.2564 1.7669 3.3861 3.6824h-6.8647c.1665-2.1013 1.6099-3.6824 3.4786-3.6824zM42.2176 20.356h3.2014v1.5062h-.0005c0 1.7295-1.6468 2.9196-3.571 2.9196-1.4432 0-2.7384-.7995-2.7384-2.1756v-.0375c0-1.3205 1.11-2.2127 3.1085-2.2127zm52.5988 0h3.2008v1.5062c0 1.7295-1.6467 2.9196-3.571 2.9196-1.443 0-2.7388-.7995-2.7388-2.1756v-.0375c0-1.3205 1.1105-2.2127 3.109-2.2127z"/></svg>