<?xml version="1.0" encoding="utf-8"?>
<!-- Generator: Adobe Illustrator 19.0.0, SVG Export Plug-In . SVG Version: 6.00 Build 0)  -->
<svg version="1.1" id="Layer_1" xmlns="http://www.w3.org/2000/svg" xmlns:xlink="http://www.w3.org/1999/xlink" x="0px" y="0px"
	 viewBox="-389 290 20 21" style="enable-background:new -389 290 20 21;" xml:space="preserve">
<style type="text/css">
	.st0{enable-background:new    ;}
	.st1{fill:#092e53;}
</style>
<g class="st0">
	<path class="st1" d="M-373.2,292.5c0.4,0,0.8,0.2,1.2,0.5c0.3,0.3,0.5,0.7,0.5,1.2v11.6c0,0.4-0.2,0.8-0.5,1.2
		c-0.3,0.3-0.7,0.5-1.2,0.5h-11.6c-0.5,0-0.9-0.2-1.2-0.5c-0.3-0.3-0.5-0.7-0.5-1.2v-11.6c0-0.4,0.2-0.8,0.5-1.2
		c0.3-0.3,0.7-0.5,1.2-0.5h0.8v-1.7h1.7v1.7h6.6v-1.7h1.7v1.7H-373.2z M-373.2,305.8v-9.1h-11.6v9.1H-373.2z M-374.8,298.3v1.7h-8.4
		v-1.7H-374.8z M-377.3,301.7v1.6h-5.9v-1.6H-377.3z"/>
</g>
</svg>
