<?xml version="1.0" encoding="utf-8"?>
<!-- Generator: Adobe Illustrator 19.0.0, SVG Export Plug-In . SVG Version: 6.00 Build 0)  -->
<svg version="1.1" id="Layer_1" xmlns="http://www.w3.org/2000/svg" xmlns:xlink="http://www.w3.org/1999/xlink" x="0px" y="0px"
	 viewBox="-389 290 20 21" style="enable-background:new -389 290 20 21;" xml:space="preserve">
<style type="text/css">
	.st0{enable-background:new    ;}
	.st1{fill:#092e53;}
</style>
<g class="st0">
	<path class="st1" d="M-371.2,297.3c0.3,0.2,0.5,0.4,0.6,0.8c0.1,0.3,0,0.7-0.1,0.9c-0.2,0.3-0.4,0.5-0.8,0.6
		c-3.2,0.9-5.9,1.6-8,2.1l-4.4,1.2l-1.3,0.4c-0.2-0.3-0.9-1.6-2.2-3.8l1.2-0.3l1.6,1.3l4.1-1.1l-3.4-6l1.6-0.4l5.7,5.4l4.5-1.2
		C-371.8,297-371.5,297.1-371.2,297.3z M-386.9,305.8h15.9v1.7h-15.9V305.8z"/>
</g>
</svg>
