<svg width="64" height="61" viewBox="0 0 64 61" fill="none" xmlns="http://www.w3.org/2000/svg">
<path d="M56.9853 11.4021C56.6828 11.0122 56.1215 10.9412 55.7315 11.2437C55.3416 11.5462 55.2707 12.1074 55.5731 12.4974C58.3184 16.0368 59.8981 20.3725 60.0812 24.8171L48.0826 21.6021C48.5836 18.4224 48.781 15.1927 48.6678 11.9888C48.6024 10.1342 48.431 8.26992 48.1591 6.42587C49.845 7.26188 51.4233 8.32127 52.8358 9.57367C53.2052 9.90107 53.7698 9.86699 54.0972 9.4979C54.4246 9.12856 54.3906 8.56384 54.0214 8.23656C51.6871 6.1671 48.9557 4.60743 46.0097 3.61321L46.8731 1.19407C47.0391 0.729301 46.7966 0.218071 46.332 0.0522276C45.8672 -0.113616 45.356 0.128596 45.1901 0.593362L44.2911 3.11234C34.1764 0.602536 23.5765 5.20158 18.4546 14.345C18.3856 14.4731 18.3211 14.6367 18.3349 14.8559L18.6516 19.5139C18.7121 20.4032 19.3311 21.1556 20.1922 21.3864L29.0162 23.7508C29.8635 23.9781 30.7874 23.6441 31.2865 22.8994L32.4336 21.1917L32.5731 23.2442C32.6336 24.1334 33.2527 24.8859 34.1137 25.1167L37.6623 26.0676L32.6653 44.7162L24.3069 44.692H24.3043C23.812 44.692 23.4123 45.0904 23.4107 45.5831C23.4093 46.0765 23.8082 46.4778 24.3018 46.4791L41.801 46.5298H41.8097C42.6846 46.5298 43.5372 46.1717 44.1498 45.5466L50.4477 39.1203C51.7473 37.7942 53.7249 37.3164 55.4864 37.9039L57.4017 38.5422L45.4594 50.5671C44.9598 51.0702 44.2666 51.3587 43.5575 51.3587H8.96809C8.87766 50.0008 9.25379 48.679 10.2311 47.7051C11.0421 46.8968 12.118 46.4522 13.2621 46.4522H13.2769L20.131 46.4772H20.1344C20.6263 46.4772 21.026 46.0793 21.0279 45.5869C21.0297 45.0934 20.6311 44.6919 20.1376 44.6901L13.2831 44.6651C11.6512 44.6589 10.1229 45.2896 8.96952 46.4393C7.5166 47.8876 7.18099 49.874 7.18099 51.8949C7.18099 52.5847 7.74214 53.1458 8.43196 53.1458H10.5809L8.73243 57.2082C8.43351 57.8652 8.42338 58.5808 8.64724 59.2127H3.89355C3.40007 59.2127 3 59.6127 3 60.1063C3 60.5999 3.40007 60.9998 3.89355 60.9998H58.8795C59.3729 60.9998 59.773 60.5999 59.773 60.1063C59.773 59.6127 59.3729 59.2127 58.8795 59.2127H50.4908C50.7147 58.5808 50.7046 57.8651 50.4056 57.2081L47.5707 50.9774L59.2787 39.1881C59.9267 38.5456 59.6446 37.3981 58.7865 37.1199L56.0514 36.2083C53.6462 35.4067 50.9457 36.0585 49.1712 37.8692L42.8733 44.2955C42.5949 44.5797 42.2074 44.7424 41.8098 44.7424H41.8059L34.5139 44.7213L39.3883 26.5298L42.9374 27.4808C43.7846 27.7084 44.7088 27.374 45.2079 26.6294L46.355 24.9218L46.4945 26.9742C46.555 27.8635 47.1741 28.616 48.0351 28.8467L56.859 31.2111C57.7063 31.4384 58.6303 31.1046 59.1294 30.3597L61.7326 26.4841C61.8095 26.3598 61.8845 26.2012 61.8844 25.9821C61.9517 20.7397 60.2124 15.5624 56.9853 11.4021ZM11.1721 59.2127C11.0441 59.2127 10.9197 59.1855 10.8022 59.1322C10.3538 58.9281 10.155 58.397 10.3592 57.9482L12.5444 53.1457H14.5091L11.9863 58.689C11.8415 59.0072 11.522 59.2127 11.1721 59.2127ZM28.7816 59.2127H13.7113L16.4724 53.1458H30.4069L28.7816 59.2127ZM30.6317 59.2127L32.257 53.1458H42.6659L45.427 59.2127H30.6317ZM48.779 57.9482C48.9831 58.3971 48.7844 58.9282 48.3341 59.1329C48.2185 59.1858 48.0951 59.2127 47.9673 59.2127C47.6173 59.2127 47.297 59.0067 47.1519 58.689L44.5745 53.0256C45.1591 52.8877 45.7139 52.6337 46.1995 52.279L48.779 57.9482ZM29.8028 21.9027C29.732 22.0083 29.6015 22.0572 29.4785 22.0243L20.6545 19.66C20.5316 19.6271 20.4432 19.5195 20.4345 19.3925L20.2026 15.9817L31.709 19.0649L29.8028 21.9027ZM32.5865 17.4498L20.5974 14.2373C24.925 7.38542 32.7095 3.59677 40.626 4.30291C39.2366 5.81873 37.9607 7.44094 36.8234 9.14572C35.0964 11.734 33.6738 14.5243 32.5865 17.4498ZM43.7244 25.6329C43.6534 25.7387 43.523 25.7876 43.3999 25.7546L34.5761 23.3902C34.4531 23.3574 34.3647 23.2498 34.356 23.1228L34.1242 19.712L45.6305 22.7951L43.7244 25.6329ZM46.3463 21.1367L34.3209 17.9146C35.3523 15.1765 36.691 12.5641 38.31 10.1377C39.6256 8.16603 41.135 6.30995 42.797 4.61053C43.958 4.83594 45.1057 5.16239 46.2143 5.58105C46.5802 7.71771 46.8058 9.89166 46.8821 12.0519C46.9888 15.0789 46.8081 18.1302 46.3463 21.1367ZM57.6458 29.3632C57.5748 29.4689 57.4444 29.5179 57.3214 29.4849L48.4975 27.1205C48.3745 27.0876 48.286 26.98 48.2774 26.853L48.0456 23.4424L59.5519 26.5255L57.6458 29.3632Z" fill="white"/>
</svg>
