<svg width="30" height="30" viewBox="0 0 30 30" fill="none" xmlns="http://www.w3.org/2000/svg">
<path d="M28.125 21.875C28.125 23.2556 27.0056 24.375 25.625 24.375H4.375C2.99437 24.375 1.875 23.2556 1.875 21.875V8.125C1.875 6.74437 2.99437 5.625 4.375 5.625H25.625C27.0056 5.625 28.125 6.74437 28.125 8.125V21.875Z" fill="#1565C0"/>
<path d="M9.49123 11.8749L7.84999 16.7699C7.84999 16.7699 7.43311 14.6993 7.39186 14.4393C6.45748 12.3074 5.07874 12.4261 5.07874 12.4261L6.70373 18.7499V18.7486H8.67936L11.4112 11.8749H9.49123ZM11.0556 18.7499H12.85L13.935 11.8749H12.1181L11.0556 18.7499ZM23.755 11.8749H21.8669L18.9231 18.7499H20.7056L21.0731 17.768H23.3206L23.5119 18.7499H25.145L23.755 11.8749ZM21.5706 16.4549L22.5475 13.8568L23.0587 16.4549H21.5706ZM16.4806 13.8786C16.4806 13.4999 16.7919 13.218 17.6844 13.218C18.2644 13.218 18.9287 13.6393 18.9287 13.6393L19.22 12.1961C19.22 12.1961 18.3712 11.8743 17.5381 11.8743C15.6512 11.8743 14.6781 12.7768 14.6781 13.9193C14.6781 15.9855 17.165 15.7024 17.165 16.7636C17.165 16.9455 17.0206 17.3661 15.985 17.3661C14.9462 17.3661 14.2606 16.9855 14.2606 16.9855L13.9512 18.3705C13.9512 18.3705 14.6156 18.7493 15.8994 18.7493C17.1862 18.7493 18.9712 17.7868 18.9712 16.4043C18.9712 14.7411 16.4806 14.6211 16.4806 13.8786Z" fill="white"/>
<path d="M7.6325 15.5906L7.02876 12.6231C7.02876 12.6231 6.75563 11.98 6.04563 11.98C5.33563 11.98 3.27063 11.98 3.27063 11.98C3.27063 11.98 6.80875 13.025 7.6325 15.5906Z" fill="#FFC107"/>
</svg>
