<svg id="Layer_1" data-name="Layer 1" xmlns="http://www.w3.org/2000/svg" viewBox="0 0 447 159.35"><defs><style>.cls-1{fill:#179ad3;}</style></defs><path class="cls-1" d="M202.19,89.78l.12-.72Z" transform="translate(-1)"/><path class="cls-1" d="M86.37,0H3.53A2.53,2.53,0,0,0,1,2.53V21.88a2.53,2.53,0,0,0,2.53,2.53h26.7a2.53,2.53,0,0,1,2.53,2.52V127.74a2.51,2.51,0,0,0,2.51,2.52H54.63a2.53,2.53,0,0,0,2.52-2.52V26.93a2.53,2.53,0,0,1,2.53-2.52H86.37a2.53,2.53,0,0,0,2.53-2.53V2.53a2.48,2.48,0,0,0-.2-1,2.39,2.39,0,0,0-.54-.82,2.81,2.81,0,0,0-.82-.55A2.7,2.7,0,0,0,86.37,0Z" transform="translate(-1)"/><path class="cls-1" d="M94.55,127.64V5.57A2.63,2.63,0,0,1,97.17,3L116.33,0A2.63,2.63,0,0,1,119,2.62v125a2.63,2.63,0,0,1-2.62,2.62H97.17a2.63,2.63,0,0,1-2.62-2.62Z" transform="translate(-1)"/><path class="cls-1" d="M326.37,127.91V33.79a2.3,2.3,0,0,1,.18-.9,2.35,2.35,0,0,1,.51-.77,2.42,2.42,0,0,1,.76-.51,2.33,2.33,0,0,1,.9-.18l19.65-2.95a2.3,2.3,0,0,1,.9.18,2.35,2.35,0,0,1,.77.51,2.42,2.42,0,0,1,.51.76,2.33,2.33,0,0,1,.18.9V127.9a2.36,2.36,0,0,1-.69,1.66,2.32,2.32,0,0,1-1.67.69H328.72a2.36,2.36,0,0,1-2.35-2.34Z" transform="translate(-1)"/><path class="cls-1" d="M350.78,16.44v-14A2.42,2.42,0,0,0,348.36,0H328.8a2.42,2.42,0,0,0-2.42,2.42v14a2.42,2.42,0,0,0,2.42,2.41h19.56A2.41,2.41,0,0,0,350.78,16.44Z" transform="translate(-1)"/><path class="cls-1" d="M211,64.57C209.4,44.11,199,34.81,188.81,31h-.11c-7.86-2.9-15.54-2.57-19-1.59a31.46,31.46,0,0,0-19.37,14.8,1.87,1.87,0,0,1-.92.9,1.91,1.91,0,0,1-1.27.14,1.94,1.94,0,0,1-1.53-1.89V31.26a2.69,2.69,0,0,0-.26-1.15,2.59,2.59,0,0,0-.74-.93,2.67,2.67,0,0,0-1.07-.52,2.61,2.61,0,0,0-1.18,0L126.26,31.4A2.66,2.66,0,0,0,124.15,34v93.85a2.57,2.57,0,0,0,2.56,2.42H144a2.55,2.55,0,0,0,1.82-.75,2.63,2.63,0,0,0,.56-.84,2.6,2.6,0,0,0,.19-1V86.51c0-.44,0-7.64.06-8.34.4-7.72,4.14-28.36,23.7-28.13,14.59.17,18.29,17,18.35,23v54.5a2.73,2.73,0,0,0,.79,1.9,2.55,2.55,0,0,0,.87.58,2.73,2.73,0,0,0,1,.2h16.9a2.78,2.78,0,0,0,1-.2,2.66,2.66,0,0,0,1.65-2.48v-63Z" transform="translate(-1)"/><path class="cls-1" d="M318.58,29.3l-.73-.2a21.33,21.33,0,0,0-10.29.3,31,31,0,0,0-17,11.32c-.19.24-.35.49-.53.72q-1,1.38-1.83,2.76a1.87,1.87,0,0,1-.92.9,1.94,1.94,0,0,1-1.28.14,2,2,0,0,1-1.09-.68,2,2,0,0,1-.43-1.21V31.26a2.69,2.69,0,0,0-.26-1.15,2.59,2.59,0,0,0-.74-.93,2.67,2.67,0,0,0-1.07-.52,2.61,2.61,0,0,0-1.18,0L264.08,31.4A2.66,2.66,0,0,0,262,34v93.85a2.57,2.57,0,0,0,2.56,2.42h17.31a2.55,2.55,0,0,0,1.82-.75,2.63,2.63,0,0,0,.56-.84,2.6,2.6,0,0,0,.19-1V86.51c0-.44,0-7.64.06-8.34.23-4.43,1.56-13.1,6.34-19.65,3.55-4.91,9-8.58,17.36-8.48a15.73,15.73,0,0,1,7.06,1.67h.1a2.73,2.73,0,0,0,3.16-2.41l.48-4.6,1.3-12.58a2.78,2.78,0,0,0-.38-1.69,2.83,2.83,0,0,0-1.31-1.13Z" transform="translate(-1)"/><path class="cls-1" d="M256.54,42.8V31a2.57,2.57,0,0,0-.75-1.79,2.54,2.54,0,0,0-1.79-.74H243.76A2.53,2.53,0,0,1,241.24,26V2.53a2.7,2.7,0,0,0-.19-1,2.81,2.81,0,0,0-.55-.82,2.56,2.56,0,0,0-.83-.55,2.43,2.43,0,0,0-1-.19L219.37,3a2.54,2.54,0,0,0-2.54,2.52V118.24c0,9.19,2.35,12,10.93,12h23.46a2.54,2.54,0,0,0,2.54-2.53l2.94-17.59a2.53,2.53,0,0,0-2.52-2.52H243.76a2.53,2.53,0,0,1-2.52-2.53V47.86a2.5,2.5,0,0,1,.74-1.79,2.53,2.53,0,0,1,1.78-.75H254a2.5,2.5,0,0,0,1.79-.74,2.53,2.53,0,0,0,.75-1.78Z" transform="translate(-1)"/><path class="cls-1" d="M377.84,159.35H358.29a3.79,3.79,0,0,1-1.19-1,3.65,3.65,0,0,1-.69-1.36V34.1a3.39,3.39,0,0,1,2.75-2.33c5.52-.94,11-2,16.52-3,2.94-.56,3.93.23,3.93,3.33V36c0,.45-.16.93.17,1.35h.13c.81-.54,1.62-1.08,2.43-1.64,10.13-6.88,21.15-8.5,32.85-5.23,7.87,2.21,14.18,7,19.44,13.22a54.08,54.08,0,0,1,12.53,25.66c.36,2,.57,3.87.84,5.79v7.78a1.86,1.86,0,0,0-.21,1.14,59.41,59.41,0,0,1-3.1,16.21c-4.22,12-11.79,21.14-23.48,26.53A35.41,35.41,0,0,1,402.29,130a36.9,36.9,0,0,1-17.77-7.47,11.08,11.08,0,0,1-2.8-3,7.41,7.41,0,0,1,.17-8.68,7.12,7.12,0,0,1,8.43-2.29c2,.69,3.75,1.77,5.66,2.59,7.18,3.12,13.19,2.24,18.32-3.52a32.48,32.48,0,0,0,5.9-9.3c5.2-12.83,4.61-25.54-1.13-38-2.95-6.49-8-10.89-14.47-13.86a12.59,12.59,0,0,0-8.48-.76c-5.51,1.32-9.43,4.79-12.4,9.43s-3.93,9.78-3.93,15.14v37.67c0,16,.15,31.93-.08,47.9C379.58,157.2,379.29,158.53,377.84,159.35Z" transform="translate(-1)"/></svg>