<svg width="38" height="25" viewBox="0 0 38 25" fill="none" xmlns="http://www.w3.org/2000/svg">
<path d="M23.8866 4.35571H13.9154V20.6417H23.8866V4.35571Z" fill="#FF5F00"/>
<path d="M14.9425 12.4998C14.9413 10.9316 15.2968 9.38371 15.9821 7.97319C16.6674 6.56267 17.6646 5.32652 18.8982 4.35829C17.3703 3.15755 15.5355 2.41087 13.6033 2.20361C11.6712 1.99635 9.71968 2.33686 7.9719 3.18623C6.22411 4.03559 4.75055 5.35955 3.71961 7.00677C2.68868 8.65399 2.14197 10.558 2.14197 12.5013C2.14197 14.4445 2.68868 16.3485 3.71961 17.9958C4.75055 19.643 6.22411 20.9669 7.9719 21.8163C9.71968 22.6657 11.6712 23.0062 13.6033 22.7989C15.5355 22.5917 17.3703 21.845 18.8982 20.6443C17.6642 19.6757 16.6668 18.4391 15.9815 17.0281C15.2961 15.617 14.9408 14.0685 14.9425 12.4998Z" fill="#EB001B"/>
<path d="M34.6663 18.9181V18.5844H34.8101V18.5154H34.4678V18.5844H34.603V18.9181H34.6663ZM35.3308 18.9181V18.5154H35.2273L35.1064 18.8031L34.9856 18.5154H34.882V18.9181H34.9568V18.6132L35.069 18.875H35.1467L35.2589 18.6132V18.9181H35.3308Z" fill="#F79E1B"/>
<path d="M35.656 12.5005C35.6559 14.4439 35.1091 16.348 34.078 17.9953C33.0468 19.6426 31.5731 20.9665 29.8251 21.8158C28.077 22.665 26.1254 23.0053 24.1931 22.7977C22.2608 22.5902 20.426 21.8431 18.8982 20.642C20.1313 19.6729 21.1282 18.4364 21.8137 17.0258C22.4992 15.6153 22.8554 14.0674 22.8554 12.499C22.8554 10.9307 22.4992 9.38284 21.8137 7.97225C21.1282 6.56165 20.1313 5.32516 18.8982 4.35607C20.426 3.15495 22.2608 2.40792 24.1931 2.20036C26.1254 1.9928 28.077 2.33309 29.8251 3.18233C31.5731 4.03158 33.0468 5.35551 34.078 7.00279C35.1091 8.65007 35.6559 10.5542 35.656 12.4976V12.5005Z" fill="#F79E1B"/>
</svg>
