<?xml version="1.0" encoding="utf-8"?>
<!-- Generator: Adobe Illustrator 25.2.0, SVG Export Plug-In . SVG Version: 6.00 Build 0)  -->
<svg version="1.1" id="Layer_1" xmlns="http://www.w3.org/2000/svg" xmlns:xlink="http://www.w3.org/1999/xlink" x="0px" y="0px"
	 viewBox="0 0 50 51" style="enable-background:new 0 0 50 51;" xml:space="preserve">
<style type="text/css">
	.st0{fill:#1B9AD4;}
</style>
<path class="st0" d="M24.9,5.3c8-0.1,15.2,5.2,17.4,12.6c1.9,6.4,0.6,12.1-3.8,17.2c-2.9,3.3-6.5,5.1-10.8,5.8
	c-2.4,0.4-4.9,0.2-7.2-0.4c-0.1,0-0.3,0-0.4,0c-0.1,0-0.3,0.1-0.4,0.2c-1.5,1.3-3.1,2.5-4.7,3.8c-0.1,0.1-0.2,0.1-0.3,0.2
	c-0.1,0-0.3,0-0.4-0.1C14,44.6,14,44.3,14,44.1c-0.1-2.1-0.1-4.3-0.1-6.4c0-0.5,0.2-0.7,0.5-0.7c0.4,0,0.6,0.3,0.6,0.7
	c0,1.6,0,3.1,0,4.7c0,0.2-0.1,0.4,0.1,0.5c0.2,0.1,0.3-0.1,0.4-0.2c1.1-0.8,2.1-1.7,3.1-2.6c0.8-0.7,1.6-0.9,2.7-0.7
	c5.4,1.1,10.3-0.1,14.6-3.7c3-2.6,4.9-5.9,5.5-9.8c0.8-4.8-0.4-9.2-3.5-13c-2.6-3.2-6-5.2-10.1-5.8c-5-0.8-9.6,0.4-13.5,3.7
	c-3,2.5-4.9,5.6-5.6,9.5c-0.9,5.1,0.3,9.7,3.6,13.7c0.4,0.5,0.4,0.9,0,1.3c-0.3,0.2-0.6,0.3-0.8-0.1c-1.2-1.4-2.2-3-3-4.7
	c-1.3-3-1.7-6.3-1.3-9.6c0.5-3.2,1.8-6.3,3.9-8.8c2.9-3.5,6.6-5.6,11.1-6.3c0.2,0,0.5-0.1,0.8-0.1C23.6,5.4,24.3,5.3,24.9,5.3"/>
<path class="st0" d="M24.9,5.3c8-0.1,15.2,5.2,17.4,12.6c1.9,6.4,0.6,12.1-3.8,17.2c-2.9,3.3-6.5,5.1-10.8,5.8
	c-2.4,0.4-4.9,0.2-7.2-0.4c-0.1,0-0.3,0-0.4,0c-0.1,0-0.3,0.1-0.4,0.2c-1.5,1.3-3.1,2.5-4.7,3.8c-0.1,0.1-0.2,0.1-0.3,0.2
	c-0.1,0-0.3,0-0.4-0.1C14,44.6,14,44.3,14,44.1c-0.1-2.1-0.1-4.3-0.1-6.4c0-0.5,0.2-0.7,0.5-0.7c0.4,0,0.6,0.3,0.6,0.7
	c0,1.6,0,3.1,0,4.7c0,0.2-0.1,0.4,0.1,0.5c0.2,0.1,0.3-0.1,0.4-0.2c1.1-0.8,2.1-1.7,3.1-2.6c0.8-0.7,1.6-0.9,2.7-0.7
	c5.4,1.1,10.3-0.1,14.6-3.7c3-2.6,4.9-5.9,5.5-9.8c0.8-4.8-0.4-9.2-3.5-13c-2.6-3.2-6-5.2-10.1-5.8c-5-0.8-9.6,0.4-13.5,3.7
	c-3,2.5-4.9,5.6-5.6,9.5c-0.9,5.1,0.3,9.7,3.6,13.7c0.4,0.5,0.4,0.9,0,1.3c-0.3,0.2-0.6,0.3-0.8-0.1c-1.2-1.4-2.2-3-3-4.7
	c-1.3-3-1.7-6.3-1.3-9.6c0.5-3.2,1.8-6.3,3.9-8.8c2.9-3.5,6.6-5.6,11.1-6.3c0.2,0,0.5-0.1,0.8-0.1C23.6,5.4,24.3,5.3,24.9,5.3"/>
<path class="st0" d="M34.3,22.3l-4.4,3.1c0,0-0.1,0.1-0.1,0.1C29,26,29,26,28.2,25.5c-2.8-1.8-5.5-3.6-8.3-5.4
	c-0.1,0-0.1-0.1-0.2-0.1c-0.3-0.2-0.4-0.6-0.2-0.9c0.2-0.3,0.5-0.3,0.8-0.1c1.2,0.7,2.4,1.5,3.6,2.2c1.6,1,3.2,2,4.7,3.1
	c0.2,0.2,0.3,0.1,0.5,0c2.3-1.6,4.6-3.3,6.9-4.9c0.2-0.1,0.4-0.3,0.6-0.4c0.3-0.2,0.6-0.2,0.8,0c0.3,0.2,0.2,0.5,0,0.8
	c-0.9,1.2-1.7,2.3-2.6,3.5l-5.4,7.3c-0.4,0.6-0.6,0.6-1.2,0.2c-2.1-1.4-4.2-2.7-6.3-4.1c-0.3-0.2-0.7-0.4-1-0.6c0,0-0.1-0.1-0.2-0.1
	c-0.1,0-0.1,0-0.2,0.1c-2.4,1.8-5.1,3.2-7.6,4.8c-0.3,0.2-0.5,0.2-0.8,0c-0.2-0.2-0.2-0.5-0.1-0.8c1.8-2.8,3.6-5.6,5.4-8.5
	c0.3-0.4,0.6-0.5,0.9-0.3c0.3,0.2,0.3,0.5,0.1,0.9c-1.2,1.8-2.3,3.6-3.5,5.5c-0.2,0.2-0.3,0.5-0.3,0.7c0.3-0.2,0.6-0.3,0.8-0.5
	c1.5-1,3.1-2,4.6-3c0.4-0.3,0.8-0.3,1.2,0c2.3,1.5,4.6,3,6.9,4.5c0.3,0.2,0.5,0.2,0.7-0.1c1.6-2.2,3.2-4.4,4.9-6.6
	C34.2,22.7,34.2,22.5,34.3,22.3C34.4,22.3,34.4,22.3,34.3,22.3C34.3,22.3,34.3,22.3,34.3,22.3"/>
<path class="st0" d="M34.3,22.3l-4.4,3.1c0,0-0.1,0.1-0.1,0.1C29,26,29,26,28.2,25.5c-2.8-1.8-5.5-3.6-8.3-5.4
	c-0.1,0-0.1-0.1-0.2-0.1c-0.3-0.2-0.4-0.6-0.2-0.9c0.2-0.3,0.5-0.3,0.8-0.1c1.2,0.7,2.4,1.5,3.6,2.2c1.6,1,3.2,2,4.7,3.1
	c0.2,0.2,0.3,0.1,0.5,0c2.3-1.6,4.6-3.3,6.9-4.9c0.2-0.1,0.4-0.3,0.6-0.4c0.3-0.2,0.6-0.2,0.8,0c0.3,0.2,0.2,0.5,0,0.8
	c-0.9,1.2-1.7,2.3-2.6,3.5l-5.4,7.3c-0.4,0.6-0.6,0.6-1.2,0.2c-2.1-1.4-4.2-2.7-6.3-4.1c-0.3-0.2-0.7-0.4-1-0.6c0,0-0.1-0.1-0.2-0.1
	c-0.1,0-0.1,0-0.2,0.1c-2.4,1.8-5.1,3.2-7.6,4.8c-0.3,0.2-0.5,0.2-0.8,0c-0.2-0.2-0.2-0.5-0.1-0.8c1.8-2.8,3.6-5.6,5.4-8.5
	c0.3-0.4,0.6-0.5,0.9-0.3c0.3,0.2,0.3,0.5,0.1,0.9c-1.2,1.8-2.3,3.6-3.5,5.5c-0.2,0.2-0.3,0.5-0.3,0.7c0.3-0.2,0.6-0.3,0.8-0.5
	c1.5-1,3.1-2,4.6-3c0.4-0.3,0.8-0.3,1.2,0c2.3,1.5,4.6,3,6.9,4.5c0.3,0.2,0.5,0.2,0.7-0.1c1.6-2.2,3.2-4.4,4.9-6.6
	C34.2,22.7,34.2,22.5,34.3,22.3C34.4,22.3,34.4,22.3,34.3,22.3C34.3,22.3,34.3,22.3,34.3,22.3"/>
</svg>
