<?xml version="1.0" encoding="utf-8"?>
<!-- Generator: Adobe Illustrator 25.2.0, SVG Export Plug-In . SVG Version: 6.00 Build 0)  -->
<svg version="1.1" id="Layer_1" xmlns="http://www.w3.org/2000/svg" xmlns:xlink="http://www.w3.org/1999/xlink" x="0px" y="0px"
	 viewBox="0 0 50 51" style="enable-background:new 0 0 50 51;" xml:space="preserve">
<style type="text/css">
	.st0{fill:#1B9AD4;}
</style>
<path class="st0" d="M24.9,40.5c-2.6,0.1-5.1,0-7.6-0.1c-2.2-0.1-4.4-0.3-6.5-1c-3.3-1.1-5-3.4-5.3-6.8c-0.3-3.2-0.4-6.5-0.3-9.7
	c0.1-2.1,0.1-4.3,0.5-6.4c0.5-2.8,2.2-4.6,4.8-5.5c1.7-0.6,3.4-0.8,5.2-1c4.2-0.3,8.4-0.4,12.6-0.3c2.9,0.1,5.8,0.1,8.7,0.6
	c1.9,0.3,3.8,1,5.2,2.4c1.3,1.2,1.9,2.8,2.1,4.5c0.4,3.3,0.5,6.7,0.4,10.1c-0.1,2.3-0.2,4.6-0.6,6.8c-0.3,1.5-1,2.7-2.1,3.7
	c-0.4,0.4-0.9,0.5-1.4,0.3c-0.2-0.1-0.4-0.2-0.5-0.4C40,37.4,40,37.1,40,36.9c0-0.1,0-0.2,0-0.3c0-0.1,0.1-0.2,0.2-0.2
	c1.5-1.2,2-2.9,2.2-4.7c0.4-3,0.5-6.1,0.3-9.1c-0.1-1.7-0.1-3.5-0.4-5.1c-0.6-2.9-2.6-4.5-5.3-5.2c-1.6-0.4-3.2-0.5-4.8-0.6
	c-3-0.1-5.9-0.3-8.9-0.2c-2.8,0.1-5.6,0.1-8.4,0.4c-1.6,0.2-3.2,0.5-4.6,1.4c-1.8,1.1-2.8,2.8-3,4.8C6.9,21.5,6.9,24.9,7,28.3
	c0,1.5,0.1,3.1,0.4,4.6c0.5,2.4,2,3.8,4.2,4.6c1.6,0.6,3.2,0.8,4.9,0.9c3.6,0.2,7.1,0.3,10.7,0.2c2.4-0.1,4.8,0,7.1-0.3
	c0.5-0.1,1-0.1,1.5-0.2c0.5-0.1,0.8,0.1,0.9,0.6c0,0.3-0.1,0.6-0.3,0.8C36.3,39.8,36,40,35.7,40c-1,0.1-2.1,0.3-3.1,0.3
	C30,40.4,27.5,40.5,24.9,40.5"/>
<path class="st0" d="M24.9,40.5c-2.6,0.1-5.1,0-7.6-0.1c-2.2-0.1-4.4-0.3-6.5-1c-3.3-1.1-5-3.4-5.3-6.8c-0.3-3.2-0.4-6.5-0.3-9.7
	c0.1-2.1,0.1-4.3,0.5-6.4c0.5-2.8,2.2-4.6,4.8-5.5c1.7-0.6,3.4-0.8,5.2-1c4.2-0.3,8.4-0.4,12.6-0.3c2.9,0.1,5.8,0.1,8.7,0.6
	c1.9,0.3,3.8,1,5.2,2.4c1.3,1.2,1.9,2.8,2.1,4.5c0.4,3.3,0.5,6.7,0.4,10.1c-0.1,2.3-0.2,4.6-0.6,6.8c-0.3,1.5-1,2.7-2.1,3.7
	c-0.4,0.4-0.9,0.5-1.4,0.3c-0.2-0.1-0.4-0.2-0.5-0.4C40,37.4,40,37.1,40,36.9c0-0.1,0-0.2,0-0.3c0-0.1,0.1-0.2,0.2-0.2
	c1.5-1.2,2-2.9,2.2-4.7c0.4-3,0.5-6.1,0.3-9.1c-0.1-1.7-0.1-3.5-0.4-5.1c-0.6-2.9-2.6-4.5-5.3-5.2c-1.6-0.4-3.2-0.5-4.8-0.6
	c-3-0.1-5.9-0.3-8.9-0.2c-2.8,0.1-5.6,0.1-8.4,0.4c-1.6,0.2-3.2,0.5-4.6,1.4c-1.8,1.1-2.8,2.8-3,4.8C6.9,21.5,6.9,24.9,7,28.3
	c0,1.5,0.1,3.1,0.4,4.6c0.5,2.4,2,3.8,4.2,4.6c1.6,0.6,3.2,0.8,4.9,0.9c3.6,0.2,7.1,0.3,10.7,0.2c2.4-0.1,4.8,0,7.1-0.3
	c0.5-0.1,1-0.1,1.5-0.2c0.5-0.1,0.8,0.1,0.9,0.6c0,0.3-0.1,0.6-0.3,0.8C36.3,39.8,36,40,35.7,40c-1,0.1-2.1,0.3-3.1,0.3
	C30,40.4,27.5,40.5,24.9,40.5"/>
<path class="st0" d="M30.4,25.8l-11.4-7.3v0.7c0,3.8,0,7.7,0,11.5c0,0.8-0.3,1.1-0.9,1c-0.4,0-0.7-0.3-0.7-0.7c0-0.1,0-0.2,0-0.4
	c0-4.4,0-8.9,0-13.3c0-0.4,0-0.8,0.4-1.1c0.4-0.2,0.8,0,1.2,0.2c4.4,2.8,8.8,5.6,13.2,8.4c0.9,0.6,1,1.2,0,1.8
	c-3.5,2.3-6.9,4.7-10.3,7c-0.6,0.4-1,0.4-1.3-0.1c-0.3-0.5-0.2-0.9,0.4-1.3c3-2,6-4.1,9-6.1C30,26,30.2,25.9,30.4,25.8"/>
<path class="st0" d="M30.4,25.8l-11.4-7.3v0.7c0,3.8,0,7.7,0,11.5c0,0.8-0.3,1.1-0.9,1c-0.4,0-0.7-0.3-0.7-0.7c0-0.1,0-0.2,0-0.4
	c0-4.4,0-8.9,0-13.3c0-0.4,0-0.8,0.4-1.1c0.4-0.2,0.8,0,1.2,0.2c4.4,2.8,8.8,5.6,13.2,8.4c0.9,0.6,1,1.2,0,1.8
	c-3.5,2.3-6.9,4.7-10.3,7c-0.6,0.4-1,0.4-1.3-0.1c-0.3-0.5-0.2-0.9,0.4-1.3c3-2,6-4.1,9-6.1C30,26,30.2,25.9,30.4,25.8"/>
</svg>
