<?xml version="1.0" encoding="utf-8"?>
<!-- Generator: Adobe Illustrator 25.2.0, SVG Export Plug-In . SVG Version: 6.00 Build 0)  -->
<svg version="1.1" id="Layer_1" xmlns="http://www.w3.org/2000/svg" xmlns:xlink="http://www.w3.org/1999/xlink" x="0px" y="0px"
	 viewBox="0 0 50 51" style="enable-background:new 0 0 50 51;" xml:space="preserve">
<style type="text/css">
	.st0{fill:#1B9AD4;}
</style>
<path class="st0" d="M31.5,24.4c-0.9-0.8-2-1.2-3.2-1.5c-1.6-0.4-3.2-0.7-4.7-1.1c-0.5-0.2-1-0.5-1-1.1c0-0.6,0.4-0.9,0.9-1.1
	c1.3-0.5,3.2-0.2,4.1,0.8c0.3,0.3,0.6,0.6,0.9,0.9c0.8,0.7,1.9,0.8,2.9,0.3c0.8-0.4,1.2-1.2,1-2.3c-0.1-0.8-0.6-1.5-1.3-2.1
	c-2.8-2.4-8-2.7-11.2-0.9c-3.2,1.9-3.5,7.1-0.4,9c1.2,0.7,2.5,1,3.9,1.4c1.2,0.3,2.5,0.5,3.7,1c1,0.4,1.2,1.3,0.4,2.1
	c-0.3,0.3-0.6,0.5-1,0.6c-1.7,0.5-3.4,0.2-4.5-1.4c-0.3-0.5-0.7-0.9-1.2-1.2c-0.4-0.2-0.8-0.4-1.2-0.4c-0.4,0-0.9,0.1-1.2,0.3
	c-0.8,0.4-1.2,1.1-1.1,2c0.1,1.3,0.8,2.3,1.8,3.1c0.6,0.5,1.3,0.8,2,1.1c0,0,0,0,0,0c0,0,0,0,0,0l0,0v0c0.1,0,0.3,0,0.4-0.1
	c0.1-0.1,0.2-0.2,0.2-0.3c0-0.1,0-0.3,0-0.4c-0.1-0.1-0.2-0.2-0.3-0.3c0,0,0,0,0,0c-0.3-0.1-0.6-0.2-0.8-0.4c-0.9-0.5-1.7-1.2-2-2.2
	c-0.3-0.7-0.1-1.3,0.4-1.6c0.6-0.3,1.2-0.2,1.7,0.4c0.4,0.5,0.7,1,1.2,1.5c1.6,1.5,4.5,1.7,6.2,0.3c0.8-0.6,1.2-1.4,1-2.4
	c-0.1-0.9-0.8-1.4-1.6-1.7c-1.8-0.6-3.6-0.9-5.4-1.4c-1.1-0.3-2.2-0.8-2.9-1.8c-1.4-1.9-0.7-5,1.4-6.2c2.7-1.5,7.1-1.2,9.6,0.7
	c0.4,0.3,0.7,0.7,0.9,1.1c0.3,0.6,0.2,1.1-0.2,1.4c-0.5,0.3-1.2,0.3-1.6,0c-0.4-0.3-0.7-0.7-1-1c-1.3-1.3-3.8-1.7-5.4-0.9
	c-0.9,0.4-1.5,1.1-1.4,2.2c0,1,0.7,1.7,1.6,2c1.5,0.6,3.1,0.8,4.6,1.2c1.3,0.3,2.5,0.7,3.4,1.7c1.7,1.8,1.5,5.8-1.9,7.2
	c-1.1,0.5-2.4,0.7-3.6,0.7c-0.4,0-0.8,0-1.2,0c-0.1,0-0.3,0-0.4,0.1c-0.1,0.1-0.2,0.2-0.3,0.3c0,0.1,0,0.3,0,0.4
	c0.1,0.1,0.2,0.2,0.3,0.3c0,0,0.1,0,0.1,0v0h0.1h0c0.2,0,0.4,0,0.6,0c2.1,0,3.8-0.2,5.4-1.1C33.8,31.7,34.4,27,31.5,24.4"/>
<path class="st0" d="M31.5,24.4c-0.9-0.8-2-1.2-3.2-1.5c-1.6-0.4-3.2-0.7-4.7-1.1c-0.5-0.2-1-0.5-1-1.1c0-0.6,0.4-0.9,0.9-1.1
	c1.3-0.5,3.2-0.2,4.1,0.8c0.3,0.3,0.6,0.6,0.9,0.9c0.8,0.7,1.9,0.8,2.9,0.3c0.8-0.4,1.2-1.2,1-2.3c-0.1-0.8-0.6-1.5-1.3-2.1
	c-2.8-2.4-8-2.7-11.2-0.9c-3.2,1.9-3.5,7.1-0.4,9c1.2,0.7,2.5,1,3.9,1.4c1.2,0.3,2.5,0.5,3.7,1c1,0.4,1.2,1.3,0.4,2.1
	c-0.3,0.3-0.6,0.5-1,0.6c-1.7,0.5-3.4,0.2-4.5-1.4c-0.3-0.5-0.7-0.9-1.2-1.2c-0.4-0.2-0.8-0.4-1.2-0.4c-0.4,0-0.9,0.1-1.2,0.3
	c-0.8,0.4-1.2,1.1-1.1,2c0.1,1.3,0.8,2.3,1.8,3.1c0.6,0.5,1.3,0.8,2,1.1c0,0,0,0,0,0c0,0,0,0,0,0l0,0v0c0.1,0,0.3,0,0.4-0.1
	c0.1-0.1,0.2-0.2,0.2-0.3c0-0.1,0-0.3,0-0.4c-0.1-0.1-0.2-0.2-0.3-0.3c0,0,0,0,0,0c-0.3-0.1-0.6-0.2-0.8-0.4c-0.9-0.5-1.7-1.2-2-2.2
	c-0.3-0.7-0.1-1.3,0.4-1.6c0.6-0.3,1.2-0.2,1.7,0.4c0.4,0.5,0.7,1,1.2,1.5c1.6,1.5,4.5,1.7,6.2,0.3c0.8-0.6,1.2-1.4,1-2.4
	c-0.1-0.9-0.8-1.4-1.6-1.7c-1.8-0.6-3.6-0.9-5.4-1.4c-1.1-0.3-2.2-0.8-2.9-1.8c-1.4-1.9-0.7-5,1.4-6.2c2.7-1.5,7.1-1.2,9.6,0.7
	c0.4,0.3,0.7,0.7,0.9,1.1c0.3,0.6,0.2,1.1-0.2,1.4c-0.5,0.3-1.2,0.3-1.6,0c-0.4-0.3-0.7-0.7-1-1c-1.3-1.3-3.8-1.7-5.4-0.9
	c-0.9,0.4-1.5,1.1-1.4,2.2c0,1,0.7,1.7,1.6,2c1.5,0.6,3.1,0.8,4.6,1.2c1.3,0.3,2.5,0.7,3.4,1.7c1.7,1.8,1.5,5.8-1.9,7.2
	c-1.1,0.5-2.4,0.7-3.6,0.7c-0.4,0-0.8,0-1.2,0c-0.1,0-0.3,0-0.4,0.1c-0.1,0.1-0.2,0.2-0.3,0.3c0,0.1,0,0.3,0,0.4
	c0.1,0.1,0.2,0.2,0.3,0.3c0,0,0.1,0,0.1,0v0h0.1h0c0.2,0,0.4,0,0.6,0c2.1,0,3.8-0.2,5.4-1.1C33.8,31.7,34.4,27,31.5,24.4"/>
<path class="st0" d="M43.4,28.8c-0.1-0.2-0.2-0.5-0.2-0.7c0.3-2,0.3-4,0-5.9C42.2,15.7,38.8,10.9,32.8,8c-2.6-1.3-5.4-1.9-8.4-1.8
	c-1.9,0.1-3.7,0-5.5-0.7c-1.7-0.6-3.4-0.6-5.2-0.2c-6.1,1.4-9.6,6.8-8.3,12.9c0.4,1.9,0.9,3.9,0.7,5.6c0,1.6-0.1,3,0.2,4.3
	c0.8,4.5,2.9,8.2,6.3,11.1c3.6,3,7.7,4.6,12.3,4.4h0h0h0c0.4,0,0.7-0.4,0.7-0.8c0-0.5-0.3-0.8-0.7-0.8c0,0,0,0-0.1,0
	c-3.1,0.3-5.9-0.6-8.6-2.2c-4.7-2.7-7.5-6.8-8.4-12.1c-0.1-0.4-0.1-0.7-0.1-1.1c0-0.6,0-1.1,0-1.7c-0.1-1,0-2.1,0.2-3.1
	c0.1-0.7-0.1-1.4-0.4-2c-1-2.3-1.1-4.6-0.3-7c1.7-4.6,7-7.2,11.6-5.5c1.8,0.7,3.5,0.7,5.2,0.6c3.1-0.2,6.1,0.5,8.8,2
	c5,2.8,7.8,7.2,8.8,12.8c0.3,1.8,0.3,3.6-0.1,5.4c-0.1,0.5,0,1,0.2,1.4c3.1,5.4,0.6,12-5.4,13.6c-2.1,0.6-4.2,0.5-6.1-0.6l0,0
	l-1,1.5c0.3,0.1,0.5,0.2,0.8,0.3c1.7,0.8,3.6,1,5.4,0.7c2.7-0.4,4.9-1.8,6.6-3.9C45.1,37.6,45.6,32.7,43.4,28.8"/>
<path class="st0" d="M43.4,28.8c-0.1-0.2-0.2-0.5-0.2-0.7c0.3-2,0.3-4,0-5.9C42.2,15.7,38.8,10.9,32.8,8c-2.6-1.3-5.4-1.9-8.4-1.8
	c-1.9,0.1-3.7,0-5.5-0.7c-1.7-0.6-3.4-0.6-5.2-0.2c-6.1,1.4-9.6,6.8-8.3,12.9c0.4,1.9,0.9,3.9,0.7,5.6c0,1.6-0.1,3,0.2,4.3
	c0.8,4.5,2.9,8.2,6.3,11.1c3.6,3,7.7,4.6,12.3,4.4h0h0h0c0.4,0,0.7-0.4,0.7-0.8c0-0.5-0.3-0.8-0.7-0.8c0,0,0,0-0.1,0
	c-3.1,0.3-5.9-0.6-8.6-2.2c-4.7-2.7-7.5-6.8-8.4-12.1c-0.1-0.4-0.1-0.7-0.1-1.1c0-0.6,0-1.1,0-1.7c-0.1-1,0-2.1,0.2-3.1
	c0.1-0.7-0.1-1.4-0.4-2c-1-2.3-1.1-4.6-0.3-7c1.7-4.6,7-7.2,11.6-5.5c1.8,0.7,3.5,0.7,5.2,0.6c3.1-0.2,6.1,0.5,8.8,2
	c5,2.8,7.8,7.2,8.8,12.8c0.3,1.8,0.3,3.6-0.1,5.4c-0.1,0.5,0,1,0.2,1.4c3.1,5.4,0.6,12-5.4,13.6c-2.1,0.6-4.2,0.5-6.1-0.6l0,0
	l-1,1.5c0.3,0.1,0.5,0.2,0.8,0.3c1.7,0.8,3.6,1,5.4,0.7c2.7-0.4,4.9-1.8,6.6-3.9C45.1,37.6,45.6,32.7,43.4,28.8"/>
</svg>
