<?xml version="1.0" encoding="utf-8"?>
<!-- Generator: Adobe Illustrator 25.2.0, SVG Export Plug-In . SVG Version: 6.00 Build 0)  -->
<svg version="1.1" id="Layer_1" xmlns="http://www.w3.org/2000/svg" xmlns:xlink="http://www.w3.org/1999/xlink" x="0px" y="0px"
	 viewBox="0 0 50 51" style="enable-background:new 0 0 50 51;" xml:space="preserve">
<style type="text/css">
	.st0{fill:#1B9AD4;}
</style>
<path class="st0" d="M19.9,29.4c0.1-3.6,2.2-6.6,5.7-8.5c4.9-2.8,11.6-2.1,15.8,1.4c2.5,2.1,3.7,4.8,3.6,8c-0.1,3-1.5,5.5-3.8,7.5
	c-0.3,0.3-0.4,0.5-0.3,0.9c0.2,0.8,0.4,1.5,0.7,2.3c0.1,0.3,0.2,0.6-0.1,0.9c-0.3,0.2-0.6,0.2-0.9,0c-0.8-0.4-1.7-0.8-2.6-1.2
	c-1-0.4-1.9-0.2-2.9-0.1c-4.1,0.7-7.9-0.1-11.3-2.8C21.3,35.9,19.9,32.9,19.9,29.4L19.9,29.4z M40,40.1c-0.2-0.7-0.3-1.2-0.5-1.8
	c-0.2-0.5,0-0.8,0.3-1c0.4-0.3,0.8-0.7,1.2-1c1.8-1.7,2.8-3.8,2.8-6.3c0-2.8-1.2-5.2-3.5-6.9c-4.1-3.2-10.5-3.4-14.8-0.6
	c-5.2,3.4-5.8,9.8-1.3,14c3.3,3.1,7.3,3.7,11.6,2.7c0.9-0.2,1.8-0.2,2.7,0.2C38.9,39.6,39.4,39.8,40,40.1z"/>
<path class="st0" d="M19.9,29.4c0.1-3.6,2.2-6.6,5.7-8.5c4.9-2.8,11.6-2.1,15.8,1.4c2.5,2.1,3.7,4.8,3.6,8c-0.1,3-1.5,5.5-3.8,7.5
	c-0.3,0.3-0.4,0.5-0.3,0.9c0.2,0.8,0.4,1.5,0.7,2.3c0.1,0.3,0.2,0.6-0.1,0.9c-0.3,0.2-0.6,0.2-0.9,0c-0.8-0.4-1.7-0.8-2.6-1.2
	c-1-0.4-1.9-0.2-2.9-0.1c-4.1,0.7-7.9-0.1-11.3-2.8C21.3,35.9,19.9,32.9,19.9,29.4L19.9,29.4z M40,40.1c-0.2-0.7-0.3-1.2-0.5-1.8
	c-0.2-0.5,0-0.8,0.3-1c0.4-0.3,0.8-0.7,1.2-1c1.8-1.7,2.8-3.8,2.8-6.3c0-2.8-1.2-5.2-3.5-6.9c-4.1-3.2-10.5-3.4-14.8-0.6
	c-5.2,3.4-5.8,9.8-1.3,14c3.3,3.1,7.3,3.7,11.6,2.7c0.9-0.2,1.8-0.2,2.7,0.2C38.9,39.6,39.4,39.8,40,40.1z"/>
<path class="st0" d="M10.6,33.3c0.5-0.3,1-0.6,1.5-0.9c1.4-1,2.8-1.1,4.4-0.6c0.6,0.2,1.3,0.3,2,0.4c0.4,0.1,0.7,0.4,0.6,0.8
	c-0.1,0.4-0.4,0.5-0.8,0.5c-1.3-0.1-2.6-0.2-3.8-0.7c-0.1,0-0.2,0-0.3,0s-0.2,0.1-0.3,0.1c-1.2,0.8-2.5,1.5-3.8,2.2
	c-0.3,0.2-0.6,0.3-0.8,0.1c-0.3-0.2-0.3-0.5-0.2-0.9c0.2-1.1,0.4-2.2,0.7-3.3c0.1-0.3,0-0.5-0.2-0.7C7.2,28.4,5.7,26,5.2,23
	c-0.7-4.6,0.7-8.4,4.1-11.5c3.2-2.8,7-3.8,11.2-3.4c1.9,0.2,3.7,0.5,5.5,1.3c3.5,1.5,5.8,4.1,7.3,7.5c0.2,0.4,0,0.8-0.3,1
	c-0.5,0.2-0.7-0.1-0.8-0.5c-1-2.3-2.4-4.2-4.4-5.7c-1.8-1.3-3.9-1.9-6.2-2.3c-3-0.4-5.9-0.2-8.7,1.2c-3.8,1.9-6.1,4.9-6.6,9.1
	c-0.5,4,1,7.3,4.3,9.7c0.5,0.4,0.7,0.8,0.5,1.4C10.9,31.6,10.8,32.4,10.6,33.3"/>
<path class="st0" d="M10.6,33.3c0.5-0.3,1-0.6,1.5-0.9c1.4-1,2.8-1.1,4.4-0.6c0.6,0.2,1.3,0.3,2,0.4c0.4,0.1,0.7,0.4,0.6,0.8
	c-0.1,0.4-0.4,0.5-0.8,0.5c-1.3-0.1-2.6-0.2-3.8-0.7c-0.1,0-0.2,0-0.3,0s-0.2,0.1-0.3,0.1c-1.2,0.8-2.5,1.5-3.8,2.2
	c-0.3,0.2-0.6,0.3-0.8,0.1c-0.3-0.2-0.3-0.5-0.2-0.9c0.2-1.1,0.4-2.2,0.7-3.3c0.1-0.3,0-0.5-0.2-0.7C7.2,28.4,5.7,26,5.2,23
	c-0.7-4.6,0.7-8.4,4.1-11.5c3.2-2.8,7-3.8,11.2-3.4c1.9,0.2,3.7,0.5,5.5,1.3c3.5,1.5,5.8,4.1,7.3,7.5c0.2,0.4,0,0.8-0.3,1
	c-0.5,0.2-0.7-0.1-0.8-0.5c-1-2.3-2.4-4.2-4.4-5.7c-1.8-1.3-3.9-1.9-6.2-2.3c-3-0.4-5.9-0.2-8.7,1.2c-3.8,1.9-6.1,4.9-6.6,9.1
	c-0.5,4,1,7.3,4.3,9.7c0.5,0.4,0.7,0.8,0.5,1.4C10.9,31.6,10.8,32.4,10.6,33.3"/>
<path class="st0" d="M25.2,16.7c0,0.7-0.5,1.2-1.1,1.2c-0.6,0-1.2-0.5-1.2-1.2c0-0.6,0.6-1.2,1.2-1.2C24.7,15.5,25.2,16.1,25.2,16.7
	"/>
<path class="st0" d="M25.2,16.7c0,0.7-0.5,1.2-1.1,1.2c-0.6,0-1.2-0.5-1.2-1.2c0-0.6,0.6-1.2,1.2-1.2C24.7,15.5,25.2,16.1,25.2,16.7
	"/>
<path class="st0" d="M15.8,16.7c0,0.7-0.5,1.2-1.1,1.2s-1.2-0.5-1.2-1.2s0.6-1.2,1.2-1.2C15.2,15.5,15.8,16.1,15.8,16.7"/>
<path class="st0" d="M15.8,16.7c0,0.7-0.5,1.2-1.1,1.2s-1.2-0.5-1.2-1.2s0.6-1.2,1.2-1.2C15.2,15.5,15.8,16.1,15.8,16.7"/>
<path class="st0" d="M29.5,25.8c0,0.3-0.1,0.6-0.3,0.8c-0.2,0.2-0.5,0.4-0.8,0.4c-0.7,0-1.3-0.5-1.3-1.1c0-0.6,0.6-1.2,1.2-1.2
	C28.9,24.6,29.4,25.2,29.5,25.8"/>
<path class="st0" d="M29.5,25.8c0,0.3-0.1,0.6-0.3,0.8c-0.2,0.2-0.5,0.4-0.8,0.4c-0.7,0-1.3-0.5-1.3-1.1c0-0.6,0.6-1.2,1.2-1.2
	C28.9,24.6,29.4,25.2,29.5,25.8"/>
<path class="st0" d="M38.9,25.8c0,0.3-0.1,0.6-0.3,0.8c-0.2,0.2-0.5,0.4-0.8,0.4c-0.7,0-1.3-0.5-1.3-1.1c0-0.6,0.6-1.2,1.2-1.2
	C38.3,24.6,38.9,25.2,38.9,25.8z"/>
<path class="st0" d="M38.9,25.8c0,0.3-0.1,0.6-0.3,0.8c-0.2,0.2-0.5,0.4-0.8,0.4c-0.7,0-1.3-0.5-1.3-1.1c0-0.6,0.6-1.2,1.2-1.2
	C38.3,24.6,38.9,25.2,38.9,25.8z"/>
</svg>
