<?xml version="1.0" encoding="utf-8"?>
<!-- Generator: Adobe Illustrator 25.2.0, SVG Export Plug-In . SVG Version: 6.00 Build 0)  -->
<svg version="1.1" id="Layer_1" xmlns="http://www.w3.org/2000/svg" xmlns:xlink="http://www.w3.org/1999/xlink" x="0px" y="0px"
	 viewBox="0 0 50 51" style="enable-background:new 0 0 50 51;" xml:space="preserve">
<style type="text/css">
	.st0{fill:#1B9AD4;}
</style>
<path class="st0" d="M23.3,30.9c0-2.8,0.1-6.1-0.1-9.5c0-0.8,0-1.5,0.2-2.3c0.5-2.5,2-4,4.6-4.4c1.5-0.2,2.9-0.1,4.4-0.1
	c0.4,0,0.7,0.2,0.6,0.7s-0.3,0.6-0.7,0.6c-0.5,0-1.1,0-1.6-0.1c-0.8-0.1-1.7,0-2.5,0.1c-2.1,0.3-3.4,1.6-3.7,3.8
	c-0.3,2-0.1,3.9,0,5.9c0,0.4,0.3,0.3,0.5,0.3c2,0,4,0,6,0c0.8,0,1.1,0.1,1.1,0.6c0,0.5-0.3,0.6-1.1,0.6c-2,0-3.9,0-5.9,0
	c-0.5,0-0.6,0.1-0.6,0.6c0,5.2,0,10.5,0,15.7c0,1.3-0.1,1.4-1.4,1.2c-3.4-0.4-6.6-1.5-9.5-3.6c-4.9-3.6-7.8-8.4-8.3-14.5
	c-0.5-4.9,0.9-9.8,3.9-13.8c3-3.9,7.4-6.5,12.3-7.3c10.6-1.7,20.7,5.2,22.8,15.8c2.2,11-5,20.7-14.9,22.9c-0.8,0.2-1.2-0.1-1.1-0.8
	c0-0.5,0.4-0.6,0.8-0.7c1.8-0.4,3.5-1.1,5.1-2c4.8-2.9,7.8-7.2,8.6-12.7c1.5-9.8-4.9-18.9-14.6-20.8C17.4,5.1,8,12.7,6.9,23
	c-0.8,7.8,3.5,15.3,10.7,18.6c1.6,0.7,3.3,1.2,5,1.5c0.5,0.1,0.7,0,0.7-0.6C23.3,38.8,23.3,35.2,23.3,30.9"/>
<path class="st0" d="M23.3,30.9c0-2.8,0.1-6.1-0.1-9.5c0-0.8,0-1.5,0.2-2.3c0.5-2.5,2-4,4.6-4.4c1.5-0.2,2.9-0.1,4.4-0.1
	c0.4,0,0.7,0.2,0.6,0.7s-0.3,0.6-0.7,0.6c-0.5,0-1.1,0-1.6-0.1c-0.8-0.1-1.7,0-2.5,0.1c-2.1,0.3-3.4,1.6-3.7,3.8
	c-0.3,2-0.1,3.9,0,5.9c0,0.4,0.3,0.3,0.5,0.3c2,0,4,0,6,0c0.8,0,1.1,0.1,1.1,0.6c0,0.5-0.3,0.6-1.1,0.6c-2,0-3.9,0-5.9,0
	c-0.5,0-0.6,0.1-0.6,0.6c0,5.2,0,10.5,0,15.7c0,1.3-0.1,1.4-1.4,1.2c-3.4-0.4-6.6-1.5-9.5-3.6c-4.9-3.6-7.8-8.4-8.3-14.5
	c-0.5-4.9,0.9-9.8,3.9-13.8c3-3.9,7.4-6.5,12.3-7.3c10.6-1.7,20.7,5.2,22.8,15.8c2.2,11-5,20.7-14.9,22.9c-0.8,0.2-1.2-0.1-1.1-0.8
	c0-0.5,0.4-0.6,0.8-0.7c1.8-0.4,3.5-1.1,5.1-2c4.8-2.9,7.8-7.2,8.6-12.7c1.5-9.8-4.9-18.9-14.6-20.8C17.4,5.1,8,12.7,6.9,23
	c-0.8,7.8,3.5,15.3,10.7,18.6c1.6,0.7,3.3,1.2,5,1.5c0.5,0.1,0.7,0,0.7-0.6C23.3,38.8,23.3,35.2,23.3,30.9"/>
<path class="st0" d="M19.9,25.9h1.7c0.4,0,0.7,0.2,0.7,0.6c0,0.4-0.3,0.6-0.7,0.6c-1.1,0-2.3,0-3.4,0c-0.4,0-0.7-0.2-0.7-0.6
	c0-0.4,0.2-0.6,0.7-0.6L19.9,25.9"/>
</svg>
