<?xml version="1.0" encoding="utf-8"?>
<!-- Generator: Adobe Illustrator 25.2.0, SVG Export Plug-In . SVG Version: 6.00 Build 0)  -->
<svg version="1.1" id="Layer_1" xmlns="http://www.w3.org/2000/svg" xmlns:xlink="http://www.w3.org/1999/xlink" x="0px" y="0px"
	 viewBox="0 0 50 51" style="enable-background:new 0 0 50 51;" xml:space="preserve">
<style type="text/css">
	.st0{fill:#1B9AD4;}
</style>
<path class="st0" d="M42.6,12.2c-0.7,0.2-1.3,0.4-2,0.6c-0.4,0.1-0.7,0.1-1.1,0c-0.4-0.1-0.7-0.2-1-0.4c-0.4-0.3-0.8-0.5-1.2-0.9
	c-3.1-2.5-8.5-1.1-9.7,3.6c-0.4,1.5-0.4,3-0.2,4.6c0.1,0.7-0.2,1-0.8,1c-6.2-0.1-11.7-1.9-16.3-6.1c-0.4-0.4-0.9-0.8-1.4-1.2
	c-0.1,0.2-0.1,0.6-0.1,0.9c-0.4,3.8-0.3,7.5,1.3,11.1c1.9,4.2,5.1,6.9,9.6,8c0.4,0.1,0.6,0.3,0.6,0.8c-0.1,0.4-0.4,0.6-0.9,0.6
	c-1.2-0.2-2.4-0.7-3.5-1.3c-4.5-2.5-7.2-6.3-8.2-11.3c-0.7-3.5-0.5-6.9,0.1-10.4C7.8,11.4,7.8,11,8.2,11c0.2,0,0.3,0,0.5,0
	c0.2,0.1,0.3,0.2,0.4,0.3c3.1,4.2,7.5,6.5,12.5,7.5c1.2,0.3,2.5,0.4,3.8,0.5c0.4,0,0.6-0.1,0.6-0.5c-0.1-1.7,0.1-3.3,0.7-4.9
	c2.1-5.4,7.5-5.9,11-3.8c0.4,0.2,0.8,0.5,1.2,0.8c0.3,0.2,0.7,0.4,1.1,0.4c0.4,0,0.8,0,1.1-0.2c0.7-0.3,1.4-0.5,2.2-0.7
	c0.4-0.1,0.9-0.3,1.3,0.1c0.3,0.4,0.1,0.8,0,1.3c-0.3,0.8-0.8,1.6-1.3,2.2c-0.7,0.9-1.1,2-1.1,3.2c-0.2,6.7-2.5,12.6-7.4,17.4
	c-3.7,3.5-8,5.6-13.1,6.2C16,41.5,10.8,40.5,6,37.7c-0.1-0.1-0.2-0.1-0.3-0.2c-0.4-0.2-0.5-0.6-0.3-1c0.2-0.4,0.6-0.4,1-0.2
	c0.9,0.6,1.9,1.1,2.8,1.5c8.4,3.7,18.7,1.8,25-4.6c3.4-3.4,5.3-7.6,6.1-12.4c0.3-1.5,0.3-3,0.4-4.6c0-0.7,0.3-1.4,0.7-2
	C41.9,13.6,42.3,13,42.6,12.2"/>
<path class="st0" d="M42.6,12.2c-0.7,0.2-1.3,0.4-2,0.6c-0.4,0.1-0.7,0.1-1.1,0c-0.4-0.1-0.7-0.2-1-0.4c-0.4-0.3-0.8-0.5-1.2-0.9
	c-3.1-2.5-8.5-1.1-9.7,3.6c-0.4,1.5-0.4,3-0.2,4.6c0.1,0.7-0.2,1-0.8,1c-6.2-0.1-11.7-1.9-16.3-6.1c-0.4-0.4-0.9-0.8-1.4-1.2
	c-0.1,0.2-0.1,0.6-0.1,0.9c-0.4,3.8-0.3,7.5,1.3,11.1c1.9,4.2,5.1,6.9,9.6,8c0.4,0.1,0.6,0.3,0.6,0.8c-0.1,0.4-0.4,0.6-0.9,0.6
	c-1.2-0.2-2.4-0.7-3.5-1.3c-4.5-2.5-7.2-6.3-8.2-11.3c-0.7-3.5-0.5-6.9,0.1-10.4C7.8,11.4,7.8,11,8.2,11c0.2,0,0.3,0,0.5,0
	c0.2,0.1,0.3,0.2,0.4,0.3c3.1,4.2,7.5,6.5,12.5,7.5c1.2,0.3,2.5,0.4,3.8,0.5c0.4,0,0.6-0.1,0.6-0.5c-0.1-1.7,0.1-3.3,0.7-4.9
	c2.1-5.4,7.5-5.9,11-3.8c0.4,0.2,0.8,0.5,1.2,0.8c0.3,0.2,0.7,0.4,1.1,0.4c0.4,0,0.8,0,1.1-0.2c0.7-0.3,1.4-0.5,2.2-0.7
	c0.4-0.1,0.9-0.3,1.3,0.1c0.3,0.4,0.1,0.8,0,1.3c-0.3,0.8-0.8,1.6-1.3,2.2c-0.7,0.9-1.1,2-1.1,3.2c-0.2,6.7-2.5,12.6-7.4,17.4
	c-3.7,3.5-8,5.6-13.1,6.2C16,41.5,10.8,40.5,6,37.7c-0.1-0.1-0.2-0.1-0.3-0.2c-0.4-0.2-0.5-0.6-0.3-1c0.2-0.4,0.6-0.4,1-0.2
	c0.9,0.6,1.9,1.1,2.8,1.5c8.4,3.7,18.7,1.8,25-4.6c3.4-3.4,5.3-7.6,6.1-12.4c0.3-1.5,0.3-3,0.4-4.6c0-0.7,0.3-1.4,0.7-2
	C41.9,13.6,42.3,13,42.6,12.2"/>
</svg>
