<?xml version="1.0" encoding="utf-8"?>
<!-- Generator: Adobe Illustrator 25.2.0, SVG Export Plug-In . SVG Version: 6.00 Build 0)  -->
<svg version="1.1" id="Capa_1" xmlns="http://www.w3.org/2000/svg" xmlns:xlink="http://www.w3.org/1999/xlink" x="0px" y="0px"
	 viewBox="0 0 46 46" style="enable-background:new 0 0 46 46;" xml:space="preserve">
<style type="text/css">
	.st0{fill:#1B9AD4;}
</style>
<g>
	<g>
		<path class="st0" d="M10.1,6.9C7.7,6.9,6,8.6,6,10.8c0,2.3,1.7,3.9,4,3.9c1.2,0,2.3-0.4,3-1.1c0.7-0.7,1.1-1.7,1.1-2.8
			C14.1,8.5,12.5,6.9,10.1,6.9z M12,12.5c-0.5,0.5-1.1,0.7-2,0.7c-1.5,0-2.5-1-2.5-2.4c0-1.4,1-2.4,2.6-2.4c1.5,0,2.5,0.9,2.5,2.4
			C12.7,11.5,12.4,12.1,12,12.5z"/>
		<path class="st0" d="M6.8,41.2h6.8V16H6.8V41.2z M8.3,17.5h3.8v22.1H8.3V17.5z"/>
		<path class="st0" d="M31.7,16c-3.2,0-5.1,1.1-6.2,2.1L25.2,16h-7.7v25.2H25V28c0-0.6,0.2-1.8,0.4-2.1c0.9-2,2.2-2,4-2
			c2.2,0,4,2,4,4.4v12.9H41V27C41,19.4,36.2,16,31.7,16z M39.5,39.7h-4.6V28.3c0-3.2-2.5-5.9-5.5-5.9c-1.9,0-4.1,0-5.4,2.9
			c-0.3,0.6-0.5,2-0.5,2.7v11.7H19V17.5h4.8l0.3,3.1h1.2l0.2-0.4c0.5-0.8,2.1-2.7,6.1-2.7c3.8,0,7.9,3,7.9,9.4
			C39.5,27,39.5,39.7,39.5,39.7z"/>
	</g>
</g>
</svg>
