<svg xmlns="http://www.w3.org/2000/svg" width="45.125" height="45.125" viewBox="0 0 45.125 45.125">
  <path id="Icon_awesome-user-circle" data-name="Icon awesome-user-circle" d="M22.563.563A22.563,22.563,0,1,0,45.125,23.125,22.559,22.559,0,0,0,22.563.563Zm0,8.734A8.006,8.006,0,1,1,14.556,17.3,8.006,8.006,0,0,1,22.563,9.3Zm0,31.3a17.434,17.434,0,0,1-13.328-6.2,10.143,10.143,0,0,1,8.961-5.44,2.226,2.226,0,0,1,.646.1,12.046,12.046,0,0,0,3.721.628,12,12,0,0,0,3.721-.628,2.226,2.226,0,0,1,.646-.1,10.143,10.143,0,0,1,8.961,5.44A17.434,17.434,0,0,1,22.563,40.593Z" transform="translate(0 -0.563)" fill="#564848"/>
</svg>
